# MagicaVoxel @ Ephtracy

# group
o 

# material
mtllib BackPieceTop.mtl
usemtl palette

# normals
vn -1 0 0
vn 1 0 0
vn 0 0 1
vn 0 0 -1
vn 0 -1 0
vn 0 1 0

# texcoords
vt 0.974609 0.5
vt 0.978516 0.5
vt 0.982422 0.5

# verts
v 2.7 2 -2.4
v 2.7 2 -9.8
v 2.7 4.1 -2.2
v 2.7 4.1 -2.4
v 2.7 4.1 -9.8
v 2.7 4.1 -10
v 2.7 4.5 -2.2
v 2.7 4.5 -10
v 3.5 2.8 -2.3
v 3.5 2.8 -2.4
v 3.5 2.9 -2.3
v 3.5 2.9 -2.4
v 4.5 2.9 -2.4
v 4.5 2.9 -2.5
v 4.5 3.5 -2.4
v 4.5 3.5 -2.5
v 6.3 2.8 -2.3
v 6.3 2.8 -2.4
v 6.3 2.9 -2.3
v 6.3 2.9 -2.4
v 7.3 2.9 -2.4
v 7.3 2.9 -2.5
v 7.3 3.5 -2.4
v 7.3 3.5 -2.5
v 8.1 4.4 -8.1
v 8.1 4.4 -9.8
v 8.1 4.5 -8.1
v 8.1 4.5 -9.8
v 9.1 2.8 -2.3
v 9.1 2.8 -2.4
v 9.1 2.9 -2.3
v 9.1 2.9 -2.4
v 10.1 2.9 -2.4
v 10.1 2.9 -2.6
v 10.1 3.5 -2.4
v 10.1 3.5 -2.6
v 10.9 4.4 -2.4
v 10.9 4.4 -8.1
v 10.9 4.5 -2.4
v 10.9 4.5 -8.1
v 2.9 4.4 -2.4
v 2.9 4.4 -9.8
v 2.9 4.5 -2.4
v 2.9 4.5 -9.8
v 3.5 2.9 -2.4
v 3.5 2.9 -2.5
v 3.5 3.5 -2.4
v 3.5 3.5 -2.5
v 4.5 2.8 -2.3
v 4.5 2.8 -2.4
v 4.5 2.9 -2.3
v 4.5 2.9 -2.4
v 6.3 2.9 -2.4
v 6.3 2.9 -2.5
v 6.3 3.5 -2.4
v 6.3 3.5 -2.5
v 7.3 2.8 -2.3
v 7.3 2.8 -2.4
v 7.3 2.9 -2.3
v 7.3 2.9 -2.4
v 8 2 -8.1
v 8 2 -9.8
v 8 4.1 -8.1
v 8 4.1 -9.8
v 8.3 4.1 -8.3
v 8.3 4.1 -10
v 8.3 4.5 -8.3
v 8.3 4.5 -10
v 9.1 2.9 -2.4
v 9.1 2.9 -2.6
v 9.1 3.5 -2.4
v 9.1 3.5 -2.6
v 10.1 2.8 -2.3
v 10.1 2.8 -2.4
v 10.1 2.9 -2.3
v 10.1 2.9 -2.4
v 10.9 2 -2.4
v 10.9 2 -8.1
v 10.9 4.1 -2.4
v 10.9 4.1 -8.1
v 11.1 4.1 -2.2
v 11.1 4.1 -8.3
v 11.1 4.5 -2.2
v 11.1 4.5 -8.3
v 2.7 4.1 -2.2
v 2.7 4.5 -2.2
v 11.1 4.1 -2.2
v 11.1 4.5 -2.2
v 3.5 2.8 -2.3
v 3.5 2.9 -2.3
v 4.5 2.8 -2.3
v 4.5 2.9 -2.3
v 6.3 2.8 -2.3
v 6.3 2.9 -2.3
v 7.3 2.8 -2.3
v 7.3 2.9 -2.3
v 9.1 2.8 -2.3
v 9.1 2.9 -2.3
v 10.1 2.8 -2.3
v 10.1 2.9 -2.3
v 2.7 2 -2.4
v 2.7 4.1 -2.4
v 3.5 2.8 -2.4
v 3.5 2.9 -2.4
v 3.5 3.5 -2.4
v 4.5 2.8 -2.4
v 4.5 2.9 -2.4
v 4.5 3.5 -2.4
v 6.3 2.8 -2.4
v 6.3 2.9 -2.4
v 6.3 3.5 -2.4
v 7.3 2.8 -2.4
v 7.3 2.9 -2.4
v 7.3 3.5 -2.4
v 9.1 2.8 -2.4
v 9.1 2.9 -2.4
v 9.1 3.5 -2.4
v 10.1 2.8 -2.4
v 10.1 2.9 -2.4
v 10.1 3.5 -2.4
v 10.9 2 -2.4
v 10.9 4.1 -2.4
v 3.5 2.9 -2.5
v 3.5 3.5 -2.5
v 4.5 2.9 -2.5
v 4.5 3.5 -2.5
v 6.3 2.9 -2.5
v 6.3 3.5 -2.5
v 7.3 2.9 -2.5
v 7.3 3.5 -2.5
v 9.1 2.9 -2.6
v 9.1 3.5 -2.6
v 10.1 2.9 -2.6
v 10.1 3.5 -2.6
v 8.1 4.4 -8.1
v 8.1 4.5 -8.1
v 10.9 4.4 -8.1
v 10.9 4.5 -8.1
v 2.9 4.4 -9.8
v 2.9 4.5 -9.8
v 8.1 4.4 -9.8
v 8.1 4.5 -9.8
v 2.9 4.4 -2.4
v 2.9 4.5 -2.4
v 10.9 4.4 -2.4
v 10.9 4.5 -2.4
v 8 2 -8.1
v 8 4.1 -8.1
v 10.9 2 -8.1
v 10.9 4.1 -8.1
v 8.3 4.1 -8.3
v 8.3 4.5 -8.3
v 11.1 4.1 -8.3
v 11.1 4.5 -8.3
v 2.7 2 -9.8
v 2.7 4.1 -9.8
v 8 2 -9.8
v 8 4.1 -9.8
v 2.7 4.1 -10
v 2.7 4.5 -10
v 8.3 4.1 -10
v 8.3 4.5 -10
v 2.7 2 -2.4
v 10.9 2 -2.4
v 8 2 -8.1
v 10.9 2 -8.1
v 2.7 2 -9.8
v 8 2 -9.8
v 3.5 2.8 -2.3
v 4.5 2.8 -2.3
v 6.3 2.8 -2.3
v 7.3 2.8 -2.3
v 9.1 2.8 -2.3
v 10.1 2.8 -2.3
v 3.5 2.8 -2.4
v 4.5 2.8 -2.4
v 6.3 2.8 -2.4
v 7.3 2.8 -2.4
v 9.1 2.8 -2.4
v 10.1 2.8 -2.4
v 3.5 3.5 -2.4
v 4.5 3.5 -2.4
v 6.3 3.5 -2.4
v 7.3 3.5 -2.4
v 9.1 3.5 -2.4
v 10.1 3.5 -2.4
v 3.5 3.5 -2.5
v 4.5 3.5 -2.5
v 6.3 3.5 -2.5
v 7.3 3.5 -2.5
v 9.1 3.5 -2.6
v 10.1 3.5 -2.6
v 2.7 4.1 -2.2
v 11.1 4.1 -2.2
v 2.7 4.1 -2.4
v 10.9 4.1 -2.4
v 8 4.1 -8.1
v 10.9 4.1 -8.1
v 8.3 4.1 -8.3
v 11.1 4.1 -8.3
v 2.7 4.1 -9.8
v 8 4.1 -9.8
v 2.7 4.1 -10
v 8.3 4.1 -10
v 3.5 2.9 -2.3
v 4.5 2.9 -2.3
v 6.3 2.9 -2.3
v 7.3 2.9 -2.3
v 9.1 2.9 -2.3
v 10.1 2.9 -2.3
v 3.5 2.9 -2.4
v 4.5 2.9 -2.4
v 6.3 2.9 -2.4
v 7.3 2.9 -2.4
v 9.1 2.9 -2.4
v 10.1 2.9 -2.4
v 3.5 2.9 -2.5
v 4.5 2.9 -2.5
v 6.3 2.9 -2.5
v 7.3 2.9 -2.5
v 9.1 2.9 -2.6
v 10.1 2.9 -2.6
v 2.9 4.4 -2.4
v 10.9 4.4 -2.4
v 8.1 4.4 -8.1
v 10.9 4.4 -8.1
v 2.9 4.4 -9.8
v 8.1 4.4 -9.8
v 2.7 4.5 -2.2
v 11.1 4.5 -2.2
v 2.9 4.5 -2.4
v 10.9 4.5 -2.4
v 8.1 4.5 -8.1
v 10.9 4.5 -8.1
v 8.3 4.5 -8.3
v 11.1 4.5 -8.3
v 2.9 4.5 -9.8
v 8.1 4.5 -9.8
v 2.7 4.5 -10
v 8.3 4.5 -10

# faces
f 4/1/1 2/1/1 1/1/1
f 5/1/1 2/1/1 4/1/1
f 7/2/1 4/2/1 3/2/1
f 7/2/1 6/2/1 5/2/1
f 7/2/1 5/2/1 4/2/1
f 8/2/1 6/2/1 7/2/1
f 11/3/1 10/3/1 9/3/1
f 12/3/1 10/3/1 11/3/1
f 15/1/1 14/1/1 13/1/1
f 16/1/1 14/1/1 15/1/1
f 19/3/1 18/3/1 17/3/1
f 20/3/1 18/3/1 19/3/1
f 23/1/1 22/1/1 21/1/1
f 24/1/1 22/1/1 23/1/1
f 27/2/1 26/2/1 25/2/1
f 28/2/1 26/2/1 27/2/1
f 31/3/1 30/3/1 29/3/1
f 32/3/1 30/3/1 31/3/1
f 35/1/1 34/1/1 33/1/1
f 36/1/1 34/1/1 35/1/1
f 39/2/1 38/2/1 37/2/1
f 40/2/1 38/2/1 39/2/1
f 41/2/2 42/2/2 43/2/2
f 43/2/2 42/2/2 44/2/2
f 45/1/2 46/1/2 47/1/2
f 47/1/2 46/1/2 48/1/2
f 49/3/2 50/3/2 51/3/2
f 51/3/2 50/3/2 52/3/2
f 53/1/2 54/1/2 55/1/2
f 55/1/2 54/1/2 56/1/2
f 57/3/2 58/3/2 59/3/2
f 59/3/2 58/3/2 60/3/2
f 61/1/2 62/1/2 63/1/2
f 63/1/2 62/1/2 64/1/2
f 65/2/2 66/2/2 67/2/2
f 67/2/2 66/2/2 68/2/2
f 69/1/2 70/1/2 71/1/2
f 71/1/2 70/1/2 72/1/2
f 73/3/2 74/3/2 75/3/2
f 75/3/2 74/3/2 76/3/2
f 77/1/2 78/1/2 79/1/2
f 79/1/2 78/1/2 80/1/2
f 81/2/2 82/2/2 83/2/2
f 83/2/2 82/2/2 84/2/2
f 87/2/3 86/2/3 85/2/3
f 88/2/3 86/2/3 87/2/3
f 91/3/3 90/3/3 89/3/3
f 92/3/3 90/3/3 91/3/3
f 95/3/3 94/3/3 93/3/3
f 96/3/3 94/3/3 95/3/3
f 99/3/3 98/3/3 97/3/3
f 100/3/3 98/3/3 99/3/3
f 103/1/3 102/1/3 101/1/3
f 104/1/3 102/1/3 103/1/3
f 105/1/3 102/1/3 104/1/3
f 106/1/3 103/1/3 101/1/3
f 108/1/3 102/1/3 105/1/3
f 109/1/3 107/1/3 106/1/3
f 109/1/3 108/1/3 107/1/3
f 109/1/3 106/1/3 101/1/3
f 110/1/3 108/1/3 109/1/3
f 111/1/3 102/1/3 108/1/3
f 111/1/3 108/1/3 110/1/3
f 112/1/3 109/1/3 101/1/3
f 114/1/3 102/1/3 111/1/3
f 115/1/3 113/1/3 112/1/3
f 115/1/3 114/1/3 113/1/3
f 115/1/3 112/1/3 101/1/3
f 116/1/3 114/1/3 115/1/3
f 117/1/3 102/1/3 114/1/3
f 117/1/3 114/1/3 116/1/3
f 118/1/3 115/1/3 101/1/3
f 120/1/3 102/1/3 117/1/3
f 121/1/3 119/1/3 118/1/3
f 121/1/3 120/1/3 119/1/3
f 121/1/3 118/1/3 101/1/3
f 122/1/3 102/1/3 120/1/3
f 122/1/3 120/1/3 121/1/3
f 125/1/3 124/1/3 123/1/3
f 126/1/3 124/1/3 125/1/3
f 129/1/3 128/1/3 127/1/3
f 130/1/3 128/1/3 129/1/3
f 133/1/3 132/1/3 131/1/3
f 134/1/3 132/1/3 133/1/3
f 137/2/3 136/2/3 135/2/3
f 138/2/3 136/2/3 137/2/3
f 141/2/3 140/2/3 139/2/3
f 142/2/3 140/2/3 141/2/3
f 143/2/4 144/2/4 145/2/4
f 145/2/4 144/2/4 146/2/4
f 147/1/4 148/1/4 149/1/4
f 149/1/4 148/1/4 150/1/4
f 151/2/4 152/2/4 153/2/4
f 153/2/4 152/2/4 154/2/4
f 155/1/4 156/1/4 157/1/4
f 157/1/4 156/1/4 158/1/4
f 159/2/4 160/2/4 161/2/4
f 161/2/4 160/2/4 162/2/4
f 165/1/5 164/1/5 163/1/5
f 166/1/5 164/1/5 165/1/5
f 167/1/5 165/1/5 163/1/5
f 168/1/5 165/1/5 167/1/5
f 175/3/5 170/3/5 169/3/5
f 176/3/5 170/3/5 175/3/5
f 177/3/5 172/3/5 171/3/5
f 178/3/5 172/3/5 177/3/5
f 179/3/5 174/3/5 173/3/5
f 180/3/5 174/3/5 179/3/5
f 187/1/5 182/1/5 181/1/5
f 188/1/5 182/1/5 187/1/5
f 189/1/5 184/1/5 183/1/5
f 190/1/5 184/1/5 189/1/5
f 191/1/5 186/1/5 185/1/5
f 192/1/5 186/1/5 191/1/5
f 195/2/5 194/2/5 193/2/5
f 196/2/5 194/2/5 195/2/5
f 198/2/5 194/2/5 196/2/5
f 199/2/5 198/2/5 197/2/5
f 200/2/5 194/2/5 198/2/5
f 200/2/5 198/2/5 199/2/5
f 202/2/5 199/2/5 197/2/5
f 203/2/5 202/2/5 201/2/5
f 204/2/5 199/2/5 202/2/5
f 204/2/5 202/2/5 203/2/5
f 205/3/6 206/3/6 211/3/6
f 211/3/6 206/3/6 212/3/6
f 207/3/6 208/3/6 213/3/6
f 213/3/6 208/3/6 214/3/6
f 209/3/6 210/3/6 215/3/6
f 215/3/6 210/3/6 216/3/6
f 211/3/6 212/3/6 217/3/6
f 217/3/6 212/3/6 218/3/6
f 213/3/6 214/3/6 219/3/6
f 219/3/6 214/3/6 220/3/6
f 215/3/6 216/3/6 221/3/6
f 221/3/6 216/3/6 222/3/6
f 223/2/6 224/2/6 225/2/6
f 225/2/6 224/2/6 226/2/6
f 223/2/6 225/2/6 227/2/6
f 227/2/6 225/2/6 228/2/6
f 229/2/6 230/2/6 231/2/6
f 231/2/6 230/2/6 232/2/6
f 232/2/6 230/2/6 234/2/6
f 233/2/6 234/2/6 235/2/6
f 234/2/6 230/2/6 236/2/6
f 235/2/6 234/2/6 236/2/6
f 229/2/6 231/2/6 237/2/6
f 233/2/6 235/2/6 238/2/6
f 229/2/6 237/2/6 239/2/6
f 237/2/6 238/2/6 239/2/6
f 238/2/6 235/2/6 240/2/6
f 239/2/6 238/2/6 240/2/6
