# MagicaVoxel @ Ephtracy

# group
o 

# material
mtllib BackPieceBottom.mtl
usemtl palette

# normals
vn -1 0 0
vn 1 0 0
vn 0 0 1
vn 0 0 -1
vn 0 -1 0
vn 0 1 0

# texcoords
vt 0.974609 0.5
vt 0.982422 0.5

# verts
v 2.7 2 -2.4
v 2.7 2 -9.8
v 2.7 5.6 -2.4
v 2.7 5.6 -9.8
v 8 2 -8.1
v 8 2 -9.8
v 8 5.6 -8.1
v 8 5.6 -9.8
v 10.7 2.7 -5.4
v 10.7 2.7 -6
v 10.7 2.7 -7.1
v 10.7 2.7 -7.7
v 10.7 4.9 -5.4
v 10.7 4.9 -6
v 10.7 4.9 -7.1
v 10.7 4.9 -7.7
v 10.8 2.7 -2.9
v 10.8 2.7 -4.8
v 10.8 3.2 -2.9
v 10.8 3.2 -4.8
v 10.9 2 -2.4
v 10.9 2 -8.1
v 10.9 2.6 -2.9
v 10.9 2.6 -4.8
v 10.9 2.6 -5.4
v 10.9 2.6 -6
v 10.9 2.6 -7.1
v 10.9 2.6 -7.7
v 10.9 2.7 -2.9
v 10.9 2.7 -4.8
v 10.9 2.7 -5.4
v 10.9 2.7 -6
v 10.9 2.7 -7.1
v 10.9 2.7 -7.7
v 10.9 3.2 -2.9
v 10.9 3.2 -4.8
v 10.9 4.9 -5.4
v 10.9 4.9 -6
v 10.9 4.9 -7.1
v 10.9 4.9 -7.7
v 10.9 5.6 -2.4
v 10.9 5.6 -8.1
v 11 2.6 -2.9
v 11 2.6 -4.8
v 11 2.6 -5.4
v 11 2.6 -6
v 11 2.6 -7.1
v 11 2.6 -7.7
v 11 2.7 -2.9
v 11 2.7 -4.8
v 11 2.7 -5.4
v 11 2.7 -6
v 11 2.7 -7.1
v 11 2.7 -7.7
v 2.7 2 -2.4
v 2.7 5.6 -2.4
v 10.9 2 -2.4
v 10.9 5.6 -2.4
v 10.9 2.6 -2.9
v 10.9 2.7 -2.9
v 11 2.6 -2.9
v 11 2.7 -2.9
v 10.8 2.7 -4.8
v 10.8 3.2 -4.8
v 10.9 2.7 -4.8
v 10.9 3.2 -4.8
v 10.9 2.6 -5.4
v 10.9 2.7 -5.4
v 11 2.6 -5.4
v 11 2.7 -5.4
v 10.7 2.7 -6
v 10.7 4.9 -6
v 10.9 2.7 -6
v 10.9 4.9 -6
v 10.9 2.6 -7.1
v 10.9 2.7 -7.1
v 11 2.6 -7.1
v 11 2.7 -7.1
v 10.7 2.7 -7.7
v 10.7 4.9 -7.7
v 10.9 2.7 -7.7
v 10.9 4.9 -7.7
v 10.8 2.7 -2.9
v 10.8 3.2 -2.9
v 10.9 2.7 -2.9
v 10.9 3.2 -2.9
v 10.9 2.6 -4.8
v 10.9 2.7 -4.8
v 11 2.6 -4.8
v 11 2.7 -4.8
v 10.7 2.7 -5.4
v 10.7 4.9 -5.4
v 10.9 2.7 -5.4
v 10.9 4.9 -5.4
v 10.9 2.6 -6
v 10.9 2.7 -6
v 11 2.6 -6
v 11 2.7 -6
v 10.7 2.7 -7.1
v 10.7 4.9 -7.1
v 10.9 2.7 -7.1
v 10.9 4.9 -7.1
v 10.9 2.6 -7.7
v 10.9 2.7 -7.7
v 11 2.6 -7.7
v 11 2.7 -7.7
v 8 2 -8.1
v 8 5.6 -8.1
v 10.9 2 -8.1
v 10.9 5.6 -8.1
v 2.7 2 -9.8
v 2.7 5.6 -9.8
v 8 2 -9.8
v 8 5.6 -9.8
v 2.7 2 -2.4
v 10.9 2 -2.4
v 8 2 -8.1
v 10.9 2 -8.1
v 2.7 2 -9.8
v 8 2 -9.8
v 10.9 2.6 -2.9
v 11 2.6 -2.9
v 10.9 2.6 -4.8
v 11 2.6 -4.8
v 10.9 2.6 -5.4
v 11 2.6 -5.4
v 10.9 2.6 -6
v 11 2.6 -6
v 10.9 2.6 -7.1
v 11 2.6 -7.1
v 10.9 2.6 -7.7
v 11 2.6 -7.7
v 10.8 3.2 -2.9
v 10.9 3.2 -2.9
v 10.8 3.2 -4.8
v 10.9 3.2 -4.8
v 10.7 4.9 -5.4
v 10.9 4.9 -5.4
v 10.7 4.9 -6
v 10.9 4.9 -6
v 10.7 4.9 -7.1
v 10.9 4.9 -7.1
v 10.7 4.9 -7.7
v 10.9 4.9 -7.7
v 10.8 2.7 -2.9
v 10.9 2.7 -2.9
v 11 2.7 -2.9
v 10.8 2.7 -4.8
v 10.9 2.7 -4.8
v 11 2.7 -4.8
v 10.7 2.7 -5.4
v 10.9 2.7 -5.4
v 11 2.7 -5.4
v 10.7 2.7 -6
v 10.9 2.7 -6
v 11 2.7 -6
v 10.7 2.7 -7.1
v 10.9 2.7 -7.1
v 11 2.7 -7.1
v 10.7 2.7 -7.7
v 10.9 2.7 -7.7
v 11 2.7 -7.7
v 2.7 5.6 -2.4
v 10.9 5.6 -2.4
v 8 5.6 -8.1
v 10.9 5.6 -8.1
v 2.7 5.6 -9.8
v 8 5.6 -9.8

# faces
f 3/1/1 2/1/1 1/1/1
f 4/1/1 2/1/1 3/1/1
f 5/1/2 6/1/2 7/1/2
f 7/1/2 6/1/2 8/1/2
f 9/1/2 10/1/2 13/1/2
f 13/1/2 10/1/2 14/1/2
f 11/1/2 12/1/2 15/1/2
f 15/1/2 12/1/2 16/1/2
f 17/1/2 18/1/2 19/1/2
f 19/1/2 18/1/2 20/1/2
f 21/1/2 22/1/2 23/1/2
f 23/1/2 22/1/2 24/1/2
f 24/1/2 22/1/2 25/1/2
f 25/1/2 22/1/2 26/1/2
f 26/1/2 22/1/2 27/1/2
f 27/1/2 22/1/2 28/1/2
f 21/1/2 23/1/2 29/1/2
f 24/1/2 25/1/2 30/1/2
f 30/1/2 25/1/2 31/1/2
f 26/1/2 27/1/2 32/1/2
f 32/1/2 27/1/2 33/1/2
f 28/1/2 22/1/2 34/1/2
f 21/1/2 29/1/2 35/1/2
f 30/1/2 31/1/2 36/1/2
f 36/1/2 31/1/2 37/1/2
f 35/1/2 36/1/2 37/1/2
f 32/1/2 33/1/2 38/1/2
f 38/1/2 33/1/2 39/1/2
f 34/1/2 22/1/2 40/1/2
f 35/1/2 37/1/2 41/1/2
f 39/1/2 40/1/2 41/1/2
f 21/1/2 35/1/2 41/1/2
f 38/1/2 39/1/2 41/1/2
f 37/1/2 38/1/2 41/1/2
f 40/1/2 22/1/2 42/1/2
f 41/1/2 40/1/2 42/1/2
f 43/2/2 44/2/2 49/2/2
f 49/2/2 44/2/2 50/2/2
f 45/2/2 46/2/2 51/2/2
f 51/2/2 46/2/2 52/2/2
f 47/2/2 48/2/2 53/2/2
f 53/2/2 48/2/2 54/2/2
f 57/1/3 56/1/3 55/1/3
f 58/1/3 56/1/3 57/1/3
f 61/2/3 60/2/3 59/2/3
f 62/2/3 60/2/3 61/2/3
f 65/1/3 64/1/3 63/1/3
f 66/1/3 64/1/3 65/1/3
f 69/2/3 68/2/3 67/2/3
f 70/2/3 68/2/3 69/2/3
f 73/1/3 72/1/3 71/1/3
f 74/1/3 72/1/3 73/1/3
f 77/2/3 76/2/3 75/2/3
f 78/2/3 76/2/3 77/2/3
f 81/1/3 80/1/3 79/1/3
f 82/1/3 80/1/3 81/1/3
f 83/1/4 84/1/4 85/1/4
f 85/1/4 84/1/4 86/1/4
f 87/2/4 88/2/4 89/2/4
f 89/2/4 88/2/4 90/2/4
f 91/1/4 92/1/4 93/1/4
f 93/1/4 92/1/4 94/1/4
f 95/2/4 96/2/4 97/2/4
f 97/2/4 96/2/4 98/2/4
f 99/1/4 100/1/4 101/1/4
f 101/1/4 100/1/4 102/1/4
f 103/2/4 104/2/4 105/2/4
f 105/2/4 104/2/4 106/2/4
f 107/1/4 108/1/4 109/1/4
f 109/1/4 108/1/4 110/1/4
f 111/1/4 112/1/4 113/1/4
f 113/1/4 112/1/4 114/1/4
f 117/1/5 116/1/5 115/1/5
f 118/1/5 116/1/5 117/1/5
f 119/1/5 117/1/5 115/1/5
f 120/1/5 117/1/5 119/1/5
f 123/2/5 122/2/5 121/2/5
f 124/2/5 122/2/5 123/2/5
f 127/2/5 126/2/5 125/2/5
f 128/2/5 126/2/5 127/2/5
f 131/2/5 130/2/5 129/2/5
f 132/2/5 130/2/5 131/2/5
f 135/1/5 134/1/5 133/1/5
f 136/1/5 134/1/5 135/1/5
f 139/1/5 138/1/5 137/1/5
f 140/1/5 138/1/5 139/1/5
f 143/1/5 142/1/5 141/1/5
f 144/1/5 142/1/5 143/1/5
f 145/2/6 146/2/6 148/2/6
f 146/2/6 147/2/6 148/2/6
f 148/2/6 147/2/6 149/2/6
f 149/2/6 147/2/6 150/2/6
f 151/2/6 152/2/6 154/2/6
f 152/2/6 153/2/6 154/2/6
f 154/2/6 153/2/6 155/2/6
f 155/2/6 153/2/6 156/2/6
f 157/2/6 158/2/6 160/2/6
f 158/2/6 159/2/6 160/2/6
f 160/2/6 159/2/6 161/2/6
f 161/2/6 159/2/6 162/2/6
f 163/1/6 164/1/6 165/1/6
f 165/1/6 164/1/6 166/1/6
f 163/1/6 165/1/6 167/1/6
f 167/1/6 165/1/6 168/1/6
