# MagicaVoxel @ Ephtracy

# group
o 

# material
mtllib Hall.mtl
usemtl palette

# normals
vn -1 0 0
vn 1 0 0
vn 0 0 1
vn 0 0 -1
vn 0 -1 0
vn 0 1 0

# texcoords
vt 0.916016 0.5
vt 0.982422 0.5

# verts
v 0 2 -2.4
v 0 2 -9.4
v 0 5.6 -2.4
v 0 5.6 -9.4
v 12.3 3 -3.4
v 12.3 3 -8.4
v 12.3 4.8 -3.4
v 12.3 4.8 -8.4
v 12.5 2 -2.4
v 12.5 2 -9.4
v 12.5 2.9 -3.4
v 12.5 2.9 -8.4
v 12.5 3 -3.4
v 12.5 3 -8.4
v 12.5 4.8 -3.4
v 12.5 4.8 -8.4
v 12.5 5.6 -2.4
v 12.5 5.6 -9.4
v 12.6 2.9 -3.4
v 12.6 2.9 -8.4
v 12.6 3 -3.4
v 12.6 3 -8.4
v 0 2 -2.4
v 0 5.6 -2.4
v 12.5 2 -2.4
v 12.5 5.6 -2.4
v 12.5 2.9 -3.4
v 12.5 3 -3.4
v 12.6 2.9 -3.4
v 12.6 3 -3.4
v 12.3 3 -8.4
v 12.3 4.8 -8.4
v 12.5 3 -8.4
v 12.5 4.8 -8.4
v 12.3 3 -3.4
v 12.3 4.8 -3.4
v 12.5 3 -3.4
v 12.5 4.8 -3.4
v 12.5 2.9 -8.4
v 12.5 3 -8.4
v 12.6 2.9 -8.4
v 12.6 3 -8.4
v 0 2 -9.4
v 0 5.6 -9.4
v 12.5 2 -9.4
v 12.5 5.6 -9.4
v 0 2 -2.4
v 12.5 2 -2.4
v 12.3 2 -3
v 12.4 2 -3
v 12.3 2 -5.3
v 12.4 2 -5.3
v 0 2 -9.4
v 12.5 2 -9.4
v 12.5 2.9 -3.4
v 12.6 2.9 -3.4
v 12.5 2.9 -8.4
v 12.6 2.9 -8.4
v 12.3 4.8 -3.4
v 12.5 4.8 -3.4
v 12.3 4.8 -8.4
v 12.5 4.8 -8.4
v 12.3 3 -3.4
v 12.5 3 -3.4
v 12.6 3 -3.4
v 12.3 3 -8.4
v 12.5 3 -8.4
v 12.6 3 -8.4
v 0 5.6 -2.4
v 12.5 5.6 -2.4
v 0 5.6 -9.4
v 12.5 5.6 -9.4

# faces
f 3/1/1 2/1/1 1/1/1
f 4/1/1 2/1/1 3/1/1
f 5/1/2 6/1/2 7/1/2
f 7/1/2 6/1/2 8/1/2
f 9/1/2 10/1/2 11/1/2
f 11/1/2 10/1/2 12/1/2
f 9/1/2 11/1/2 13/1/2
f 12/1/2 10/1/2 14/1/2
f 9/1/2 13/1/2 15/1/2
f 14/1/2 10/1/2 16/1/2
f 9/1/2 15/1/2 17/1/2
f 15/1/2 16/1/2 17/1/2
f 16/1/2 10/1/2 18/1/2
f 17/1/2 16/1/2 18/1/2
f 19/2/2 20/2/2 21/2/2
f 21/2/2 20/2/2 22/2/2
f 25/1/3 24/1/3 23/1/3
f 26/1/3 24/1/3 25/1/3
f 29/2/3 28/2/3 27/2/3
f 30/2/3 28/2/3 29/2/3
f 33/1/3 32/1/3 31/1/3
f 34/1/3 32/1/3 33/1/3
f 35/1/4 36/1/4 37/1/4
f 37/1/4 36/1/4 38/1/4
f 39/2/4 40/2/4 41/2/4
f 41/2/4 40/2/4 42/2/4
f 43/1/4 44/1/4 45/1/4
f 45/1/4 44/1/4 46/1/4
f 49/1/5 48/1/5 47/1/5
f 50/1/5 48/1/5 49/1/5
f 51/1/5 49/1/5 47/1/5
f 51/2/5 50/2/5 49/2/5
f 52/1/5 48/1/5 50/1/5
f 52/2/5 50/2/5 51/2/5
f 53/1/5 51/1/5 47/1/5
f 53/1/5 52/1/5 51/1/5
f 54/1/5 48/1/5 52/1/5
f 54/1/5 52/1/5 53/1/5
f 57/2/5 56/2/5 55/2/5
f 58/2/5 56/2/5 57/2/5
f 61/1/5 60/1/5 59/1/5
f 62/1/5 60/1/5 61/1/5
f 63/2/6 64/2/6 66/2/6
f 64/2/6 65/2/6 66/2/6
f 66/2/6 65/2/6 67/2/6
f 67/2/6 65/2/6 68/2/6
f 69/1/6 70/1/6 71/1/6
f 71/1/6 70/1/6 72/1/6
