# MagicaVoxel @ Ephtracy

# group
o 

# material
mtllib LeftPieceAltWindow.mtl
usemtl palette

# normals
vn -1 0 0
vn 1 0 0
vn 0 0 1
vn 0 0 -1
vn 0 -1 0
vn 0 1 0

# texcoords
vt 0.974609 0.5
vt 0.978516 0.5
vt 0.982422 0.5

# verts
v 4.1 2 -2.4
v 4.1 2 -9.4
v 4.1 6 -2.1
v 4.1 6 -2.4
v 4.1 6.2 -2.4
v 4.1 6.2 -9.4
v 4.1 6.3 -2.1
v 4.1 6.3 -2.4
v 4.5 2.9 -2.3
v 4.5 2.9 -2.4
v 4.5 3 -2.3
v 4.5 3 -2.4
v 5.9 3 -2.4
v 5.9 3 -2.6
v 5.9 5.1 -2.4
v 5.9 5.1 -2.6
v 7.3 2.9 -2.3
v 7.3 2.9 -2.4
v 7.3 3 -2.3
v 7.3 3 -2.4
v 8.7 3 -2.4
v 8.7 3 -2.6
v 8.7 5.1 -2.4
v 8.7 5.1 -2.6
v 4.5 3 -2.4
v 4.5 3 -2.6
v 4.5 5.1 -2.4
v 4.5 5.1 -2.6
v 5.9 2.9 -2.3
v 5.9 2.9 -2.4
v 5.9 3 -2.3
v 5.9 3 -2.4
v 7.3 3 -2.4
v 7.3 3 -2.6
v 7.3 5.1 -2.4
v 7.3 5.1 -2.6
v 8.7 2.9 -2.3
v 8.7 2.9 -2.4
v 8.7 3 -2.3
v 8.7 3 -2.4
v 9.1 2 -2.4
v 9.1 2 -9.4
v 9.1 6 -2.1
v 9.1 6 -2.4
v 9.1 6.2 -2.4
v 9.1 6.2 -9.4
v 9.1 6.3 -2.1
v 9.1 6.3 -2.4
v 4.1 6 -2.1
v 4.1 6.3 -2.1
v 9.1 6 -2.1
v 9.1 6.3 -2.1
v 4.5 2.9 -2.3
v 4.5 3 -2.3
v 5.9 2.9 -2.3
v 5.9 3 -2.3
v 7.3 2.9 -2.3
v 7.3 3 -2.3
v 8.7 2.9 -2.3
v 8.7 3 -2.3
v 4.1 2 -2.4
v 4.1 6 -2.4
v 4.5 2.9 -2.4
v 4.5 3 -2.4
v 4.5 5.1 -2.4
v 5.9 2.9 -2.4
v 5.9 3 -2.4
v 5.9 5.1 -2.4
v 7.3 2.9 -2.4
v 7.3 3 -2.4
v 7.3 5.1 -2.4
v 8.7 2.9 -2.4
v 8.7 3 -2.4
v 8.7 5.1 -2.4
v 9.1 2 -2.4
v 9.1 6 -2.4
v 4.5 3 -2.6
v 4.5 5.1 -2.6
v 5.9 3 -2.6
v 5.9 5.1 -2.6
v 7.3 3 -2.6
v 7.3 5.1 -2.6
v 8.7 3 -2.6
v 8.7 5.1 -2.6
v 4.1 6.2 -2.4
v 4.1 6.3 -2.4
v 9.1 6.2 -2.4
v 9.1 6.3 -2.4
v 4.1 2 -9.4
v 4.1 6.2 -9.4
v 9.1 2 -9.4
v 9.1 6.2 -9.4
v 4.1 2 -2.4
v 9.1 2 -2.4
v 4.1 2 -9.4
v 9.1 2 -9.4
v 4.5 2.9 -2.3
v 5.9 2.9 -2.3
v 7.3 2.9 -2.3
v 8.7 2.9 -2.3
v 4.5 2.9 -2.4
v 5.9 2.9 -2.4
v 7.3 2.9 -2.4
v 8.7 2.9 -2.4
v 4.5 5.1 -2.4
v 5.9 5.1 -2.4
v 7.3 5.1 -2.4
v 8.7 5.1 -2.4
v 4.5 5.1 -2.6
v 5.9 5.1 -2.6
v 7.3 5.1 -2.6
v 8.7 5.1 -2.6
v 4.1 6 -2.1
v 9.1 6 -2.1
v 4.1 6 -2.4
v 9.1 6 -2.4
v 4.5 3 -2.3
v 5.9 3 -2.3
v 7.3 3 -2.3
v 8.7 3 -2.3
v 4.5 3 -2.4
v 5.9 3 -2.4
v 7.3 3 -2.4
v 8.7 3 -2.4
v 4.5 3 -2.6
v 5.9 3 -2.6
v 7.3 3 -2.6
v 8.7 3 -2.6
v 4.1 6.2 -2.4
v 9.1 6.2 -2.4
v 4.1 6.2 -9.4
v 9.1 6.2 -9.4
v 4.1 6.3 -2.1
v 9.1 6.3 -2.1
v 4.1 6.3 -2.4
v 9.1 6.3 -2.4

# faces
f 4/1/1 2/1/1 1/1/1
f 5/1/1 2/1/1 4/1/1
f 5/2/1 4/2/1 3/2/1
f 6/1/1 2/1/1 5/1/1
f 7/2/1 5/2/1 3/2/1
f 8/2/1 5/2/1 7/2/1
f 11/3/1 10/3/1 9/3/1
f 12/3/1 10/3/1 11/3/1
f 15/1/1 14/1/1 13/1/1
f 16/1/1 14/1/1 15/1/1
f 19/3/1 18/3/1 17/3/1
f 20/3/1 18/3/1 19/3/1
f 23/1/1 22/1/1 21/1/1
f 24/1/1 22/1/1 23/1/1
f 25/1/2 26/1/2 27/1/2
f 27/1/2 26/1/2 28/1/2
f 29/3/2 30/3/2 31/3/2
f 31/3/2 30/3/2 32/3/2
f 33/1/2 34/1/2 35/1/2
f 35/1/2 34/1/2 36/1/2
f 37/3/2 38/3/2 39/3/2
f 39/3/2 38/3/2 40/3/2
f 41/1/2 42/1/2 44/1/2
f 44/1/2 42/1/2 45/1/2
f 43/2/2 44/2/2 45/2/2
f 45/1/2 42/1/2 46/1/2
f 43/2/2 45/2/2 47/2/2
f 47/2/2 45/2/2 48/2/2
f 51/2/3 50/2/3 49/2/3
f 52/2/3 50/2/3 51/2/3
f 55/3/3 54/3/3 53/3/3
f 56/3/3 54/3/3 55/3/3
f 59/3/3 58/3/3 57/3/3
f 60/3/3 58/3/3 59/3/3
f 63/1/3 62/1/3 61/1/3
f 64/1/3 62/1/3 63/1/3
f 65/1/3 62/1/3 64/1/3
f 66/1/3 63/1/3 61/1/3
f 68/1/3 62/1/3 65/1/3
f 69/1/3 67/1/3 66/1/3
f 69/1/3 68/1/3 67/1/3
f 69/1/3 66/1/3 61/1/3
f 70/1/3 68/1/3 69/1/3
f 71/1/3 62/1/3 68/1/3
f 71/1/3 68/1/3 70/1/3
f 72/1/3 69/1/3 61/1/3
f 74/1/3 62/1/3 71/1/3
f 75/1/3 73/1/3 72/1/3
f 75/1/3 74/1/3 73/1/3
f 75/1/3 72/1/3 61/1/3
f 76/1/3 62/1/3 74/1/3
f 76/1/3 74/1/3 75/1/3
f 79/1/3 78/1/3 77/1/3
f 80/1/3 78/1/3 79/1/3
f 83/1/3 82/1/3 81/1/3
f 84/1/3 82/1/3 83/1/3
f 85/2/4 86/2/4 87/2/4
f 87/2/4 86/2/4 88/2/4
f 89/1/4 90/1/4 91/1/4
f 91/1/4 90/1/4 92/1/4
f 95/1/5 94/1/5 93/1/5
f 96/1/5 94/1/5 95/1/5
f 101/3/5 98/3/5 97/3/5
f 102/3/5 98/3/5 101/3/5
f 103/3/5 100/3/5 99/3/5
f 104/3/5 100/3/5 103/3/5
f 109/1/5 106/1/5 105/1/5
f 110/1/5 106/1/5 109/1/5
f 111/1/5 108/1/5 107/1/5
f 112/1/5 108/1/5 111/1/5
f 115/2/5 114/2/5 113/2/5
f 116/2/5 114/2/5 115/2/5
f 117/3/6 118/3/6 121/3/6
f 121/3/6 118/3/6 122/3/6
f 119/3/6 120/3/6 123/3/6
f 123/3/6 120/3/6 124/3/6
f 121/3/6 122/3/6 125/3/6
f 125/3/6 122/3/6 126/3/6
f 123/3/6 124/3/6 127/3/6
f 127/3/6 124/3/6 128/3/6
f 129/1/6 130/1/6 131/1/6
f 131/1/6 130/1/6 132/1/6
f 133/2/6 134/2/6 135/2/6
f 135/2/6 134/2/6 136/2/6
