# MagicaVoxel @ Ephtracy

# group
o 

# material
mtllib LeftPiece.mtl
usemtl palette

# normals
vn -1 0 0
vn 1 0 0
vn 0 0 1
vn 0 0 -1
vn 0 -1 0
vn 0 1 0

# texcoords
vt 0.974609 0.5
vt 0.982422 0.5

# verts
v 3.5 2 -2.4
v 3.5 2 -9.4
v 3.5 6.2 -2.4
v 3.5 6.2 -9.4
v 4.4 2.7 -2.3
v 4.4 2.7 -2.4
v 4.4 2.8 -2.3
v 4.4 2.8 -2.4
v 8.2 2.8 -2.4
v 8.2 2.8 -2.6
v 8.2 5.3 -2.4
v 8.2 5.3 -2.6
v 4.4 2.8 -2.4
v 4.4 2.8 -2.6
v 4.4 5.3 -2.4
v 4.4 5.3 -2.6
v 8.2 2.7 -2.3
v 8.2 2.7 -2.4
v 8.2 2.8 -2.3
v 8.2 2.8 -2.4
v 9.1 2 -2.4
v 9.1 2 -9.4
v 9.1 6.2 -2.4
v 9.1 6.2 -9.4
v 4.4 2.7 -2.3
v 4.4 2.8 -2.3
v 8.2 2.7 -2.3
v 8.2 2.8 -2.3
v 3.5 2 -2.4
v 3.5 6.2 -2.4
v 4.4 2.7 -2.4
v 4.4 2.8 -2.4
v 4.4 5.3 -2.4
v 8.2 2.7 -2.4
v 8.2 2.8 -2.4
v 8.2 5.3 -2.4
v 9.1 2 -2.4
v 9.1 6.2 -2.4
v 4.4 2.8 -2.6
v 4.4 5.3 -2.6
v 8.2 2.8 -2.6
v 8.2 5.3 -2.6
v 3.5 2 -9.4
v 3.5 6.2 -9.4
v 9.1 2 -9.4
v 9.1 6.2 -9.4
v 3.5 2 -2.4
v 9.1 2 -2.4
v 3.5 2 -9.4
v 9.1 2 -9.4
v 4.4 2.7 -2.3
v 8.2 2.7 -2.3
v 4.4 2.7 -2.4
v 8.2 2.7 -2.4
v 4.4 5.3 -2.4
v 8.2 5.3 -2.4
v 4.4 5.3 -2.6
v 8.2 5.3 -2.6
v 4.4 2.8 -2.3
v 8.2 2.8 -2.3
v 4.4 2.8 -2.4
v 8.2 2.8 -2.4
v 4.4 2.8 -2.6
v 8.2 2.8 -2.6
v 3.5 6.2 -2.4
v 9.1 6.2 -2.4
v 3.5 6.2 -9.4
v 9.1 6.2 -9.4

# faces
f 3/1/1 2/1/1 1/1/1
f 4/1/1 2/1/1 3/1/1
f 7/2/1 6/2/1 5/2/1
f 8/2/1 6/2/1 7/2/1
f 11/1/1 10/1/1 9/1/1
f 12/1/1 10/1/1 11/1/1
f 13/1/2 14/1/2 15/1/2
f 15/1/2 14/1/2 16/1/2
f 17/2/2 18/2/2 19/2/2
f 19/2/2 18/2/2 20/2/2
f 21/1/2 22/1/2 23/1/2
f 23/1/2 22/1/2 24/1/2
f 27/2/3 26/2/3 25/2/3
f 28/2/3 26/2/3 27/2/3
f 31/1/3 30/1/3 29/1/3
f 32/1/3 30/1/3 31/1/3
f 33/1/3 30/1/3 32/1/3
f 34/1/3 31/1/3 29/1/3
f 36/1/3 30/1/3 33/1/3
f 37/1/3 35/1/3 34/1/3
f 37/1/3 36/1/3 35/1/3
f 37/1/3 34/1/3 29/1/3
f 38/1/3 30/1/3 36/1/3
f 38/1/3 36/1/3 37/1/3
f 41/1/3 40/1/3 39/1/3
f 42/1/3 40/1/3 41/1/3
f 43/1/4 44/1/4 45/1/4
f 45/1/4 44/1/4 46/1/4
f 49/1/5 48/1/5 47/1/5
f 50/1/5 48/1/5 49/1/5
f 53/2/5 52/2/5 51/2/5
f 54/2/5 52/2/5 53/2/5
f 57/1/5 56/1/5 55/1/5
f 58/1/5 56/1/5 57/1/5
f 59/2/6 60/2/6 61/2/6
f 61/2/6 60/2/6 62/2/6
f 61/2/6 62/2/6 63/2/6
f 63/2/6 62/2/6 64/2/6
f 65/1/6 66/1/6 67/1/6
f 67/1/6 66/1/6 68/1/6
