# MagicaVoxel @ Ephtracy

# group
o 

# material
mtllib LeftPieceAltWindowTopSmall.mtl
usemtl palette

# normals
vn -1 0 0
vn 1 0 0
vn 0 0 1
vn 0 0 -1
vn 0 -1 0
vn 0 1 0

# texcoords
vt 0.974609 0.5
vt 0.978516 0.5
vt 0.982422 0.5

# verts
v 3.1 2.6 -2.1
v 3.1 2.6 -2.4
v 3.1 2.9 -1.3
v 3.1 2.9 -2.1
v 3.1 3.2 -1.3
v 3.1 3.2 -2.4
v 3.8 2 -2.4
v 3.8 2 -9.4
v 3.8 2.6 -2.4
v 3.8 3.2 -2.4
v 3.8 6 -2.1
v 3.8 6 -2.4
v 3.8 6.2 -2.4
v 3.8 6.2 -9.4
v 3.8 6.3 -2.1
v 3.8 6.3 -2.4
v 4 4.8 -2.3
v 4 4.8 -2.4
v 4 4.9 -2.3
v 4 4.9 -2.4
v 4.6 4.9 -2.4
v 4.6 4.9 -2.6
v 4.6 5.7 -2.4
v 4.6 5.7 -2.6
v 4.9 4.8 -2.3
v 4.9 4.8 -2.4
v 4.9 4.9 -2.3
v 4.9 4.9 -2.4
v 5.5 4.9 -2.4
v 5.5 4.9 -2.6
v 5.5 5.7 -2.4
v 5.5 5.7 -2.6
v 5.8 4.8 -2.3
v 5.8 4.8 -2.4
v 5.8 4.9 -2.3
v 5.8 4.9 -2.4
v 6.4 4.9 -2.4
v 6.4 4.9 -2.6
v 6.4 5.7 -2.4
v 6.4 5.7 -2.6
v 6.8 4.8 -2.3
v 6.8 4.8 -2.4
v 6.8 4.9 -2.3
v 6.8 4.9 -2.4
v 7.4 4.9 -2.4
v 7.4 4.9 -2.6
v 7.4 5.7 -2.4
v 7.4 5.7 -2.6
v 7.7 4.8 -2.3
v 7.7 4.8 -2.4
v 7.7 4.9 -2.3
v 7.7 4.9 -2.4
v 8.3 4.9 -2.4
v 8.3 4.9 -2.6
v 8.3 5.7 -2.4
v 8.3 5.7 -2.6
v 8.6 4.8 -2.3
v 8.6 4.8 -2.4
v 8.6 4.9 -2.3
v 8.6 4.9 -2.4
v 9.2 4.9 -2.4
v 9.2 4.9 -2.6
v 9.2 5.7 -2.4
v 9.2 5.7 -2.6
v 4 4.9 -2.4
v 4 4.9 -2.6
v 4 5.7 -2.4
v 4 5.7 -2.6
v 4.6 4.8 -2.3
v 4.6 4.8 -2.4
v 4.6 4.9 -2.3
v 4.6 4.9 -2.4
v 4.9 4.9 -2.4
v 4.9 4.9 -2.6
v 4.9 5.7 -2.4
v 4.9 5.7 -2.6
v 5.5 4.8 -2.3
v 5.5 4.8 -2.4
v 5.5 4.9 -2.3
v 5.5 4.9 -2.4
v 5.8 4.9 -2.4
v 5.8 4.9 -2.6
v 5.8 5.7 -2.4
v 5.8 5.7 -2.6
v 6.4 4.8 -2.3
v 6.4 4.8 -2.4
v 6.4 4.9 -2.3
v 6.4 4.9 -2.4
v 6.8 4.9 -2.4
v 6.8 4.9 -2.6
v 6.8 5.7 -2.4
v 6.8 5.7 -2.6
v 7.4 4.8 -2.3
v 7.4 4.8 -2.4
v 7.4 4.9 -2.3
v 7.4 4.9 -2.4
v 7.7 4.9 -2.4
v 7.7 4.9 -2.6
v 7.7 5.7 -2.4
v 7.7 5.7 -2.6
v 8.3 4.8 -2.3
v 8.3 4.8 -2.4
v 8.3 4.9 -2.3
v 8.3 4.9 -2.4
v 8.6 4.9 -2.4
v 8.6 4.9 -2.6
v 8.6 5.7 -2.4
v 8.6 5.7 -2.6
v 9.2 4.8 -2.3
v 9.2 4.8 -2.4
v 9.2 4.9 -2.3
v 9.2 4.9 -2.4
v 9.4 2 -2.4
v 9.4 2 -9.4
v 9.4 2.6 -2.4
v 9.4 3.2 -2.4
v 9.4 6 -2.1
v 9.4 6 -2.4
v 9.4 6.2 -2.4
v 9.4 6.2 -9.4
v 9.4 6.3 -2.1
v 9.4 6.3 -2.4
v 10.1 2.6 -2.1
v 10.1 2.6 -2.4
v 10.1 2.9 -1.3
v 10.1 2.9 -2.1
v 10.1 3.2 -1.3
v 10.1 3.2 -2.4
v 3.1 2.9 -1.3
v 3.1 3.2 -1.3
v 10.1 2.9 -1.3
v 10.1 3.2 -1.3
v 3.1 2.6 -2.1
v 3.1 2.9 -2.1
v 3.8 6 -2.1
v 3.8 6.3 -2.1
v 9.4 6 -2.1
v 9.4 6.3 -2.1
v 10.1 2.6 -2.1
v 10.1 2.9 -2.1
v 4 4.8 -2.3
v 4 4.9 -2.3
v 4.6 4.8 -2.3
v 4.6 4.9 -2.3
v 4.9 4.8 -2.3
v 4.9 4.9 -2.3
v 5.5 4.8 -2.3
v 5.5 4.9 -2.3
v 5.8 4.8 -2.3
v 5.8 4.9 -2.3
v 6.4 4.8 -2.3
v 6.4 4.9 -2.3
v 6.8 4.8 -2.3
v 6.8 4.9 -2.3
v 7.4 4.8 -2.3
v 7.4 4.9 -2.3
v 7.7 4.8 -2.3
v 7.7 4.9 -2.3
v 8.3 4.8 -2.3
v 8.3 4.9 -2.3
v 8.6 4.8 -2.3
v 8.6 4.9 -2.3
v 9.2 4.8 -2.3
v 9.2 4.9 -2.3
v 3.8 2 -2.4
v 3.8 2.6 -2.4
v 3.8 3.2 -2.4
v 3.8 6 -2.4
v 4 4.8 -2.4
v 4 4.9 -2.4
v 4 5.7 -2.4
v 4.6 4.8 -2.4
v 4.6 4.9 -2.4
v 4.6 5.7 -2.4
v 4.9 4.8 -2.4
v 4.9 4.9 -2.4
v 4.9 5.7 -2.4
v 5.5 4.8 -2.4
v 5.5 4.9 -2.4
v 5.5 5.7 -2.4
v 5.8 4.8 -2.4
v 5.8 4.9 -2.4
v 5.8 5.7 -2.4
v 6.4 4.8 -2.4
v 6.4 4.9 -2.4
v 6.4 5.7 -2.4
v 6.8 4.8 -2.4
v 6.8 4.9 -2.4
v 6.8 5.7 -2.4
v 7.4 4.8 -2.4
v 7.4 4.9 -2.4
v 7.4 5.7 -2.4
v 7.7 4.8 -2.4
v 7.7 4.9 -2.4
v 7.7 5.7 -2.4
v 8.3 4.8 -2.4
v 8.3 4.9 -2.4
v 8.3 5.7 -2.4
v 8.6 4.8 -2.4
v 8.6 4.9 -2.4
v 8.6 5.7 -2.4
v 9.2 4.8 -2.4
v 9.2 4.9 -2.4
v 9.2 5.7 -2.4
v 9.4 2 -2.4
v 9.4 2.6 -2.4
v 9.4 3.2 -2.4
v 9.4 6 -2.4
v 4 4.9 -2.6
v 4 5.7 -2.6
v 4.6 4.9 -2.6
v 4.6 5.7 -2.6
v 4.9 4.9 -2.6
v 4.9 5.7 -2.6
v 5.5 4.9 -2.6
v 5.5 5.7 -2.6
v 5.8 4.9 -2.6
v 5.8 5.7 -2.6
v 6.4 4.9 -2.6
v 6.4 5.7 -2.6
v 6.8 4.9 -2.6
v 6.8 5.7 -2.6
v 7.4 4.9 -2.6
v 7.4 5.7 -2.6
v 7.7 4.9 -2.6
v 7.7 5.7 -2.6
v 8.3 4.9 -2.6
v 8.3 5.7 -2.6
v 8.6 4.9 -2.6
v 8.6 5.7 -2.6
v 9.2 4.9 -2.6
v 9.2 5.7 -2.6
v 3.1 2.6 -2.4
v 3.1 3.2 -2.4
v 3.8 2.6 -2.4
v 3.8 3.2 -2.4
v 3.8 6.2 -2.4
v 3.8 6.3 -2.4
v 9.4 2.6 -2.4
v 9.4 3.2 -2.4
v 9.4 6.2 -2.4
v 9.4 6.3 -2.4
v 10.1 2.6 -2.4
v 10.1 3.2 -2.4
v 3.8 2 -9.4
v 3.8 6.2 -9.4
v 9.4 2 -9.4
v 9.4 6.2 -9.4
v 3.8 2 -2.4
v 9.4 2 -2.4
v 3.8 2 -9.4
v 9.4 2 -9.4
v 3.1 2.6 -2.1
v 10.1 2.6 -2.1
v 3.1 2.6 -2.4
v 3.8 2.6 -2.4
v 9.4 2.6 -2.4
v 10.1 2.6 -2.4
v 3.1 2.9 -1.3
v 10.1 2.9 -1.3
v 3.1 2.9 -2.1
v 10.1 2.9 -2.1
v 4 4.8 -2.3
v 4.6 4.8 -2.3
v 4.9 4.8 -2.3
v 5.5 4.8 -2.3
v 5.8 4.8 -2.3
v 6.4 4.8 -2.3
v 6.8 4.8 -2.3
v 7.4 4.8 -2.3
v 7.7 4.8 -2.3
v 8.3 4.8 -2.3
v 8.6 4.8 -2.3
v 9.2 4.8 -2.3
v 4 4.8 -2.4
v 4.6 4.8 -2.4
v 4.9 4.8 -2.4
v 5.5 4.8 -2.4
v 5.8 4.8 -2.4
v 6.4 4.8 -2.4
v 6.8 4.8 -2.4
v 7.4 4.8 -2.4
v 7.7 4.8 -2.4
v 8.3 4.8 -2.4
v 8.6 4.8 -2.4
v 9.2 4.8 -2.4
v 4 5.7 -2.4
v 4.6 5.7 -2.4
v 4.9 5.7 -2.4
v 5.5 5.7 -2.4
v 5.8 5.7 -2.4
v 6.4 5.7 -2.4
v 6.8 5.7 -2.4
v 7.4 5.7 -2.4
v 7.7 5.7 -2.4
v 8.3 5.7 -2.4
v 8.6 5.7 -2.4
v 9.2 5.7 -2.4
v 4 5.7 -2.6
v 4.6 5.7 -2.6
v 4.9 5.7 -2.6
v 5.5 5.7 -2.6
v 5.8 5.7 -2.6
v 6.4 5.7 -2.6
v 6.8 5.7 -2.6
v 7.4 5.7 -2.6
v 7.7 5.7 -2.6
v 8.3 5.7 -2.6
v 8.6 5.7 -2.6
v 9.2 5.7 -2.6
v 3.8 6 -2.1
v 9.4 6 -2.1
v 3.8 6 -2.4
v 9.4 6 -2.4
v 3.1 3.2 -1.3
v 10.1 3.2 -1.3
v 3.1 3.2 -2.4
v 3.8 3.2 -2.4
v 9.4 3.2 -2.4
v 10.1 3.2 -2.4
v 4 4.9 -2.3
v 4.6 4.9 -2.3
v 4.9 4.9 -2.3
v 5.5 4.9 -2.3
v 5.8 4.9 -2.3
v 6.4 4.9 -2.3
v 6.8 4.9 -2.3
v 7.4 4.9 -2.3
v 7.7 4.9 -2.3
v 8.3 4.9 -2.3
v 8.6 4.9 -2.3
v 9.2 4.9 -2.3
v 4 4.9 -2.4
v 4.6 4.9 -2.4
v 4.9 4.9 -2.4
v 5.5 4.9 -2.4
v 5.8 4.9 -2.4
v 6.4 4.9 -2.4
v 6.8 4.9 -2.4
v 7.4 4.9 -2.4
v 7.7 4.9 -2.4
v 8.3 4.9 -2.4
v 8.6 4.9 -2.4
v 9.2 4.9 -2.4
v 4 4.9 -2.6
v 4.6 4.9 -2.6
v 4.9 4.9 -2.6
v 5.5 4.9 -2.6
v 5.8 4.9 -2.6
v 6.4 4.9 -2.6
v 6.8 4.9 -2.6
v 7.4 4.9 -2.6
v 7.7 4.9 -2.6
v 8.3 4.9 -2.6
v 8.6 4.9 -2.6
v 9.2 4.9 -2.6
v 3.8 6.2 -2.4
v 9.4 6.2 -2.4
v 3.8 6.2 -9.4
v 9.4 6.2 -9.4
v 3.8 6.3 -2.1
v 9.4 6.3 -2.1
v 3.8 6.3 -2.4
v 9.4 6.3 -2.4

# faces
f 4/2/1 2/2/1 1/2/1
f 5/2/1 4/2/1 3/2/1
f 6/2/1 2/2/1 4/2/1
f 6/2/1 4/2/1 5/2/1
f 9/1/1 8/1/1 7/1/1
f 10/1/1 8/1/1 9/1/1
f 12/1/1 8/1/1 10/1/1
f 13/1/1 8/1/1 12/1/1
f 13/2/1 12/2/1 11/2/1
f 14/1/1 8/1/1 13/1/1
f 15/2/1 13/2/1 11/2/1
f 16/2/1 13/2/1 15/2/1
f 19/3/1 18/3/1 17/3/1
f 20/3/1 18/3/1 19/3/1
f 23/1/1 22/1/1 21/1/1
f 24/1/1 22/1/1 23/1/1
f 27/3/1 26/3/1 25/3/1
f 28/3/1 26/3/1 27/3/1
f 31/1/1 30/1/1 29/1/1
f 32/1/1 30/1/1 31/1/1
f 35/3/1 34/3/1 33/3/1
f 36/3/1 34/3/1 35/3/1
f 39/1/1 38/1/1 37/1/1
f 40/1/1 38/1/1 39/1/1
f 43/3/1 42/3/1 41/3/1
f 44/3/1 42/3/1 43/3/1
f 47/1/1 46/1/1 45/1/1
f 48/1/1 46/1/1 47/1/1
f 51/3/1 50/3/1 49/3/1
f 52/3/1 50/3/1 51/3/1
f 55/1/1 54/1/1 53/1/1
f 56/1/1 54/1/1 55/1/1
f 59/3/1 58/3/1 57/3/1
f 60/3/1 58/3/1 59/3/1
f 63/1/1 62/1/1 61/1/1
f 64/1/1 62/1/1 63/1/1
f 65/1/2 66/1/2 67/1/2
f 67/1/2 66/1/2 68/1/2
f 69/3/2 70/3/2 71/3/2
f 71/3/2 70/3/2 72/3/2
f 73/1/2 74/1/2 75/1/2
f 75/1/2 74/1/2 76/1/2
f 77/3/2 78/3/2 79/3/2
f 79/3/2 78/3/2 80/3/2
f 81/1/2 82/1/2 83/1/2
f 83/1/2 82/1/2 84/1/2
f 85/3/2 86/3/2 87/3/2
f 87/3/2 86/3/2 88/3/2
f 89/1/2 90/1/2 91/1/2
f 91/1/2 90/1/2 92/1/2
f 93/3/2 94/3/2 95/3/2
f 95/3/2 94/3/2 96/3/2
f 97/1/2 98/1/2 99/1/2
f 99/1/2 98/1/2 100/1/2
f 101/3/2 102/3/2 103/3/2
f 103/3/2 102/3/2 104/3/2
f 105/1/2 106/1/2 107/1/2
f 107/1/2 106/1/2 108/1/2
f 109/3/2 110/3/2 111/3/2
f 111/3/2 110/3/2 112/3/2
f 113/1/2 114/1/2 115/1/2
f 115/1/2 114/1/2 116/1/2
f 116/1/2 114/1/2 118/1/2
f 118/1/2 114/1/2 119/1/2
f 117/2/2 118/2/2 119/2/2
f 119/1/2 114/1/2 120/1/2
f 117/2/2 119/2/2 121/2/2
f 121/2/2 119/2/2 122/2/2
f 123/2/2 124/2/2 126/2/2
f 125/2/2 126/2/2 127/2/2
f 126/2/2 124/2/2 128/2/2
f 127/2/2 126/2/2 128/2/2
f 131/2/3 130/2/3 129/2/3
f 132/2/3 130/2/3 131/2/3
f 137/2/3 136/2/3 135/2/3
f 138/2/3 136/2/3 137/2/3
f 139/2/3 134/2/3 133/2/3
f 140/2/3 134/2/3 139/2/3
f 143/3/3 142/3/3 141/3/3
f 144/3/3 142/3/3 143/3/3
f 147/3/3 146/3/3 145/3/3
f 148/3/3 146/3/3 147/3/3
f 151/3/3 150/3/3 149/3/3
f 152/3/3 150/3/3 151/3/3
f 155/3/3 154/3/3 153/3/3
f 156/3/3 154/3/3 155/3/3
f 159/3/3 158/3/3 157/3/3
f 160/3/3 158/3/3 159/3/3
f 163/3/3 162/3/3 161/3/3
f 164/3/3 162/3/3 163/3/3
f 169/1/3 168/1/3 167/1/3
f 170/1/3 168/1/3 169/1/3
f 171/1/3 168/1/3 170/1/3
f 172/1/3 169/1/3 167/1/3
f 174/1/3 168/1/3 171/1/3
f 175/1/3 173/1/3 172/1/3
f 175/1/3 174/1/3 173/1/3
f 175/1/3 172/1/3 167/1/3
f 176/1/3 174/1/3 175/1/3
f 177/1/3 168/1/3 174/1/3
f 177/1/3 174/1/3 176/1/3
f 178/1/3 175/1/3 167/1/3
f 180/1/3 168/1/3 177/1/3
f 181/1/3 179/1/3 178/1/3
f 181/1/3 180/1/3 179/1/3
f 181/1/3 178/1/3 167/1/3
f 182/1/3 180/1/3 181/1/3
f 183/1/3 168/1/3 180/1/3
f 183/1/3 180/1/3 182/1/3
f 184/1/3 181/1/3 167/1/3
f 186/1/3 168/1/3 183/1/3
f 187/1/3 185/1/3 184/1/3
f 187/1/3 186/1/3 185/1/3
f 187/1/3 184/1/3 167/1/3
f 188/1/3 186/1/3 187/1/3
f 189/1/3 168/1/3 186/1/3
f 189/1/3 186/1/3 188/1/3
f 190/1/3 187/1/3 167/1/3
f 192/1/3 168/1/3 189/1/3
f 193/1/3 191/1/3 190/1/3
f 193/1/3 192/1/3 191/1/3
f 193/1/3 190/1/3 167/1/3
f 194/1/3 192/1/3 193/1/3
f 195/1/3 168/1/3 192/1/3
f 195/1/3 192/1/3 194/1/3
f 196/1/3 193/1/3 167/1/3
f 198/1/3 168/1/3 195/1/3
f 199/1/3 197/1/3 196/1/3
f 199/1/3 198/1/3 197/1/3
f 199/1/3 196/1/3 167/1/3
f 200/1/3 198/1/3 199/1/3
f 201/1/3 168/1/3 198/1/3
f 201/1/3 198/1/3 200/1/3
f 202/1/3 199/1/3 167/1/3
f 204/1/3 168/1/3 201/1/3
f 205/1/3 166/1/3 165/1/3
f 206/1/3 166/1/3 205/1/3
f 207/1/3 204/1/3 203/1/3
f 207/1/3 203/1/3 202/1/3
f 207/1/3 202/1/3 167/1/3
f 208/1/3 168/1/3 204/1/3
f 208/1/3 204/1/3 207/1/3
f 211/1/3 210/1/3 209/1/3
f 212/1/3 210/1/3 211/1/3
f 215/1/3 214/1/3 213/1/3
f 216/1/3 214/1/3 215/1/3
f 219/1/3 218/1/3 217/1/3
f 220/1/3 218/1/3 219/1/3
f 223/1/3 222/1/3 221/1/3
f 224/1/3 222/1/3 223/1/3
f 227/1/3 226/1/3 225/1/3
f 228/1/3 226/1/3 227/1/3
f 231/1/3 230/1/3 229/1/3
f 232/1/3 230/1/3 231/1/3
f 233/2/4 234/2/4 235/2/4
f 235/2/4 234/2/4 236/2/4
f 237/2/4 238/2/4 241/2/4
f 241/2/4 238/2/4 242/2/4
f 239/2/4 240/2/4 243/2/4
f 243/2/4 240/2/4 244/2/4
f 245/1/4 246/1/4 247/1/4
f 247/1/4 246/1/4 248/1/4
f 251/1/5 250/1/5 249/1/5
f 252/1/5 250/1/5 251/1/5
f 255/2/5 254/2/5 253/2/5
f 256/2/5 254/2/5 255/2/5
f 257/2/5 254/2/5 256/2/5
f 258/2/5 254/2/5 257/2/5
f 261/2/5 260/2/5 259/2/5
f 262/2/5 260/2/5 261/2/5
f 275/3/5 264/3/5 263/3/5
f 276/3/5 264/3/5 275/3/5
f 277/3/5 266/3/5 265/3/5
f 278/3/5 266/3/5 277/3/5
f 279/3/5 268/3/5 267/3/5
f 280/3/5 268/3/5 279/3/5
f 281/3/5 270/3/5 269/3/5
f 282/3/5 270/3/5 281/3/5
f 283/3/5 272/3/5 271/3/5
f 284/3/5 272/3/5 283/3/5
f 285/3/5 274/3/5 273/3/5
f 286/3/5 274/3/5 285/3/5
f 299/1/5 288/1/5 287/1/5
f 300/1/5 288/1/5 299/1/5
f 301/1/5 290/1/5 289/1/5
f 302/1/5 290/1/5 301/1/5
f 303/1/5 292/1/5 291/1/5
f 304/1/5 292/1/5 303/1/5
f 305/1/5 294/1/5 293/1/5
f 306/1/5 294/1/5 305/1/5
f 307/1/5 296/1/5 295/1/5
f 308/1/5 296/1/5 307/1/5
f 309/1/5 298/1/5 297/1/5
f 310/1/5 298/1/5 309/1/5
f 313/2/5 312/2/5 311/2/5
f 314/2/5 312/2/5 313/2/5
f 315/2/6 316/2/6 317/2/6
f 317/2/6 316/2/6 318/2/6
f 318/2/6 316/2/6 319/2/6
f 319/2/6 316/2/6 320/2/6
f 321/3/6 322/3/6 333/3/6
f 333/3/6 322/3/6 334/3/6
f 323/3/6 324/3/6 335/3/6
f 335/3/6 324/3/6 336/3/6
f 325/3/6 326/3/6 337/3/6
f 337/3/6 326/3/6 338/3/6
f 327/3/6 328/3/6 339/3/6
f 339/3/6 328/3/6 340/3/6
f 329/3/6 330/3/6 341/3/6
f 341/3/6 330/3/6 342/3/6
f 331/3/6 332/3/6 343/3/6
f 343/3/6 332/3/6 344/3/6
f 333/3/6 334/3/6 345/3/6
f 345/3/6 334/3/6 346/3/6
f 335/3/6 336/3/6 347/3/6
f 347/3/6 336/3/6 348/3/6
f 337/3/6 338/3/6 349/3/6
f 349/3/6 338/3/6 350/3/6
f 339/3/6 340/3/6 351/3/6
f 351/3/6 340/3/6 352/3/6
f 341/3/6 342/3/6 353/3/6
f 353/3/6 342/3/6 354/3/6
f 343/3/6 344/3/6 355/3/6
f 355/3/6 344/3/6 356/3/6
f 357/1/6 358/1/6 359/1/6
f 359/1/6 358/1/6 360/1/6
f 361/2/6 362/2/6 363/2/6
f 363/2/6 362/2/6 364/2/6
