# MagicaVoxel @ Ephtracy

# group
o 

# material
mtllib SidePieceBottom.mtl
usemtl palette

# normals
vn -1 0 0
vn 1 0 0
vn 0 0 1
vn 0 0 -1
vn 0 -1 0
vn 0 1 0

# texcoords
vt 0.916016 0.5
vt 0.970703 0.5
vt 0.982422 0.5
vt 0.986328 0.5

# verts
v 0 2 -2.4
v 0 2 -5.7
v 0 5.4 -2
v 0 5.4 -2.4
v 0 5.6 -2
v 0 5.6 -2.4
v 0 5.6 -5.7
v 7 3.2 -4.2
v 7 3.2 -4.3
v 7 4 -4.2
v 7 4 -4.3
v 7.1 2.9 -4
v 7.1 2.9 -4.2
v 7.1 3 -4.1
v 7.1 3 -4.2
v 7.1 3.2 -4.1
v 7.1 3.2 -4.2
v 7.1 3.3 -4
v 7.1 3.3 -4.2
v 7.4 2 -4.1
v 7.4 2 -4.2
v 7.4 4.3 -4.1
v 7.4 4.3 -4.2
v 7.8 4.9 -3.6
v 7.8 4.9 -5.7
v 7.8 5 -3.6
v 7.8 5 -5.7
v 0.6 5.4 -2
v 0.6 5.4 -2.4
v 0.6 5.6 -2
v 0.6 5.6 -2.4
v 5.7 2 -2.4
v 5.7 2 -4.1
v 5.7 4.6 -3.4
v 5.7 4.6 -4.1
v 5.7 5 -3.4
v 5.7 5 -5.7
v 5.7 5.6 -2.4
v 5.7 5.6 -5.7
v 5.9 4.9 -3.6
v 5.9 4.9 -5.7
v 5.9 5 -3.6
v 5.9 5 -5.7
v 6.2 2 -4.1
v 6.2 2 -4.2
v 6.2 4.3 -4.1
v 6.2 4.3 -4.2
v 6.6 3.2 -4.2
v 6.6 3.2 -4.3
v 6.6 4 -4.2
v 6.6 4 -4.3
v 7.2 2.9 -4
v 7.2 2.9 -4.2
v 7.2 3 -4.1
v 7.2 3 -4.2
v 7.2 3.2 -4.1
v 7.2 3.2 -4.2
v 7.2 3.3 -4
v 7.2 3.3 -4.2
v 7.9 2 -4.1
v 7.9 2 -5.7
v 7.9 4.6 -4.1
v 7.9 4.6 -5.7
v 8 4.6 -3.4
v 8 4.6 -5.7
v 8 5 -3.4
v 8 5 -5.7
v 0 5.4 -2
v 0 5.6 -2
v 0.6 5.4 -2
v 0.6 5.6 -2
v 0 2 -2.4
v 0 5.4 -2.4
v 0.6 5.4 -2.4
v 0.6 5.6 -2.4
v 5.7 2 -2.4
v 5.7 5.6 -2.4
v 5.7 4.6 -3.4
v 5.7 5 -3.4
v 8 4.6 -3.4
v 8 5 -3.4
v 7.1 2.9 -4
v 7.1 3.3 -4
v 7.2 2.9 -4
v 7.2 3.3 -4
v 5.7 2 -4.1
v 5.7 4.6 -4.1
v 6.2 2 -4.1
v 6.2 4.3 -4.1
v 7.4 2 -4.1
v 7.4 4.3 -4.1
v 7.9 2 -4.1
v 7.9 4.6 -4.1
v 6.2 2 -4.2
v 6.2 4.3 -4.2
v 6.6 3.2 -4.2
v 6.6 4 -4.2
v 7 3.2 -4.2
v 7 4 -4.2
v 7.1 2.9 -4.2
v 7.1 3 -4.2
v 7.1 3.2 -4.2
v 7.1 3.3 -4.2
v 7.2 2.9 -4.2
v 7.2 3 -4.2
v 7.2 3.2 -4.2
v 7.2 3.3 -4.2
v 7.4 2 -4.2
v 7.4 4.3 -4.2
v 6.6 3.2 -4.3
v 6.6 4 -4.3
v 7 3.2 -4.3
v 7 4 -4.3
v 5.9 4.9 -3.6
v 5.9 5 -3.6
v 7.8 4.9 -3.6
v 7.8 5 -3.6
v 7.1 3 -4.1
v 7.1 3.2 -4.1
v 7.2 3 -4.1
v 7.2 3.2 -4.1
v 0 2 -5.7
v 0 5.6 -5.7
v 5.7 4.9 -5.7
v 5.7 5 -5.7
v 5.7 5.6 -5.7
v 5.9 4.8 -5.7
v 5.9 4.9 -5.7
v 5.9 5 -5.7
v 7.8 4.8 -5.7
v 7.8 4.9 -5.7
v 7.8 5 -5.7
v 7.9 2 -5.7
v 7.9 4.6 -5.7
v 7.9 4.9 -5.7
v 8 4.6 -5.7
v 8 5 -5.7
v 0 2 -2.4
v 5.7 2 -2.4
v 5.7 2 -4.1
v 6.2 2 -4.1
v 7.4 2 -4.1
v 7.9 2 -4.1
v 6.2 2 -4.2
v 7.4 2 -4.2
v 6.2 2 -4.3
v 7.4 2 -4.3
v 0 2 -5.7
v 7.9 2 -5.7
v 7.1 2.9 -4
v 7.2 2.9 -4
v 7.1 2.9 -4.2
v 7.2 2.9 -4.2
v 7.1 3.2 -4.1
v 7.2 3.2 -4.1
v 7.1 3.2 -4.2
v 7.2 3.2 -4.2
v 6.6 4 -4.2
v 7 4 -4.2
v 6.6 4 -4.3
v 7 4 -4.3
v 6.2 4.3 -4.1
v 7.4 4.3 -4.1
v 6.2 4.3 -4.2
v 7.4 4.3 -4.2
v 5.7 4.6 -3.4
v 8 4.6 -3.4
v 5.7 4.6 -4.1
v 7.9 4.6 -4.1
v 7.9 4.6 -5.7
v 8 4.6 -5.7
v 0 5.4 -2
v 0.6 5.4 -2
v 0 5.4 -2.4
v 0.6 5.4 -2.4
v 7.1 3 -4.1
v 7.2 3 -4.1
v 7.1 3 -4.2
v 7.2 3 -4.2
v 6.6 3.2 -4.2
v 7 3.2 -4.2
v 6.6 3.2 -4.3
v 7 3.2 -4.3
v 7.1 3.3 -4
v 7.2 3.3 -4
v 7.1 3.3 -4.2
v 7.2 3.3 -4.2
v 5.9 4.9 -3.6
v 7.8 4.9 -3.6
v 5.9 4.9 -5.7
v 7.8 4.9 -5.7
v 5.7 5 -3.4
v 8 5 -3.4
v 5.9 5 -3.6
v 7.8 5 -3.6
v 5.7 5 -5.7
v 5.9 5 -5.7
v 7.8 5 -5.7
v 8 5 -5.7
v 0 5.6 -2
v 0.6 5.6 -2
v 0 5.6 -2.4
v 0.6 5.6 -2.4
v 5.7 5.6 -2.4
v 0 5.6 -5.7
v 5.7 5.6 -5.7

# faces
f 4/1/1 2/1/1 1/1/1
f 5/2/1 4/2/1 3/2/1
f 6/1/1 2/1/1 4/1/1
f 6/2/1 4/2/1 5/2/1
f 7/1/1 2/1/1 6/1/1
f 10/3/1 9/3/1 8/3/1
f 11/3/1 9/3/1 10/3/1
f 14/3/1 13/3/1 12/3/1
f 15/3/1 13/3/1 14/3/1
f 16/3/1 14/3/1 12/3/1
f 18/3/1 16/3/1 12/3/1
f 18/3/1 17/3/1 16/3/1
f 19/3/1 17/3/1 18/3/1
f 22/1/1 21/1/1 20/1/1
f 23/1/1 21/1/1 22/1/1
f 26/2/1 25/2/1 24/2/1
f 27/2/1 25/2/1 26/2/1
f 28/2/2 29/2/2 30/2/2
f 30/2/2 29/2/2 31/2/2
f 32/1/2 33/1/2 34/1/2
f 34/1/2 33/1/2 35/1/2
f 32/1/2 34/1/2 36/1/2
f 32/1/2 36/1/2 38/1/2
f 36/1/2 37/1/2 38/1/2
f 38/1/2 37/1/2 39/1/2
f 40/2/2 41/2/2 42/2/2
f 42/2/2 41/2/2 43/2/2
f 44/1/2 45/1/2 46/1/2
f 46/1/2 45/1/2 47/1/2
f 48/3/2 49/3/2 50/3/2
f 50/3/2 49/3/2 51/3/2
f 52/3/2 53/3/2 54/3/2
f 54/3/2 53/3/2 55/3/2
f 52/3/2 54/3/2 56/3/2
f 52/3/2 56/3/2 58/3/2
f 56/3/2 57/3/2 58/3/2
f 58/3/2 57/3/2 59/3/2
f 60/1/2 61/1/2 62/1/2
f 62/1/2 61/1/2 63/1/2
f 64/2/2 65/2/2 66/2/2
f 66/2/2 65/2/2 67/2/2
f 70/2/3 69/2/3 68/2/3
f 71/2/3 69/2/3 70/2/3
f 74/1/3 73/1/3 72/1/3
f 76/1/3 74/1/3 72/1/3
f 76/1/3 75/1/3 74/1/3
f 77/1/3 75/1/3 76/1/3
f 80/2/3 79/2/3 78/2/3
f 81/2/3 79/2/3 80/2/3
f 84/3/3 83/3/3 82/3/3
f 85/3/3 83/3/3 84/3/3
f 88/1/3 87/1/3 86/1/3
f 89/1/3 87/1/3 88/1/3
f 91/1/3 87/1/3 89/1/3
f 92/1/3 91/1/3 90/1/3
f 93/1/3 87/1/3 91/1/3
f 93/1/3 91/1/3 92/1/3
f 96/3/3 95/3/3 94/3/3
f 97/3/3 95/3/3 96/3/3
f 98/3/3 96/3/3 94/3/3
f 99/3/3 95/3/3 97/3/3
f 100/3/3 98/3/3 94/3/3
f 100/3/3 99/3/3 98/3/3
f 101/3/3 99/3/3 100/3/3
f 102/3/3 99/3/3 101/3/3
f 103/3/3 99/3/3 102/3/3
f 104/3/3 100/3/3 94/3/3
f 105/3/3 102/3/3 101/3/3
f 106/3/3 102/3/3 105/3/3
f 107/3/3 99/3/3 103/3/3
f 108/3/3 106/3/3 105/3/3
f 108/3/3 107/3/3 106/3/3
f 108/3/3 104/3/3 94/3/3
f 108/3/3 105/3/3 104/3/3
f 109/3/3 95/3/3 99/3/3
f 109/3/3 107/3/3 108/3/3
f 109/3/3 99/3/3 107/3/3
f 112/4/3 111/4/3 110/4/3
f 113/4/3 111/4/3 112/4/3
f 114/2/4 115/2/4 116/2/4
f 116/2/4 115/2/4 117/2/4
f 118/3/4 119/3/4 120/3/4
f 120/3/4 119/3/4 121/3/4
f 122/1/4 123/1/4 124/1/4
f 124/1/4 123/1/4 125/1/4
f 125/1/4 123/1/4 126/1/4
f 122/1/4 124/1/4 127/1/4
f 124/2/4 125/2/4 128/2/4
f 127/1/4 124/1/4 128/1/4
f 128/2/4 125/2/4 129/2/4
f 122/1/4 127/1/4 130/1/4
f 127/2/4 128/2/4 130/2/4
f 130/2/4 128/2/4 131/2/4
f 122/1/4 130/1/4 133/1/4
f 130/1/4 131/1/4 133/1/4
f 133/1/4 131/1/4 134/1/4
f 131/2/4 132/2/4 135/2/4
f 134/1/4 131/1/4 135/1/4
f 134/2/4 135/2/4 136/2/4
f 135/2/4 132/2/4 137/2/4
f 136/2/4 135/2/4 137/2/4
f 140/1/5 139/1/5 138/1/5
f 144/1/5 141/1/5 140/1/5
f 145/1/5 143/1/5 142/1/5
f 146/1/5 144/1/5 140/1/5
f 146/3/5 145/3/5 144/3/5
f 147/1/5 143/1/5 145/1/5
f 147/3/5 145/3/5 146/3/5
f 148/1/5 140/1/5 138/1/5
f 148/1/5 146/1/5 140/1/5
f 148/1/5 147/1/5 146/1/5
f 149/1/5 143/1/5 147/1/5
f 149/1/5 147/1/5 148/1/5
f 152/3/5 151/3/5 150/3/5
f 153/3/5 151/3/5 152/3/5
f 156/3/5 155/3/5 154/3/5
f 157/3/5 155/3/5 156/3/5
f 160/3/5 159/3/5 158/3/5
f 161/3/5 159/3/5 160/3/5
f 164/1/5 163/1/5 162/1/5
f 165/1/5 163/1/5 164/1/5
f 168/2/5 167/2/5 166/2/5
f 169/2/5 167/2/5 168/2/5
f 170/2/5 167/2/5 169/2/5
f 171/2/5 167/2/5 170/2/5
f 174/2/5 173/2/5 172/2/5
f 175/2/5 173/2/5 174/2/5
f 176/3/6 177/3/6 178/3/6
f 178/3/6 177/3/6 179/3/6
f 180/3/6 181/3/6 182/3/6
f 182/3/6 181/3/6 183/3/6
f 184/3/6 185/3/6 186/3/6
f 186/3/6 185/3/6 187/3/6
f 188/2/6 189/2/6 190/2/6
f 190/2/6 189/2/6 191/2/6
f 192/2/6 193/2/6 194/2/6
f 194/2/6 193/2/6 195/2/6
f 192/2/6 194/2/6 196/2/6
f 196/2/6 194/2/6 197/2/6
f 195/2/6 193/2/6 198/2/6
f 198/2/6 193/2/6 199/2/6
f 200/2/6 201/2/6 202/2/6
f 202/2/6 201/2/6 203/2/6
f 202/1/6 203/1/6 205/1/6
f 203/1/6 204/1/6 205/1/6
f 205/1/6 204/1/6 206/1/6
