# MagicaVoxel @ Ephtracy

# group
o 

# material
mtllib SidePiece.mtl
usemtl palette

# normals
vn -1 0 0
vn 1 0 0
vn 0 0 1
vn 0 0 -1
vn 0 -1 0
vn 0 1 0

# texcoords
vt 0.970703 0.5
vt 0.974609 0.5
vt 0.982422 0.5

# verts
v 0 2 -2.4
v 0 2 -5.7
v 0 5.6 -2.4
v 0 5.6 -5.7
v 0.1 2 -2.1
v 0.1 2 -2.4
v 0.1 5.6 -2.1
v 0.1 5.6 -2.4
v 0.5 2 -2.1
v 0.5 2 -2.4
v 0.5 5.6 -2.1
v 0.5 5.6 -2.4
v 5.5 3.5 -3.4
v 5.5 3.5 -5.3
v 5.5 4.1 -3.4
v 5.5 4.1 -5.3
v 5.7 2 -2.4
v 5.7 2 -5.7
v 5.7 3.4 -3.4
v 5.7 3.4 -5.3
v 5.7 3.5 -3.4
v 5.7 3.5 -5.3
v 5.7 4.1 -3.4
v 5.7 4.1 -5.3
v 5.7 5.6 -2.4
v 5.7 5.6 -5.7
v 5.8 3.4 -3.4
v 5.8 3.4 -5.3
v 5.8 3.5 -3.4
v 5.8 3.5 -5.3
v 0.1 2 -2.1
v 0.1 5.6 -2.1
v 0.5 2 -2.1
v 0.5 5.6 -2.1
v 0 2 -2.4
v 0 5.6 -2.4
v 0.1 2 -2.4
v 0.1 5.6 -2.4
v 0.5 2 -2.4
v 0.5 5.6 -2.4
v 5.7 2 -2.4
v 5.7 5.6 -2.4
v 5.7 3.4 -3.4
v 5.7 3.5 -3.4
v 5.8 3.4 -3.4
v 5.8 3.5 -3.4
v 5.5 3.5 -5.3
v 5.5 4.1 -5.3
v 5.7 3.5 -5.3
v 5.7 4.1 -5.3
v 5.5 3.5 -3.4
v 5.5 4.1 -3.4
v 5.7 3.5 -3.4
v 5.7 4.1 -3.4
v 5.7 3.4 -5.3
v 5.7 3.5 -5.3
v 5.8 3.4 -5.3
v 5.8 3.5 -5.3
v 0 2 -5.7
v 0 5.6 -5.7
v 5.7 2 -5.7
v 5.7 5.6 -5.7
v 0.1 2 -2.1
v 0.5 2 -2.1
v 0 2 -2.4
v 0.1 2 -2.4
v 0.5 2 -2.4
v 5.7 2 -2.4
v 0 2 -5.7
v 5.7 2 -5.7
v 5.7 3.4 -3.4
v 5.8 3.4 -3.4
v 5.7 3.4 -5.3
v 5.8 3.4 -5.3
v 5.5 4.1 -3.4
v 5.7 4.1 -3.4
v 5.5 4.1 -5.3
v 5.7 4.1 -5.3
v 5.5 3.5 -3.4
v 5.7 3.5 -3.4
v 5.8 3.5 -3.4
v 5.5 3.5 -5.3
v 5.7 3.5 -5.3
v 5.8 3.5 -5.3
v 0.1 5.6 -2.1
v 0.5 5.6 -2.1
v 0 5.6 -2.4
v 0.1 5.6 -2.4
v 0.5 5.6 -2.4
v 5.7 5.6 -2.4
v 0 5.6 -5.7
v 5.7 5.6 -5.7

# faces
f 3/2/1 2/2/1 1/2/1
f 4/2/1 2/2/1 3/2/1
f 7/1/1 6/1/1 5/1/1
f 8/1/1 6/1/1 7/1/1
f 9/1/2 10/1/2 11/1/2
f 11/1/2 10/1/2 12/1/2
f 13/2/2 14/2/2 15/2/2
f 15/2/2 14/2/2 16/2/2
f 17/2/2 18/2/2 19/2/2
f 19/2/2 18/2/2 20/2/2
f 17/2/2 19/2/2 21/2/2
f 20/2/2 18/2/2 22/2/2
f 17/2/2 21/2/2 23/2/2
f 22/2/2 18/2/2 24/2/2
f 17/2/2 23/2/2 25/2/2
f 23/2/2 24/2/2 25/2/2
f 24/2/2 18/2/2 26/2/2
f 25/2/2 24/2/2 26/2/2
f 27/3/2 28/3/2 29/3/2
f 29/3/2 28/3/2 30/3/2
f 33/1/3 32/1/3 31/1/3
f 34/1/3 32/1/3 33/1/3
f 37/2/3 36/2/3 35/2/3
f 38/2/3 36/2/3 37/2/3
f 41/2/3 40/2/3 39/2/3
f 42/2/3 40/2/3 41/2/3
f 45/3/3 44/3/3 43/3/3
f 46/3/3 44/3/3 45/3/3
f 49/2/3 48/2/3 47/2/3
f 50/2/3 48/2/3 49/2/3
f 51/2/4 52/2/4 53/2/4
f 53/2/4 52/2/4 54/2/4
f 55/3/4 56/3/4 57/3/4
f 57/3/4 56/3/4 58/3/4
f 59/2/4 60/2/4 61/2/4
f 61/2/4 60/2/4 62/2/4
f 66/1/5 64/1/5 63/1/5
f 67/1/5 64/1/5 66/1/5
f 69/2/5 66/2/5 65/2/5
f 69/2/5 68/2/5 67/2/5
f 69/2/5 67/2/5 66/2/5
f 70/2/5 68/2/5 69/2/5
f 73/3/5 72/3/5 71/3/5
f 74/3/5 72/3/5 73/3/5
f 77/2/5 76/2/5 75/2/5
f 78/2/5 76/2/5 77/2/5
f 79/3/6 80/3/6 82/3/6
f 80/3/6 81/3/6 82/3/6
f 82/3/6 81/3/6 83/3/6
f 83/3/6 81/3/6 84/3/6
f 85/1/6 86/1/6 88/1/6
f 88/1/6 86/1/6 89/1/6
f 87/2/6 88/2/6 91/2/6
f 89/2/6 90/2/6 91/2/6
f 88/2/6 89/2/6 91/2/6
f 91/2/6 90/2/6 92/2/6
