# MagicaVoxel @ Ephtracy

# group
o 

# material
mtllib SidePieceTop.mtl
usemtl palette

# normals
vn -1 0 0
vn 1 0 0
vn 0 0 1
vn 0 0 -1
vn 0 -1 0
vn 0 1 0

# texcoords
vt 0.970703 0.5
vt 0.974609 0.5
vt 0.978516 0.5
vt 0.982422 0.5

# verts
v 0 2 -2.4
v 0 2 -5.7
v 0 5.6 -2
v 0 5.6 -2.4
v 0 5.8 -1.9
v 0 5.8 -2
v 0 5.8 -2.4
v 0 5.8 -5.7
v 0 6 -2.4
v 0 6 -5.7
v 0 6.1 -1.9
v 0 6.1 -2.4
v 0.1 2 -2.1
v 0.1 2 -2.4
v 0.1 5.6 -2.1
v 0.1 5.6 -2.4
v 0.6 4.7 -2.3
v 0.6 4.7 -2.4
v 0.6 4.8 -2.3
v 0.6 4.8 -2.4
v 1.6 4.8 -2.4
v 1.6 4.8 -2.6
v 1.6 5.4 -2.4
v 1.6 5.4 -2.6
v 2.3 4.7 -2.3
v 2.3 4.7 -2.4
v 2.3 4.8 -2.3
v 2.3 4.8 -2.4
v 3.3 4.8 -2.4
v 3.3 4.8 -2.6
v 3.3 5.4 -2.4
v 3.3 5.4 -2.6
v 4.1 4.7 -2.3
v 4.1 4.7 -2.4
v 4.1 4.8 -2.3
v 4.1 4.8 -2.4
v 5.1 4.8 -2.4
v 5.1 4.8 -2.6
v 5.1 5.4 -2.4
v 5.1 5.4 -2.6
v 5.7 6 -2.4
v 5.7 6 -5.7
v 5.7 6.1 -2.4
v 5.7 6.1 -5.7
v 0.5 2 -2.1
v 0.5 2 -2.4
v 0.5 5.6 -2.1
v 0.5 5.6 -2.4
v 0.6 4.8 -2.4
v 0.6 4.8 -2.6
v 0.6 5.4 -2.4
v 0.6 5.4 -2.6
v 0.6 5.6 -2
v 0.6 5.6 -2.1
v 0.6 5.8 -2
v 0.6 5.8 -2.1
v 1.6 4.7 -2.3
v 1.6 4.7 -2.4
v 1.6 4.8 -2.3
v 1.6 4.8 -2.4
v 2.3 4.8 -2.4
v 2.3 4.8 -2.6
v 2.3 5.4 -2.4
v 2.3 5.4 -2.6
v 3.3 4.7 -2.3
v 3.3 4.7 -2.4
v 3.3 4.8 -2.3
v 3.3 4.8 -2.4
v 4.1 4.8 -2.4
v 4.1 4.8 -2.6
v 4.1 5.4 -2.4
v 4.1 5.4 -2.6
v 5.1 4.7 -2.3
v 5.1 4.7 -2.4
v 5.1 4.8 -2.3
v 5.1 4.8 -2.4
v 5.5 2.3 -3.4
v 5.5 2.3 -5.3
v 5.5 2.9 -3.4
v 5.5 2.9 -5.3
v 5.5 4.8 -3.4
v 5.5 4.8 -5.3
v 5.5 5.4 -3.4
v 5.5 5.4 -5.3
v 5.7 2 -2.4
v 5.7 2 -5.7
v 5.7 2.2 -3.4
v 5.7 2.2 -5.3
v 5.7 2.3 -3.4
v 5.7 2.3 -5.3
v 5.7 2.9 -3.4
v 5.7 2.9 -5.3
v 5.7 4.7 -3.4
v 5.7 4.7 -5.3
v 5.7 4.8 -3.4
v 5.7 4.8 -5.3
v 5.7 5.4 -3.4
v 5.7 5.4 -5.3
v 5.7 5.6 -2.4
v 5.7 5.6 -5.7
v 5.8 2.2 -3.4
v 5.8 2.2 -5.3
v 5.8 2.3 -3.4
v 5.8 2.3 -5.3
v 5.8 4.7 -3.4
v 5.8 4.7 -5.3
v 5.8 4.8 -3.4
v 5.8 4.8 -5.3
v 6 5.6 -2.1
v 6 5.6 -5.7
v 6 5.8 -2.1
v 6 5.8 -5.7
v 6.2 5.8 -1.9
v 6.2 5.8 -5.7
v 6.2 6.1 -1.9
v 6.2 6.1 -5.7
v 0 5.8 -1.9
v 0 6.1 -1.9
v 6.2 5.8 -1.9
v 6.2 6.1 -1.9
v 0 5.6 -2
v 0 5.8 -2
v 0.6 5.6 -2
v 0.6 5.8 -2
v 0.1 2 -2.1
v 0.1 5.6 -2.1
v 0.5 2 -2.1
v 0.5 5.6 -2.1
v 0.6 5.6 -2.1
v 0.6 5.8 -2.1
v 6 5.6 -2.1
v 6 5.8 -2.1
v 0.6 4.7 -2.3
v 0.6 4.8 -2.3
v 1.6 4.7 -2.3
v 1.6 4.8 -2.3
v 2.3 4.7 -2.3
v 2.3 4.8 -2.3
v 3.3 4.7 -2.3
v 3.3 4.8 -2.3
v 4.1 4.7 -2.3
v 4.1 4.8 -2.3
v 5.1 4.7 -2.3
v 5.1 4.8 -2.3
v 0 2 -2.4
v 0 5.6 -2.4
v 0.1 2 -2.4
v 0.1 5.6 -2.4
v 0.5 2 -2.4
v 0.5 5.6 -2.4
v 0.6 4.7 -2.4
v 0.6 4.8 -2.4
v 0.6 5.4 -2.4
v 1.6 4.7 -2.4
v 1.6 4.8 -2.4
v 1.6 5.4 -2.4
v 2.3 4.7 -2.4
v 2.3 4.8 -2.4
v 2.3 5.4 -2.4
v 3.3 4.7 -2.4
v 3.3 4.8 -2.4
v 3.3 5.4 -2.4
v 4.1 4.7 -2.4
v 4.1 4.8 -2.4
v 4.1 5.4 -2.4
v 5.1 4.7 -2.4
v 5.1 4.8 -2.4
v 5.1 5.4 -2.4
v 5.7 2 -2.4
v 5.7 5.6 -2.4
v 0.6 4.8 -2.6
v 0.6 5.4 -2.6
v 1.6 4.8 -2.6
v 1.6 5.4 -2.6
v 2.3 4.8 -2.6
v 2.3 5.4 -2.6
v 3.3 4.8 -2.6
v 3.3 5.4 -2.6
v 4.1 4.8 -2.6
v 4.1 5.4 -2.6
v 5.1 4.8 -2.6
v 5.1 5.4 -2.6
v 5.7 2.2 -3.4
v 5.7 2.3 -3.4
v 5.7 4.7 -3.4
v 5.7 4.8 -3.4
v 5.8 2.2 -3.4
v 5.8 2.3 -3.4
v 5.8 4.7 -3.4
v 5.8 4.8 -3.4
v 5.5 2.3 -5.3
v 5.5 2.9 -5.3
v 5.5 4.8 -5.3
v 5.5 5.4 -5.3
v 5.7 2.3 -5.3
v 5.7 2.9 -5.3
v 5.7 4.8 -5.3
v 5.7 5.4 -5.3
v 0 6 -2.4
v 0 6.1 -2.4
v 5.7 6 -2.4
v 5.7 6.1 -2.4
v 5.5 2.3 -3.4
v 5.5 2.9 -3.4
v 5.5 4.8 -3.4
v 5.5 5.4 -3.4
v 5.7 2.3 -3.4
v 5.7 2.9 -3.4
v 5.7 4.8 -3.4
v 5.7 5.4 -3.4
v 5.7 2.2 -5.3
v 5.7 2.3 -5.3
v 5.7 4.7 -5.3
v 5.7 4.8 -5.3
v 5.8 2.2 -5.3
v 5.8 2.3 -5.3
v 5.8 4.7 -5.3
v 5.8 4.8 -5.3
v 0 2 -5.7
v 0 5.8 -5.7
v 0 6 -5.7
v 5.7 2 -5.7
v 5.7 5.6 -5.7
v 5.7 5.8 -5.7
v 5.7 6 -5.7
v 5.7 6.1 -5.7
v 6 5.6 -5.7
v 6 5.8 -5.7
v 6.2 5.8 -5.7
v 6.2 6.1 -5.7
v 0.1 2 -2.1
v 0.5 2 -2.1
v 0 2 -2.4
v 0.1 2 -2.4
v 0.5 2 -2.4
v 5.7 2 -2.4
v 0 2 -5.7
v 5.7 2 -5.7
v 5.7 2.2 -3.4
v 5.8 2.2 -3.4
v 5.7 2.2 -5.3
v 5.8 2.2 -5.3
v 5.5 2.9 -3.4
v 5.7 2.9 -3.4
v 5.5 2.9 -5.3
v 5.7 2.9 -5.3
v 0.6 4.7 -2.3
v 1.6 4.7 -2.3
v 2.3 4.7 -2.3
v 3.3 4.7 -2.3
v 4.1 4.7 -2.3
v 5.1 4.7 -2.3
v 0.6 4.7 -2.4
v 1.6 4.7 -2.4
v 2.3 4.7 -2.4
v 3.3 4.7 -2.4
v 4.1 4.7 -2.4
v 5.1 4.7 -2.4
v 5.7 4.7 -3.4
v 5.8 4.7 -3.4
v 5.7 4.7 -5.3
v 5.8 4.7 -5.3
v 0.6 5.4 -2.4
v 1.6 5.4 -2.4
v 2.3 5.4 -2.4
v 3.3 5.4 -2.4
v 4.1 5.4 -2.4
v 5.1 5.4 -2.4
v 0.6 5.4 -2.6
v 1.6 5.4 -2.6
v 2.3 5.4 -2.6
v 3.3 5.4 -2.6
v 4.1 5.4 -2.6
v 5.1 5.4 -2.6
v 5.5 5.4 -3.4
v 5.7 5.4 -3.4
v 5.5 5.4 -5.3
v 5.7 5.4 -5.3
v 0 5.6 -2
v 0.6 5.6 -2
v 0.1 5.6 -2.1
v 0.5 5.6 -2.1
v 0.6 5.6 -2.1
v 6 5.6 -2.1
v 0 5.6 -2.4
v 0.1 5.6 -2.4
v 0.5 5.6 -2.4
v 5.7 5.6 -2.4
v 5.7 5.6 -5.7
v 6 5.6 -5.7
v 0 5.8 -1.9
v 6.2 5.8 -1.9
v 0 5.8 -2
v 0.6 5.8 -2
v 0.6 5.8 -2.1
v 6 5.8 -2.1
v 6 5.8 -5.7
v 6.2 5.8 -5.7
v 5.5 2.3 -3.4
v 5.7 2.3 -3.4
v 5.8 2.3 -3.4
v 5.5 2.3 -5.3
v 5.7 2.3 -5.3
v 5.8 2.3 -5.3
v 0.6 4.8 -2.3
v 1.6 4.8 -2.3
v 2.3 4.8 -2.3
v 3.3 4.8 -2.3
v 4.1 4.8 -2.3
v 5.1 4.8 -2.3
v 0.6 4.8 -2.4
v 1.6 4.8 -2.4
v 2.3 4.8 -2.4
v 3.3 4.8 -2.4
v 4.1 4.8 -2.4
v 5.1 4.8 -2.4
v 0.6 4.8 -2.6
v 1.6 4.8 -2.6
v 2.3 4.8 -2.6
v 3.3 4.8 -2.6
v 4.1 4.8 -2.6
v 5.1 4.8 -2.6
v 5.5 4.8 -3.4
v 5.7 4.8 -3.4
v 5.8 4.8 -3.4
v 5.5 4.8 -5.3
v 5.7 4.8 -5.3
v 5.8 4.8 -5.3
v 0 6 -2.4
v 5.7 6 -2.4
v 0 6 -5.7
v 5.7 6 -5.7
v 0 6.1 -1.9
v 6.2 6.1 -1.9
v 0 6.1 -2.4
v 5.7 6.1 -2.4
v 5.7 6.1 -5.7
v 6.2 6.1 -5.7

# faces
f 4/2/1 2/2/1 1/2/1
f 6/3/1 4/3/1 3/3/1
f 7/2/1 2/2/1 4/2/1
f 7/3/1 4/3/1 6/3/1
f 8/2/1 2/2/1 7/2/1
f 9/3/1 6/3/1 5/3/1
f 9/3/1 7/3/1 6/3/1
f 9/3/1 8/3/1 7/3/1
f 10/3/1 8/3/1 9/3/1
f 11/3/1 9/3/1 5/3/1
f 12/3/1 9/3/1 11/3/1
f 15/1/1 14/1/1 13/1/1
f 16/1/1 14/1/1 15/1/1
f 19/4/1 18/4/1 17/4/1
f 20/4/1 18/4/1 19/4/1
f 23/2/1 22/2/1 21/2/1
f 24/2/1 22/2/1 23/2/1
f 27/4/1 26/4/1 25/4/1
f 28/4/1 26/4/1 27/4/1
f 31/2/1 30/2/1 29/2/1
f 32/2/1 30/2/1 31/2/1
f 35/4/1 34/4/1 33/4/1
f 36/4/1 34/4/1 35/4/1
f 39/2/1 38/2/1 37/2/1
f 40/2/1 38/2/1 39/2/1
f 43/3/1 42/3/1 41/3/1
f 44/3/1 42/3/1 43/3/1
f 45/1/2 46/1/2 47/1/2
f 47/1/2 46/1/2 48/1/2
f 49/2/2 50/2/2 51/2/2
f 51/2/2 50/2/2 52/2/2
f 53/3/2 54/3/2 55/3/2
f 55/3/2 54/3/2 56/3/2
f 57/4/2 58/4/2 59/4/2
f 59/4/2 58/4/2 60/4/2
f 61/2/2 62/2/2 63/2/2
f 63/2/2 62/2/2 64/2/2
f 65/4/2 66/4/2 67/4/2
f 67/4/2 66/4/2 68/4/2
f 69/2/2 70/2/2 71/2/2
f 71/2/2 70/2/2 72/2/2
f 73/4/2 74/4/2 75/4/2
f 75/4/2 74/4/2 76/4/2
f 77/2/2 78/2/2 79/2/2
f 79/2/2 78/2/2 80/2/2
f 81/2/2 82/2/2 83/2/2
f 83/2/2 82/2/2 84/2/2
f 85/2/2 86/2/2 87/2/2
f 87/2/2 86/2/2 88/2/2
f 85/2/2 87/2/2 89/2/2
f 88/2/2 86/2/2 90/2/2
f 85/2/2 89/2/2 91/2/2
f 90/2/2 86/2/2 92/2/2
f 85/2/2 91/2/2 93/2/2
f 91/2/2 92/2/2 93/2/2
f 92/2/2 86/2/2 94/2/2
f 93/2/2 92/2/2 94/2/2
f 85/2/2 93/2/2 95/2/2
f 94/2/2 86/2/2 96/2/2
f 85/2/2 95/2/2 97/2/2
f 96/2/2 86/2/2 98/2/2
f 85/2/2 97/2/2 99/2/2
f 97/2/2 98/2/2 99/2/2
f 98/2/2 86/2/2 100/2/2
f 99/2/2 98/2/2 100/2/2
f 101/4/2 102/4/2 103/4/2
f 103/4/2 102/4/2 104/4/2
f 105/4/2 106/4/2 107/4/2
f 107/4/2 106/4/2 108/4/2
f 109/3/2 110/3/2 111/3/2
f 111/3/2 110/3/2 112/3/2
f 113/3/2 114/3/2 115/3/2
f 115/3/2 114/3/2 116/3/2
f 119/3/3 118/3/3 117/3/3
f 120/3/3 118/3/3 119/3/3
f 123/3/3 122/3/3 121/3/3
f 124/3/3 122/3/3 123/3/3
f 127/1/3 126/1/3 125/1/3
f 128/1/3 126/1/3 127/1/3
f 131/3/3 130/3/3 129/3/3
f 132/3/3 130/3/3 131/3/3
f 135/4/3 134/4/3 133/4/3
f 136/4/3 134/4/3 135/4/3
f 139/4/3 138/4/3 137/4/3
f 140/4/3 138/4/3 139/4/3
f 143/4/3 142/4/3 141/4/3
f 144/4/3 142/4/3 143/4/3
f 147/2/3 146/2/3 145/2/3
f 148/2/3 146/2/3 147/2/3
f 151/2/3 150/2/3 149/2/3
f 152/2/3 150/2/3 151/2/3
f 153/2/3 150/2/3 152/2/3
f 154/2/3 151/2/3 149/2/3
f 156/2/3 150/2/3 153/2/3
f 157/2/3 155/2/3 154/2/3
f 157/2/3 156/2/3 155/2/3
f 157/2/3 154/2/3 149/2/3
f 158/2/3 156/2/3 157/2/3
f 159/2/3 150/2/3 156/2/3
f 159/2/3 156/2/3 158/2/3
f 160/2/3 157/2/3 149/2/3
f 162/2/3 150/2/3 159/2/3
f 163/2/3 161/2/3 160/2/3
f 163/2/3 162/2/3 161/2/3
f 163/2/3 160/2/3 149/2/3
f 164/2/3 162/2/3 163/2/3
f 165/2/3 150/2/3 162/2/3
f 165/2/3 162/2/3 164/2/3
f 166/2/3 163/2/3 149/2/3
f 168/2/3 150/2/3 165/2/3
f 169/2/3 167/2/3 166/2/3
f 169/2/3 168/2/3 167/2/3
f 169/2/3 166/2/3 149/2/3
f 170/2/3 150/2/3 168/2/3
f 170/2/3 168/2/3 169/2/3
f 173/2/3 172/2/3 171/2/3
f 174/2/3 172/2/3 173/2/3
f 177/2/3 176/2/3 175/2/3
f 178/2/3 176/2/3 177/2/3
f 181/2/3 180/2/3 179/2/3
f 182/2/3 180/2/3 181/2/3
f 187/4/3 184/4/3 183/4/3
f 188/4/3 184/4/3 187/4/3
f 189/4/3 186/4/3 185/4/3
f 190/4/3 186/4/3 189/4/3
f 195/2/3 192/2/3 191/2/3
f 196/2/3 192/2/3 195/2/3
f 197/2/3 194/2/3 193/2/3
f 198/2/3 194/2/3 197/2/3
f 199/3/4 200/3/4 201/3/4
f 201/3/4 200/3/4 202/3/4
f 203/2/4 204/2/4 207/2/4
f 207/2/4 204/2/4 208/2/4
f 205/2/4 206/2/4 209/2/4
f 209/2/4 206/2/4 210/2/4
f 211/4/4 212/4/4 215/4/4
f 215/4/4 212/4/4 216/4/4
f 213/4/4 214/4/4 217/4/4
f 217/4/4 214/4/4 218/4/4
f 219/2/4 220/2/4 222/2/4
f 222/2/4 220/2/4 223/2/4
f 220/3/4 221/3/4 224/3/4
f 223/2/4 220/2/4 224/2/4
f 224/3/4 221/3/4 225/3/4
f 225/3/4 226/3/4 227/3/4
f 224/3/4 225/3/4 227/3/4
f 223/3/4 224/3/4 227/3/4
f 227/3/4 226/3/4 228/3/4
f 228/3/4 226/3/4 229/3/4
f 229/3/4 226/3/4 230/3/4
f 234/1/5 232/1/5 231/1/5
f 235/1/5 232/1/5 234/1/5
f 237/2/5 234/2/5 233/2/5
f 237/2/5 236/2/5 235/2/5
f 237/2/5 235/2/5 234/2/5
f 238/2/5 236/2/5 237/2/5
f 241/4/5 240/4/5 239/4/5
f 242/4/5 240/4/5 241/4/5
f 245/2/5 244/2/5 243/2/5
f 246/2/5 244/2/5 245/2/5
f 253/4/5 248/4/5 247/4/5
f 254/4/5 248/4/5 253/4/5
f 255/4/5 250/4/5 249/4/5
f 256/4/5 250/4/5 255/4/5
f 257/4/5 252/4/5 251/4/5
f 258/4/5 252/4/5 257/4/5
f 261/4/5 260/4/5 259/4/5
f 262/4/5 260/4/5 261/4/5
f 269/2/5 264/2/5 263/2/5
f 270/2/5 264/2/5 269/2/5
f 271/2/5 266/2/5 265/2/5
f 272/2/5 266/2/5 271/2/5
f 273/2/5 268/2/5 267/2/5
f 274/2/5 268/2/5 273/2/5
f 277/2/5 276/2/5 275/2/5
f 278/2/5 276/2/5 277/2/5
f 281/3/5 280/3/5 279/3/5
f 282/3/5 280/3/5 281/3/5
f 283/3/5 280/3/5 282/3/5
f 285/3/5 281/3/5 279/3/5
f 286/3/5 281/3/5 285/3/5
f 287/3/5 284/3/5 283/3/5
f 287/3/5 283/3/5 282/3/5
f 288/3/5 284/3/5 287/3/5
f 289/3/5 284/3/5 288/3/5
f 290/3/5 284/3/5 289/3/5
f 293/3/5 292/3/5 291/3/5
f 294/3/5 292/3/5 293/3/5
f 295/3/5 292/3/5 294/3/5
f 296/3/5 292/3/5 295/3/5
f 297/3/5 292/3/5 296/3/5
f 298/3/5 292/3/5 297/3/5
f 299/4/6 300/4/6 302/4/6
f 300/4/6 301/4/6 302/4/6
f 302/4/6 301/4/6 303/4/6
f 303/4/6 301/4/6 304/4/6
f 305/4/6 306/4/6 311/4/6
f 311/4/6 306/4/6 312/4/6
f 307/4/6 308/4/6 313/4/6
f 313/4/6 308/4/6 314/4/6
f 309/4/6 310/4/6 315/4/6
f 315/4/6 310/4/6 316/4/6
f 311/4/6 312/4/6 317/4/6
f 317/4/6 312/4/6 318/4/6
f 313/4/6 314/4/6 319/4/6
f 319/4/6 314/4/6 320/4/6
f 315/4/6 316/4/6 321/4/6
f 321/4/6 316/4/6 322/4/6
f 323/4/6 324/4/6 326/4/6
f 324/4/6 325/4/6 326/4/6
f 326/4/6 325/4/6 327/4/6
f 327/4/6 325/4/6 328/4/6
f 329/3/6 330/3/6 331/3/6
f 331/3/6 330/3/6 332/3/6
f 333/3/6 334/3/6 335/3/6
f 335/3/6 334/3/6 336/3/6
f 336/3/6 334/3/6 337/3/6
f 337/3/6 334/3/6 338/3/6
