# MagicaVoxel @ Ephtracy

# group
o 

# material
mtllib SmallHall.mtl
usemtl palette

# normals
vn -1 0 0
vn 1 0 0
vn 0 0 1
vn 0 0 -1
vn 0 -1 0
vn 0 1 0

# texcoords
vt 0.974609 0.5
vt 0.978516 0.5
vt 0.982422 0.5

# verts
v 0 2 -2.4
v 0 2 -4.1
v 0 6.1 -2.4
v 0 6.1 -4.1
v 8.8 5.9 -2.2
v 8.8 5.9 -2.4
v 8.8 5.9 -4.1
v 8.8 5.9 -4.3
v 8.8 6.1 -2.4
v 8.8 6.1 -4.1
v 8.8 6.2 -2.2
v 8.8 6.2 -4.3
v 8.6 4.4 -2.7
v 8.6 4.4 -3.1
v 8.6 4.4 -3.4
v 8.6 4.4 -3.8
v 8.6 5.7 -2.7
v 8.6 5.7 -3.1
v 8.6 5.7 -3.4
v 8.6 5.7 -3.8
v 8.8 2 -2.4
v 8.8 2 -4.1
v 8.8 4.3 -2.7
v 8.8 4.3 -3.1
v 8.8 4.3 -3.4
v 8.8 4.3 -3.8
v 8.8 4.4 -2.7
v 8.8 4.4 -3.1
v 8.8 4.4 -3.4
v 8.8 4.4 -3.8
v 8.8 5.7 -2.7
v 8.8 5.7 -3.1
v 8.8 5.7 -3.4
v 8.8 5.7 -3.8
v 8.8 5.9 -2.4
v 8.8 5.9 -4.1
v 8.9 4.3 -2.7
v 8.9 4.3 -3.1
v 8.9 4.3 -3.4
v 8.9 4.3 -3.8
v 8.9 4.4 -2.7
v 8.9 4.4 -3.1
v 8.9 4.4 -3.4
v 8.9 4.4 -3.8
v 9.1 5.9 -2.2
v 9.1 5.9 -4.3
v 9.1 6.2 -2.2
v 9.1 6.2 -4.3
v 8.8 5.9 -2.2
v 8.8 6.2 -2.2
v 9.1 5.9 -2.2
v 9.1 6.2 -2.2
v 0 2 -2.4
v 0 6.1 -2.4
v 8.8 2 -2.4
v 8.8 5.9 -2.4
v 8.8 6.1 -2.4
v 8.8 4.3 -2.7
v 8.8 4.4 -2.7
v 8.9 4.3 -2.7
v 8.9 4.4 -2.7
v 8.6 4.4 -3.1
v 8.6 5.7 -3.1
v 8.8 4.4 -3.1
v 8.8 5.7 -3.1
v 8.8 4.3 -3.4
v 8.8 4.4 -3.4
v 8.9 4.3 -3.4
v 8.9 4.4 -3.4
v 8.6 4.4 -3.8
v 8.6 5.7 -3.8
v 8.8 4.4 -3.8
v 8.8 5.7 -3.8
v 8.6 4.4 -2.7
v 8.6 5.7 -2.7
v 8.8 4.4 -2.7
v 8.8 5.7 -2.7
v 8.8 4.3 -3.1
v 8.8 4.4 -3.1
v 8.9 4.3 -3.1
v 8.9 4.4 -3.1
v 8.6 4.4 -3.4
v 8.6 5.7 -3.4
v 8.8 4.4 -3.4
v 8.8 5.7 -3.4
v 8.8 4.3 -3.8
v 8.8 4.4 -3.8
v 8.9 4.3 -3.8
v 8.9 4.4 -3.8
v 0 2 -4.1
v 0 6.1 -4.1
v 8.8 2 -4.1
v 8.8 5.9 -4.1
v 8.8 6.1 -4.1
v 8.8 5.9 -4.3
v 8.8 6.2 -4.3
v 9.1 5.9 -4.3
v 9.1 6.2 -4.3
v 0 2 -2.4
v 8.8 2 -2.4
v 0 2 -4.1
v 8.8 2 -4.1
v 8.8 4.3 -2.7
v 8.9 4.3 -2.7
v 8.8 4.3 -3.1
v 8.9 4.3 -3.1
v 8.8 4.3 -3.4
v 8.9 4.3 -3.4
v 8.8 4.3 -3.8
v 8.9 4.3 -3.8
v 8.6 5.7 -2.7
v 8.8 5.7 -2.7
v 8.6 5.7 -3.1
v 8.8 5.7 -3.1
v 8.6 5.7 -3.4
v 8.8 5.7 -3.4
v 8.6 5.7 -3.8
v 8.8 5.7 -3.8
v 8.8 5.9 -2.2
v 9.1 5.9 -2.2
v 8.8 5.9 -2.4
v 8.8 5.9 -4.1
v 8.8 5.9 -4.3
v 9.1 5.9 -4.3
v 8.6 4.4 -2.7
v 8.8 4.4 -2.7
v 8.9 4.4 -2.7
v 8.6 4.4 -3.1
v 8.8 4.4 -3.1
v 8.9 4.4 -3.1
v 8.6 4.4 -3.4
v 8.8 4.4 -3.4
v 8.9 4.4 -3.4
v 8.6 4.4 -3.8
v 8.8 4.4 -3.8
v 8.9 4.4 -3.8
v 0 6.1 -2.4
v 8.8 6.1 -2.4
v 0 6.1 -4.1
v 8.8 6.1 -4.1
v 8.8 6.2 -2.2
v 9.1 6.2 -2.2
v 8.8 6.2 -4.3
v 9.1 6.2 -4.3

# faces
f 3/1/1 2/1/1 1/1/1
f 4/1/1 2/1/1 3/1/1
f 9/2/1 6/2/1 5/2/1
f 10/2/1 8/2/1 7/2/1
f 11/2/1 9/2/1 5/2/1
f 11/2/1 10/2/1 9/2/1
f 12/2/1 8/2/1 10/2/1
f 12/2/1 10/2/1 11/2/1
f 13/1/2 14/1/2 17/1/2
f 17/1/2 14/1/2 18/1/2
f 15/1/2 16/1/2 19/1/2
f 19/1/2 16/1/2 20/1/2
f 21/1/2 22/1/2 23/1/2
f 23/1/2 22/1/2 24/1/2
f 24/1/2 22/1/2 25/1/2
f 25/1/2 22/1/2 26/1/2
f 21/1/2 23/1/2 27/1/2
f 24/1/2 25/1/2 28/1/2
f 28/1/2 25/1/2 29/1/2
f 26/1/2 22/1/2 30/1/2
f 21/1/2 27/1/2 31/1/2
f 28/1/2 29/1/2 32/1/2
f 32/1/2 29/1/2 33/1/2
f 30/1/2 22/1/2 34/1/2
f 21/1/2 31/1/2 35/1/2
f 33/1/2 34/1/2 35/1/2
f 32/1/2 33/1/2 35/1/2
f 31/1/2 32/1/2 35/1/2
f 34/1/2 22/1/2 36/1/2
f 35/1/2 34/1/2 36/1/2
f 37/3/2 38/3/2 41/3/2
f 41/3/2 38/3/2 42/3/2
f 39/3/2 40/3/2 43/3/2
f 43/3/2 40/3/2 44/3/2
f 45/2/2 46/2/2 47/2/2
f 47/2/2 46/2/2 48/2/2
f 51/2/3 50/2/3 49/2/3
f 52/2/3 50/2/3 51/2/3
f 55/1/3 54/1/3 53/1/3
f 56/1/3 54/1/3 55/1/3
f 57/1/3 54/1/3 56/1/3
f 60/3/3 59/3/3 58/3/3
f 61/3/3 59/3/3 60/3/3
f 64/1/3 63/1/3 62/1/3
f 65/1/3 63/1/3 64/1/3
f 68/3/3 67/3/3 66/3/3
f 69/3/3 67/3/3 68/3/3
f 72/1/3 71/1/3 70/1/3
f 73/1/3 71/1/3 72/1/3
f 74/1/4 75/1/4 76/1/4
f 76/1/4 75/1/4 77/1/4
f 78/3/4 79/3/4 80/3/4
f 80/3/4 79/3/4 81/3/4
f 82/1/4 83/1/4 84/1/4
f 84/1/4 83/1/4 85/1/4
f 86/3/4 87/3/4 88/3/4
f 88/3/4 87/3/4 89/3/4
f 90/1/4 91/1/4 92/1/4
f 92/1/4 91/1/4 93/1/4
f 93/1/4 91/1/4 94/1/4
f 95/2/4 96/2/4 97/2/4
f 97/2/4 96/2/4 98/2/4
f 101/1/5 100/1/5 99/1/5
f 102/1/5 100/1/5 101/1/5
f 105/3/5 104/3/5 103/3/5
f 106/3/5 104/3/5 105/3/5
f 109/3/5 108/3/5 107/3/5
f 110/3/5 108/3/5 109/3/5
f 113/1/5 112/1/5 111/1/5
f 114/1/5 112/1/5 113/1/5
f 117/1/5 116/1/5 115/1/5
f 118/1/5 116/1/5 117/1/5
f 121/2/5 120/2/5 119/2/5
f 122/2/5 120/2/5 121/2/5
f 123/2/5 120/2/5 122/2/5
f 124/2/5 120/2/5 123/2/5
f 125/3/6 126/3/6 128/3/6
f 126/3/6 127/3/6 128/3/6
f 128/3/6 127/3/6 129/3/6
f 129/3/6 127/3/6 130/3/6
f 131/3/6 132/3/6 134/3/6
f 132/3/6 133/3/6 134/3/6
f 134/3/6 133/3/6 135/3/6
f 135/3/6 133/3/6 136/3/6
f 137/1/6 138/1/6 139/1/6
f 139/1/6 138/1/6 140/1/6
f 141/2/6 142/2/6 143/2/6
f 143/2/6 142/2/6 144/2/6
