# MagicaVoxel @ Ephtracy

# group
o 

# material
mtllib TowerTopPiece.mtl
usemtl palette

# normals
vn -1 0 0
vn 1 0 0
vn 0 0 1
vn 0 0 -1
vn 0 -1 0
vn 0 1 0

# texcoords
vt 0.974609 0.5
vt 0.982422 0.5

# verts
v 0 2 -2.4
v 0 2 -9.4
v 0 8 -2.4
v 0 8 -9.4
v 1.5 2.7 -2.3
v 1.5 2.7 -2.4
v 1.5 2.8 -2.3
v 1.5 2.8 -2.4
v 2.9 2.8 -2.4
v 2.9 2.8 -2.6
v 2.9 4.9 -2.4
v 2.9 4.9 -2.6
v 4.4 2.7 -2.3
v 4.4 2.7 -2.4
v 4.4 2.8 -2.3
v 4.4 2.8 -2.4
v 8.2 2.8 -2.4
v 8.2 2.8 -2.6
v 8.2 4.9 -2.4
v 8.2 4.9 -2.6
v 9.7 2.7 -2.3
v 9.7 2.7 -2.4
v 9.7 2.8 -2.3
v 9.7 2.8 -2.4
v 11.1 2.8 -2.4
v 11.1 2.8 -2.6
v 11.1 4.9 -2.4
v 11.1 4.9 -2.6
v 1.5 2.8 -2.4
v 1.5 2.8 -2.6
v 1.5 4.9 -2.4
v 1.5 4.9 -2.6
v 2.9 2.7 -2.3
v 2.9 2.7 -2.4
v 2.9 2.8 -2.3
v 2.9 2.8 -2.4
v 4.4 2.8 -2.4
v 4.4 2.8 -2.6
v 4.4 4.9 -2.4
v 4.4 4.9 -2.6
v 8.2 2.7 -2.3
v 8.2 2.7 -2.4
v 8.2 2.8 -2.3
v 8.2 2.8 -2.4
v 9.7 2.8 -2.4
v 9.7 2.8 -2.6
v 9.7 4.9 -2.4
v 9.7 4.9 -2.6
v 11.1 2.7 -2.3
v 11.1 2.7 -2.4
v 11.1 2.8 -2.3
v 11.1 2.8 -2.4
v 12.6 2 -2.4
v 12.6 2 -9.4
v 12.6 8 -2.4
v 12.6 8 -9.4
v 1.5 2.7 -2.3
v 1.5 2.8 -2.3
v 2.9 2.7 -2.3
v 2.9 2.8 -2.3
v 4.4 2.7 -2.3
v 4.4 2.8 -2.3
v 8.2 2.7 -2.3
v 8.2 2.8 -2.3
v 9.7 2.7 -2.3
v 9.7 2.8 -2.3
v 11.1 2.7 -2.3
v 11.1 2.8 -2.3
v 0 2 -2.4
v 0 8 -2.4
v 1.4 2.7 -2.4
v 1.4 5 -2.4
v 1.5 2.7 -2.4
v 1.5 2.8 -2.4
v 1.5 4.9 -2.4
v 2.9 2.7 -2.4
v 2.9 2.8 -2.4
v 2.9 4.9 -2.4
v 3 2.7 -2.4
v 3 5 -2.4
v 4.3 2.7 -2.4
v 4.3 5 -2.4
v 4.4 2.7 -2.4
v 4.4 2.8 -2.4
v 4.4 4.9 -2.4
v 8.2 2.7 -2.4
v 8.2 2.8 -2.4
v 8.2 4.9 -2.4
v 8.3 2.7 -2.4
v 8.3 5 -2.4
v 9.6 2.7 -2.4
v 9.6 5 -2.4
v 9.7 2.7 -2.4
v 9.7 2.8 -2.4
v 9.7 4.9 -2.4
v 11.1 2.7 -2.4
v 11.1 2.8 -2.4
v 11.1 4.9 -2.4
v 11.2 2.7 -2.4
v 11.2 5 -2.4
v 12.6 2 -2.4
v 12.6 8 -2.4
v 1.5 2.8 -2.6
v 1.5 4.9 -2.6
v 2.9 2.8 -2.6
v 2.9 4.9 -2.6
v 4.4 2.8 -2.6
v 4.4 4.9 -2.6
v 8.2 2.8 -2.6
v 8.2 4.9 -2.6
v 9.7 2.8 -2.6
v 9.7 4.9 -2.6
v 11.1 2.8 -2.6
v 11.1 4.9 -2.6
v 0 2 -9.4
v 0 8 -9.4
v 12.6 2 -9.4
v 12.6 8 -9.4
v 0 2 -2.4
v 12.6 2 -2.4
v 0 2 -9.4
v 12.6 2 -9.4
v 1.5 2.7 -2.3
v 2.9 2.7 -2.3
v 4.4 2.7 -2.3
v 8.2 2.7 -2.3
v 9.7 2.7 -2.3
v 11.1 2.7 -2.3
v 1.5 2.7 -2.4
v 2.9 2.7 -2.4
v 4.4 2.7 -2.4
v 8.2 2.7 -2.4
v 9.7 2.7 -2.4
v 11.1 2.7 -2.4
v 1.5 4.9 -2.4
v 2.9 4.9 -2.4
v 4.4 4.9 -2.4
v 8.2 4.9 -2.4
v 9.7 4.9 -2.4
v 11.1 4.9 -2.4
v 1.5 4.9 -2.6
v 2.9 4.9 -2.6
v 4.4 4.9 -2.6
v 8.2 4.9 -2.6
v 9.7 4.9 -2.6
v 11.1 4.9 -2.6
v 1.5 2.8 -2.3
v 2.9 2.8 -2.3
v 4.4 2.8 -2.3
v 8.2 2.8 -2.3
v 9.7 2.8 -2.3
v 11.1 2.8 -2.3
v 1.5 2.8 -2.4
v 2.9 2.8 -2.4
v 4.4 2.8 -2.4
v 8.2 2.8 -2.4
v 9.7 2.8 -2.4
v 11.1 2.8 -2.4
v 1.5 2.8 -2.6
v 2.9 2.8 -2.6
v 4.4 2.8 -2.6
v 8.2 2.8 -2.6
v 9.7 2.8 -2.6
v 11.1 2.8 -2.6
v 0 8 -2.4
v 12.6 8 -2.4
v 0 8 -9.4
v 12.6 8 -9.4

# faces
f 3/1/1 2/1/1 1/1/1
f 4/1/1 2/1/1 3/1/1
f 7/2/1 6/2/1 5/2/1
f 8/2/1 6/2/1 7/2/1
f 11/2/1 10/2/1 9/2/1
f 12/2/1 10/2/1 11/2/1
f 15/2/1 14/2/1 13/2/1
f 16/2/1 14/2/1 15/2/1
f 19/2/1 18/2/1 17/2/1
f 20/2/1 18/2/1 19/2/1
f 23/2/1 22/2/1 21/2/1
f 24/2/1 22/2/1 23/2/1
f 27/2/1 26/2/1 25/2/1
f 28/2/1 26/2/1 27/2/1
f 29/2/2 30/2/2 31/2/2
f 31/2/2 30/2/2 32/2/2
f 33/2/2 34/2/2 35/2/2
f 35/2/2 34/2/2 36/2/2
f 37/2/2 38/2/2 39/2/2
f 39/2/2 38/2/2 40/2/2
f 41/2/2 42/2/2 43/2/2
f 43/2/2 42/2/2 44/2/2
f 45/2/2 46/2/2 47/2/2
f 47/2/2 46/2/2 48/2/2
f 49/2/2 50/2/2 51/2/2
f 51/2/2 50/2/2 52/2/2
f 53/1/2 54/1/2 55/1/2
f 55/1/2 54/1/2 56/1/2
f 59/2/3 58/2/3 57/2/3
f 60/2/3 58/2/3 59/2/3
f 63/2/3 62/2/3 61/2/3
f 64/2/3 62/2/3 63/2/3
f 67/2/3 66/2/3 65/2/3
f 68/2/3 66/2/3 67/2/3
f 71/1/3 70/1/3 69/1/3
f 72/1/3 70/1/3 71/1/3
f 73/1/3 71/1/3 69/1/3
f 73/2/3 72/2/3 71/2/3
f 74/2/3 72/2/3 73/2/3
f 75/2/3 72/2/3 74/2/3
f 76/1/3 73/1/3 69/1/3
f 78/2/3 72/2/3 75/2/3
f 79/2/3 77/2/3 76/2/3
f 79/2/3 78/2/3 77/2/3
f 79/1/3 76/1/3 69/1/3
f 80/1/3 70/1/3 72/1/3
f 80/2/3 78/2/3 79/2/3
f 80/2/3 72/2/3 78/2/3
f 81/1/3 79/1/3 69/1/3
f 81/1/3 80/1/3 79/1/3
f 82/1/3 70/1/3 80/1/3
f 82/1/3 80/1/3 81/1/3
f 83/1/3 81/1/3 69/1/3
f 83/2/3 82/2/3 81/2/3
f 84/2/3 82/2/3 83/2/3
f 85/2/3 82/2/3 84/2/3
f 86/1/3 83/1/3 69/1/3
f 88/2/3 82/2/3 85/2/3
f 89/2/3 87/2/3 86/2/3
f 89/2/3 88/2/3 87/2/3
f 89/1/3 86/1/3 69/1/3
f 90/1/3 70/1/3 82/1/3
f 90/2/3 88/2/3 89/2/3
f 90/2/3 82/2/3 88/2/3
f 91/1/3 89/1/3 69/1/3
f 91/1/3 90/1/3 89/1/3
f 92/1/3 70/1/3 90/1/3
f 92/1/3 90/1/3 91/1/3
f 93/1/3 91/1/3 69/1/3
f 93/2/3 92/2/3 91/2/3
f 94/2/3 92/2/3 93/2/3
f 95/2/3 92/2/3 94/2/3
f 96/1/3 93/1/3 69/1/3
f 98/2/3 92/2/3 95/2/3
f 99/2/3 97/2/3 96/2/3
f 99/2/3 98/2/3 97/2/3
f 99/1/3 96/1/3 69/1/3
f 100/1/3 70/1/3 92/1/3
f 100/2/3 98/2/3 99/2/3
f 100/2/3 92/2/3 98/2/3
f 101/1/3 99/1/3 69/1/3
f 101/1/3 100/1/3 99/1/3
f 102/1/3 70/1/3 100/1/3
f 102/1/3 100/1/3 101/1/3
f 105/1/3 104/1/3 103/1/3
f 106/1/3 104/1/3 105/1/3
f 109/1/3 108/1/3 107/1/3
f 110/1/3 108/1/3 109/1/3
f 113/1/3 112/1/3 111/1/3
f 114/1/3 112/1/3 113/1/3
f 115/1/4 116/1/4 117/1/4
f 117/1/4 116/1/4 118/1/4
f 121/1/5 120/1/5 119/1/5
f 122/1/5 120/1/5 121/1/5
f 129/2/5 124/2/5 123/2/5
f 130/2/5 124/2/5 129/2/5
f 131/2/5 126/2/5 125/2/5
f 132/2/5 126/2/5 131/2/5
f 133/2/5 128/2/5 127/2/5
f 134/2/5 128/2/5 133/2/5
f 141/2/5 136/2/5 135/2/5
f 142/2/5 136/2/5 141/2/5
f 143/2/5 138/2/5 137/2/5
f 144/2/5 138/2/5 143/2/5
f 145/2/5 140/2/5 139/2/5
f 146/2/5 140/2/5 145/2/5
f 147/2/6 148/2/6 153/2/6
f 153/2/6 148/2/6 154/2/6
f 149/2/6 150/2/6 155/2/6
f 155/2/6 150/2/6 156/2/6
f 151/2/6 152/2/6 157/2/6
f 157/2/6 152/2/6 158/2/6
f 153/2/6 154/2/6 159/2/6
f 159/2/6 154/2/6 160/2/6
f 155/2/6 156/2/6 161/2/6
f 161/2/6 156/2/6 162/2/6
f 157/2/6 158/2/6 163/2/6
f 163/2/6 158/2/6 164/2/6
f 165/1/6 166/1/6 167/1/6
f 167/1/6 166/1/6 168/1/6
