# MagicaVoxel @ Ephtracy

# group
o 

# material
mtllib Body.mtl
usemtl palette

# normals
vn -1 0 0
vn 1 0 0
vn 0 0 1
vn 0 0 -1
vn 0 -1 0
vn 0 1 0

# texcoords
vt 0.201172 0.5
vt 0.294922 0.5
vt 0.724609 0.5

# verts
v 2.8 3.9 -5.1
v 2.8 3.9 -5.7
v 2.8 4.1 -5.1
v 2.8 4.1 -5.7
v 2.8 5.8 -5.1
v 2.8 5.8 -5.7
v 3.8 3.9 -5.1
v 3.8 3.9 -5.7
v 3.8 4.1 -5.1
v 3.8 4.1 -5.7
v 3.8 5.8 -5.1
v 3.8 5.8 -5.7
v 2.8 3.9 -5.1
v 2.8 4.1 -5.1
v 2.8 5.8 -5.1
v 3.8 3.9 -5.1
v 3.8 4.1 -5.1
v 3.8 5.8 -5.1
v 2.8 3.9 -5.7
v 2.8 4.1 -5.7
v 2.8 5.8 -5.7
v 3.8 3.9 -5.7
v 3.8 4.1 -5.7
v 3.8 5.8 -5.7
v 2.8 3.9 -5.1
v 3.8 3.9 -5.1
v 2.8 3.9 -5.7
v 3.8 3.9 -5.7
v 2.8 5.8 -5.1
v 3.8 5.8 -5.1
v 2.8 5.8 -5.7
v 3.8 5.8 -5.7

# faces
f 3/1/1 2/1/1 1/1/1
f 4/1/1 2/1/1 3/1/1
f 5/3/1 4/3/1 3/3/1
f 6/3/1 4/3/1 5/3/1
f 7/1/2 8/1/2 9/1/2
f 9/1/2 8/1/2 10/1/2
f 9/3/2 10/3/2 11/3/2
f 11/3/2 10/3/2 12/3/2
f 16/1/3 14/1/3 13/1/3
f 17/3/3 15/3/3 14/3/3
f 17/1/3 14/1/3 16/1/3
f 18/3/3 15/3/3 17/3/3
f 19/1/4 20/1/4 22/1/4
f 20/3/4 21/3/4 23/3/4
f 22/1/4 20/1/4 23/1/4
f 23/3/4 21/3/4 24/3/4
f 27/1/5 26/1/5 25/1/5
f 28/1/5 26/1/5 27/1/5
f 29/3/6 30/3/6 31/3/6
f 31/3/6 30/3/6 32/3/6
