# MagicaVoxel @ Ephtracy

# group
o 

# material
mtllib Head.mtl
usemtl palette

# normals
vn -1 0 0
vn 1 0 0
vn 0 0 1
vn 0 0 -1
vn 0 -1 0
vn 0 1 0

# texcoords
vt 0.205078 0.5
vt 0.294922 0.5
vt 0.302734 0.5
vt 0.716797 0.5
vt 0.916016 0.5
vt 0.982422 0.5

# verts
v 7.3 4.5 -4.8
v 7.3 4.5 -5.6
v 7.3 4.6 -4.8
v 7.3 4.6 -5.6
v 7.4 3.8 -4.9
v 7.4 3.8 -5.9
v 7.4 4.5 -4.9
v 7.4 4.5 -5.6
v 7.4 4.6 -4.9
v 7.4 4.6 -5.6
v 7.4 5 -4.9
v 7.4 5 -5.9
v 7.4 5.4 -4.9
v 7.4 5.4 -5.9
v 7.5 4.3 -4.8
v 7.5 4.3 -4.9
v 7.5 4.5 -4.8
v 7.5 4.5 -4.9
v 7.5 4.6 -4.8
v 7.5 4.6 -4.9
v 7.5 4.7 -4.8
v 7.5 4.7 -4.9
v 7.5 4.8 -4.8
v 7.5 4.8 -4.9
v 7.8 4.4 -4.8
v 7.8 4.4 -4.9
v 7.8 4.6 -4.8
v 7.8 4.6 -4.9
v 7.9 4 -4.7
v 7.9 4 -4.9
v 7.9 4.3 -4.8
v 7.9 4.3 -4.9
v 7.9 4.5 -4.7
v 7.9 4.5 -4.8
v 8.1 4.6 -4.8
v 8.1 4.6 -4.9
v 8.1 4.7 -4.8
v 8.1 4.7 -4.9
v 8.1 4.8 -4.8
v 8.1 4.8 -4.9
v 8.4 4.4 -4.8
v 8.4 4.4 -4.9
v 8.4 4.6 -4.8
v 8.4 4.6 -4.9
v 7.6 4.4 -4.8
v 7.6 4.4 -4.9
v 7.6 4.6 -4.8
v 7.6 4.6 -4.9
v 7.9 4.6 -4.8
v 7.9 4.6 -4.9
v 7.9 4.7 -4.8
v 7.9 4.7 -4.9
v 7.9 4.8 -4.8
v 7.9 4.8 -4.9
v 8.1 4 -4.7
v 8.1 4 -4.9
v 8.1 4.3 -4.8
v 8.1 4.3 -4.9
v 8.1 4.5 -4.7
v 8.1 4.5 -4.8
v 8.2 4.4 -4.8
v 8.2 4.4 -4.9
v 8.2 4.6 -4.8
v 8.2 4.6 -4.9
v 8.5 4.3 -4.8
v 8.5 4.3 -4.9
v 8.5 4.5 -4.8
v 8.5 4.5 -4.9
v 8.5 4.6 -4.8
v 8.5 4.6 -4.9
v 8.5 4.7 -4.8
v 8.5 4.7 -4.9
v 8.5 4.8 -4.8
v 8.5 4.8 -4.9
v 8.6 3.8 -4.9
v 8.6 3.8 -5.9
v 8.6 4.5 -4.9
v 8.6 4.5 -5.6
v 8.6 4.6 -4.9
v 8.6 4.6 -5.6
v 8.6 5 -4.9
v 8.6 5 -5.9
v 8.6 5.4 -4.9
v 8.6 5.4 -5.9
v 8.7 4.5 -4.8
v 8.7 4.5 -5.6
v 8.7 4.6 -4.8
v 8.7 4.6 -5.6
v 7.9 4 -4.7
v 7.9 4.5 -4.7
v 8.1 4 -4.7
v 8.1 4.5 -4.7
v 7.3 4.5 -4.8
v 7.3 4.6 -4.8
v 7.5 4.3 -4.8
v 7.5 4.5 -4.8
v 7.5 4.6 -4.8
v 7.5 4.7 -4.8
v 7.5 4.8 -4.8
v 7.6 4.4 -4.8
v 7.6 4.6 -4.8
v 7.8 4.4 -4.8
v 7.8 4.6 -4.8
v 7.9 4.3 -4.8
v 7.9 4.5 -4.8
v 7.9 4.6 -4.8
v 7.9 4.7 -4.8
v 7.9 4.8 -4.8
v 8.1 4.3 -4.8
v 8.1 4.5 -4.8
v 8.1 4.6 -4.8
v 8.1 4.7 -4.8
v 8.1 4.8 -4.8
v 8.2 4.4 -4.8
v 8.2 4.6 -4.8
v 8.4 4.4 -4.8
v 8.4 4.6 -4.8
v 8.5 4.3 -4.8
v 8.5 4.5 -4.8
v 8.5 4.6 -4.8
v 8.5 4.7 -4.8
v 8.5 4.8 -4.8
v 8.7 4.5 -4.8
v 8.7 4.6 -4.8
v 7.4 3.8 -4.9
v 7.4 4.5 -4.9
v 7.4 4.6 -4.9
v 7.4 5 -4.9
v 7.4 5.4 -4.9
v 7.5 4.3 -4.9
v 7.5 4.5 -4.9
v 7.5 4.6 -4.9
v 7.5 4.7 -4.9
v 7.5 4.8 -4.9
v 7.6 4.4 -4.9
v 7.6 4.6 -4.9
v 7.7 4.4 -4.9
v 7.7 4.6 -4.9
v 7.8 4.4 -4.9
v 7.8 4.6 -4.9
v 7.9 4 -4.9
v 7.9 4.3 -4.9
v 7.9 4.6 -4.9
v 7.9 4.7 -4.9
v 7.9 4.8 -4.9
v 8.1 4 -4.9
v 8.1 4.3 -4.9
v 8.1 4.6 -4.9
v 8.1 4.7 -4.9
v 8.1 4.8 -4.9
v 8.2 4.4 -4.9
v 8.2 4.6 -4.9
v 8.3 4.4 -4.9
v 8.3 4.6 -4.9
v 8.4 4.4 -4.9
v 8.4 4.6 -4.9
v 8.5 4.3 -4.9
v 8.5 4.5 -4.9
v 8.5 4.6 -4.9
v 8.5 4.7 -4.9
v 8.5 4.8 -4.9
v 8.6 3.8 -4.9
v 8.6 4.5 -4.9
v 8.6 4.6 -4.9
v 8.6 5 -4.9
v 8.6 5.4 -4.9
v 7.3 4.5 -5.6
v 7.3 4.6 -5.6
v 7.4 4.5 -5.6
v 7.4 4.6 -5.6
v 8.6 4.5 -5.6
v 8.6 4.6 -5.6
v 8.7 4.5 -5.6
v 8.7 4.6 -5.6
v 7.4 3.8 -5.9
v 7.4 5 -5.9
v 7.4 5.4 -5.9
v 8.6 3.8 -5.9
v 8.6 5 -5.9
v 8.6 5.4 -5.9
v 7.4 3.8 -4.9
v 8.6 3.8 -4.9
v 7.4 3.8 -5.9
v 8.6 3.8 -5.9
v 7.9 4 -4.7
v 8.1 4 -4.7
v 7.9 4 -4.9
v 8.1 4 -4.9
v 7.5 4.3 -4.8
v 7.9 4.3 -4.8
v 8.1 4.3 -4.8
v 8.5 4.3 -4.8
v 7.5 4.3 -4.9
v 7.9 4.3 -4.9
v 8.1 4.3 -4.9
v 8.5 4.3 -4.9
v 7.3 4.5 -4.8
v 7.5 4.5 -4.8
v 8.5 4.5 -4.8
v 8.7 4.5 -4.8
v 7.4 4.5 -4.9
v 7.5 4.5 -4.9
v 8.5 4.5 -4.9
v 8.6 4.5 -4.9
v 7.3 4.5 -5.6
v 7.4 4.5 -5.6
v 8.6 4.5 -5.6
v 8.7 4.5 -5.6
v 7.6 4.6 -4.8
v 7.8 4.6 -4.8
v 8.2 4.6 -4.8
v 8.4 4.6 -4.8
v 7.6 4.6 -4.9
v 7.7 4.6 -4.9
v 7.8 4.6 -4.9
v 8.2 4.6 -4.9
v 8.3 4.6 -4.9
v 8.4 4.6 -4.9
v 7.6 4.4 -4.8
v 7.8 4.4 -4.8
v 8.2 4.4 -4.8
v 8.4 4.4 -4.8
v 7.6 4.4 -4.9
v 7.7 4.4 -4.9
v 7.8 4.4 -4.9
v 8.2 4.4 -4.9
v 8.3 4.4 -4.9
v 8.4 4.4 -4.9
v 7.9 4.5 -4.7
v 8.1 4.5 -4.7
v 7.9 4.5 -4.8
v 8.1 4.5 -4.8
v 7.3 4.6 -4.8
v 7.5 4.6 -4.8
v 7.9 4.6 -4.8
v 8.1 4.6 -4.8
v 8.5 4.6 -4.8
v 8.7 4.6 -4.8
v 7.4 4.6 -4.9
v 7.5 4.6 -4.9
v 7.9 4.6 -4.9
v 8.1 4.6 -4.9
v 8.5 4.6 -4.9
v 8.6 4.6 -4.9
v 7.3 4.6 -5.6
v 7.4 4.6 -5.6
v 8.6 4.6 -5.6
v 8.7 4.6 -5.6
v 7.5 4.8 -4.8
v 7.9 4.8 -4.8
v 8.1 4.8 -4.8
v 8.5 4.8 -4.8
v 7.5 4.8 -4.9
v 7.9 4.8 -4.9
v 8.1 4.8 -4.9
v 8.5 4.8 -4.9
v 7.4 5.4 -4.9
v 8.6 5.4 -4.9
v 7.4 5.4 -5.9
v 8.6 5.4 -5.9

# faces
f 3/6/1 2/6/1 1/6/1
f 4/6/1 2/6/1 3/6/1
f 7/2/1 6/2/1 5/2/1
f 8/2/1 6/2/1 7/2/1
f 10/2/1 6/2/1 8/2/1
f 11/2/1 10/2/1 9/2/1
f 12/2/1 6/2/1 10/2/1
f 12/2/1 10/2/1 11/2/1
f 13/3/1 12/3/1 11/3/1
f 14/3/1 12/3/1 13/3/1
f 17/6/1 16/6/1 15/6/1
f 18/6/1 16/6/1 17/6/1
f 21/6/1 20/6/1 19/6/1
f 22/6/1 20/6/1 21/6/1
f 23/3/1 22/3/1 21/3/1
f 24/3/1 22/3/1 23/3/1
f 27/6/1 26/6/1 25/6/1
f 28/6/1 26/6/1 27/6/1
f 31/1/1 30/1/1 29/1/1
f 32/1/1 30/1/1 31/1/1
f 33/1/1 31/1/1 29/1/1
f 34/1/1 31/1/1 33/1/1
f 37/6/1 36/6/1 35/6/1
f 38/6/1 36/6/1 37/6/1
f 39/3/1 38/3/1 37/3/1
f 40/3/1 38/3/1 39/3/1
f 43/6/1 42/6/1 41/6/1
f 44/6/1 42/6/1 43/6/1
f 45/6/2 46/6/2 47/6/2
f 47/6/2 46/6/2 48/6/2
f 49/6/2 50/6/2 51/6/2
f 51/6/2 50/6/2 52/6/2
f 51/3/2 52/3/2 53/3/2
f 53/3/2 52/3/2 54/3/2
f 55/1/2 56/1/2 57/1/2
f 57/1/2 56/1/2 58/1/2
f 55/1/2 57/1/2 59/1/2
f 59/1/2 57/1/2 60/1/2
f 61/6/2 62/6/2 63/6/2
f 63/6/2 62/6/2 64/6/2
f 65/6/2 66/6/2 67/6/2
f 67/6/2 66/6/2 68/6/2
f 69/6/2 70/6/2 71/6/2
f 71/6/2 70/6/2 72/6/2
f 71/3/2 72/3/2 73/3/2
f 73/3/2 72/3/2 74/3/2
f 75/2/2 76/2/2 77/2/2
f 77/2/2 76/2/2 78/2/2
f 78/2/2 76/2/2 80/2/2
f 79/2/2 80/2/2 81/2/2
f 80/2/2 76/2/2 82/2/2
f 81/2/2 80/2/2 82/2/2
f 81/3/2 82/3/2 83/3/2
f 83/3/2 82/3/2 84/3/2
f 85/6/2 86/6/2 87/6/2
f 87/6/2 86/6/2 88/6/2
f 91/1/3 90/1/3 89/1/3
f 92/1/3 90/1/3 91/1/3
f 96/6/3 94/6/3 93/6/3
f 97/6/3 94/6/3 96/6/3
f 100/6/3 96/6/3 95/6/3
f 100/6/3 97/6/3 96/6/3
f 100/6/3 98/6/3 97/6/3
f 101/6/3 98/6/3 100/6/3
f 102/6/3 100/6/3 95/6/3
f 103/6/3 98/6/3 101/6/3
f 104/6/3 102/6/3 95/6/3
f 104/6/3 103/6/3 102/6/3
f 105/6/3 103/6/3 104/6/3
f 106/6/3 98/6/3 103/6/3
f 106/6/3 103/6/3 105/6/3
f 107/3/3 99/3/3 98/3/3
f 107/6/3 98/6/3 106/6/3
f 108/3/3 99/3/3 107/3/3
f 110/6/3 106/6/3 105/6/3
f 111/6/3 106/6/3 110/6/3
f 114/6/3 110/6/3 109/6/3
f 114/6/3 111/6/3 110/6/3
f 114/6/3 112/6/3 111/6/3
f 115/6/3 112/6/3 114/6/3
f 116/6/3 114/6/3 109/6/3
f 117/6/3 112/6/3 115/6/3
f 118/6/3 116/6/3 109/6/3
f 118/6/3 117/6/3 116/6/3
f 119/6/3 117/6/3 118/6/3
f 120/6/3 112/6/3 117/6/3
f 120/6/3 117/6/3 119/6/3
f 121/3/3 113/3/3 112/3/3
f 121/6/3 112/6/3 120/6/3
f 122/3/3 113/3/3 121/3/3
f 123/6/3 120/6/3 119/6/3
f 124/6/3 120/6/3 123/6/3
f 130/2/3 126/2/3 125/2/3
f 131/2/3 126/2/3 130/2/3
f 132/2/3 128/2/3 127/2/3
f 133/2/3 128/2/3 132/2/3
f 134/2/3 128/2/3 133/2/3
f 137/4/3 136/4/3 135/4/3
f 138/4/3 136/4/3 137/4/3
f 139/5/3 138/5/3 137/5/3
f 140/5/3 138/5/3 139/5/3
f 141/2/3 130/2/3 125/2/3
f 142/2/3 130/2/3 141/2/3
f 145/2/3 128/2/3 134/2/3
f 146/2/3 141/2/3 125/2/3
f 148/2/3 144/2/3 143/2/3
f 148/2/3 145/2/3 144/2/3
f 149/2/3 145/2/3 148/2/3
f 150/2/3 128/2/3 145/2/3
f 150/2/3 145/2/3 149/2/3
f 153/5/3 152/5/3 151/5/3
f 154/5/3 152/5/3 153/5/3
f 155/4/3 154/4/3 153/4/3
f 156/4/3 154/4/3 155/4/3
f 157/2/3 147/2/3 146/2/3
f 161/2/3 128/2/3 150/2/3
f 162/2/3 158/2/3 157/2/3
f 162/2/3 146/2/3 125/2/3
f 162/2/3 157/2/3 146/2/3
f 163/2/3 158/2/3 162/2/3
f 164/2/3 161/2/3 160/2/3
f 164/2/3 160/2/3 159/2/3
f 165/3/3 129/3/3 128/3/3
f 165/2/3 161/2/3 164/2/3
f 165/2/3 128/2/3 161/2/3
f 166/3/3 129/3/3 165/3/3
f 167/6/4 168/6/4 169/6/4
f 169/6/4 168/6/4 170/6/4
f 171/6/4 172/6/4 173/6/4
f 173/6/4 172/6/4 174/6/4
f 175/2/4 176/2/4 178/2/4
f 176/3/4 177/3/4 179/3/4
f 178/2/4 176/2/4 179/2/4
f 179/3/4 177/3/4 180/3/4
f 183/2/5 182/2/5 181/2/5
f 184/2/5 182/2/5 183/2/5
f 187/1/5 186/1/5 185/1/5
f 188/1/5 186/1/5 187/1/5
f 193/6/5 190/6/5 189/6/5
f 194/6/5 190/6/5 193/6/5
f 195/6/5 192/6/5 191/6/5
f 196/6/5 192/6/5 195/6/5
f 201/6/5 198/6/5 197/6/5
f 202/6/5 198/6/5 201/6/5
f 203/6/5 200/6/5 199/6/5
f 204/6/5 200/6/5 203/6/5
f 205/6/5 201/6/5 197/6/5
f 206/6/5 201/6/5 205/6/5
f 207/6/5 200/6/5 204/6/5
f 208/6/5 200/6/5 207/6/5
f 213/6/5 210/6/5 209/6/5
f 214/6/5 210/6/5 213/6/5
f 215/6/5 210/6/5 214/6/5
f 216/6/5 212/6/5 211/6/5
f 217/6/5 212/6/5 216/6/5
f 218/6/5 212/6/5 217/6/5
f 219/6/6 220/6/6 223/6/6
f 223/6/6 220/6/6 224/6/6
f 224/6/6 220/6/6 225/6/6
f 221/6/6 222/6/6 226/6/6
f 226/6/6 222/6/6 227/6/6
f 227/6/6 222/6/6 228/6/6
f 229/1/6 230/1/6 231/1/6
f 231/1/6 230/1/6 232/1/6
f 233/6/6 234/6/6 239/6/6
f 239/6/6 234/6/6 240/6/6
f 235/6/6 236/6/6 241/6/6
f 241/6/6 236/6/6 242/6/6
f 237/6/6 238/6/6 243/6/6
f 243/6/6 238/6/6 244/6/6
f 233/6/6 239/6/6 245/6/6
f 245/6/6 239/6/6 246/6/6
f 244/6/6 238/6/6 247/6/6
f 247/6/6 238/6/6 248/6/6
f 249/3/6 250/3/6 253/3/6
f 253/3/6 250/3/6 254/3/6
f 251/3/6 252/3/6 255/3/6
f 255/3/6 252/3/6 256/3/6
f 257/3/6 258/3/6 259/3/6
f 259/3/6 258/3/6 260/3/6
