# MagicaVoxel @ Ephtracy

# group
o 

# material
mtllib Lamp.mtl
usemtl palette

# normals
vn -1 0 0
vn 1 0 0
vn 0 0 1
vn 0 0 -1
vn 0 -1 0
vn 0 1 0

# texcoords
vt 0.982422 0.5
vt 0.986328 0.5

# verts
v 4.9 8.8 -6.4
v 4.9 8.8 -6.5
v 4.9 8.8 -6.8
v 4.9 9 -6.4
v 4.9 9 -6.5
v 4.9 9.4 -6.4
v 4.9 9.4 -6.5
v 4.9 9.6 -6.4
v 4.9 9.6 -6.5
v 4.9 9.6 -6.8
v 6.1 8.8 -6.4
v 6.1 8.8 -6.5
v 6.1 9 -6.4
v 6.1 9 -6.5
v 6.1 9 -6.7
v 6.1 9.4 -6.4
v 6.1 9.4 -6.5
v 6.1 9.4 -6.7
v 6.1 9.6 -6.4
v 6.1 9.6 -6.5
v 5.1 8.8 -6.4
v 5.1 8.8 -6.5
v 5.1 9 -6.4
v 5.1 9 -6.5
v 5.1 9 -6.7
v 5.1 9.4 -6.4
v 5.1 9.4 -6.5
v 5.1 9.4 -6.7
v 5.1 9.6 -6.4
v 5.1 9.6 -6.5
v 6.3 8.8 -6.4
v 6.3 8.8 -6.5
v 6.3 8.8 -6.8
v 6.3 9 -6.4
v 6.3 9 -6.5
v 6.3 9.4 -6.4
v 6.3 9.4 -6.5
v 6.3 9.6 -6.4
v 6.3 9.6 -6.5
v 6.3 9.6 -6.8
v 4.9 8.8 -6.4
v 4.9 9 -6.4
v 4.9 9.4 -6.4
v 4.9 9.6 -6.4
v 5.1 8.8 -6.4
v 5.1 9 -6.4
v 5.1 9.4 -6.4
v 5.1 9.6 -6.4
v 6.1 8.8 -6.4
v 6.1 9 -6.4
v 6.1 9.4 -6.4
v 6.1 9.6 -6.4
v 6.3 8.8 -6.4
v 6.3 9 -6.4
v 6.3 9.4 -6.4
v 6.3 9.6 -6.4
v 4.9 9 -6.5
v 4.9 9.4 -6.5
v 5.1 8.8 -6.5
v 5.1 9 -6.5
v 5.1 9.4 -6.5
v 5.1 9.6 -6.5
v 6.1 8.8 -6.5
v 6.1 9 -6.5
v 6.1 9.4 -6.5
v 6.1 9.6 -6.5
v 6.3 9 -6.5
v 6.3 9.4 -6.5
v 5.1 9 -6.7
v 5.1 9.4 -6.7
v 6.1 9 -6.7
v 6.1 9.4 -6.7
v 4.9 8.8 -6.8
v 4.9 9.6 -6.8
v 6.3 8.8 -6.8
v 6.3 9.6 -6.8
v 4.9 8.8 -6.4
v 5.1 8.8 -6.4
v 6.1 8.8 -6.4
v 6.3 8.8 -6.4
v 4.9 8.8 -6.5
v 5.1 8.8 -6.5
v 6.1 8.8 -6.5
v 6.3 8.8 -6.5
v 4.9 8.8 -6.8
v 6.3 8.8 -6.8
v 4.9 9.4 -6.4
v 5.1 9.4 -6.4
v 6.1 9.4 -6.4
v 6.3 9.4 -6.4
v 4.9 9.4 -6.5
v 5.1 9.4 -6.5
v 6.1 9.4 -6.5
v 6.3 9.4 -6.5
v 5.1 9.4 -6.7
v 6.1 9.4 -6.7
v 4.9 9 -6.4
v 5.1 9 -6.4
v 6.1 9 -6.4
v 6.3 9 -6.4
v 4.9 9 -6.5
v 5.1 9 -6.5
v 6.1 9 -6.5
v 6.3 9 -6.5
v 5.1 9 -6.7
v 6.1 9 -6.7
v 4.9 9.6 -6.4
v 5.1 9.6 -6.4
v 6.1 9.6 -6.4
v 6.3 9.6 -6.4
v 4.9 9.6 -6.5
v 5.1 9.6 -6.5
v 6.1 9.6 -6.5
v 6.3 9.6 -6.5
v 4.9 9.6 -6.8
v 6.3 9.6 -6.8

# faces
f 4/1/1 2/1/1 1/1/1
f 5/2/1 3/2/1 2/2/1
f 5/1/1 2/1/1 4/1/1
f 7/2/1 3/2/1 5/2/1
f 8/1/1 7/1/1 6/1/1
f 9/2/1 3/2/1 7/2/1
f 9/1/1 7/1/1 8/1/1
f 10/2/1 3/2/1 9/2/1
f 13/1/1 12/1/1 11/1/1
f 14/1/1 12/1/1 13/1/1
f 17/2/1 15/2/1 14/2/1
f 18/2/1 15/2/1 17/2/1
f 19/1/1 17/1/1 16/1/1
f 20/1/1 17/1/1 19/1/1
f 21/1/2 22/1/2 23/1/2
f 23/1/2 22/1/2 24/1/2
f 24/2/2 25/2/2 27/2/2
f 27/2/2 25/2/2 28/2/2
f 26/1/2 27/1/2 29/1/2
f 29/1/2 27/1/2 30/1/2
f 31/1/2 32/1/2 34/1/2
f 32/2/2 33/2/2 35/2/2
f 34/1/2 32/1/2 35/1/2
f 35/2/2 33/2/2 37/2/2
f 36/1/2 37/1/2 38/1/2
f 37/2/2 33/2/2 39/2/2
f 38/1/2 37/1/2 39/1/2
f 39/2/2 33/2/2 40/2/2
f 45/1/3 42/1/3 41/1/3
f 46/1/3 42/1/3 45/1/3
f 47/1/3 44/1/3 43/1/3
f 48/1/3 44/1/3 47/1/3
f 53/1/3 50/1/3 49/1/3
f 54/1/3 50/1/3 53/1/3
f 55/1/3 52/1/3 51/1/3
f 56/1/3 52/1/3 55/1/3
f 60/2/3 58/2/3 57/2/3
f 61/2/3 58/2/3 60/2/3
f 63/2/3 60/2/3 59/2/3
f 64/2/3 60/2/3 63/2/3
f 65/2/3 62/2/3 61/2/3
f 66/2/3 62/2/3 65/2/3
f 67/2/3 65/2/3 64/2/3
f 68/2/3 65/2/3 67/2/3
f 71/2/3 70/2/3 69/2/3
f 72/2/3 70/2/3 71/2/3
f 73/2/4 74/2/4 75/2/4
f 75/2/4 74/2/4 76/2/4
f 81/1/5 78/1/5 77/1/5
f 82/1/5 78/1/5 81/1/5
f 83/1/5 80/1/5 79/1/5
f 84/1/5 80/1/5 83/1/5
f 85/2/5 82/2/5 81/2/5
f 85/2/5 83/2/5 82/2/5
f 85/2/5 84/2/5 83/2/5
f 86/2/5 84/2/5 85/2/5
f 91/1/5 88/1/5 87/1/5
f 92/1/5 88/1/5 91/1/5
f 93/1/5 90/1/5 89/1/5
f 94/1/5 90/1/5 93/1/5
f 95/2/5 93/2/5 92/2/5
f 96/2/5 93/2/5 95/2/5
f 97/1/6 98/1/6 101/1/6
f 101/1/6 98/1/6 102/1/6
f 99/1/6 100/1/6 103/1/6
f 103/1/6 100/1/6 104/1/6
f 102/2/6 103/2/6 105/2/6
f 105/2/6 103/2/6 106/2/6
f 107/1/6 108/1/6 111/1/6
f 111/1/6 108/1/6 112/1/6
f 109/1/6 110/1/6 113/1/6
f 113/1/6 110/1/6 114/1/6
f 111/2/6 112/2/6 115/2/6
f 112/2/6 113/2/6 115/2/6
f 113/2/6 114/2/6 115/2/6
f 115/2/6 114/2/6 116/2/6
