# Blender v2.82 (sub 7) OBJ File: 'PipeLarge.blend'
# www.blender.org
mtllib PipeLarge.mtl
o Cube_Cube.001
v 4.019744 2.000001 -6.213369
v 4.120570 10.139008 -6.137301
v 4.019744 2.000001 -6.413370
v 4.120570 10.139008 -6.337302
v 4.219744 2.000001 -6.213369
v 4.320570 10.139008 -6.137301
v 4.219744 2.000001 -6.413370
v 4.320570 10.139008 -6.337302
v 4.000000 8.121224 -6.143010
v 4.000000 8.121224 -6.343009
v 4.200000 8.121224 -6.343009
v 4.200000 8.121224 -6.143010
v 4.000000 4.564240 -6.343009
v 4.200000 4.564240 -6.343009
v 4.200000 4.564240 -6.143010
v 4.000000 4.564240 -6.143010
v 4.055247 13.555479 -6.137301
v 4.055247 13.555479 -6.337302
v 4.255247 13.555479 -6.337302
v 4.255247 13.555479 -6.137301
v 4.087908 28.776213 -6.059680
v 4.087908 28.776213 -6.259680
v 4.287909 28.776213 -6.259680
v 4.287909 28.776213 -6.059680
v 4.267066 19.339378 -6.470316
v 4.267066 19.339378 -6.270316
v 4.067066 19.339378 -6.270316
v 4.067066 19.339378 -6.470316
v 4.264013 25.389521 -6.204731
v 4.064013 25.389521 -6.004731
v 4.264013 25.389521 -6.004731
v 4.064013 25.389521 -6.204731
vt 0.556338 0.000000
vt 0.625000 0.000000
vt 0.625000 0.250000
vt 0.556338 0.250000
vt 0.625000 0.500000
vt 0.556338 0.500000
vt 0.625000 0.750000
vt 0.556338 0.750000
vt 0.625000 1.000000
vt 0.556338 1.000000
vt 0.625000 0.500000
vt 0.625000 0.750000
vt 0.484711 0.750000
vt 0.484711 1.000000
vt 0.484711 0.500000
vt 0.484711 0.250000
vt 0.484711 0.000000
vt 0.375000 0.000000
vt 0.375000 0.250000
vt 0.375000 0.500000
vt 0.375000 0.750000
vt 0.375000 1.000000
vt 0.625000 0.750000
vt 0.625000 0.500000
vt 0.625000 0.500000
vt 0.625000 0.750000
vt 0.625000 0.000000
vt 0.625000 0.250000
vt 0.625000 1.000000
vt 0.625000 0.250000
vt 0.625000 0.000000
vt 0.625000 0.000000
vt 0.625000 0.250000
vt 0.625000 1.000000
vt 0.625000 1.000000
vt 0.625000 0.250000
vt 0.625000 0.500000
vt 0.625000 0.750000
vt 0.625000 1.000000
vt 0.625000 0.000000
vn -0.9982 0.0596 0.0000
vn 0.0000 0.0028 -1.0000
vn 0.9982 -0.0596 0.0000
vn 0.0000 -0.0028 1.0000
vn 0.9998 0.0191 0.0000
vn 0.0000 0.0000 1.0000
vn 1.0000 0.0000 0.0000
vn 0.0000 0.0000 -1.0000
vn -1.0000 0.0000 0.0000
vn -1.0000 -0.0077 0.0000
vn 0.0000 0.0274 -0.9996
vn 1.0000 0.0077 0.0000
vn 0.0000 -0.0274 0.9996
vn 1.0000 -0.0071 0.0000
vn -0.9998 -0.0191 0.0000
vn -1.0000 0.0071 0.0000
vn 0.0000 0.0162 0.9999
vn 0.0000 -0.0162 -0.9999
vn 0.0000 -0.0230 -0.9997
vn 0.0000 0.0230 0.9997
vn -1.0000 0.0020 0.0000
vn 1.0000 -0.0020 0.0000
vn 0.0000 0.0439 -0.9990
vn 0.0000 -0.0439 0.9990
vn -1.0000 -0.0005 0.0000
vn 1.0000 0.0005 0.0000
usemtl None
s off
f 9/1/1 2/2/1 4/3/1 10/4/1
f 10/4/2 4/3/2 8/5/2 11/6/2
f 11/6/3 8/5/3 6/7/3 12/8/3
f 12/8/4 6/7/4 2/9/4 9/10/4
f 6/7/5 8/5/5 19/11/5 20/12/5
f 15/13/6 12/8/6 9/10/6 16/14/6
f 14/15/7 11/6/7 12/8/7 15/13/7
f 13/16/8 10/4/8 11/6/8 14/15/8
f 16/17/9 9/1/9 10/4/9 13/16/9
f 1/18/10 16/17/10 13/16/10 3/19/10
f 3/19/11 13/16/11 14/15/11 7/20/11
f 7/20/12 14/15/12 15/13/12 5/21/12
f 5/21/13 15/13/13 16/14/13 1/22/13
f 31/23/14 29/24/14 23/25/14 24/26/14
f 4/3/15 2/2/15 17/27/15 18/28/15
f 2/9/6 6/7/6 20/12/6 17/29/6
f 8/5/8 4/3/8 18/28/8 19/11/8
f 32/30/16 30/31/16 21/32/16 22/33/16
f 30/34/17 31/23/17 24/26/17 21/35/17
f 29/24/18 32/30/18 22/33/18 23/25/18
f 19/11/19 18/28/19 28/36/19 25/37/19
f 17/29/20 20/12/20 26/38/20 27/39/20
f 18/28/21 17/27/21 27/40/21 28/36/21
f 20/12/22 19/11/22 25/37/22 26/38/22
f 25/37/23 28/36/23 32/30/23 29/24/23
f 27/39/24 26/38/24 31/23/24 30/34/24
f 28/36/25 27/40/25 30/31/25 32/30/25
f 26/38/26 25/37/26 29/24/26 31/23/26
o Cube.001_Cube.002
v 3.939288 7.508625 -6.343009
v 3.939288 7.708624 -6.343009
v 3.939288 7.508625 -6.426839
v 3.939288 7.708624 -6.426839
v 4.200000 7.508625 -6.343009
v 4.200000 7.708624 -6.343009
v 4.200000 7.508625 -6.426839
v 4.200000 7.708624 -6.426839
v 4.287038 7.708624 -6.426839
v 4.287038 7.508625 -6.426839
v 4.287038 7.508625 -6.343009
v 4.287038 7.708624 -6.343009
v 4.200000 7.708624 -6.143009
v 4.200000 7.508625 -6.143009
v 4.287038 7.708624 -6.143009
v 4.287038 7.508625 -6.143009
v 4.200000 7.708624 -6.056314
v 4.200000 7.508625 -6.056314
v 4.287038 7.708624 -6.056314
v 4.287038 7.508625 -6.056314
v 3.939288 7.708624 -6.143009
v 3.939288 7.508625 -6.143009
v 3.939288 7.708624 -6.056314
v 3.939288 7.508625 -6.056314
vt 0.375000 0.250000
vt 0.625000 0.250000
vt 0.625000 0.500000
vt 0.375000 0.500000
vt 0.625000 0.750000
vt 0.375000 0.750000
vt 0.375000 0.750000
vt 0.625000 0.750000
vt 0.625000 1.000000
vt 0.375000 1.000000
vt 0.125000 0.500000
vt 0.125000 0.750000
vt 0.875000 0.500000
vt 0.875000 0.750000
vt 0.375000 0.500000
vt 0.625000 0.500000
vt 0.625000 0.750000
vt 0.375000 0.750000
vt 0.375000 0.750000
vt 0.625000 0.750000
vt 0.375000 0.750000
vt 0.625000 0.750000
vt 0.625000 0.750000
vt 0.375000 0.750000
vt 0.375000 0.750000
vt 0.625000 0.750000
vt 0.375000 0.750000
vt 0.625000 0.750000
vn 0.0000 0.0000 -1.0000
vn -1.0000 0.0000 0.0000
vn 0.0000 0.0000 1.0000
vn 0.0000 -1.0000 0.0000
vn 0.0000 1.0000 0.0000
vn 1.0000 0.0000 0.0000
usemtl None
s off
f 35/41/27 36/42/27 40/43/27 39/44/27
f 38/45/28 37/46/28 46/47/28 45/48/28
f 37/46/29 38/45/29 34/49/29 33/50/29
f 35/51/30 39/44/30 37/46/30 33/52/30
f 40/43/31 36/53/31 34/54/31 38/45/31
f 42/55/32 41/56/32 44/57/32 43/58/32
f 37/46/30 39/44/30 42/55/30 43/58/30
f 40/43/31 38/45/31 44/57/31 41/56/31
f 39/44/27 40/43/27 41/56/27 42/55/27
f 45/48/27 46/47/27 54/59/27 53/60/27
f 37/46/30 43/58/30 48/61/30 46/47/30
f 44/57/31 38/45/31 45/48/31 47/62/31
f 43/58/32 44/57/32 47/62/32 48/61/32
f 49/63/29 50/64/29 52/65/29 51/66/29
f 47/62/31 45/48/31 49/63/31 51/66/31
f 48/61/32 47/62/32 51/66/32 52/65/32
f 46/47/30 48/61/30 52/65/30 50/64/30
f 46/47/30 50/64/30 56/67/30 54/59/30
f 50/64/29 49/63/29 55/68/29 56/67/29
f 49/63/31 45/48/31 53/60/31 55/68/31
o Cube.002_Cube.003
v 3.940858 3.554868 -6.359568
v 3.939947 3.754859 -6.361165
v 3.939933 3.554194 -6.443389
v 3.939023 3.754186 -6.444986
v 4.201551 3.556032 -6.362453
v 4.200641 3.756023 -6.364050
v 4.200626 3.555358 -6.446274
v 4.199716 3.755349 -6.447872
v 4.286748 3.755738 -6.448834
v 4.287659 3.555746 -6.447237
v 4.288583 3.556420 -6.363416
v 4.287673 3.756412 -6.365013
v 4.202847 3.757631 -6.164069
v 4.203757 3.557639 -6.162471
v 4.289879 3.758019 -6.165031
v 4.290789 3.558028 -6.163434
v 4.203803 3.758327 -6.077381
v 4.204713 3.558336 -6.075784
v 4.290835 3.758716 -6.078344
v 4.291745 3.558724 -6.076747
v 3.942153 3.756467 -6.161183
v 3.943063 3.556475 -6.159586
v 3.943109 3.757164 -6.074496
v 3.944020 3.557172 -6.072899
vt 0.375000 0.250000
vt 0.625000 0.250000
vt 0.625000 0.500000
vt 0.375000 0.500000
vt 0.625000 0.750000
vt 0.375000 0.750000
vt 0.375000 0.750000
vt 0.625000 0.750000
vt 0.625000 1.000000
vt 0.375000 1.000000
vt 0.125000 0.500000
vt 0.125000 0.750000
vt 0.875000 0.500000
vt 0.875000 0.750000
vt 0.375000 0.500000
vt 0.625000 0.500000
vt 0.625000 0.750000
vt 0.375000 0.750000
vt 0.375000 0.750000
vt 0.625000 0.750000
vt 0.375000 0.750000
vt 0.625000 0.750000
vt 0.625000 0.750000
vt 0.375000 0.750000
vt 0.375000 0.750000
vt 0.625000 0.750000
vt 0.375000 0.750000
vt 0.625000 0.750000
vn -0.0110 -0.0080 -0.9999
vn -0.9999 -0.0045 0.0111
vn 0.0110 0.0080 0.9999
vn 0.0046 -1.0000 0.0080
vn -0.0046 1.0000 -0.0080
vn 0.9999 0.0045 -0.0111
usemtl None
s off
f 59/69/33 60/70/33 64/71/33 63/72/33
f 62/73/34 61/74/34 70/75/34 69/76/34
f 61/74/35 62/73/35 58/77/35 57/78/35
f 59/79/36 63/72/36 61/74/36 57/80/36
f 64/71/37 60/81/37 58/82/37 62/73/37
f 66/83/38 65/84/38 68/85/38 67/86/38
f 61/74/36 63/72/36 66/83/36 67/86/36
f 64/71/37 62/73/37 68/85/37 65/84/37
f 63/72/33 64/71/33 65/84/33 66/83/33
f 69/76/33 70/75/33 78/87/33 77/88/33
f 61/74/36 67/86/36 72/89/36 70/75/36
f 68/85/37 62/73/37 69/76/37 71/90/37
f 67/86/38 68/85/38 71/90/38 72/89/38
f 73/91/35 74/92/35 76/93/35 75/94/35
f 71/90/37 69/76/37 73/91/37 75/94/37
f 72/89/38 71/90/38 75/94/38 76/93/38
f 70/75/36 72/89/36 76/93/36 74/92/36
f 70/75/36 74/92/36 80/95/36 78/87/36
f 74/92/35 73/91/35 79/96/35 80/95/35
f 73/91/37 69/76/37 77/88/37 79/96/37
o Cube.003_Cube.004
v 4.037755 11.678654 -6.340280
v 4.037755 11.878654 -6.340280
v 4.037755 11.678654 -6.424109
v 4.037755 11.878654 -6.424109
v 4.298467 11.678654 -6.340280
v 4.298467 11.878654 -6.340280
v 4.298467 11.678654 -6.424109
v 4.298467 11.878654 -6.424109
v 4.385505 11.878654 -6.424109
v 4.385505 11.678654 -6.424109
v 4.385505 11.678654 -6.340280
v 4.385505 11.878654 -6.340280
v 4.298467 11.878654 -6.140280
v 4.298467 11.678654 -6.140280
v 4.385505 11.878654 -6.140280
v 4.385505 11.678654 -6.140280
v 4.298467 11.878654 -6.053585
v 4.298467 11.678654 -6.053585
v 4.385505 11.878654 -6.053585
v 4.385505 11.678654 -6.053585
v 4.037755 11.878654 -6.140280
v 4.037755 11.678654 -6.140280
v 4.037755 11.878654 -6.053585
v 4.037755 11.678654 -6.053585
vt 0.375000 0.250000
vt 0.625000 0.250000
vt 0.625000 0.500000
vt 0.375000 0.500000
vt 0.625000 0.750000
vt 0.375000 0.750000
vt 0.375000 0.750000
vt 0.625000 0.750000
vt 0.625000 1.000000
vt 0.375000 1.000000
vt 0.125000 0.500000
vt 0.125000 0.750000
vt 0.875000 0.500000
vt 0.875000 0.750000
vt 0.375000 0.500000
vt 0.625000 0.500000
vt 0.625000 0.750000
vt 0.375000 0.750000
vt 0.375000 0.750000
vt 0.625000 0.750000
vt 0.375000 0.750000
vt 0.625000 0.750000
vt 0.625000 0.750000
vt 0.375000 0.750000
vt 0.375000 0.750000
vt 0.625000 0.750000
vt 0.375000 0.750000
vt 0.625000 0.750000
vn 0.0000 0.0000 -1.0000
vn -1.0000 0.0000 0.0000
vn 0.0000 0.0000 1.0000
vn 0.0000 -1.0000 0.0000
vn 0.0000 1.0000 0.0000
vn 1.0000 0.0000 0.0000
usemtl None
s off
f 83/97/39 84/98/39 88/99/39 87/100/39
f 86/101/40 85/102/40 94/103/40 93/104/40
f 85/102/41 86/101/41 82/105/41 81/106/41
f 83/107/42 87/100/42 85/102/42 81/108/42
f 88/99/43 84/109/43 82/110/43 86/101/43
f 90/111/44 89/112/44 92/113/44 91/114/44
f 85/102/42 87/100/42 90/111/42 91/114/42
f 88/99/43 86/101/43 92/113/43 89/112/43
f 87/100/39 88/99/39 89/112/39 90/111/39
f 93/104/39 94/103/39 102/115/39 101/116/39
f 85/102/42 91/114/42 96/117/42 94/103/42
f 92/113/43 86/101/43 93/104/43 95/118/43
f 91/114/44 92/113/44 95/118/44 96/117/44
f 97/119/41 98/120/41 100/121/41 99/122/41
f 95/118/43 93/104/43 97/119/43 99/122/43
f 96/117/44 95/118/44 99/122/44 100/121/44
f 94/103/42 96/117/42 100/121/42 98/120/42
f 94/103/42 98/120/42 104/123/42 102/115/42
f 98/120/41 97/119/41 103/124/41 104/123/41
f 97/119/43 93/104/43 101/116/43 103/124/43
o Cube.004_Cube.005
v 4.006042 15.274319 -6.381286
v 4.006042 15.474319 -6.381286
v 4.006042 15.274319 -6.465116
v 4.006042 15.474319 -6.465116
v 4.266753 15.274319 -6.381286
v 4.266753 15.474319 -6.381286
v 4.266753 15.274319 -6.465116
v 4.266753 15.474319 -6.465116
v 4.353792 15.474319 -6.465116
v 4.353792 15.274319 -6.465116
v 4.353792 15.274319 -6.381286
v 4.353792 15.474319 -6.381286
v 4.266753 15.474319 -6.181286
v 4.266753 15.274319 -6.181286
v 4.353792 15.474319 -6.181286
v 4.353792 15.274319 -6.181286
v 4.266753 15.474319 -6.094591
v 4.266753 15.274319 -6.094591
v 4.353792 15.474319 -6.094591
v 4.353792 15.274319 -6.094591
v 4.006042 15.474319 -6.181286
v 4.006042 15.274319 -6.181286
v 4.006042 15.474319 -6.094591
v 4.006042 15.274319 -6.094591
vt 0.375000 0.250000
vt 0.625000 0.250000
vt 0.625000 0.500000
vt 0.375000 0.500000
vt 0.625000 0.750000
vt 0.375000 0.750000
vt 0.375000 0.750000
vt 0.625000 0.750000
vt 0.625000 1.000000
vt 0.375000 1.000000
vt 0.125000 0.500000
vt 0.125000 0.750000
vt 0.875000 0.500000
vt 0.875000 0.750000
vt 0.375000 0.500000
vt 0.625000 0.500000
vt 0.625000 0.750000
vt 0.375000 0.750000
vt 0.375000 0.750000
vt 0.625000 0.750000
vt 0.375000 0.750000
vt 0.625000 0.750000
vt 0.625000 0.750000
vt 0.375000 0.750000
vt 0.375000 0.750000
vt 0.625000 0.750000
vt 0.375000 0.750000
vt 0.625000 0.750000
vn 0.0000 0.0000 -1.0000
vn -1.0000 0.0000 0.0000
vn 0.0000 0.0000 1.0000
vn 0.0000 -1.0000 0.0000
vn 0.0000 1.0000 0.0000
vn 1.0000 0.0000 0.0000
usemtl None
s off
f 107/125/45 108/126/45 112/127/45 111/128/45
f 110/129/46 109/130/46 118/131/46 117/132/46
f 109/130/47 110/129/47 106/133/47 105/134/47
f 107/135/48 111/128/48 109/130/48 105/136/48
f 112/127/49 108/137/49 106/138/49 110/129/49
f 114/139/50 113/140/50 116/141/50 115/142/50
f 109/130/48 111/128/48 114/139/48 115/142/48
f 112/127/49 110/129/49 116/141/49 113/140/49
f 111/128/45 112/127/45 113/140/45 114/139/45
f 117/132/45 118/131/45 126/143/45 125/144/45
f 109/130/48 115/142/48 120/145/48 118/131/48
f 116/141/49 110/129/49 117/132/49 119/146/49
f 115/142/50 116/141/50 119/146/50 120/145/50
f 121/147/47 122/148/47 124/149/47 123/150/47
f 119/146/49 117/132/49 121/147/49 123/150/49
f 120/145/50 119/146/50 123/150/50 124/149/50
f 118/131/48 120/145/48 124/149/48 122/148/48
f 118/131/48 122/148/48 128/151/48 126/143/48
f 122/148/47 121/147/47 127/152/47 128/151/47
f 121/147/49 117/132/49 125/144/49 127/152/49
o Cube.005_Cube.006
v 4.006042 19.139378 -6.466030
v 4.006042 19.339378 -6.466030
v 4.006042 19.139378 -6.549859
v 4.006042 19.339378 -6.549859
v 4.266753 19.139378 -6.466030
v 4.266753 19.339378 -6.466030
v 4.266753 19.139378 -6.549859
v 4.266753 19.339378 -6.549859
v 4.353792 19.339378 -6.549859
v 4.353792 19.139378 -6.549859
v 4.353792 19.139378 -6.466030
v 4.353792 19.339378 -6.466030
v 4.266753 19.339378 -6.266029
v 4.266753 19.139378 -6.266029
v 4.353792 19.339378 -6.266029
v 4.353792 19.139378 -6.266029
v 4.266753 19.339378 -6.179334
v 4.266753 19.139378 -6.179334
v 4.353792 19.339378 -6.179334
v 4.353792 19.139378 -6.179334
v 4.006042 19.339378 -6.266029
v 4.006042 19.139378 -6.266029
v 4.006042 19.339378 -6.179334
v 4.006042 19.139378 -6.179334
vt 0.375000 0.250000
vt 0.625000 0.250000
vt 0.625000 0.500000
vt 0.375000 0.500000
vt 0.625000 0.750000
vt 0.375000 0.750000
vt 0.375000 0.750000
vt 0.625000 0.750000
vt 0.625000 1.000000
vt 0.375000 1.000000
vt 0.125000 0.500000
vt 0.125000 0.750000
vt 0.875000 0.500000
vt 0.875000 0.750000
vt 0.375000 0.500000
vt 0.625000 0.500000
vt 0.625000 0.750000
vt 0.375000 0.750000
vt 0.375000 0.750000
vt 0.625000 0.750000
vt 0.375000 0.750000
vt 0.625000 0.750000
vt 0.625000 0.750000
vt 0.375000 0.750000
vt 0.375000 0.750000
vt 0.625000 0.750000
vt 0.375000 0.750000
vt 0.625000 0.750000
vn 0.0000 0.0000 -1.0000
vn -1.0000 0.0000 0.0000
vn 0.0000 0.0000 1.0000
vn 0.0000 -1.0000 0.0000
vn 0.0000 1.0000 0.0000
vn 1.0000 0.0000 0.0000
usemtl None
s off
f 131/153/51 132/154/51 136/155/51 135/156/51
f 134/157/52 133/158/52 142/159/52 141/160/52
f 133/158/53 134/157/53 130/161/53 129/162/53
f 131/163/54 135/156/54 133/158/54 129/164/54
f 136/155/55 132/165/55 130/166/55 134/157/55
f 138/167/56 137/168/56 140/169/56 139/170/56
f 133/158/54 135/156/54 138/167/54 139/170/54
f 136/155/55 134/157/55 140/169/55 137/168/55
f 135/156/51 136/155/51 137/168/51 138/167/51
f 141/160/51 142/159/51 150/171/51 149/172/51
f 133/158/54 139/170/54 144/173/54 142/159/54
f 140/169/55 134/157/55 141/160/55 143/174/55
f 139/170/56 140/169/56 143/174/56 144/173/56
f 145/175/53 146/176/53 148/177/53 147/178/53
f 143/174/55 141/160/55 145/175/55 147/178/55
f 144/173/56 143/174/56 147/178/56 148/177/56
f 142/159/54 144/173/54 148/177/54 146/176/54
f 142/159/54 146/176/54 152/179/54 150/171/54
f 146/176/53 145/175/53 151/180/53 152/179/53
f 145/175/55 141/160/55 149/172/55 151/180/55
o Cube.006_Cube.007
v 4.006042 22.881571 -6.305120
v 4.006042 23.081572 -6.305120
v 4.006042 22.881571 -6.388949
v 4.006042 23.081572 -6.388949
v 4.266753 22.881571 -6.305120
v 4.266753 23.081572 -6.305120
v 4.266753 22.881571 -6.388949
v 4.266753 23.081572 -6.388949
v 4.353792 23.081572 -6.388949
v 4.353792 22.881571 -6.388949
v 4.353792 22.881571 -6.305120
v 4.353792 23.081572 -6.305120
v 4.266753 23.081572 -6.105120
v 4.266753 22.881571 -6.105120
v 4.353792 23.081572 -6.105120
v 4.353792 22.881571 -6.105120
v 4.266753 23.081572 -6.018425
v 4.266753 22.881571 -6.018425
v 4.353792 23.081572 -6.018425
v 4.353792 22.881571 -6.018425
v 4.006042 23.081572 -6.105120
v 4.006042 22.881571 -6.105120
v 4.006042 23.081572 -6.018425
v 4.006042 22.881571 -6.018425
vt 0.375000 0.250000
vt 0.625000 0.250000
vt 0.625000 0.500000
vt 0.375000 0.500000
vt 0.625000 0.750000
vt 0.375000 0.750000
vt 0.375000 0.750000
vt 0.625000 0.750000
vt 0.625000 1.000000
vt 0.375000 1.000000
vt 0.125000 0.500000
vt 0.125000 0.750000
vt 0.875000 0.500000
vt 0.875000 0.750000
vt 0.375000 0.500000
vt 0.625000 0.500000
vt 0.625000 0.750000
vt 0.375000 0.750000
vt 0.375000 0.750000
vt 0.625000 0.750000
vt 0.375000 0.750000
vt 0.625000 0.750000
vt 0.625000 0.750000
vt 0.375000 0.750000
vt 0.375000 0.750000
vt 0.625000 0.750000
vt 0.375000 0.750000
vt 0.625000 0.750000
vn 0.0000 0.0000 -1.0000
vn -1.0000 0.0000 0.0000
vn 0.0000 0.0000 1.0000
vn 0.0000 -1.0000 0.0000
vn 0.0000 1.0000 0.0000
vn 1.0000 0.0000 0.0000
usemtl None
s off
f 155/181/57 156/182/57 160/183/57 159/184/57
f 158/185/58 157/186/58 166/187/58 165/188/58
f 157/186/59 158/185/59 154/189/59 153/190/59
f 155/191/60 159/184/60 157/186/60 153/192/60
f 160/183/61 156/193/61 154/194/61 158/185/61
f 162/195/62 161/196/62 164/197/62 163/198/62
f 157/186/60 159/184/60 162/195/60 163/198/60
f 160/183/61 158/185/61 164/197/61 161/196/61
f 159/184/57 160/183/57 161/196/57 162/195/57
f 165/188/57 166/187/57 174/199/57 173/200/57
f 157/186/60 163/198/60 168/201/60 166/187/60
f 164/197/61 158/185/61 165/188/61 167/202/61
f 163/198/62 164/197/62 167/202/62 168/201/62
f 169/203/59 170/204/59 172/205/59 171/206/59
f 167/202/61 165/188/61 169/203/61 171/206/61
f 168/201/62 167/202/62 171/206/62 172/205/62
f 166/187/60 168/201/60 172/205/60 170/204/60
f 166/187/60 170/204/60 176/207/60 174/199/60
f 170/204/59 169/203/59 175/208/59 176/207/59
f 169/203/61 165/188/61 173/200/61 175/208/61
o Cube.007_Cube.008
v 4.006042 26.516792 -6.224237
v 4.006042 26.716793 -6.224237
v 4.006042 26.516792 -6.308067
v 4.006042 26.716793 -6.308067
v 4.266753 26.516792 -6.224237
v 4.266753 26.716793 -6.224237
v 4.266753 26.516792 -6.308067
v 4.266753 26.716793 -6.308067
v 4.353792 26.716793 -6.308067
v 4.353792 26.516792 -6.308067
v 4.353792 26.516792 -6.224237
v 4.353792 26.716793 -6.224237
v 4.266753 26.716793 -6.024237
v 4.266753 26.516792 -6.024237
v 4.353792 26.716793 -6.024237
v 4.353792 26.516792 -6.024237
v 4.266753 26.716793 -5.937542
v 4.266753 26.516792 -5.937542
v 4.353792 26.716793 -5.937542
v 4.353792 26.516792 -5.937542
v 4.006042 26.716793 -6.024237
v 4.006042 26.516792 -6.024237
v 4.006042 26.716793 -5.937542
v 4.006042 26.516792 -5.937542
vt 0.375000 0.250000
vt 0.625000 0.250000
vt 0.625000 0.500000
vt 0.375000 0.500000
vt 0.625000 0.750000
vt 0.375000 0.750000
vt 0.375000 0.750000
vt 0.625000 0.750000
vt 0.625000 1.000000
vt 0.375000 1.000000
vt 0.125000 0.500000
vt 0.125000 0.750000
vt 0.875000 0.500000
vt 0.875000 0.750000
vt 0.375000 0.500000
vt 0.625000 0.500000
vt 0.625000 0.750000
vt 0.375000 0.750000
vt 0.375000 0.750000
vt 0.625000 0.750000
vt 0.375000 0.750000
vt 0.625000 0.750000
vt 0.625000 0.750000
vt 0.375000 0.750000
vt 0.375000 0.750000
vt 0.625000 0.750000
vt 0.375000 0.750000
vt 0.625000 0.750000
vn 0.0000 0.0000 -1.0000
vn -1.0000 0.0000 0.0000
vn 0.0000 0.0000 1.0000
vn 0.0000 -1.0000 0.0000
vn 0.0000 1.0000 0.0000
vn 1.0000 0.0000 0.0000
usemtl None
s off
f 179/209/63 180/210/63 184/211/63 183/212/63
f 182/213/64 181/214/64 190/215/64 189/216/64
f 181/214/65 182/213/65 178/217/65 177/218/65
f 179/219/66 183/212/66 181/214/66 177/220/66
f 184/211/67 180/221/67 178/222/67 182/213/67
f 186/223/68 185/224/68 188/225/68 187/226/68
f 181/214/66 183/212/66 186/223/66 187/226/66
f 184/211/67 182/213/67 188/225/67 185/224/67
f 183/212/63 184/211/63 185/224/63 186/223/63
f 189/216/63 190/215/63 198/227/63 197/228/63
f 181/214/66 187/226/66 192/229/66 190/215/66
f 188/225/67 182/213/67 189/216/67 191/230/67
f 187/226/68 188/225/68 191/230/68 192/229/68
f 193/231/65 194/232/65 196/233/65 195/234/65
f 191/230/67 189/216/67 193/231/67 195/234/67
f 192/229/68 191/230/68 195/234/68 196/233/68
f 190/215/66 192/229/66 196/233/66 194/232/66
f 190/215/66 194/232/66 200/235/66 198/227/66
f 194/232/65 193/231/65 199/236/65 200/235/65
f 193/231/67 189/216/67 197/228/67 199/236/67
