# Blender v2.82 (sub 7) OBJ File: 'PipeMedium.blend'
# www.blender.org
mtllib PipeMedium.mtl
o Cube_Cube.001
v 4.019744 2.000001 -6.117010
v 4.120570 10.139008 -6.137301
v 4.019744 2.000001 -6.317010
v 4.120570 10.139008 -6.337302
v 4.219744 2.000001 -6.117010
v 4.320570 10.139008 -6.137301
v 4.219744 2.000001 -6.317010
v 4.320570 10.139008 -6.337302
v 4.000000 8.121224 -6.143010
v 4.000000 8.121224 -6.343009
v 4.200000 8.121224 -6.343009
v 4.200000 8.121224 -6.143010
v 4.000000 4.564240 -6.343009
v 4.200000 4.564240 -6.343009
v 4.200000 4.564240 -6.143010
v 4.000000 4.564240 -6.143010
v 4.055247 13.555479 -6.137301
v 4.055247 13.555479 -6.337302
v 4.255247 13.555479 -6.337302
v 4.255247 13.555479 -6.137301
v 4.087908 16.406652 -6.059680
v 4.087908 16.406652 -6.259680
v 4.287909 16.406652 -6.259680
v 4.287909 16.406652 -6.059680
vt 0.556338 0.000000
vt 0.625000 0.000000
vt 0.625000 0.250000
vt 0.556338 0.250000
vt 0.625000 0.500000
vt 0.556338 0.500000
vt 0.625000 0.750000
vt 0.556338 0.750000
vt 0.625000 1.000000
vt 0.556338 1.000000
vt 0.625000 0.500000
vt 0.625000 0.750000
vt 0.484711 0.750000
vt 0.484711 1.000000
vt 0.484711 0.500000
vt 0.484711 0.250000
vt 0.484711 0.000000
vt 0.375000 0.000000
vt 0.375000 0.250000
vt 0.375000 0.500000
vt 0.375000 0.750000
vt 0.375000 1.000000
vt 0.625000 0.500000
vt 0.625000 0.750000
vt 0.625000 0.000000
vt 0.625000 0.250000
vt 0.625000 1.000000
vt 0.625000 0.000000
vt 0.625000 0.250000
vt 0.625000 1.000000
vn -0.9982 0.0596 0.0000
vn 0.0000 0.0028 -1.0000
vn 0.9982 -0.0596 0.0000
vn 0.0000 -0.0028 1.0000
vn 0.9998 0.0191 0.0000
vn 0.0000 0.0000 1.0000
vn 1.0000 0.0000 0.0000
vn 0.0000 0.0000 -1.0000
vn -1.0000 0.0000 0.0000
vn -1.0000 -0.0077 0.0000
vn 0.0000 -0.0101 -0.9999
vn 1.0000 0.0077 0.0000
vn 0.0000 0.0101 0.9999
vn 0.9999 -0.0115 0.0000
vn -0.9998 -0.0191 0.0000
vn -0.9999 0.0115 0.0000
vn 0.0000 -0.0272 0.9996
vn 0.0000 0.0272 -0.9996
usemtl None
s off
f 9/1/1 2/2/1 4/3/1 10/4/1
f 10/4/2 4/3/2 8/5/2 11/6/2
f 11/6/3 8/5/3 6/7/3 12/8/3
f 12/8/4 6/7/4 2/9/4 9/10/4
f 6/7/5 8/5/5 19/11/5 20/12/5
f 15/13/6 12/8/6 9/10/6 16/14/6
f 14/15/7 11/6/7 12/8/7 15/13/7
f 13/16/8 10/4/8 11/6/8 14/15/8
f 16/17/9 9/1/9 10/4/9 13/16/9
f 1/18/10 16/17/10 13/16/10 3/19/10
f 3/19/11 13/16/11 14/15/11 7/20/11
f 7/20/12 14/15/12 15/13/12 5/21/12
f 5/21/13 15/13/13 16/14/13 1/22/13
f 20/12/14 19/11/14 23/23/14 24/24/14
f 4/3/15 2/2/15 17/25/15 18/26/15
f 2/9/6 6/7/6 20/12/6 17/27/6
f 8/5/8 4/3/8 18/26/8 19/11/8
f 18/26/16 17/25/16 21/28/16 22/29/16
f 17/27/17 20/12/17 24/24/17 21/30/17
f 19/11/18 18/26/18 22/29/18 23/23/18
o Cube.001_Cube.002
v 3.939288 7.508625 -6.343009
v 3.939288 7.708624 -6.343009
v 3.939288 7.508625 -6.426839
v 3.939288 7.708624 -6.426839
v 4.200000 7.508625 -6.343009
v 4.200000 7.708624 -6.343009
v 4.200000 7.508625 -6.426839
v 4.200000 7.708624 -6.426839
v 4.287038 7.708624 -6.426839
v 4.287038 7.508625 -6.426839
v 4.287038 7.508625 -6.343009
v 4.287038 7.708624 -6.343009
v 4.200000 7.708624 -6.143009
v 4.200000 7.508625 -6.143009
v 4.287038 7.708624 -6.143009
v 4.287038 7.508625 -6.143009
v 4.200000 7.708624 -6.056314
v 4.200000 7.508625 -6.056314
v 4.287038 7.708624 -6.056314
v 4.287038 7.508625 -6.056314
v 3.939288 7.708624 -6.143009
v 3.939288 7.508625 -6.143009
v 3.939288 7.708624 -6.056314
v 3.939288 7.508625 -6.056314
vt 0.375000 0.250000
vt 0.625000 0.250000
vt 0.625000 0.500000
vt 0.375000 0.500000
vt 0.625000 0.750000
vt 0.375000 0.750000
vt 0.375000 0.750000
vt 0.625000 0.750000
vt 0.625000 1.000000
vt 0.375000 1.000000
vt 0.125000 0.500000
vt 0.125000 0.750000
vt 0.875000 0.500000
vt 0.875000 0.750000
vt 0.375000 0.500000
vt 0.625000 0.500000
vt 0.625000 0.750000
vt 0.375000 0.750000
vt 0.375000 0.750000
vt 0.625000 0.750000
vt 0.375000 0.750000
vt 0.625000 0.750000
vt 0.625000 0.750000
vt 0.375000 0.750000
vt 0.375000 0.750000
vt 0.625000 0.750000
vt 0.375000 0.750000
vt 0.625000 0.750000
vn 0.0000 0.0000 -1.0000
vn -1.0000 0.0000 0.0000
vn 0.0000 0.0000 1.0000
vn 0.0000 -1.0000 0.0000
vn 0.0000 1.0000 0.0000
vn 1.0000 0.0000 0.0000
usemtl None
s off
f 27/31/19 28/32/19 32/33/19 31/34/19
f 30/35/20 29/36/20 38/37/20 37/38/20
f 29/36/21 30/35/21 26/39/21 25/40/21
f 27/41/22 31/34/22 29/36/22 25/42/22
f 32/33/23 28/43/23 26/44/23 30/35/23
f 34/45/24 33/46/24 36/47/24 35/48/24
f 29/36/22 31/34/22 34/45/22 35/48/22
f 32/33/23 30/35/23 36/47/23 33/46/23
f 31/34/19 32/33/19 33/46/19 34/45/19
f 37/38/19 38/37/19 46/49/19 45/50/19
f 29/36/22 35/48/22 40/51/22 38/37/22
f 36/47/23 30/35/23 37/38/23 39/52/23
f 35/48/24 36/47/24 39/52/24 40/51/24
f 41/53/21 42/54/21 44/55/21 43/56/21
f 39/52/23 37/38/23 41/53/23 43/56/23
f 40/51/24 39/52/24 43/56/24 44/55/24
f 38/37/22 40/51/22 44/55/22 42/54/22
f 38/37/22 42/54/22 48/57/22 46/49/22
f 42/54/21 41/53/21 47/58/21 48/57/21
f 41/53/23 37/38/23 45/50/23 47/58/23
o Cube.002_Cube.003
v 3.940858 3.554868 -6.317603
v 3.939947 3.754859 -6.319200
v 3.939933 3.554194 -6.401424
v 3.939023 3.754186 -6.403021
v 4.201551 3.556032 -6.320487
v 4.200641 3.756023 -6.322085
v 4.200626 3.555358 -6.404309
v 4.199716 3.755349 -6.405907
v 4.286748 3.755738 -6.406869
v 4.287659 3.555746 -6.405272
v 4.288583 3.556420 -6.321451
v 4.287673 3.756412 -6.323048
v 4.202847 3.757631 -6.122104
v 4.203757 3.557639 -6.120506
v 4.289879 3.758019 -6.123066
v 4.290789 3.558028 -6.121469
v 4.203803 3.758327 -6.035416
v 4.204713 3.558336 -6.033819
v 4.290835 3.758716 -6.036379
v 4.291745 3.558724 -6.034782
v 3.942153 3.756467 -6.119219
v 3.943063 3.556475 -6.117621
v 3.943109 3.757164 -6.032531
v 3.944020 3.557172 -6.030934
vt 0.375000 0.250000
vt 0.625000 0.250000
vt 0.625000 0.500000
vt 0.375000 0.500000
vt 0.625000 0.750000
vt 0.375000 0.750000
vt 0.375000 0.750000
vt 0.625000 0.750000
vt 0.625000 1.000000
vt 0.375000 1.000000
vt 0.125000 0.500000
vt 0.125000 0.750000
vt 0.875000 0.500000
vt 0.875000 0.750000
vt 0.375000 0.500000
vt 0.625000 0.500000
vt 0.625000 0.750000
vt 0.375000 0.750000
vt 0.375000 0.750000
vt 0.625000 0.750000
vt 0.375000 0.750000
vt 0.625000 0.750000
vt 0.625000 0.750000
vt 0.375000 0.750000
vt 0.375000 0.750000
vt 0.625000 0.750000
vt 0.375000 0.750000
vt 0.625000 0.750000
vn -0.0110 -0.0080 -0.9999
vn -0.9999 -0.0045 0.0111
vn 0.0110 0.0080 0.9999
vn 0.0046 -1.0000 0.0080
vn -0.0046 1.0000 -0.0080
vn 0.9999 0.0045 -0.0111
usemtl None
s off
f 51/59/25 52/60/25 56/61/25 55/62/25
f 54/63/26 53/64/26 62/65/26 61/66/26
f 53/64/27 54/63/27 50/67/27 49/68/27
f 51/69/28 55/62/28 53/64/28 49/70/28
f 56/61/29 52/71/29 50/72/29 54/63/29
f 58/73/30 57/74/30 60/75/30 59/76/30
f 53/64/28 55/62/28 58/73/28 59/76/28
f 56/61/29 54/63/29 60/75/29 57/74/29
f 55/62/25 56/61/25 57/74/25 58/73/25
f 61/66/25 62/65/25 70/77/25 69/78/25
f 53/64/28 59/76/28 64/79/28 62/65/28
f 60/75/29 54/63/29 61/66/29 63/80/29
f 59/76/30 60/75/30 63/80/30 64/79/30
f 65/81/27 66/82/27 68/83/27 67/84/27
f 63/80/29 61/66/29 65/81/29 67/84/29
f 64/79/30 63/80/30 67/84/30 68/83/30
f 62/65/28 64/79/28 68/83/28 66/82/28
f 62/65/28 66/82/28 72/85/28 70/77/28
f 66/82/27 65/81/27 71/86/27 72/85/27
f 65/81/29 61/66/29 69/78/29 71/86/29
o Cube.003_Cube.004
v 4.037755 11.678654 -6.340280
v 4.037755 11.878654 -6.340280
v 4.037755 11.678654 -6.424109
v 4.037755 11.878654 -6.424109
v 4.298467 11.678654 -6.340280
v 4.298467 11.878654 -6.340280
v 4.298467 11.678654 -6.424109
v 4.298467 11.878654 -6.424109
v 4.385505 11.878654 -6.424109
v 4.385505 11.678654 -6.424109
v 4.385505 11.678654 -6.340280
v 4.385505 11.878654 -6.340280
v 4.298467 11.878654 -6.140280
v 4.298467 11.678654 -6.140280
v 4.385505 11.878654 -6.140280
v 4.385505 11.678654 -6.140280
v 4.298467 11.878654 -6.053585
v 4.298467 11.678654 -6.053585
v 4.385505 11.878654 -6.053585
v 4.385505 11.678654 -6.053585
v 4.037755 11.878654 -6.140280
v 4.037755 11.678654 -6.140280
v 4.037755 11.878654 -6.053585
v 4.037755 11.678654 -6.053585
vt 0.375000 0.250000
vt 0.625000 0.250000
vt 0.625000 0.500000
vt 0.375000 0.500000
vt 0.625000 0.750000
vt 0.375000 0.750000
vt 0.375000 0.750000
vt 0.625000 0.750000
vt 0.625000 1.000000
vt 0.375000 1.000000
vt 0.125000 0.500000
vt 0.125000 0.750000
vt 0.875000 0.500000
vt 0.875000 0.750000
vt 0.375000 0.500000
vt 0.625000 0.500000
vt 0.625000 0.750000
vt 0.375000 0.750000
vt 0.375000 0.750000
vt 0.625000 0.750000
vt 0.375000 0.750000
vt 0.625000 0.750000
vt 0.625000 0.750000
vt 0.375000 0.750000
vt 0.375000 0.750000
vt 0.625000 0.750000
vt 0.375000 0.750000
vt 0.625000 0.750000
vn 0.0000 0.0000 -1.0000
vn -1.0000 0.0000 0.0000
vn 0.0000 0.0000 1.0000
vn 0.0000 -1.0000 0.0000
vn 0.0000 1.0000 0.0000
vn 1.0000 0.0000 0.0000
usemtl None
s off
f 75/87/31 76/88/31 80/89/31 79/90/31
f 78/91/32 77/92/32 86/93/32 85/94/32
f 77/92/33 78/91/33 74/95/33 73/96/33
f 75/97/34 79/90/34 77/92/34 73/98/34
f 80/89/35 76/99/35 74/100/35 78/91/35
f 82/101/36 81/102/36 84/103/36 83/104/36
f 77/92/34 79/90/34 82/101/34 83/104/34
f 80/89/35 78/91/35 84/103/35 81/102/35
f 79/90/31 80/89/31 81/102/31 82/101/31
f 85/94/31 86/93/31 94/105/31 93/106/31
f 77/92/34 83/104/34 88/107/34 86/93/34
f 84/103/35 78/91/35 85/94/35 87/108/35
f 83/104/36 84/103/36 87/108/36 88/107/36
f 89/109/33 90/110/33 92/111/33 91/112/33
f 87/108/35 85/94/35 89/109/35 91/112/35
f 88/107/36 87/108/36 91/112/36 92/111/36
f 86/93/34 88/107/34 92/111/34 90/110/34
f 86/93/34 90/110/34 96/113/34 94/105/34
f 90/110/33 89/109/33 95/114/33 96/113/33
f 89/109/35 85/94/35 93/106/35 95/114/35
o Cube.004_Cube.005
v 4.006042 15.274319 -6.284206
v 4.006042 15.474319 -6.284206
v 4.006042 15.274319 -6.368036
v 4.006042 15.474319 -6.368036
v 4.266753 15.274319 -6.284206
v 4.266753 15.474319 -6.284206
v 4.266753 15.274319 -6.368036
v 4.266753 15.474319 -6.368036
v 4.353792 15.474319 -6.368036
v 4.353792 15.274319 -6.368036
v 4.353792 15.274319 -6.284206
v 4.353792 15.474319 -6.284206
v 4.266753 15.474319 -6.084206
v 4.266753 15.274319 -6.084206
v 4.353792 15.474319 -6.084206
v 4.353792 15.274319 -6.084206
v 4.266753 15.474319 -5.997511
v 4.266753 15.274319 -5.997511
v 4.353792 15.474319 -5.997511
v 4.353792 15.274319 -5.997511
v 4.006042 15.474319 -6.084206
v 4.006042 15.274319 -6.084206
v 4.006042 15.474319 -5.997511
v 4.006042 15.274319 -5.997511
vt 0.375000 0.250000
vt 0.625000 0.250000
vt 0.625000 0.500000
vt 0.375000 0.500000
vt 0.625000 0.750000
vt 0.375000 0.750000
vt 0.375000 0.750000
vt 0.625000 0.750000
vt 0.625000 1.000000
vt 0.375000 1.000000
vt 0.125000 0.500000
vt 0.125000 0.750000
vt 0.875000 0.500000
vt 0.875000 0.750000
vt 0.375000 0.500000
vt 0.625000 0.500000
vt 0.625000 0.750000
vt 0.375000 0.750000
vt 0.375000 0.750000
vt 0.625000 0.750000
vt 0.375000 0.750000
vt 0.625000 0.750000
vt 0.625000 0.750000
vt 0.375000 0.750000
vt 0.375000 0.750000
vt 0.625000 0.750000
vt 0.375000 0.750000
vt 0.625000 0.750000
vn 0.0000 0.0000 -1.0000
vn -1.0000 0.0000 0.0000
vn 0.0000 0.0000 1.0000
vn 0.0000 -1.0000 0.0000
vn 0.0000 1.0000 0.0000
vn 1.0000 0.0000 0.0000
usemtl None
s off
f 99/115/37 100/116/37 104/117/37 103/118/37
f 102/119/38 101/120/38 110/121/38 109/122/38
f 101/120/39 102/119/39 98/123/39 97/124/39
f 99/125/40 103/118/40 101/120/40 97/126/40
f 104/117/41 100/127/41 98/128/41 102/119/41
f 106/129/42 105/130/42 108/131/42 107/132/42
f 101/120/40 103/118/40 106/129/40 107/132/40
f 104/117/41 102/119/41 108/131/41 105/130/41
f 103/118/37 104/117/37 105/130/37 106/129/37
f 109/122/37 110/121/37 118/133/37 117/134/37
f 101/120/40 107/132/40 112/135/40 110/121/40
f 108/131/41 102/119/41 109/122/41 111/136/41
f 107/132/42 108/131/42 111/136/42 112/135/42
f 113/137/39 114/138/39 116/139/39 115/140/39
f 111/136/41 109/122/41 113/137/41 115/140/41
f 112/135/42 111/136/42 115/140/42 116/139/42
f 110/121/40 112/135/40 116/139/40 114/138/40
f 110/121/40 114/138/40 120/141/40 118/133/40
f 114/138/39 113/137/39 119/142/39 120/141/39
f 113/137/41 109/122/41 117/134/41 119/142/41
