# MagicaVoxel @ Ephtracy

# group
o 

# material
mtllib RoadT.mtl
usemtl palette

# normals
vn -1 0 0
vn 1 0 0
vn 0 0 1
vn 0 0 -1
vn 0 -1 0
vn 0 1 0

# texcoords
vt 0.283203 0.5
vt 0.916016 0.5
vt 0.974609 0.5
vt 0.978516 0.5

# verts
v 0 2 0
v 0 2 -12.6
v 0 2.5 0
v 0 2.5 -12.6
v 11.7 2.1 0
v 11.7 2.1 -0.9
v 11.7 2.1 -11.7
v 11.7 2.1 -12.6
v 11.7 2.5 0
v 11.7 2.5 -0.9
v 11.7 2.5 -11.7
v 11.7 2.5 -12.6
v 0.9 2.1 0
v 0.9 2.1 -12.6
v 0.9 2.5 0
v 0.9 2.5 -12.6
v 12.6 2 0
v 12.6 2 -0.9
v 12.6 2 -1.1
v 12.6 2 -1.2
v 12.6 2 -11.4
v 12.6 2 -11.5
v 12.6 2 -12.6
v 12.6 2.1 -0.9
v 12.6 2.1 -1.1
v 12.6 2.1 -1.2
v 12.6 2.1 -11.4
v 12.6 2.1 -11.5
v 12.6 2.1 -11.7
v 12.6 2.1 -12.6
v 12.6 2.5 0
v 12.6 2.5 -0.9
v 12.6 2.5 -11.7
v 12.6 2.5 -12.6
v 0 2 0
v 0 2.5 0
v 0.9 2 0
v 0.9 2.1 0
v 0.9 2.5 0
v 1.1 2 0
v 1.1 2.1 0
v 1.2 2 0
v 1.2 2.1 0
v 11.4 2 0
v 11.4 2.1 0
v 11.5 2 0
v 11.5 2.1 0
v 11.7 2 0
v 11.7 2.1 0
v 11.7 2.5 0
v 12.6 2 0
v 12.6 2.5 0
v 11.7 2.1 -11.7
v 11.7 2.5 -11.7
v 12.6 2.1 -11.7
v 12.6 2.5 -11.7
v 11.7 2.1 -0.9
v 11.7 2.5 -0.9
v 12.6 2.1 -0.9
v 12.6 2.5 -0.9
v 0 2 -12.6
v 0 2.5 -12.6
v 0.9 2 -12.6
v 0.9 2.1 -12.6
v 0.9 2.5 -12.6
v 1.1 2 -12.6
v 1.1 2.1 -12.6
v 1.2 2 -12.6
v 1.2 2.1 -12.6
v 11.4 2 -12.6
v 11.4 2.1 -12.6
v 11.5 2 -12.6
v 11.5 2.1 -12.6
v 11.7 2.1 -12.6
v 11.7 2.5 -12.6
v 12.6 2 -12.6
v 12.6 2.1 -12.6
v 12.6 2.5 -12.6
v 0 2 0
v 0.9 2 0
v 1.1 2 0
v 1.2 2 0
v 11.4 2 0
v 11.5 2 0
v 11.7 2 0
v 12.6 2 0
v 6.1 2 -0.9
v 6.5 2 -0.9
v 11.7 2 -0.9
v 12.6 2 -0.9
v 11.5 2 -1.1
v 12.6 2 -1.1
v 11.4 2 -1.2
v 12.6 2 -1.2
v 6.1 2 -1.7
v 6.5 2 -1.7
v 6.1 2 -2.7
v 6.5 2 -2.7
v 6.1 2 -3.6
v 6.5 2 -3.6
v 6.1 2 -4.5
v 6.5 2 -4.5
v 6.1 2 -5.4
v 6.5 2 -5.4
v 6.1 2 -5.8
v 6.5 2 -5.8
v 6.5 2 -6.1
v 6.8 2 -6.1
v 7.2 2 -6.1
v 8.1 2 -6.1
v 9 2 -6.1
v 9.9 2 -6.1
v 10.8 2 -6.1
v 11.7 2 -6.1
v 6.5 2 -6.5
v 6.8 2 -6.5
v 7.2 2 -6.5
v 8.1 2 -6.5
v 9 2 -6.5
v 9.9 2 -6.5
v 10.8 2 -6.5
v 11.7 2 -6.5
v 6.1 2 -6.8
v 6.5 2 -6.8
v 6.1 2 -7.2
v 6.5 2 -7.2
v 6.1 2 -8.1
v 6.5 2 -8.1
v 6.1 2 -9
v 6.5 2 -9
v 6.1 2 -9.9
v 6.5 2 -9.9
v 6.1 2 -10.8
v 6.5 2 -10.8
v 11.4 2 -11.4
v 12.6 2 -11.4
v 11.5 2 -11.5
v 12.6 2 -11.5
v 6.1 2 -11.7
v 6.5 2 -11.7
v 0 2 -12.6
v 0.9 2 -12.6
v 1.1 2 -12.6
v 1.2 2 -12.6
v 11.4 2 -12.6
v 11.5 2 -12.6
v 12.6 2 -12.6
v 0.9 2.1 0
v 1.1 2.1 0
v 1.2 2.1 0
v 11.4 2.1 0
v 11.5 2.1 0
v 11.7 2.1 0
v 6.1 2.1 -0.9
v 6.5 2.1 -0.9
v 11.7 2.1 -0.9
v 12.6 2.1 -0.9
v 11.5 2.1 -1.1
v 12.6 2.1 -1.1
v 11.4 2.1 -1.2
v 12.6 2.1 -1.2
v 6.1 2.1 -1.7
v 6.5 2.1 -1.7
v 6.1 2.1 -2.7
v 6.5 2.1 -2.7
v 6.1 2.1 -3.6
v 6.5 2.1 -3.6
v 6.1 2.1 -4.5
v 6.5 2.1 -4.5
v 6.1 2.1 -5.4
v 6.5 2.1 -5.4
v 6.1 2.1 -5.8
v 6.5 2.1 -5.8
v 6.5 2.1 -6.1
v 6.8 2.1 -6.1
v 7.2 2.1 -6.1
v 8.1 2.1 -6.1
v 9 2.1 -6.1
v 9.9 2.1 -6.1
v 10.8 2.1 -6.1
v 11.7 2.1 -6.1
v 6.5 2.1 -6.5
v 6.8 2.1 -6.5
v 7.2 2.1 -6.5
v 8.1 2.1 -6.5
v 9 2.1 -6.5
v 9.9 2.1 -6.5
v 10.8 2.1 -6.5
v 11.7 2.1 -6.5
v 6.1 2.1 -6.8
v 6.5 2.1 -6.8
v 6.1 2.1 -7.2
v 6.5 2.1 -7.2
v 6.1 2.1 -8.1
v 6.5 2.1 -8.1
v 6.1 2.1 -9
v 6.5 2.1 -9
v 6.1 2.1 -9.9
v 6.5 2.1 -9.9
v 6.1 2.1 -10.8
v 6.5 2.1 -10.8
v 11.4 2.1 -11.4
v 12.6 2.1 -11.4
v 11.5 2.1 -11.5
v 12.6 2.1 -11.5
v 6.1 2.1 -11.7
v 6.5 2.1 -11.7
v 11.7 2.1 -11.7
v 12.6 2.1 -11.7
v 0.9 2.1 -12.6
v 1.1 2.1 -12.6
v 1.2 2.1 -12.6
v 11.4 2.1 -12.6
v 11.5 2.1 -12.6
v 11.7 2.1 -12.6
v 0 2.5 0
v 0.9 2.5 0
v 11.7 2.5 0
v 12.6 2.5 0
v 11.7 2.5 -0.9
v 12.6 2.5 -0.9
v 11.7 2.5 -11.7
v 12.6 2.5 -11.7
v 0 2.5 -12.6
v 0.9 2.5 -12.6
v 11.7 2.5 -12.6
v 12.6 2.5 -12.6

# faces
f 3/3/1 2/3/1 1/3/1
f 4/3/1 2/3/1 3/3/1
f 9/3/1 6/3/1 5/3/1
f 10/3/1 6/3/1 9/3/1
f 11/3/1 8/3/1 7/3/1
f 12/3/1 8/3/1 11/3/1
f 13/3/2 14/3/2 15/3/2
f 15/3/2 14/3/2 16/3/2
f 17/3/2 18/3/2 24/3/2
f 18/4/2 19/4/2 24/4/2
f 19/1/2 20/1/2 25/1/2
f 24/4/2 19/4/2 25/4/2
f 20/4/2 21/4/2 26/4/2
f 25/1/2 20/1/2 26/1/2
f 21/1/2 22/1/2 27/1/2
f 26/4/2 21/4/2 27/4/2
f 22/4/2 23/4/2 28/4/2
f 27/1/2 22/1/2 28/1/2
f 28/4/2 23/4/2 29/4/2
f 29/4/2 23/4/2 30/4/2
f 17/3/2 24/3/2 31/3/2
f 31/3/2 24/3/2 32/3/2
f 29/3/2 30/3/2 33/3/2
f 33/3/2 30/3/2 34/3/2
f 37/3/3 36/3/3 35/3/3
f 38/3/3 36/3/3 37/3/3
f 39/3/3 36/3/3 38/3/3
f 40/4/3 38/4/3 37/4/3
f 41/4/3 38/4/3 40/4/3
f 42/1/3 41/1/3 40/1/3
f 43/1/3 41/1/3 42/1/3
f 44/4/3 43/4/3 42/4/3
f 45/4/3 43/4/3 44/4/3
f 46/1/3 45/1/3 44/1/3
f 47/1/3 45/1/3 46/1/3
f 48/4/3 47/4/3 46/4/3
f 49/4/3 47/4/3 48/4/3
f 51/3/3 49/3/3 48/3/3
f 51/3/3 50/3/3 49/3/3
f 52/3/3 50/3/3 51/3/3
f 55/3/3 54/3/3 53/3/3
f 56/3/3 54/3/3 55/3/3
f 57/3/4 58/3/4 59/3/4
f 59/3/4 58/3/4 60/3/4
f 61/3/4 62/3/4 63/3/4
f 63/3/4 62/3/4 64/3/4
f 64/3/4 62/3/4 65/3/4
f 63/4/4 64/4/4 66/4/4
f 66/4/4 64/4/4 67/4/4
f 66/1/4 67/1/4 68/1/4
f 68/1/4 67/1/4 69/1/4
f 68/4/4 69/4/4 70/4/4
f 70/4/4 69/4/4 71/4/4
f 70/1/4 71/1/4 72/1/4
f 72/1/4 71/1/4 73/1/4
f 72/4/4 73/4/4 74/4/4
f 72/4/4 74/4/4 76/4/4
f 74/3/4 75/3/4 77/3/4
f 76/4/4 74/4/4 77/4/4
f 77/3/4 75/3/4 78/3/4
f 87/4/5 83/4/5 82/4/5
f 88/4/5 83/4/5 87/4/5
f 89/3/5 86/3/5 85/3/5
f 89/4/5 85/4/5 84/4/5
f 90/3/5 86/3/5 89/3/5
f 91/1/5 84/1/5 83/1/5
f 91/4/5 89/4/5 84/4/5
f 91/4/5 90/4/5 89/4/5
f 92/4/5 90/4/5 91/4/5
f 93/4/5 83/4/5 88/4/5
f 93/1/5 91/1/5 83/1/5
f 93/1/5 92/1/5 91/1/5
f 94/1/5 92/1/5 93/1/5
f 95/2/5 88/2/5 87/2/5
f 95/4/5 87/4/5 82/4/5
f 96/4/5 94/4/5 93/4/5
f 96/2/5 88/2/5 95/2/5
f 96/4/5 93/4/5 88/4/5
f 97/4/5 95/4/5 82/4/5
f 97/4/5 96/4/5 95/4/5
f 98/4/5 94/4/5 96/4/5
f 98/4/5 96/4/5 97/4/5
f 99/4/5 97/4/5 82/4/5
f 99/2/5 98/2/5 97/2/5
f 100/4/5 94/4/5 98/4/5
f 100/2/5 98/2/5 99/2/5
f 101/4/5 99/4/5 82/4/5
f 101/4/5 100/4/5 99/4/5
f 102/4/5 94/4/5 100/4/5
f 102/4/5 100/4/5 101/4/5
f 103/4/5 101/4/5 82/4/5
f 103/2/5 102/2/5 101/2/5
f 104/4/5 94/4/5 102/4/5
f 104/2/5 102/2/5 103/2/5
f 105/4/5 103/4/5 82/4/5
f 105/4/5 104/4/5 103/4/5
f 106/4/5 94/4/5 104/4/5
f 106/4/5 104/4/5 105/4/5
f 107/2/5 106/2/5 105/2/5
f 107/4/5 94/4/5 106/4/5
f 108/4/5 94/4/5 107/4/5
f 109/4/5 94/4/5 108/4/5
f 110/4/5 94/4/5 109/4/5
f 111/4/5 94/4/5 110/4/5
f 112/4/5 94/4/5 111/4/5
f 113/4/5 94/4/5 112/4/5
f 114/4/5 94/4/5 113/4/5
f 115/2/5 107/2/5 105/2/5
f 115/2/5 108/2/5 107/2/5
f 116/4/5 109/4/5 108/4/5
f 116/2/5 108/2/5 115/2/5
f 117/2/5 110/2/5 109/2/5
f 117/4/5 109/4/5 116/4/5
f 118/4/5 111/4/5 110/4/5
f 118/2/5 110/2/5 117/2/5
f 119/2/5 112/2/5 111/2/5
f 119/4/5 111/4/5 118/4/5
f 120/4/5 113/4/5 112/4/5
f 120/2/5 112/2/5 119/2/5
f 121/2/5 114/2/5 113/2/5
f 121/4/5 113/4/5 120/4/5
f 122/4/5 94/4/5 114/4/5
f 122/2/5 114/2/5 121/2/5
f 123/4/5 105/4/5 82/4/5
f 123/2/5 115/2/5 105/2/5
f 124/4/5 121/4/5 120/4/5
f 124/2/5 115/2/5 123/2/5
f 124/4/5 120/4/5 119/4/5
f 124/4/5 119/4/5 118/4/5
f 124/4/5 118/4/5 117/4/5
f 124/4/5 117/4/5 116/4/5
f 124/4/5 116/4/5 115/4/5
f 124/4/5 122/4/5 121/4/5
f 125/4/5 123/4/5 82/4/5
f 125/4/5 124/4/5 123/4/5
f 126/4/5 122/4/5 124/4/5
f 126/4/5 124/4/5 125/4/5
f 127/4/5 125/4/5 82/4/5
f 127/2/5 126/2/5 125/2/5
f 128/4/5 122/4/5 126/4/5
f 128/2/5 126/2/5 127/2/5
f 129/4/5 127/4/5 82/4/5
f 129/4/5 128/4/5 127/4/5
f 130/4/5 122/4/5 128/4/5
f 130/4/5 128/4/5 129/4/5
f 131/4/5 129/4/5 82/4/5
f 131/2/5 130/2/5 129/2/5
f 132/4/5 122/4/5 130/4/5
f 132/2/5 130/2/5 131/2/5
f 133/4/5 131/4/5 82/4/5
f 133/4/5 132/4/5 131/4/5
f 134/4/5 122/4/5 132/4/5
f 134/4/5 132/4/5 133/4/5
f 135/4/5 122/4/5 134/4/5
f 136/4/5 94/4/5 122/4/5
f 136/4/5 122/4/5 135/4/5
f 137/1/5 136/1/5 135/1/5
f 138/1/5 136/1/5 137/1/5
f 139/4/5 133/4/5 82/4/5
f 139/2/5 134/2/5 133/2/5
f 140/4/5 135/4/5 134/4/5
f 140/2/5 134/2/5 139/2/5
f 141/3/5 80/3/5 79/3/5
f 142/4/5 81/4/5 80/4/5
f 142/3/5 80/3/5 141/3/5
f 143/1/5 82/1/5 81/1/5
f 143/4/5 81/4/5 142/4/5
f 144/4/5 139/4/5 82/4/5
f 144/1/5 82/1/5 143/1/5
f 144/4/5 140/4/5 139/4/5
f 145/4/5 135/4/5 140/4/5
f 145/4/5 140/4/5 144/4/5
f 145/1/5 137/1/5 135/1/5
f 146/4/5 138/4/5 137/4/5
f 146/1/5 137/1/5 145/1/5
f 147/4/5 138/4/5 146/4/5
f 150/4/6 151/4/6 154/4/6
f 154/4/6 151/4/6 155/4/6
f 152/4/6 153/4/6 156/4/6
f 151/1/6 152/1/6 158/1/6
f 156/4/6 157/4/6 158/4/6
f 152/4/6 156/4/6 158/4/6
f 158/4/6 157/4/6 159/4/6
f 155/4/6 151/4/6 160/4/6
f 151/1/6 158/1/6 160/1/6
f 158/1/6 159/1/6 160/1/6
f 160/1/6 159/1/6 161/1/6
f 154/2/6 155/2/6 162/2/6
f 150/4/6 154/4/6 162/4/6
f 160/4/6 161/4/6 163/4/6
f 162/2/6 155/2/6 163/2/6
f 155/4/6 160/4/6 163/4/6
f 150/4/6 162/4/6 164/4/6
f 162/4/6 163/4/6 164/4/6
f 163/4/6 161/4/6 165/4/6
f 164/4/6 163/4/6 165/4/6
f 150/4/6 164/4/6 166/4/6
f 164/2/6 165/2/6 166/2/6
f 165/4/6 161/4/6 167/4/6
f 166/2/6 165/2/6 167/2/6
f 150/4/6 166/4/6 168/4/6
f 166/4/6 167/4/6 168/4/6
f 167/4/6 161/4/6 169/4/6
f 168/4/6 167/4/6 169/4/6
f 150/4/6 168/4/6 170/4/6
f 168/2/6 169/2/6 170/2/6
f 169/4/6 161/4/6 171/4/6
f 170/2/6 169/2/6 171/2/6
f 150/4/6 170/4/6 172/4/6
f 170/4/6 171/4/6 172/4/6
f 171/4/6 161/4/6 173/4/6
f 172/4/6 171/4/6 173/4/6
f 172/2/6 173/2/6 174/2/6
f 173/4/6 161/4/6 174/4/6
f 174/4/6 161/4/6 175/4/6
f 175/4/6 161/4/6 176/4/6
f 176/4/6 161/4/6 177/4/6
f 177/4/6 161/4/6 178/4/6
f 178/4/6 161/4/6 179/4/6
f 179/4/6 161/4/6 180/4/6
f 180/4/6 161/4/6 181/4/6
f 172/2/6 174/2/6 182/2/6
f 174/2/6 175/2/6 182/2/6
f 175/4/6 176/4/6 183/4/6
f 182/2/6 175/2/6 183/2/6
f 176/2/6 177/2/6 184/2/6
f 183/4/6 176/4/6 184/4/6
f 177/4/6 178/4/6 185/4/6
f 184/2/6 177/2/6 185/2/6
f 178/2/6 179/2/6 186/2/6
f 185/4/6 178/4/6 186/4/6
f 179/4/6 180/4/6 187/4/6
f 186/2/6 179/2/6 187/2/6
f 180/2/6 181/2/6 188/2/6
f 187/4/6 180/4/6 188/4/6
f 181/4/6 161/4/6 189/4/6
f 188/2/6 181/2/6 189/2/6
f 150/4/6 172/4/6 190/4/6
f 172/2/6 182/2/6 190/2/6
f 187/4/6 188/4/6 191/4/6
f 190/2/6 182/2/6 191/2/6
f 186/4/6 187/4/6 191/4/6
f 185/4/6 186/4/6 191/4/6
f 184/4/6 185/4/6 191/4/6
f 183/4/6 184/4/6 191/4/6
f 182/4/6 183/4/6 191/4/6
f 188/4/6 189/4/6 191/4/6
f 150/4/6 190/4/6 192/4/6
f 190/4/6 191/4/6 192/4/6
f 191/4/6 189/4/6 193/4/6
f 192/4/6 191/4/6 193/4/6
f 150/4/6 192/4/6 194/4/6
f 192/2/6 193/2/6 194/2/6
f 193/4/6 189/4/6 195/4/6
f 194/2/6 193/2/6 195/2/6
f 150/4/6 194/4/6 196/4/6
f 194/4/6 195/4/6 196/4/6
f 195/4/6 189/4/6 197/4/6
f 196/4/6 195/4/6 197/4/6
f 150/4/6 196/4/6 198/4/6
f 196/2/6 197/2/6 198/2/6
f 197/4/6 189/4/6 199/4/6
f 198/2/6 197/2/6 199/2/6
f 150/4/6 198/4/6 200/4/6
f 198/4/6 199/4/6 200/4/6
f 199/4/6 189/4/6 201/4/6
f 200/4/6 199/4/6 201/4/6
f 201/4/6 189/4/6 202/4/6
f 189/4/6 161/4/6 203/4/6
f 202/4/6 189/4/6 203/4/6
f 202/1/6 203/1/6 204/1/6
f 204/1/6 203/1/6 205/1/6
f 150/4/6 200/4/6 206/4/6
f 200/2/6 201/2/6 206/2/6
f 201/4/6 202/4/6 207/4/6
f 206/2/6 201/2/6 207/2/6
f 204/4/6 205/4/6 208/4/6
f 208/4/6 205/4/6 209/4/6
f 148/4/6 149/4/6 210/4/6
f 149/1/6 150/1/6 211/1/6
f 210/4/6 149/4/6 211/4/6
f 150/4/6 206/4/6 212/4/6
f 211/1/6 150/1/6 212/1/6
f 206/4/6 207/4/6 212/4/6
f 207/4/6 202/4/6 213/4/6
f 212/4/6 207/4/6 213/4/6
f 202/1/6 204/1/6 213/1/6
f 204/4/6 208/4/6 214/4/6
f 213/1/6 204/1/6 214/1/6
f 214/4/6 208/4/6 215/4/6
f 218/3/6 219/3/6 220/3/6
f 220/3/6 219/3/6 221/3/6
f 216/3/6 217/3/6 224/3/6
f 224/3/6 217/3/6 225/3/6
f 222/3/6 223/3/6 226/3/6
f 226/3/6 223/3/6 227/3/6
