# MagicaVoxel @ Ephtracy

# group
o 

# material
mtllib Road.obj.mtl
usemtl palette

# normals
vn -1 0 0
vn 1 0 0
vn 0 0 1
vn 0 0 -1
vn 0 -1 0
vn 0 1 0

# texcoords
vt 0.283203 0.5
vt 0.916016 0.5
vt 0.974609 0.5
vt 0.978516 0.5

# verts
v 0 2 0
v 0 2 -12.6
v 0 2.5 0
v 0 2.5 -12.6
v 11.7 2.1 0
v 11.7 2.1 -12.6
v 11.7 2.5 0
v 11.7 2.5 -12.6
v 0.9 2.1 0
v 0.9 2.1 -12.6
v 0.9 2.5 0
v 0.9 2.5 -12.6
v 12.6 2 0
v 12.6 2 -12.6
v 12.6 2.5 0
v 12.6 2.5 -12.6
v 0 2 0
v 0 2.5 0
v 0.9 2 0
v 0.9 2.1 0
v 0.9 2.5 0
v 1.1 2 0
v 1.1 2.1 0
v 1.2 2 0
v 1.2 2.1 0
v 6.1 2 0
v 6.1 2.1 0
v 6.5 2 0
v 6.5 2.1 0
v 11.4 2 0
v 11.4 2.1 0
v 11.5 2 0
v 11.5 2.1 0
v 11.7 2 0
v 11.7 2.1 0
v 11.7 2.5 0
v 12.6 2 0
v 12.6 2.5 0
v 0 2 -12.6
v 0 2.5 -12.6
v 0.9 2 -12.6
v 0.9 2.1 -12.6
v 0.9 2.5 -12.6
v 1.1 2 -12.6
v 1.1 2.1 -12.6
v 1.2 2 -12.6
v 1.2 2.1 -12.6
v 11.4 2 -12.6
v 11.4 2.1 -12.6
v 11.5 2 -12.6
v 11.5 2.1 -12.6
v 11.7 2 -12.6
v 11.7 2.1 -12.6
v 11.7 2.5 -12.6
v 12.6 2 -12.6
v 12.6 2.5 -12.6
v 0 2 0
v 0.9 2 0
v 1.1 2 0
v 1.2 2 0
v 6.1 2 0
v 6.5 2 0
v 11.4 2 0
v 11.5 2 0
v 11.7 2 0
v 12.6 2 0
v 6.1 2 -0.9
v 6.5 2 -0.9
v 6.1 2 -1.8
v 6.5 2 -1.8
v 6.1 2 -2.7
v 6.5 2 -2.7
v 6.1 2 -3.6
v 6.5 2 -3.6
v 6.1 2 -4.5
v 6.5 2 -4.5
v 6.1 2 -5.4
v 6.5 2 -5.4
v 6.1 2 -6.3
v 6.5 2 -6.3
v 6.1 2 -7.2
v 6.5 2 -7.2
v 6.1 2 -8.1
v 6.5 2 -8.1
v 6.1 2 -9
v 6.5 2 -9
v 6.1 2 -9.9
v 6.5 2 -9.9
v 6.1 2 -10.8
v 6.5 2 -10.8
v 6.1 2 -11.7
v 6.5 2 -11.7
v 0 2 -12.6
v 0.9 2 -12.6
v 1.1 2 -12.6
v 1.2 2 -12.6
v 11.4 2 -12.6
v 11.5 2 -12.6
v 11.7 2 -12.6
v 12.6 2 -12.6
v 0.9 2.1 0
v 1.1 2.1 0
v 1.2 2.1 0
v 6.1 2.1 0
v 6.5 2.1 0
v 11.4 2.1 0
v 11.5 2.1 0
v 11.7 2.1 0
v 6.1 2.1 -0.9
v 6.5 2.1 -0.9
v 6.1 2.1 -1.8
v 6.5 2.1 -1.8
v 6.1 2.1 -2.7
v 6.5 2.1 -2.7
v 6.1 2.1 -3.6
v 6.5 2.1 -3.6
v 6.1 2.1 -4.5
v 6.5 2.1 -4.5
v 6.1 2.1 -5.4
v 6.5 2.1 -5.4
v 6.1 2.1 -6.3
v 6.5 2.1 -6.3
v 6.1 2.1 -7.2
v 6.5 2.1 -7.2
v 6.1 2.1 -8.1
v 6.5 2.1 -8.1
v 6.1 2.1 -9
v 6.5 2.1 -9
v 6.1 2.1 -9.9
v 6.5 2.1 -9.9
v 6.1 2.1 -10.8
v 6.5 2.1 -10.8
v 6.1 2.1 -11.7
v 6.5 2.1 -11.7
v 0.9 2.1 -12.6
v 1.1 2.1 -12.6
v 1.2 2.1 -12.6
v 11.4 2.1 -12.6
v 11.5 2.1 -12.6
v 11.7 2.1 -12.6
v 0 2.5 0
v 0.9 2.5 0
v 11.7 2.5 0
v 12.6 2.5 0
v 0 2.5 -12.6
v 0.9 2.5 -12.6
v 11.7 2.5 -12.6
v 12.6 2.5 -12.6

# faces
f 3/3/1 2/3/1 1/3/1
f 4/3/1 2/3/1 3/3/1
f 7/3/1 6/3/1 5/3/1
f 8/3/1 6/3/1 7/3/1
f 9/3/2 10/3/2 11/3/2
f 11/3/2 10/3/2 12/3/2
f 13/3/2 14/3/2 15/3/2
f 15/3/2 14/3/2 16/3/2
f 19/3/3 18/3/3 17/3/3
f 20/3/3 18/3/3 19/3/3
f 21/3/3 18/3/3 20/3/3
f 22/4/3 20/4/3 19/4/3
f 23/4/3 20/4/3 22/4/3
f 24/1/3 23/1/3 22/1/3
f 25/1/3 23/1/3 24/1/3
f 26/4/3 25/4/3 24/4/3
f 27/4/3 25/4/3 26/4/3
f 28/2/3 27/2/3 26/2/3
f 29/2/3 27/2/3 28/2/3
f 30/4/3 29/4/3 28/4/3
f 31/4/3 29/4/3 30/4/3
f 32/1/3 31/1/3 30/1/3
f 33/1/3 31/1/3 32/1/3
f 34/4/3 33/4/3 32/4/3
f 35/4/3 33/4/3 34/4/3
f 37/3/3 35/3/3 34/3/3
f 37/3/3 36/3/3 35/3/3
f 38/3/3 36/3/3 37/3/3
f 39/3/4 40/3/4 41/3/4
f 41/3/4 40/3/4 42/3/4
f 42/3/4 40/3/4 43/3/4
f 41/4/4 42/4/4 44/4/4
f 44/4/4 42/4/4 45/4/4
f 44/1/4 45/1/4 46/1/4
f 46/1/4 45/1/4 47/1/4
f 46/4/4 47/4/4 48/4/4
f 48/4/4 47/4/4 49/4/4
f 48/1/4 49/1/4 50/1/4
f 50/1/4 49/1/4 51/1/4
f 50/4/4 51/4/4 52/4/4
f 52/4/4 51/4/4 53/4/4
f 52/3/4 53/3/4 55/3/4
f 53/3/4 54/3/4 55/3/4
f 55/3/4 54/3/4 56/3/4
f 67/4/5 61/4/5 60/4/5
f 67/2/5 62/2/5 61/2/5
f 68/4/5 63/4/5 62/4/5
f 68/2/5 62/2/5 67/2/5
f 69/4/5 67/4/5 60/4/5
f 69/4/5 68/4/5 67/4/5
f 70/4/5 63/4/5 68/4/5
f 70/4/5 68/4/5 69/4/5
f 71/4/5 69/4/5 60/4/5
f 71/2/5 70/2/5 69/2/5
f 72/4/5 63/4/5 70/4/5
f 72/2/5 70/2/5 71/2/5
f 73/4/5 71/4/5 60/4/5
f 73/4/5 72/4/5 71/4/5
f 74/4/5 63/4/5 72/4/5
f 74/4/5 72/4/5 73/4/5
f 75/4/5 73/4/5 60/4/5
f 75/2/5 74/2/5 73/2/5
f 76/4/5 63/4/5 74/4/5
f 76/2/5 74/2/5 75/2/5
f 77/4/5 75/4/5 60/4/5
f 77/4/5 76/4/5 75/4/5
f 78/4/5 63/4/5 76/4/5
f 78/4/5 76/4/5 77/4/5
f 79/4/5 77/4/5 60/4/5
f 79/2/5 78/2/5 77/2/5
f 80/4/5 63/4/5 78/4/5
f 80/2/5 78/2/5 79/2/5
f 81/4/5 79/4/5 60/4/5
f 81/4/5 80/4/5 79/4/5
f 82/4/5 63/4/5 80/4/5
f 82/4/5 80/4/5 81/4/5
f 83/4/5 81/4/5 60/4/5
f 83/2/5 82/2/5 81/2/5
f 84/4/5 63/4/5 82/4/5
f 84/2/5 82/2/5 83/2/5
f 85/4/5 83/4/5 60/4/5
f 85/4/5 84/4/5 83/4/5
f 86/4/5 63/4/5 84/4/5
f 86/4/5 84/4/5 85/4/5
f 87/4/5 85/4/5 60/4/5
f 87/2/5 86/2/5 85/2/5
f 88/4/5 63/4/5 86/4/5
f 88/2/5 86/2/5 87/2/5
f 89/4/5 87/4/5 60/4/5
f 89/4/5 88/4/5 87/4/5
f 90/4/5 63/4/5 88/4/5
f 90/4/5 88/4/5 89/4/5
f 91/4/5 89/4/5 60/4/5
f 91/2/5 90/2/5 89/2/5
f 92/4/5 63/4/5 90/4/5
f 92/2/5 90/2/5 91/2/5
f 93/3/5 58/3/5 57/3/5
f 94/4/5 59/4/5 58/4/5
f 94/3/5 58/3/5 93/3/5
f 95/1/5 60/1/5 59/1/5
f 95/4/5 59/4/5 94/4/5
f 96/4/5 91/4/5 60/4/5
f 96/1/5 60/1/5 95/1/5
f 96/4/5 92/4/5 91/4/5
f 97/4/5 63/4/5 92/4/5
f 97/4/5 92/4/5 96/4/5
f 97/1/5 64/1/5 63/1/5
f 98/4/5 65/4/5 64/4/5
f 98/1/5 64/1/5 97/1/5
f 99/3/5 66/3/5 65/3/5
f 99/4/5 65/4/5 98/4/5
f 100/3/5 66/3/5 99/3/5
f 103/4/6 104/4/6 109/4/6
f 104/2/6 105/2/6 109/2/6
f 105/4/6 106/4/6 110/4/6
f 109/2/6 105/2/6 110/2/6
f 103/4/6 109/4/6 111/4/6
f 109/4/6 110/4/6 111/4/6
f 110/4/6 106/4/6 112/4/6
f 111/4/6 110/4/6 112/4/6
f 103/4/6 111/4/6 113/4/6
f 111/2/6 112/2/6 113/2/6
f 112/4/6 106/4/6 114/4/6
f 113/2/6 112/2/6 114/2/6
f 103/4/6 113/4/6 115/4/6
f 113/4/6 114/4/6 115/4/6
f 114/4/6 106/4/6 116/4/6
f 115/4/6 114/4/6 116/4/6
f 103/4/6 115/4/6 117/4/6
f 115/2/6 116/2/6 117/2/6
f 116/4/6 106/4/6 118/4/6
f 117/2/6 116/2/6 118/2/6
f 103/4/6 117/4/6 119/4/6
f 117/4/6 118/4/6 119/4/6
f 118/4/6 106/4/6 120/4/6
f 119/4/6 118/4/6 120/4/6
f 103/4/6 119/4/6 121/4/6
f 119/2/6 120/2/6 121/2/6
f 120/4/6 106/4/6 122/4/6
f 121/2/6 120/2/6 122/2/6
f 103/4/6 121/4/6 123/4/6
f 121/4/6 122/4/6 123/4/6
f 122/4/6 106/4/6 124/4/6
f 123/4/6 122/4/6 124/4/6
f 103/4/6 123/4/6 125/4/6
f 123/2/6 124/2/6 125/2/6
f 124/4/6 106/4/6 126/4/6
f 125/2/6 124/2/6 126/2/6
f 103/4/6 125/4/6 127/4/6
f 125/4/6 126/4/6 127/4/6
f 126/4/6 106/4/6 128/4/6
f 127/4/6 126/4/6 128/4/6
f 103/4/6 127/4/6 129/4/6
f 127/2/6 128/2/6 129/2/6
f 128/4/6 106/4/6 130/4/6
f 129/2/6 128/2/6 130/2/6
f 103/4/6 129/4/6 131/4/6
f 129/4/6 130/4/6 131/4/6
f 130/4/6 106/4/6 132/4/6
f 131/4/6 130/4/6 132/4/6
f 103/4/6 131/4/6 133/4/6
f 131/2/6 132/2/6 133/2/6
f 132/4/6 106/4/6 134/4/6
f 133/2/6 132/2/6 134/2/6
f 101/4/6 102/4/6 135/4/6
f 102/1/6 103/1/6 136/1/6
f 135/4/6 102/4/6 136/4/6
f 103/4/6 133/4/6 137/4/6
f 136/1/6 103/1/6 137/1/6
f 133/4/6 134/4/6 137/4/6
f 134/4/6 106/4/6 138/4/6
f 137/4/6 134/4/6 138/4/6
f 106/1/6 107/1/6 138/1/6
f 107/4/6 108/4/6 139/4/6
f 138/1/6 107/1/6 139/1/6
f 139/4/6 108/4/6 140/4/6
f 141/3/6 142/3/6 145/3/6
f 145/3/6 142/3/6 146/3/6
f 143/3/6 144/3/6 147/3/6
f 147/3/6 144/3/6 148/3/6
