# MagicaVoxel @ Ephtracy

# group
o 

# material
mtllib WallPiece.mtl
usemtl palette

# normals
vn -1 0 0
vn 1 0 0
vn 0 0 1
vn 0 0 -1
vn 0 -1 0
vn 0 1 0

# texcoords
vt 0.154297 0.5
vt 0.294922 0.5
vt 0.724609 0.5
vt 0.982422 0.5
vt 0.986328 0.5

# verts
v 5 2 -6
v 5 2 -6.8
v 5 3.6 -6
v 5 3.6 -6.2
v 5 9.6 -6.2
v 5 9.6 -6.8
v 5.3 3.9 -6.3
v 5.3 3.9 -6.4
v 5.3 5.1 -6.3
v 5.3 5.1 -6.4
v 5.3 5.3 -6.3
v 5.3 5.3 -6.4
v 5.3 5.8 -6.3
v 5.3 5.8 -6.4
v 5.3 6.1 -6.3
v 5.3 6.1 -6.4
v 5.3 6.5 -6.3
v 5.3 6.5 -6.4
v 5.3 6.7 -6.3
v 5.3 6.7 -6.4
v 5.3 8 -6.3
v 5.3 8 -6.4
v 5.3 8.2 -6.3
v 5.3 8.2 -6.4
v 5.3 9.4 -6.3
v 5.3 9.4 -6.4
v 5.5 3.9 -6.3
v 5.5 3.9 -6.4
v 5.5 5.1 -6.3
v 5.5 5.1 -6.4
v 5.5 5.3 -6.3
v 5.5 5.3 -6.4
v 5.5 5.7 -6.3
v 5.5 5.7 -6.4
v 5.5 5.8 -6.3
v 5.5 5.8 -6.4
v 5.5 6.1 -6.3
v 5.5 6.1 -6.4
v 5.5 6.2 -6.3
v 5.5 6.2 -6.4
v 5.5 6.5 -6.3
v 5.5 6.5 -6.4
v 5.5 6.7 -6.3
v 5.5 6.7 -6.4
v 5.5 7 -6.3
v 5.5 7 -6.4
v 5.5 7.7 -6.3
v 5.5 7.7 -6.4
v 5.5 8 -6.3
v 5.5 8 -6.4
v 5.5 8.2 -6.3
v 5.5 8.2 -6.4
v 5.5 9.4 -6.3
v 5.5 9.4 -6.4
v 5.6 7 -6.3
v 5.6 7 -6.4
v 5.6 7.7 -6.3
v 5.6 7.7 -6.4
v 5.8 3.9 -6.3
v 5.8 3.9 -6.4
v 5.8 5.1 -6.3
v 5.8 5.1 -6.4
v 5.8 5.3 -6.3
v 5.8 5.3 -6.4
v 5.8 6.1 -6.3
v 5.8 6.1 -6.4
v 5.8 7 -6.3
v 5.8 7 -6.4
v 5.8 8 -6.3
v 5.8 8 -6.4
v 5.8 8.2 -6.3
v 5.8 8.2 -6.4
v 5.8 8.4 -6.3
v 5.8 8.4 -6.4
v 6 3.9 -6.2
v 6 3.9 -6.4
v 6 5.1 -6.2
v 6 5.1 -6.4
v 6 5.3 -6.2
v 6 5.3 -6.4
v 6 6.5 -6.2
v 6 6.5 -6.4
v 6 6.7 -6.2
v 6 6.7 -6.4
v 6 8 -6.2
v 6 8 -6.4
v 6 8.2 -6.2
v 6 8.2 -6.4
v 6 9.4 -6.2
v 6 9.4 -6.4
v 5.2 3.9 -6.2
v 5.2 3.9 -6.4
v 5.2 5.1 -6.2
v 5.2 5.1 -6.4
v 5.2 5.3 -6.2
v 5.2 5.3 -6.4
v 5.2 6.5 -6.2
v 5.2 6.5 -6.4
v 5.2 6.7 -6.2
v 5.2 6.7 -6.4
v 5.2 8 -6.2
v 5.2 8 -6.4
v 5.2 8.2 -6.2
v 5.2 8.2 -6.4
v 5.2 9.4 -6.2
v 5.2 9.4 -6.4
v 5.4 3.9 -6.3
v 5.4 3.9 -6.4
v 5.4 5.1 -6.3
v 5.4 5.1 -6.4
v 5.4 5.3 -6.3
v 5.4 5.3 -6.4
v 5.4 5.7 -6.3
v 5.4 5.7 -6.4
v 5.4 6.2 -6.3
v 5.4 6.2 -6.4
v 5.4 6.5 -6.3
v 5.4 6.5 -6.4
v 5.4 6.7 -6.3
v 5.4 6.7 -6.4
v 5.4 8 -6.3
v 5.4 8 -6.4
v 5.4 8.2 -6.3
v 5.4 8.2 -6.4
v 5.4 9.4 -6.3
v 5.4 9.4 -6.4
v 5.6 3.9 -6.3
v 5.6 3.9 -6.4
v 5.6 5.1 -6.3
v 5.6 5.1 -6.4
v 5.6 5.3 -6.3
v 5.6 5.3 -6.4
v 5.6 5.7 -6.3
v 5.6 5.7 -6.4
v 5.6 7.8 -6.3
v 5.6 7.8 -6.4
v 5.6 8 -6.3
v 5.6 8 -6.4
v 5.6 8.2 -6.3
v 5.6 8.2 -6.4
v 5.6 8.4 -6.3
v 5.6 8.4 -6.4
v 5.7 5.7 -6.3
v 5.7 5.7 -6.4
v 5.7 6.1 -6.3
v 5.7 6.1 -6.4
v 5.7 6.2 -6.3
v 5.7 6.2 -6.4
v 5.7 6.5 -6.3
v 5.7 6.5 -6.4
v 5.7 6.7 -6.3
v 5.7 6.7 -6.4
v 5.7 6.9 -6.3
v 5.7 6.9 -6.4
v 5.7 7 -6.3
v 5.7 7 -6.4
v 5.7 7.8 -6.3
v 5.7 7.8 -6.4
v 5.7 8.5 -6.3
v 5.7 8.5 -6.4
v 5.7 9.4 -6.3
v 5.7 9.4 -6.4
v 5.9 3.9 -6.3
v 5.9 3.9 -6.4
v 5.9 5.1 -6.3
v 5.9 5.1 -6.4
v 5.9 5.3 -6.3
v 5.9 5.3 -6.4
v 5.9 6.2 -6.3
v 5.9 6.2 -6.4
v 5.9 6.9 -6.3
v 5.9 6.9 -6.4
v 5.9 8 -6.3
v 5.9 8 -6.4
v 5.9 8.2 -6.3
v 5.9 8.2 -6.4
v 5.9 8.5 -6.3
v 5.9 8.5 -6.4
v 6.2 2 -6
v 6.2 2 -6.8
v 6.2 3.6 -6
v 6.2 3.6 -6.2
v 6.2 9.6 -6.2
v 6.2 9.6 -6.8
v 5 2 -6
v 5 3.6 -6
v 6.2 2 -6
v 6.2 3.6 -6
v 5 3.6 -6.2
v 5 9.6 -6.2
v 5.1 3.8 -6.2
v 5.1 9.5 -6.2
v 5.2 3.9 -6.2
v 5.2 5.1 -6.2
v 5.2 5.3 -6.2
v 5.2 6.5 -6.2
v 5.2 6.7 -6.2
v 5.2 8 -6.2
v 5.2 8.2 -6.2
v 5.2 9.4 -6.2
v 6 3.9 -6.2
v 6 5.1 -6.2
v 6 5.3 -6.2
v 6 6.5 -6.2
v 6 6.7 -6.2
v 6 8 -6.2
v 6 8.2 -6.2
v 6 9.4 -6.2
v 6.1 3.8 -6.2
v 6.1 9.5 -6.2
v 6.2 3.6 -6.2
v 6.2 9.6 -6.2
v 5.3 3.9 -6.3
v 5.3 5.1 -6.3
v 5.3 5.3 -6.3
v 5.3 5.8 -6.3
v 5.3 6.1 -6.3
v 5.3 6.5 -6.3
v 5.3 6.7 -6.3
v 5.3 8 -6.3
v 5.3 8.2 -6.3
v 5.3 9.4 -6.3
v 5.4 3.9 -6.3
v 5.4 5.1 -6.3
v 5.4 5.3 -6.3
v 5.4 5.7 -6.3
v 5.4 6.2 -6.3
v 5.4 6.5 -6.3
v 5.4 6.7 -6.3
v 5.4 8 -6.3
v 5.4 8.2 -6.3
v 5.4 9.4 -6.3
v 5.5 3.9 -6.3
v 5.5 5.1 -6.3
v 5.5 5.3 -6.3
v 5.5 5.7 -6.3
v 5.5 5.8 -6.3
v 5.5 6.1 -6.3
v 5.5 6.2 -6.3
v 5.5 6.5 -6.3
v 5.5 6.7 -6.3
v 5.5 7 -6.3
v 5.5 7.7 -6.3
v 5.5 8 -6.3
v 5.5 8.2 -6.3
v 5.5 9.4 -6.3
v 5.6 3.9 -6.3
v 5.6 5.1 -6.3
v 5.6 5.3 -6.3
v 5.6 5.7 -6.3
v 5.6 5.8 -6.3
v 5.6 6.1 -6.3
v 5.6 6.2 -6.3
v 5.6 6.5 -6.3
v 5.6 6.7 -6.3
v 5.6 7 -6.3
v 5.6 7.7 -6.3
v 5.6 7.8 -6.3
v 5.6 8 -6.3
v 5.6 8.2 -6.3
v 5.6 8.4 -6.3
v 5.6 9.4 -6.3
v 5.7 5.7 -6.3
v 5.7 6.1 -6.3
v 5.7 6.2 -6.3
v 5.7 6.5 -6.3
v 5.7 6.7 -6.3
v 5.7 6.9 -6.3
v 5.7 7 -6.3
v 5.7 7.8 -6.3
v 5.7 8.5 -6.3
v 5.7 9.4 -6.3
v 5.8 3.9 -6.3
v 5.8 5.1 -6.3
v 5.8 5.3 -6.3
v 5.8 6.1 -6.3
v 5.8 7 -6.3
v 5.8 8 -6.3
v 5.8 8.2 -6.3
v 5.8 8.4 -6.3
v 5.9 3.9 -6.3
v 5.9 5.1 -6.3
v 5.9 5.3 -6.3
v 5.9 6.2 -6.3
v 5.9 6.9 -6.3
v 5.9 8 -6.3
v 5.9 8.2 -6.3
v 5.9 8.5 -6.3
v 5.2 3.9 -6.4
v 5.2 5.1 -6.4
v 5.2 5.3 -6.4
v 5.2 6.5 -6.4
v 5.2 6.7 -6.4
v 5.2 8 -6.4
v 5.2 8.2 -6.4
v 5.2 9.4 -6.4
v 5.3 3.9 -6.4
v 5.3 5.1 -6.4
v 5.3 5.3 -6.4
v 5.3 5.8 -6.4
v 5.3 6.1 -6.4
v 5.3 6.5 -6.4
v 5.3 6.7 -6.4
v 5.3 8 -6.4
v 5.3 8.2 -6.4
v 5.3 9.4 -6.4
v 5.4 3.9 -6.4
v 5.4 5.1 -6.4
v 5.4 5.3 -6.4
v 5.4 5.7 -6.4
v 5.4 6.2 -6.4
v 5.4 6.5 -6.4
v 5.4 6.7 -6.4
v 5.4 8 -6.4
v 5.4 8.2 -6.4
v 5.4 9.4 -6.4
v 5.5 3.9 -6.4
v 5.5 5.1 -6.4
v 5.5 5.3 -6.4
v 5.5 5.7 -6.4
v 5.5 5.8 -6.4
v 5.5 6.1 -6.4
v 5.5 6.2 -6.4
v 5.5 6.5 -6.4
v 5.5 6.7 -6.4
v 5.5 7 -6.4
v 5.5 7.7 -6.4
v 5.5 8 -6.4
v 5.5 8.2 -6.4
v 5.5 9.4 -6.4
v 5.6 3.9 -6.4
v 5.6 5.1 -6.4
v 5.6 5.3 -6.4
v 5.6 5.7 -6.4
v 5.6 7 -6.4
v 5.6 7.7 -6.4
v 5.6 7.8 -6.4
v 5.6 8 -6.4
v 5.6 8.2 -6.4
v 5.6 8.4 -6.4
v 5.7 5.7 -6.4
v 5.7 6.1 -6.4
v 5.7 6.2 -6.4
v 5.7 6.5 -6.4
v 5.7 6.7 -6.4
v 5.7 6.9 -6.4
v 5.7 7 -6.4
v 5.7 7.8 -6.4
v 5.7 8.5 -6.4
v 5.7 9.4 -6.4
v 5.8 3.9 -6.4
v 5.8 5.1 -6.4
v 5.8 5.3 -6.4
v 5.8 6.1 -6.4
v 5.8 7 -6.4
v 5.8 8 -6.4
v 5.8 8.2 -6.4
v 5.8 8.4 -6.4
v 5.9 3.9 -6.4
v 5.9 5.1 -6.4
v 5.9 5.3 -6.4
v 5.9 6.2 -6.4
v 5.9 6.9 -6.4
v 5.9 8 -6.4
v 5.9 8.2 -6.4
v 5.9 8.5 -6.4
v 6 3.9 -6.4
v 6 5.1 -6.4
v 6 5.3 -6.4
v 6 6.5 -6.4
v 6 6.7 -6.4
v 6 8 -6.4
v 6 8.2 -6.4
v 6 9.4 -6.4
v 5 2 -6.8
v 5 9.6 -6.8
v 6.2 2 -6.8
v 6.2 9.6 -6.8
v 5 2 -6
v 6.2 2 -6
v 5 2 -6.8
v 6.2 2 -6.8
v 5.2 5.1 -6.2
v 6 5.1 -6.2
v 5.3 5.1 -6.3
v 5.4 5.1 -6.3
v 5.5 5.1 -6.3
v 5.6 5.1 -6.3
v 5.8 5.1 -6.3
v 5.9 5.1 -6.3
v 5.2 5.1 -6.4
v 5.3 5.1 -6.4
v 5.4 5.1 -6.4
v 5.5 5.1 -6.4
v 5.6 5.1 -6.4
v 5.8 5.1 -6.4
v 5.9 5.1 -6.4
v 6 5.1 -6.4
v 5.4 5.7 -6.3
v 5.5 5.7 -6.3
v 5.6 5.7 -6.3
v 5.7 5.7 -6.3
v 5.4 5.7 -6.4
v 5.5 5.7 -6.4
v 5.6 5.7 -6.4
v 5.7 5.7 -6.4
v 5.3 6.1 -6.3
v 5.5 6.1 -6.3
v 5.7 6.1 -6.3
v 5.8 6.1 -6.3
v 5.3 6.1 -6.4
v 5.5 6.1 -6.4
v 5.7 6.1 -6.4
v 5.8 6.1 -6.4
v 5.2 6.5 -6.2
v 6 6.5 -6.2
v 5.3 6.5 -6.3
v 5.4 6.5 -6.3
v 5.5 6.5 -6.3
v 5.6 6.5 -6.3
v 5.7 6.5 -6.3
v 5.2 6.5 -6.4
v 5.3 6.5 -6.4
v 5.4 6.5 -6.4
v 5.5 6.5 -6.4
v 5.7 6.5 -6.4
v 6 6.5 -6.4
v 5.7 6.9 -6.3
v 5.9 6.9 -6.3
v 5.7 6.9 -6.4
v 5.9 6.9 -6.4
v 5.5 7.7 -6.3
v 5.6 7.7 -6.3
v 5.5 7.7 -6.4
v 5.6 7.7 -6.4
v 5.2 8 -6.2
v 6 8 -6.2
v 5.3 8 -6.3
v 5.4 8 -6.3
v 5.5 8 -6.3
v 5.6 8 -6.3
v 5.8 8 -6.3
v 5.9 8 -6.3
v 5.2 8 -6.4
v 5.3 8 -6.4
v 5.4 8 -6.4
v 5.5 8 -6.4
v 5.6 8 -6.4
v 5.8 8 -6.4
v 5.9 8 -6.4
v 6 8 -6.4
v 5.6 8.4 -6.3
v 5.8 8.4 -6.3
v 5.6 8.4 -6.4
v 5.8 8.4 -6.4
v 5.2 9.4 -6.2
v 6 9.4 -6.2
v 5.3 9.4 -6.3
v 5.4 9.4 -6.3
v 5.5 9.4 -6.3
v 5.6 9.4 -6.3
v 5.7 9.4 -6.3
v 5.2 9.4 -6.4
v 5.3 9.4 -6.4
v 5.4 9.4 -6.4
v 5.5 9.4 -6.4
v 5.7 9.4 -6.4
v 6 9.4 -6.4
v 5 3.6 -6
v 6.2 3.6 -6
v 5 3.6 -6.2
v 6.2 3.6 -6.2
v 5.2 3.9 -6.2
v 6 3.9 -6.2
v 5.3 3.9 -6.3
v 5.4 3.9 -6.3
v 5.5 3.9 -6.3
v 5.6 3.9 -6.3
v 5.8 3.9 -6.3
v 5.9 3.9 -6.3
v 5.2 3.9 -6.4
v 5.3 3.9 -6.4
v 5.4 3.9 -6.4
v 5.5 3.9 -6.4
v 5.6 3.9 -6.4
v 5.8 3.9 -6.4
v 5.9 3.9 -6.4
v 6 3.9 -6.4
v 5.2 5.3 -6.2
v 6 5.3 -6.2
v 5.3 5.3 -6.3
v 5.4 5.3 -6.3
v 5.5 5.3 -6.3
v 5.6 5.3 -6.3
v 5.8 5.3 -6.3
v 5.9 5.3 -6.3
v 5.2 5.3 -6.4
v 5.3 5.3 -6.4
v 5.4 5.3 -6.4
v 5.5 5.3 -6.4
v 5.6 5.3 -6.4
v 5.8 5.3 -6.4
v 5.9 5.3 -6.4
v 6 5.3 -6.4
v 5.3 5.8 -6.3
v 5.5 5.8 -6.3
v 5.3 5.8 -6.4
v 5.5 5.8 -6.4
v 5.4 6.2 -6.3
v 5.5 6.2 -6.3
v 5.7 6.2 -6.3
v 5.9 6.2 -6.3
v 5.4 6.2 -6.4
v 5.5 6.2 -6.4
v 5.7 6.2 -6.4
v 5.9 6.2 -6.4
v 5.2 6.7 -6.2
v 6 6.7 -6.2
v 5.3 6.7 -6.3
v 5.4 6.7 -6.3
v 5.5 6.7 -6.3
v 5.6 6.7 -6.3
v 5.7 6.7 -6.3
v 5.2 6.7 -6.4
v 5.3 6.7 -6.4
v 5.4 6.7 -6.4
v 5.5 6.7 -6.4
v 5.7 6.7 -6.4
v 6 6.7 -6.4
v 5.5 7 -6.3
v 5.6 7 -6.3
v 5.7 7 -6.3
v 5.8 7 -6.3
v 5.5 7 -6.4
v 5.6 7 -6.4
v 5.7 7 -6.4
v 5.8 7 -6.4
v 5.6 7.8 -6.3
v 5.7 7.8 -6.3
v 5.6 7.8 -6.4
v 5.7 7.8 -6.4
v 5.2 8.2 -6.2
v 6 8.2 -6.2
v 5.3 8.2 -6.3
v 5.4 8.2 -6.3
v 5.5 8.2 -6.3
v 5.6 8.2 -6.3
v 5.8 8.2 -6.3
v 5.9 8.2 -6.3
v 5.2 8.2 -6.4
v 5.3 8.2 -6.4
v 5.4 8.2 -6.4
v 5.5 8.2 -6.4
v 5.6 8.2 -6.4
v 5.8 8.2 -6.4
v 5.9 8.2 -6.4
v 6 8.2 -6.4
v 5.7 8.5 -6.3
v 5.9 8.5 -6.3
v 5.7 8.5 -6.4
v 5.9 8.5 -6.4
v 5 9.6 -6.2
v 6.2 9.6 -6.2
v 5 9.6 -6.8
v 6.2 9.6 -6.8

# faces
f 3/4/1 2/4/1 1/4/1
f 4/4/1 2/4/1 3/4/1
f 5/4/1 2/4/1 4/4/1
f 6/4/1 2/4/1 5/4/1
f 9/1/1 8/1/1 7/1/1
f 10/1/1 8/1/1 9/1/1
f 13/1/1 12/1/1 11/1/1
f 14/1/1 12/1/1 13/1/1
f 17/3/1 16/3/1 15/3/1
f 18/3/1 16/3/1 17/3/1
f 21/3/1 20/3/1 19/3/1
f 22/3/1 20/3/1 21/3/1
f 25/3/1 24/3/1 23/3/1
f 26/3/1 24/3/1 25/3/1
f 29/2/1 28/2/1 27/2/1
f 30/2/1 28/2/1 29/2/1
f 33/2/1 32/2/1 31/2/1
f 34/2/1 32/2/1 33/2/1
f 37/2/1 36/2/1 35/2/1
f 38/2/1 36/2/1 37/2/1
f 41/2/1 40/2/1 39/2/1
f 42/2/1 40/2/1 41/2/1
f 45/2/1 44/2/1 43/2/1
f 46/2/1 44/2/1 45/2/1
f 49/1/1 48/1/1 47/1/1
f 50/1/1 48/1/1 49/1/1
f 53/1/1 52/1/1 51/1/1
f 54/1/1 52/1/1 53/1/1
f 57/1/1 56/1/1 55/1/1
f 58/1/1 56/1/1 57/1/1
f 61/3/1 60/3/1 59/3/1
f 62/3/1 60/3/1 61/3/1
f 65/3/1 64/3/1 63/3/1
f 66/3/1 64/3/1 65/3/1
f 69/2/1 68/2/1 67/2/1
f 70/2/1 68/2/1 69/2/1
f 73/2/1 72/2/1 71/2/1
f 74/2/1 72/2/1 73/2/1
f 77/5/1 76/5/1 75/5/1
f 78/5/1 76/5/1 77/5/1
f 81/5/1 80/5/1 79/5/1
f 82/5/1 80/5/1 81/5/1
f 85/5/1 84/5/1 83/5/1
f 86/5/1 84/5/1 85/5/1
f 89/5/1 88/5/1 87/5/1
f 90/5/1 88/5/1 89/5/1
f 91/5/2 92/5/2 93/5/2
f 93/5/2 92/5/2 94/5/2
f 95/5/2 96/5/2 97/5/2
f 97/5/2 96/5/2 98/5/2
f 99/5/2 100/5/2 101/5/2
f 101/5/2 100/5/2 102/5/2
f 103/5/2 104/5/2 105/5/2
f 105/5/2 104/5/2 106/5/2
f 107/1/2 108/1/2 109/1/2
f 109/1/2 108/1/2 110/1/2
f 111/1/2 112/1/2 113/1/2
f 113/1/2 112/1/2 114/1/2
f 115/3/2 116/3/2 117/3/2
f 117/3/2 116/3/2 118/3/2
f 119/3/2 120/3/2 121/3/2
f 121/3/2 120/3/2 122/3/2
f 123/3/2 124/3/2 125/3/2
f 125/3/2 124/3/2 126/3/2
f 127/2/2 128/2/2 129/2/2
f 129/2/2 128/2/2 130/2/2
f 131/2/2 132/2/2 133/2/2
f 133/2/2 132/2/2 134/2/2
f 135/1/2 136/1/2 137/1/2
f 137/1/2 136/1/2 138/1/2
f 139/1/2 140/1/2 141/1/2
f 141/1/2 140/1/2 142/1/2
f 143/1/2 144/1/2 145/1/2
f 145/1/2 144/1/2 146/1/2
f 147/1/2 148/1/2 149/1/2
f 149/1/2 148/1/2 150/1/2
f 151/1/2 152/1/2 153/1/2
f 153/1/2 152/1/2 154/1/2
f 155/1/2 156/1/2 157/1/2
f 157/1/2 156/1/2 158/1/2
f 159/2/2 160/2/2 161/2/2
f 161/2/2 160/2/2 162/2/2
f 163/3/2 164/3/2 165/3/2
f 165/3/2 164/3/2 166/3/2
f 167/3/2 168/3/2 169/3/2
f 169/3/2 168/3/2 170/3/2
f 171/2/2 172/2/2 173/2/2
f 173/2/2 172/2/2 174/2/2
f 175/2/2 176/2/2 177/2/2
f 177/2/2 176/2/2 178/2/2
f 179/4/2 180/4/2 181/4/2
f 181/4/2 180/4/2 182/4/2
f 182/4/2 180/4/2 183/4/2
f 183/4/2 180/4/2 184/4/2
f 187/4/3 186/4/3 185/4/3
f 188/4/3 186/4/3 187/4/3
f 191/4/3 190/4/3 189/4/3
f 192/4/3 190/4/3 191/4/3
f 193/5/3 192/5/3 191/5/3
f 194/5/3 192/5/3 193/5/3
f 195/5/3 192/5/3 194/5/3
f 196/5/3 192/5/3 195/5/3
f 197/5/3 192/5/3 196/5/3
f 198/5/3 192/5/3 197/5/3
f 199/5/3 192/5/3 198/5/3
f 200/5/3 192/5/3 199/5/3
f 201/5/3 193/5/3 191/5/3
f 202/5/3 195/5/3 194/5/3
f 203/5/3 195/5/3 202/5/3
f 204/5/3 197/5/3 196/5/3
f 205/5/3 197/5/3 204/5/3
f 206/5/3 199/5/3 198/5/3
f 207/5/3 199/5/3 206/5/3
f 208/5/3 192/5/3 200/5/3
f 209/4/3 191/4/3 189/4/3
f 209/5/3 208/5/3 207/5/3
f 209/5/3 207/5/3 206/5/3
f 209/5/3 205/5/3 204/5/3
f 209/5/3 206/5/3 205/5/3
f 209/5/3 201/5/3 191/5/3
f 209/5/3 204/5/3 203/5/3
f 209/5/3 203/5/3 202/5/3
f 209/5/3 202/5/3 201/5/3
f 210/5/3 192/5/3 208/5/3
f 210/5/3 208/5/3 209/5/3
f 210/4/3 190/4/3 192/4/3
f 211/4/3 209/4/3 189/4/3
f 211/4/3 210/4/3 209/4/3
f 212/4/3 190/4/3 210/4/3
f 212/4/3 210/4/3 211/4/3
f 223/1/3 214/1/3 213/1/3
f 224/1/3 214/1/3 223/1/3
f 225/1/3 216/1/3 215/1/3
f 226/1/3 216/1/3 225/1/3
f 227/3/3 218/3/3 217/3/3
f 228/3/3 218/3/3 227/3/3
f 229/3/3 220/3/3 219/3/3
f 230/3/3 220/3/3 229/3/3
f 231/3/3 222/3/3 221/3/3
f 232/3/3 222/3/3 231/3/3
f 236/1/3 216/1/3 226/1/3
f 237/1/3 216/1/3 236/1/3
f 238/3/3 227/3/3 217/3/3
f 239/3/3 227/3/3 238/3/3
f 247/2/3 234/2/3 233/2/3
f 248/2/3 234/2/3 247/2/3
f 249/2/3 236/2/3 235/2/3
f 250/1/3 237/1/3 236/1/3
f 250/2/3 236/2/3 249/2/3
f 251/2/3 238/2/3 237/2/3
f 251/1/3 237/1/3 250/1/3
f 252/3/3 239/3/3 238/3/3
f 252/2/3 238/2/3 251/2/3
f 253/2/3 240/2/3 239/2/3
f 253/3/3 239/3/3 252/3/3
f 254/2/3 240/2/3 253/2/3
f 255/2/3 242/2/3 241/2/3
f 256/2/3 242/2/3 255/2/3
f 257/1/3 244/1/3 243/1/3
f 258/1/3 244/1/3 257/1/3
f 259/1/3 244/1/3 258/1/3
f 260/1/3 246/1/3 245/1/3
f 261/1/3 246/1/3 260/1/3
f 262/1/3 246/1/3 261/1/3
f 263/1/3 251/1/3 250/1/3
f 263/1/3 252/1/3 251/1/3
f 263/1/3 254/1/3 253/1/3
f 263/1/3 253/1/3 252/1/3
f 264/1/3 254/1/3 263/1/3
f 265/1/3 254/1/3 264/1/3
f 266/1/3 254/1/3 265/1/3
f 267/1/3 258/1/3 257/1/3
f 267/1/3 257/1/3 256/1/3
f 267/1/3 256/1/3 255/1/3
f 268/1/3 258/1/3 267/1/3
f 269/1/3 258/1/3 268/1/3
f 270/1/3 258/1/3 269/1/3
f 271/2/3 262/2/3 261/2/3
f 272/2/3 262/2/3 271/2/3
f 276/3/3 265/3/3 264/3/3
f 277/2/3 269/2/3 268/2/3
f 280/2/3 271/2/3 261/2/3
f 281/3/3 274/3/3 273/3/3
f 282/3/3 274/3/3 281/3/3
f 283/3/3 276/3/3 275/3/3
f 284/3/3 265/3/3 276/3/3
f 284/3/3 276/3/3 283/3/3
f 285/2/3 278/2/3 277/2/3
f 285/2/3 277/2/3 268/2/3
f 286/2/3 278/2/3 285/2/3
f 287/2/3 280/2/3 279/2/3
f 288/2/3 271/2/3 280/2/3
f 288/2/3 280/2/3 287/2/3
f 297/5/3 290/5/3 289/5/3
f 298/5/3 290/5/3 297/5/3
f 299/5/3 292/5/3 291/5/3
f 300/5/3 292/5/3 299/5/3
f 301/5/3 292/5/3 300/5/3
f 302/5/3 292/5/3 301/5/3
f 303/5/3 294/5/3 293/5/3
f 304/5/3 294/5/3 303/5/3
f 305/5/3 296/5/3 295/5/3
f 306/5/3 296/5/3 305/5/3
f 317/5/3 308/5/3 307/5/3
f 318/5/3 308/5/3 317/5/3
f 319/5/3 310/5/3 309/5/3
f 320/5/3 310/5/3 319/5/3
f 321/5/3 301/5/3 300/5/3
f 322/5/3 301/5/3 321/5/3
f 323/5/3 312/5/3 311/5/3
f 324/5/3 312/5/3 323/5/3
f 325/5/3 314/5/3 313/5/3
f 326/5/3 314/5/3 325/5/3
f 327/5/3 314/5/3 326/5/3
f 328/5/3 314/5/3 327/5/3
f 329/5/3 316/5/3 315/5/3
f 330/5/3 316/5/3 329/5/3
f 335/5/3 327/5/3 326/5/3
f 336/5/3 327/5/3 335/5/3
f 341/5/3 334/5/3 333/5/3
f 348/5/3 338/5/3 337/5/3
f 351/5/3 332/5/3 331/5/3
f 352/5/3 332/5/3 351/5/3
f 353/5/3 341/5/3 333/5/3
f 353/5/3 342/5/3 341/5/3
f 354/5/3 342/5/3 353/5/3
f 355/5/3 348/5/3 347/5/3
f 356/5/3 338/5/3 348/5/3
f 356/5/3 348/5/3 355/5/3
f 357/5/3 340/5/3 339/5/3
f 358/5/3 340/5/3 357/5/3
f 362/5/3 344/5/3 343/5/3
f 363/5/3 346/5/3 345/5/3
f 366/5/3 350/5/3 349/5/3
f 367/5/3 360/5/3 359/5/3
f 368/5/3 360/5/3 367/5/3
f 369/5/3 362/5/3 361/5/3
f 370/5/3 344/5/3 362/5/3
f 370/5/3 362/5/3 369/5/3
f 371/5/3 364/5/3 363/5/3
f 371/5/3 363/5/3 345/5/3
f 372/5/3 364/5/3 371/5/3
f 373/5/3 366/5/3 365/5/3
f 374/5/3 350/5/3 366/5/3
f 374/5/3 366/5/3 373/5/3
f 375/4/4 376/4/4 377/4/4
f 377/4/4 376/4/4 378/4/4
f 381/4/5 380/4/5 379/4/5
f 382/4/5 380/4/5 381/4/5
f 385/5/5 384/5/5 383/5/5
f 386/5/5 384/5/5 385/5/5
f 387/5/5 384/5/5 386/5/5
f 388/5/5 384/5/5 387/5/5
f 389/5/5 384/5/5 388/5/5
f 390/5/5 384/5/5 389/5/5
f 391/5/5 385/5/5 383/5/5
f 392/5/5 385/5/5 391/5/5
f 393/5/5 387/5/5 386/5/5
f 394/5/5 387/5/5 393/5/5
f 395/5/5 389/5/5 388/5/5
f 396/5/5 389/5/5 395/5/5
f 397/5/5 384/5/5 390/5/5
f 398/5/5 384/5/5 397/5/5
f 403/1/5 400/1/5 399/1/5
f 404/1/5 400/1/5 403/1/5
f 405/1/5 402/1/5 401/1/5
f 406/1/5 402/1/5 405/1/5
f 411/3/5 408/3/5 407/3/5
f 412/3/5 408/3/5 411/3/5
f 413/3/5 410/3/5 409/3/5
f 414/3/5 410/3/5 413/3/5
f 417/5/5 416/5/5 415/5/5
f 418/5/5 416/5/5 417/5/5
f 419/5/5 416/5/5 418/5/5
f 420/5/5 416/5/5 419/5/5
f 421/5/5 416/5/5 420/5/5
f 422/5/5 417/5/5 415/5/5
f 423/5/5 417/5/5 422/5/5
f 424/5/5 419/5/5 418/5/5
f 425/5/5 419/5/5 424/5/5
f 426/5/5 416/5/5 421/5/5
f 427/5/5 416/5/5 426/5/5
f 430/2/5 429/2/5 428/2/5
f 431/2/5 429/2/5 430/2/5
f 434/1/5 433/1/5 432/1/5
f 435/1/5 433/1/5 434/1/5
f 438/5/5 437/5/5 436/5/5
f 439/5/5 437/5/5 438/5/5
f 440/5/5 437/5/5 439/5/5
f 441/5/5 437/5/5 440/5/5
f 442/5/5 437/5/5 441/5/5
f 443/5/5 437/5/5 442/5/5
f 444/5/5 438/5/5 436/5/5
f 445/5/5 438/5/5 444/5/5
f 446/5/5 440/5/5 439/5/5
f 447/5/5 440/5/5 446/5/5
f 448/5/5 442/5/5 441/5/5
f 449/5/5 442/5/5 448/5/5
f 450/5/5 437/5/5 443/5/5
f 451/5/5 437/5/5 450/5/5
f 454/2/5 453/2/5 452/2/5
f 455/2/5 453/2/5 454/2/5
f 458/5/5 457/5/5 456/5/5
f 459/5/5 457/5/5 458/5/5
f 460/5/5 457/5/5 459/5/5
f 461/5/5 457/5/5 460/5/5
f 462/5/5 457/5/5 461/5/5
f 463/5/5 458/5/5 456/5/5
f 464/5/5 458/5/5 463/5/5
f 465/5/5 460/5/5 459/5/5
f 466/5/5 460/5/5 465/5/5
f 467/5/5 457/5/5 462/5/5
f 468/5/5 457/5/5 467/5/5
f 469/4/6 470/4/6 471/4/6
f 471/4/6 470/4/6 472/4/6
f 473/5/6 474/5/6 475/5/6
f 475/5/6 474/5/6 476/5/6
f 476/5/6 474/5/6 477/5/6
f 477/5/6 474/5/6 478/5/6
f 478/5/6 474/5/6 479/5/6
f 479/5/6 474/5/6 480/5/6
f 473/5/6 475/5/6 481/5/6
f 481/5/6 475/5/6 482/5/6
f 476/5/6 477/5/6 483/5/6
f 483/5/6 477/5/6 484/5/6
f 478/5/6 479/5/6 485/5/6
f 485/5/6 479/5/6 486/5/6
f 480/5/6 474/5/6 487/5/6
f 487/5/6 474/5/6 488/5/6
f 489/5/6 490/5/6 491/5/6
f 491/5/6 490/5/6 492/5/6
f 492/5/6 490/5/6 493/5/6
f 493/5/6 490/5/6 494/5/6
f 494/5/6 490/5/6 495/5/6
f 495/5/6 490/5/6 496/5/6
f 489/5/6 491/5/6 497/5/6
f 497/5/6 491/5/6 498/5/6
f 492/5/6 493/5/6 499/5/6
f 499/5/6 493/5/6 500/5/6
f 494/5/6 495/5/6 501/5/6
f 501/5/6 495/5/6 502/5/6
f 496/5/6 490/5/6 503/5/6
f 503/5/6 490/5/6 504/5/6
f 505/1/6 506/1/6 507/1/6
f 507/1/6 506/1/6 508/1/6
f 509/3/6 510/3/6 513/3/6
f 513/3/6 510/3/6 514/3/6
f 511/3/6 512/3/6 515/3/6
f 515/3/6 512/3/6 516/3/6
f 517/5/6 518/5/6 519/5/6
f 519/5/6 518/5/6 520/5/6
f 520/5/6 518/5/6 521/5/6
f 521/5/6 518/5/6 522/5/6
f 522/5/6 518/5/6 523/5/6
f 517/5/6 519/5/6 524/5/6
f 524/5/6 519/5/6 525/5/6
f 520/5/6 521/5/6 526/5/6
f 526/5/6 521/5/6 527/5/6
f 523/5/6 518/5/6 528/5/6
f 528/5/6 518/5/6 529/5/6
f 530/2/6 531/2/6 534/2/6
f 534/2/6 531/2/6 535/2/6
f 532/2/6 533/2/6 536/2/6
f 536/2/6 533/2/6 537/2/6
f 538/1/6 539/1/6 540/1/6
f 540/1/6 539/1/6 541/1/6
f 542/5/6 543/5/6 544/5/6
f 544/5/6 543/5/6 545/5/6
f 545/5/6 543/5/6 546/5/6
f 546/5/6 543/5/6 547/5/6
f 547/5/6 543/5/6 548/5/6
f 548/5/6 543/5/6 549/5/6
f 542/5/6 544/5/6 550/5/6
f 550/5/6 544/5/6 551/5/6
f 545/5/6 546/5/6 552/5/6
f 552/5/6 546/5/6 553/5/6
f 547/5/6 548/5/6 554/5/6
f 554/5/6 548/5/6 555/5/6
f 549/5/6 543/5/6 556/5/6
f 556/5/6 543/5/6 557/5/6
f 558/2/6 559/2/6 560/2/6
f 560/2/6 559/2/6 561/2/6
f 562/4/6 563/4/6 564/4/6
f 564/4/6 563/4/6 565/4/6
