# MagicaVoxel @ Ephtracy

# group
o 

# material
mtllib weg.mtl
usemtl palette

# normals
vn -1 0 0
vn 1 0 0
vn 0 0 1
vn 0 0 -1
vn 0 -1 0
vn 0 1 0

# texcoords
vt 0.283203 0.5
vt 0.916016 0.5
vt 0.970703 0.5
vt 0.974609 0.5

# verts
v 0 2 0
v 0 2 -12.6
v 0 2.7 0
v 0 2.7 -12.6
v 1.2 2.1 0
v 1.2 2.1 -12.6
v 1.2 2.7 0
v 1.2 2.7 -12.6
v 7.8 2 0
v 7.8 2 -0.9
v 7.8 2 -1.8
v 7.8 2 -2.7
v 7.8 2 -3.6
v 7.8 2 -4.5
v 7.8 2 -5.4
v 7.8 2 -6.3
v 7.8 2 -7.2
v 7.8 2 -8.1
v 7.8 2 -9
v 7.8 2 -9.9
v 7.8 2 -10.8
v 7.8 2 -11.7
v 7.8 2 -12.6
v 7.8 2.1 0
v 7.8 2.1 -0.9
v 7.8 2.1 -1.8
v 7.8 2.1 -2.7
v 7.8 2.1 -3.6
v 7.8 2.1 -4.5
v 7.8 2.1 -5.4
v 7.8 2.1 -6.3
v 7.8 2.1 -7.2
v 7.8 2.1 -8.1
v 7.8 2.1 -9
v 7.8 2.1 -9.9
v 7.8 2.1 -10.8
v 7.8 2.1 -11.7
v 7.8 2.1 -12.6
v 0 2 0
v 0 2.7 0
v 1.2 2 0
v 1.2 2.1 0
v 1.2 2.7 0
v 1.4 2 0
v 1.4 2.1 0
v 1.6 2 0
v 1.6 2.1 0
v 7.6 2 0
v 7.6 2.1 0
v 7.8 2 0
v 7.8 2.1 0
v 0 2 -12.6
v 0 2.7 -12.6
v 1.2 2 -12.6
v 1.2 2.1 -12.6
v 1.2 2.7 -12.6
v 1.4 2 -12.6
v 1.4 2.1 -12.6
v 1.6 2 -12.6
v 1.6 2.1 -12.6
v 7.8 2 -12.6
v 7.8 2.1 -12.6
v 0 2 0
v 1.2 2 0
v 1.4 2 0
v 1.6 2 0
v 7.6 2 0
v 7.8 2 0
v 7.6 2 -0.9
v 7.8 2 -0.9
v 7.6 2 -1.8
v 7.8 2 -1.8
v 7.6 2 -2.7
v 7.8 2 -2.7
v 7.6 2 -3.6
v 7.8 2 -3.6
v 7.6 2 -4.5
v 7.8 2 -4.5
v 7.6 2 -5.4
v 7.8 2 -5.4
v 7.6 2 -6.3
v 7.8 2 -6.3
v 7.6 2 -7.2
v 7.8 2 -7.2
v 7.6 2 -8.1
v 7.8 2 -8.1
v 7.6 2 -9
v 7.8 2 -9
v 7.6 2 -9.9
v 7.8 2 -9.9
v 7.6 2 -10.8
v 7.8 2 -10.8
v 7.6 2 -11.7
v 7.8 2 -11.7
v 0 2 -12.6
v 1.2 2 -12.6
v 1.4 2 -12.6
v 1.6 2 -12.6
v 7.8 2 -12.6
v 1.2 2.1 0
v 1.4 2.1 0
v 1.6 2.1 0
v 7.6 2.1 0
v 7.8 2.1 0
v 7.6 2.1 -0.9
v 7.8 2.1 -0.9
v 7.6 2.1 -1.8
v 7.8 2.1 -1.8
v 7.6 2.1 -2.7
v 7.8 2.1 -2.7
v 7.6 2.1 -3.6
v 7.8 2.1 -3.6
v 7.6 2.1 -4.5
v 7.8 2.1 -4.5
v 7.6 2.1 -5.4
v 7.8 2.1 -5.4
v 7.6 2.1 -6.3
v 7.8 2.1 -6.3
v 7.6 2.1 -7.2
v 7.8 2.1 -7.2
v 7.6 2.1 -8.1
v 7.8 2.1 -8.1
v 7.6 2.1 -9
v 7.8 2.1 -9
v 7.6 2.1 -9.9
v 7.8 2.1 -9.9
v 7.6 2.1 -10.8
v 7.8 2.1 -10.8
v 7.6 2.1 -11.7
v 7.8 2.1 -11.7
v 1.2 2.1 -12.6
v 1.4 2.1 -12.6
v 1.6 2.1 -12.6
v 7.8 2.1 -12.6
v 0 2.7 0
v 1.2 2.7 0
v 0 2.7 -12.6
v 1.2 2.7 -12.6

# faces
f 3/3/1 2/3/1 1/3/1
f 4/3/1 2/3/1 3/3/1
f 5/3/2 6/3/2 7/3/2
f 7/3/2 6/3/2 8/3/2
f 9/2/2 10/2/2 24/2/2
f 10/4/2 11/4/2 25/4/2
f 24/2/2 10/2/2 25/2/2
f 11/2/2 12/2/2 26/2/2
f 25/4/2 11/4/2 26/4/2
f 12/4/2 13/4/2 27/4/2
f 26/2/2 12/2/2 27/2/2
f 13/2/2 14/2/2 28/2/2
f 27/4/2 13/4/2 28/4/2
f 14/4/2 15/4/2 29/4/2
f 28/2/2 14/2/2 29/2/2
f 15/2/2 16/2/2 30/2/2
f 29/4/2 15/4/2 30/4/2
f 16/4/2 17/4/2 31/4/2
f 30/2/2 16/2/2 31/2/2
f 17/2/2 18/2/2 32/2/2
f 31/4/2 17/4/2 32/4/2
f 18/4/2 19/4/2 33/4/2
f 32/2/2 18/2/2 33/2/2
f 19/2/2 20/2/2 34/2/2
f 33/4/2 19/4/2 34/4/2
f 20/4/2 21/4/2 35/4/2
f 34/2/2 20/2/2 35/2/2
f 21/2/2 22/2/2 36/2/2
f 35/4/2 21/4/2 36/4/2
f 22/4/2 23/4/2 37/4/2
f 36/2/2 22/2/2 37/2/2
f 37/4/2 23/4/2 38/4/2
f 41/3/3 40/3/3 39/3/3
f 42/3/3 40/3/3 41/3/3
f 43/3/3 40/3/3 42/3/3
f 44/4/3 42/4/3 41/4/3
f 45/4/3 42/4/3 44/4/3
f 46/1/3 45/1/3 44/1/3
f 47/1/3 45/1/3 46/1/3
f 48/4/3 47/4/3 46/4/3
f 49/4/3 47/4/3 48/4/3
f 50/2/3 49/2/3 48/2/3
f 51/2/3 49/2/3 50/2/3
f 52/3/4 53/3/4 54/3/4
f 54/3/4 53/3/4 55/3/4
f 55/3/4 53/3/4 56/3/4
f 54/4/4 55/4/4 57/4/4
f 57/4/4 55/4/4 58/4/4
f 57/1/4 58/1/4 59/1/4
f 59/1/4 58/1/4 60/1/4
f 59/4/4 60/4/4 61/4/4
f 61/4/4 60/4/4 62/4/4
f 69/4/5 67/4/5 66/4/5
f 69/2/5 68/2/5 67/2/5
f 70/2/5 68/2/5 69/2/5
f 71/4/5 69/4/5 66/4/5
f 71/4/5 70/4/5 69/4/5
f 72/4/5 70/4/5 71/4/5
f 73/4/5 71/4/5 66/4/5
f 73/2/5 72/2/5 71/2/5
f 74/2/5 72/2/5 73/2/5
f 75/4/5 73/4/5 66/4/5
f 75/4/5 74/4/5 73/4/5
f 76/4/5 74/4/5 75/4/5
f 77/4/5 75/4/5 66/4/5
f 77/2/5 76/2/5 75/2/5
f 78/2/5 76/2/5 77/2/5
f 79/4/5 77/4/5 66/4/5
f 79/4/5 78/4/5 77/4/5
f 80/4/5 78/4/5 79/4/5
f 81/4/5 79/4/5 66/4/5
f 81/2/5 80/2/5 79/2/5
f 82/2/5 80/2/5 81/2/5
f 83/4/5 81/4/5 66/4/5
f 83/4/5 82/4/5 81/4/5
f 84/4/5 82/4/5 83/4/5
f 85/4/5 83/4/5 66/4/5
f 85/2/5 84/2/5 83/2/5
f 86/2/5 84/2/5 85/2/5
f 87/4/5 85/4/5 66/4/5
f 87/4/5 86/4/5 85/4/5
f 88/4/5 86/4/5 87/4/5
f 89/4/5 87/4/5 66/4/5
f 89/2/5 88/2/5 87/2/5
f 90/2/5 88/2/5 89/2/5
f 91/4/5 89/4/5 66/4/5
f 91/4/5 90/4/5 89/4/5
f 92/4/5 90/4/5 91/4/5
f 93/4/5 91/4/5 66/4/5
f 93/2/5 92/2/5 91/2/5
f 94/2/5 92/2/5 93/2/5
f 95/3/5 64/3/5 63/3/5
f 96/4/5 65/4/5 64/4/5
f 96/3/5 64/3/5 95/3/5
f 97/1/5 66/1/5 65/1/5
f 97/4/5 65/4/5 96/4/5
f 98/4/5 93/4/5 66/4/5
f 98/1/5 66/1/5 97/1/5
f 98/4/5 94/4/5 93/4/5
f 99/4/5 94/4/5 98/4/5
f 102/4/6 103/4/6 105/4/6
f 103/2/6 104/2/6 105/2/6
f 105/2/6 104/2/6 106/2/6
f 102/4/6 105/4/6 107/4/6
f 105/4/6 106/4/6 107/4/6
f 107/4/6 106/4/6 108/4/6
f 102/4/6 107/4/6 109/4/6
f 107/2/6 108/2/6 109/2/6
f 109/2/6 108/2/6 110/2/6
f 102/4/6 109/4/6 111/4/6
f 109/4/6 110/4/6 111/4/6
f 111/4/6 110/4/6 112/4/6
f 102/4/6 111/4/6 113/4/6
f 111/2/6 112/2/6 113/2/6
f 113/2/6 112/2/6 114/2/6
f 102/4/6 113/4/6 115/4/6
f 113/4/6 114/4/6 115/4/6
f 115/4/6 114/4/6 116/4/6
f 102/4/6 115/4/6 117/4/6
f 115/2/6 116/2/6 117/2/6
f 117/2/6 116/2/6 118/2/6
f 102/4/6 117/4/6 119/4/6
f 117/4/6 118/4/6 119/4/6
f 119/4/6 118/4/6 120/4/6
f 102/4/6 119/4/6 121/4/6
f 119/2/6 120/2/6 121/2/6
f 121/2/6 120/2/6 122/2/6
f 102/4/6 121/4/6 123/4/6
f 121/4/6 122/4/6 123/4/6
f 123/4/6 122/4/6 124/4/6
f 102/4/6 123/4/6 125/4/6
f 123/2/6 124/2/6 125/2/6
f 125/2/6 124/2/6 126/2/6
f 102/4/6 125/4/6 127/4/6
f 125/4/6 126/4/6 127/4/6
f 127/4/6 126/4/6 128/4/6
f 102/4/6 127/4/6 129/4/6
f 127/2/6 128/2/6 129/2/6
f 129/2/6 128/2/6 130/2/6
f 100/4/6 101/4/6 131/4/6
f 101/1/6 102/1/6 132/1/6
f 131/4/6 101/4/6 132/4/6
f 102/4/6 129/4/6 133/4/6
f 132/1/6 102/1/6 133/1/6
f 129/4/6 130/4/6 133/4/6
f 133/4/6 130/4/6 134/4/6
f 135/3/6 136/3/6 137/3/6
f 137/3/6 136/3/6 138/3/6
