# MagicaVoxel @ Ephtracy

# group
o 

# material
mtllib Head.mtl
usemtl palette

# normals
vn -1 0 0
vn 1 0 0
vn 0 0 1
vn 0 0 -1
vn 0 -1 0
vn 0 1 0

# texcoords
vt 0.205078 0.5
vt 0.294922 0.5
vt 0.302734 0.5
vt 0.716797 0.5
vt 0.916016 0.5
vt 0.978516 0.5
vt 0.982422 0.5

# verts
v 7.3 3.7 -4.9
v 7.3 3.7 -6
v 7.3 5.5 -4.9
v 7.3 5.5 -6
v 7.5 4.7 -4.8
v 7.5 4.7 -4.9
v 7.5 4.8 -4.8
v 7.5 4.8 -4.9
v 7.8 3.3 -5
v 7.8 3.3 -5.1
v 7.8 3.4 -5
v 7.8 3.4 -5.1
v 7.8 3.7 -5
v 7.8 3.7 -5.1
v 7.9 4 -4.7
v 7.9 4 -4.9
v 7.9 4.5 -4.7
v 7.9 4.5 -4.9
v 8.1 3.3 -5
v 8.1 3.3 -5.1
v 8.1 3.4 -5
v 8.1 3.4 -5.1
v 8.1 3.7 -5
v 8.1 3.7 -5.1
v 8.1 4.7 -4.8
v 8.1 4.7 -4.9
v 8.1 4.8 -4.8
v 8.1 4.8 -4.9
v 7.9 3.3 -5
v 7.9 3.3 -5.1
v 7.9 3.4 -5
v 7.9 3.4 -5.1
v 7.9 3.7 -5
v 7.9 3.7 -5.1
v 7.9 4.7 -4.8
v 7.9 4.7 -4.9
v 7.9 4.8 -4.8
v 7.9 4.8 -4.9
v 8.1 4 -4.7
v 8.1 4 -4.9
v 8.1 4.5 -4.7
v 8.1 4.5 -4.9
v 8.2 3.3 -5
v 8.2 3.3 -5.1
v 8.2 3.4 -5
v 8.2 3.4 -5.1
v 8.2 3.7 -5
v 8.2 3.7 -5.1
v 8.5 4.7 -4.8
v 8.5 4.7 -4.9
v 8.5 4.8 -4.8
v 8.5 4.8 -4.9
v 8.7 3.7 -4.9
v 8.7 3.7 -6
v 8.7 5.5 -4.9
v 8.7 5.5 -6
v 7.9 4 -4.7
v 7.9 4.5 -4.7
v 8.1 4 -4.7
v 8.1 4.5 -4.7
v 7.5 4.7 -4.8
v 7.5 4.8 -4.8
v 7.9 4.7 -4.8
v 7.9 4.8 -4.8
v 8.1 4.7 -4.8
v 8.1 4.8 -4.8
v 8.5 4.7 -4.8
v 8.5 4.8 -4.8
v 7.3 3.7 -4.9
v 7.3 5.5 -4.9
v 7.4 3.9 -4.9
v 7.4 5 -4.9
v 7.4 5.1 -4.9
v 7.5 3.8 -4.9
v 7.5 3.9 -4.9
v 7.5 4.7 -4.9
v 7.5 4.8 -4.9
v 7.5 5.1 -4.9
v 7.5 5.2 -4.9
v 7.6 4.4 -4.9
v 7.6 4.6 -4.9
v 7.7 4.4 -4.9
v 7.7 4.6 -4.9
v 7.8 4.4 -4.9
v 7.8 4.6 -4.9
v 7.9 4 -4.9
v 7.9 4.5 -4.9
v 7.9 4.7 -4.9
v 7.9 4.8 -4.9
v 8.1 4 -4.9
v 8.1 4.5 -4.9
v 8.1 4.7 -4.9
v 8.1 4.8 -4.9
v 8.2 4.4 -4.9
v 8.2 4.6 -4.9
v 8.3 4.4 -4.9
v 8.3 4.6 -4.9
v 8.4 4.4 -4.9
v 8.4 4.6 -4.9
v 8.5 3.8 -4.9
v 8.5 3.9 -4.9
v 8.5 4.7 -4.9
v 8.5 4.8 -4.9
v 8.5 5.1 -4.9
v 8.5 5.2 -4.9
v 8.6 3.9 -4.9
v 8.6 5 -4.9
v 8.6 5.1 -4.9
v 8.7 3.7 -4.9
v 8.7 5.5 -4.9
v 7.8 3.3 -5
v 7.8 3.4 -5
v 7.8 3.7 -5
v 7.9 3.3 -5
v 7.9 3.4 -5
v 7.9 3.7 -5
v 8.1 3.3 -5
v 8.1 3.4 -5
v 8.1 3.7 -5
v 8.2 3.3 -5
v 8.2 3.4 -5
v 8.2 3.7 -5
v 7.8 3.3 -5.1
v 7.8 3.4 -5.1
v 7.8 3.7 -5.1
v 7.9 3.3 -5.1
v 7.9 3.4 -5.1
v 7.9 3.7 -5.1
v 8.1 3.3 -5.1
v 8.1 3.4 -5.1
v 8.1 3.7 -5.1
v 8.2 3.3 -5.1
v 8.2 3.4 -5.1
v 8.2 3.7 -5.1
v 7.3 3.7 -6
v 7.3 5.5 -6
v 8.7 3.7 -6
v 8.7 5.5 -6
v 7.8 3.3 -5
v 7.9 3.3 -5
v 8.1 3.3 -5
v 8.2 3.3 -5
v 7.8 3.3 -5.1
v 7.9 3.3 -5.1
v 8.1 3.3 -5.1
v 8.2 3.3 -5.1
v 7.3 3.7 -4.9
v 8.7 3.7 -4.9
v 7.8 3.7 -5
v 7.9 3.7 -5
v 8.1 3.7 -5
v 8.2 3.7 -5
v 7.8 3.7 -5.1
v 7.9 3.7 -5.1
v 8.1 3.7 -5.1
v 8.2 3.7 -5.1
v 7.3 3.7 -6
v 8.7 3.7 -6
v 7.9 4 -4.7
v 8.1 4 -4.7
v 7.9 4 -4.9
v 8.1 4 -4.9
v 7.5 4.7 -4.8
v 7.9 4.7 -4.8
v 8.1 4.7 -4.8
v 8.5 4.7 -4.8
v 7.5 4.7 -4.9
v 7.9 4.7 -4.9
v 8.1 4.7 -4.9
v 8.5 4.7 -4.9
v 7.9 4.5 -4.7
v 8.1 4.5 -4.7
v 7.9 4.5 -4.9
v 8.1 4.5 -4.9
v 7.5 4.8 -4.8
v 7.9 4.8 -4.8
v 8.1 4.8 -4.8
v 8.5 4.8 -4.8
v 7.5 4.8 -4.9
v 7.9 4.8 -4.9
v 8.1 4.8 -4.9
v 8.5 4.8 -4.9
v 7.3 5.5 -4.9
v 8.7 5.5 -4.9
v 7.3 5.5 -6
v 8.7 5.5 -6

# faces
f 3/7/1 2/7/1 1/7/1
f 4/7/1 2/7/1 3/7/1
f 7/3/1 6/3/1 5/3/1
f 8/3/1 6/3/1 7/3/1
f 11/6/1 10/6/1 9/6/1
f 12/6/1 10/6/1 11/6/1
f 13/7/1 12/7/1 11/7/1
f 14/7/1 12/7/1 13/7/1
f 17/1/1 16/1/1 15/1/1
f 18/1/1 16/1/1 17/1/1
f 21/6/1 20/6/1 19/6/1
f 22/6/1 20/6/1 21/6/1
f 23/7/1 22/7/1 21/7/1
f 24/7/1 22/7/1 23/7/1
f 27/3/1 26/3/1 25/3/1
f 28/3/1 26/3/1 27/3/1
f 29/6/2 30/6/2 31/6/2
f 31/6/2 30/6/2 32/6/2
f 31/7/2 32/7/2 33/7/2
f 33/7/2 32/7/2 34/7/2
f 35/3/2 36/3/2 37/3/2
f 37/3/2 36/3/2 38/3/2
f 39/1/2 40/1/2 41/1/2
f 41/1/2 40/1/2 42/1/2
f 43/6/2 44/6/2 45/6/2
f 45/6/2 44/6/2 46/6/2
f 45/7/2 46/7/2 47/7/2
f 47/7/2 46/7/2 48/7/2
f 49/3/2 50/3/2 51/3/2
f 51/3/2 50/3/2 52/3/2
f 53/7/2 54/7/2 55/7/2
f 55/7/2 54/7/2 56/7/2
f 59/1/3 58/1/3 57/1/3
f 60/1/3 58/1/3 59/1/3
f 63/3/3 62/3/3 61/3/3
f 64/3/3 62/3/3 63/3/3
f 67/3/3 66/3/3 65/3/3
f 68/3/3 66/3/3 67/3/3
f 71/7/3 70/7/3 69/7/3
f 72/7/3 70/7/3 71/7/3
f 73/7/3 70/7/3 72/7/3
f 74/7/3 71/7/3 69/7/3
f 75/2/3 72/2/3 71/2/3
f 75/7/3 71/7/3 74/7/3
f 76/2/3 72/2/3 75/2/3
f 77/2/3 72/2/3 76/2/3
f 78/7/3 70/7/3 73/7/3
f 78/3/3 73/3/3 72/3/3
f 79/7/3 70/7/3 78/7/3
f 80/2/3 75/2/3 74/2/3
f 80/2/3 76/2/3 75/2/3
f 81/2/3 76/2/3 80/2/3
f 82/2/3 80/2/3 74/2/3
f 82/5/3 81/5/3 80/5/3
f 83/2/3 76/2/3 81/2/3
f 83/5/3 81/5/3 82/5/3
f 84/2/3 82/2/3 74/2/3
f 84/4/3 83/4/3 82/4/3
f 85/2/3 76/2/3 83/2/3
f 85/4/3 83/4/3 84/4/3
f 86/2/3 84/2/3 74/2/3
f 86/2/3 85/2/3 84/2/3
f 87/2/3 85/2/3 86/2/3
f 88/2/3 76/2/3 85/2/3
f 88/2/3 85/2/3 87/2/3
f 89/2/3 72/2/3 77/2/3
f 90/2/3 86/2/3 74/2/3
f 91/2/3 88/2/3 87/2/3
f 91/2/3 89/2/3 88/2/3
f 92/2/3 89/2/3 91/2/3
f 93/2/3 72/2/3 89/2/3
f 93/2/3 89/2/3 92/2/3
f 94/2/3 92/2/3 91/2/3
f 94/2/3 91/2/3 90/2/3
f 95/2/3 92/2/3 94/2/3
f 96/2/3 94/2/3 90/2/3
f 96/4/3 95/4/3 94/4/3
f 97/2/3 92/2/3 95/2/3
f 97/4/3 95/4/3 96/4/3
f 98/2/3 96/2/3 90/2/3
f 98/5/3 97/5/3 96/5/3
f 99/2/3 92/2/3 97/2/3
f 99/5/3 97/5/3 98/5/3
f 100/2/3 90/2/3 74/2/3
f 100/7/3 74/7/3 69/7/3
f 100/2/3 99/2/3 98/2/3
f 100/2/3 98/2/3 90/2/3
f 101/2/3 99/2/3 100/2/3
f 102/2/3 92/2/3 99/2/3
f 102/2/3 99/2/3 101/2/3
f 103/2/3 72/2/3 93/2/3
f 104/3/3 79/3/3 78/3/3
f 104/3/3 78/3/3 72/3/3
f 105/7/3 70/7/3 79/7/3
f 105/3/3 79/3/3 104/3/3
f 106/7/3 101/7/3 100/7/3
f 106/2/3 103/2/3 102/2/3
f 106/2/3 102/2/3 101/2/3
f 107/3/3 104/3/3 72/3/3
f 107/2/3 103/2/3 106/2/3
f 107/2/3 72/2/3 103/2/3
f 108/7/3 105/7/3 104/7/3
f 108/3/3 104/3/3 107/3/3
f 109/7/3 106/7/3 100/7/3
f 109/7/3 107/7/3 106/7/3
f 109/7/3 108/7/3 107/7/3
f 109/7/3 100/7/3 69/7/3
f 110/7/3 70/7/3 105/7/3
f 110/7/3 108/7/3 109/7/3
f 110/7/3 105/7/3 108/7/3
f 114/6/3 112/6/3 111/6/3
f 115/7/3 113/7/3 112/7/3
f 115/6/3 112/6/3 114/6/3
f 116/7/3 113/7/3 115/7/3
f 120/6/3 118/6/3 117/6/3
f 121/7/3 119/7/3 118/7/3
f 121/6/3 118/6/3 120/6/3
f 122/7/3 119/7/3 121/7/3
f 123/6/4 124/6/4 126/6/4
f 124/7/4 125/7/4 127/7/4
f 126/6/4 124/6/4 127/6/4
f 127/7/4 125/7/4 128/7/4
f 129/6/4 130/6/4 132/6/4
f 130/7/4 131/7/4 133/7/4
f 132/6/4 130/6/4 133/6/4
f 133/7/4 131/7/4 134/7/4
f 135/7/4 136/7/4 137/7/4
f 137/7/4 136/7/4 138/7/4
f 143/6/5 140/6/5 139/6/5
f 144/6/5 140/6/5 143/6/5
f 145/6/5 142/6/5 141/6/5
f 146/6/5 142/6/5 145/6/5
f 149/7/5 148/7/5 147/7/5
f 150/7/5 148/7/5 149/7/5
f 151/7/5 148/7/5 150/7/5
f 152/7/5 148/7/5 151/7/5
f 153/7/5 149/7/5 147/7/5
f 154/7/5 151/7/5 150/7/5
f 155/7/5 151/7/5 154/7/5
f 156/7/5 148/7/5 152/7/5
f 157/7/5 155/7/5 154/7/5
f 157/7/5 156/7/5 155/7/5
f 157/7/5 153/7/5 147/7/5
f 157/7/5 154/7/5 153/7/5
f 158/7/5 148/7/5 156/7/5
f 158/7/5 156/7/5 157/7/5
f 161/1/5 160/1/5 159/1/5
f 162/1/5 160/1/5 161/1/5
f 167/3/5 164/3/5 163/3/5
f 168/3/5 164/3/5 167/3/5
f 169/3/5 166/3/5 165/3/5
f 170/3/5 166/3/5 169/3/5
f 171/1/6 172/1/6 173/1/6
f 173/1/6 172/1/6 174/1/6
f 175/3/6 176/3/6 179/3/6
f 179/3/6 176/3/6 180/3/6
f 177/3/6 178/3/6 181/3/6
f 181/3/6 178/3/6 182/3/6
f 183/7/6 184/7/6 185/7/6
f 185/7/6 184/7/6 186/7/6
