# MagicaVoxel @ Ephtracy

# group
o 

# material
mtllib Head.mtl
usemtl palette

# normals
vn -1 0 0
vn 1 0 0
vn 0 0 1
vn 0 0 -1
vn 0 -1 0
vn 0 1 0

# texcoords
vt 0.205078 0.5
vt 0.224609 0.5
vt 0.294922 0.5
vt 0.916016 0.5
vt 0.974609 0.5

# verts
v 7.3 4.5 -5
v 7.3 4.5 -6
v 7.3 5.1 -5
v 7.3 5.1 -5.1
v 7.3 5.1 -5.9
v 7.3 5.1 -6
v 7.3 5.2 -5.1
v 7.3 5.2 -5.9
v 7.4 3.8 -4.9
v 7.4 3.8 -5.9
v 7.4 4.5 -5
v 7.4 4.5 -5.9
v 7.4 5 -4.9
v 7.4 5 -5
v 7.4 5.1 -5
v 7.4 5.1 -5.1
v 7.4 5.1 -5.9
v 7.4 5.1 -6
v 7.4 5.2 -5
v 7.4 5.2 -5.1
v 7.4 5.2 -5.9
v 7.4 5.2 -6
v 7.5 4.3 -5.9
v 7.5 4.3 -6
v 7.5 4.5 -5.9
v 7.5 4.5 -6
v 7.5 4.7 -4.8
v 7.5 4.7 -4.9
v 7.5 4.8 -4.8
v 7.5 4.8 -4.9
v 7.7 3.8 -4.8
v 7.7 3.8 -4.9
v 7.7 4 -4.8
v 7.7 4 -4.9
v 7.9 4 -4.7
v 7.9 4 -4.8
v 7.9 4 -4.9
v 7.9 4.5 -4.7
v 7.9 4.5 -4.9
v 8.1 5 -5.7
v 8.1 5 -5.8
v 8.1 5.2 -5.7
v 8.1 5.2 -5.8
v 8.2 3.8 -4.8
v 8.2 3.8 -4.9
v 8.2 3.9 -4.8
v 8.2 3.9 -4.9
v 8.2 5 -5.1
v 8.2 5 -5.7
v 8.2 5.1 -5.1
v 8.2 5.1 -5.2
v 8.2 5.2 -5.2
v 8.2 5.2 -5.7
v 8.3 5 -5
v 8.3 5 -5.1
v 8.3 5.1 -5.1
v 8.3 5.1 -5.2
v 8.3 5.2 -5
v 8.3 5.2 -5.2
v 7.7 5 -5
v 7.7 5 -5.2
v 7.7 5.2 -5
v 7.7 5.2 -5.2
v 7.8 3.8 -4.8
v 7.8 3.8 -4.9
v 7.8 3.9 -4.8
v 7.8 3.9 -4.9
v 7.8 5 -5.2
v 7.8 5 -5.7
v 7.8 5.2 -5.2
v 7.8 5.2 -5.7
v 7.9 5 -5.7
v 7.9 5 -5.8
v 7.9 5.2 -5.7
v 7.9 5.2 -5.8
v 8.1 4 -4.7
v 8.1 4 -4.8
v 8.1 4 -4.9
v 8.1 4.5 -4.7
v 8.1 4.5 -4.9
v 8.3 3.8 -4.8
v 8.3 3.8 -4.9
v 8.3 4 -4.8
v 8.3 4 -4.9
v 8.5 4.3 -5.9
v 8.5 4.3 -6
v 8.5 4.5 -5.9
v 8.5 4.5 -6
v 8.5 4.7 -4.8
v 8.5 4.7 -4.9
v 8.5 4.8 -4.8
v 8.5 4.8 -4.9
v 8.6 3.8 -4.9
v 8.6 3.8 -5.9
v 8.6 4.5 -5
v 8.6 4.5 -5.9
v 8.6 5 -4.9
v 8.6 5 -5
v 8.6 5.1 -5
v 8.6 5.1 -5.1
v 8.6 5.1 -5.9
v 8.6 5.1 -6
v 8.6 5.2 -5
v 8.6 5.2 -5.1
v 8.6 5.2 -5.9
v 8.6 5.2 -6
v 8.7 4.5 -5
v 8.7 4.5 -6
v 8.7 5.1 -5
v 8.7 5.1 -5.1
v 8.7 5.1 -5.9
v 8.7 5.1 -6
v 8.7 5.2 -5.1
v 8.7 5.2 -5.9
v 7.9 4 -4.7
v 7.9 4.5 -4.7
v 8.1 4 -4.7
v 8.1 4.5 -4.7
v 7.5 4.7 -4.8
v 7.5 4.8 -4.8
v 7.7 3.8 -4.8
v 7.7 4 -4.8
v 7.8 3.8 -4.8
v 7.8 3.9 -4.8
v 7.9 4 -4.8
v 8.1 4 -4.8
v 8.2 3.8 -4.8
v 8.2 3.9 -4.8
v 8.3 3.8 -4.8
v 8.3 4 -4.8
v 8.5 4.7 -4.8
v 8.5 4.8 -4.8
v 7.4 3.8 -4.9
v 7.4 5 -4.9
v 7.5 4.7 -4.9
v 7.5 4.8 -4.9
v 7.6 4.4 -4.9
v 7.6 4.6 -4.9
v 7.7 3.8 -4.9
v 7.7 4 -4.9
v 7.7 4.4 -4.9
v 7.7 4.6 -4.9
v 7.8 3.8 -4.9
v 7.8 3.9 -4.9
v 7.8 4.4 -4.9
v 7.8 4.6 -4.9
v 7.9 4 -4.9
v 7.9 4.5 -4.9
v 8.1 4 -4.9
v 8.1 4.5 -4.9
v 8.2 3.8 -4.9
v 8.2 3.9 -4.9
v 8.2 4.4 -4.9
v 8.2 4.6 -4.9
v 8.3 3.8 -4.9
v 8.3 4 -4.9
v 8.3 4.4 -4.9
v 8.3 4.6 -4.9
v 8.4 4.4 -4.9
v 8.4 4.6 -4.9
v 8.5 4.7 -4.9
v 8.5 4.8 -4.9
v 8.6 3.8 -4.9
v 8.6 5 -4.9
v 7.3 4.5 -5
v 7.3 5.1 -5
v 7.4 4.5 -5
v 7.4 5 -5
v 7.4 5.1 -5
v 7.4 5.2 -5
v 7.7 5 -5
v 7.7 5.2 -5
v 8.3 5 -5
v 8.3 5.2 -5
v 8.6 4.5 -5
v 8.6 5 -5
v 8.6 5.1 -5
v 8.6 5.2 -5
v 8.7 4.5 -5
v 8.7 5.1 -5
v 7.3 5.1 -5.1
v 7.3 5.2 -5.1
v 7.4 5.1 -5.1
v 7.4 5.2 -5.1
v 8.2 5 -5.1
v 8.2 5.1 -5.1
v 8.3 5 -5.1
v 8.3 5.1 -5.1
v 8.6 5.1 -5.1
v 8.6 5.2 -5.1
v 8.7 5.1 -5.1
v 8.7 5.2 -5.1
v 7.7 5 -5.2
v 7.7 5.2 -5.2
v 7.8 5 -5.2
v 7.8 5.2 -5.2
v 8.2 5.1 -5.2
v 8.2 5.2 -5.2
v 8.3 5.1 -5.2
v 8.3 5.2 -5.2
v 7.8 5 -5.7
v 7.8 5.2 -5.7
v 7.9 5 -5.7
v 7.9 5.2 -5.7
v 8.1 5 -5.7
v 8.1 5.2 -5.7
v 8.2 5 -5.7
v 8.2 5.2 -5.7
v 7.9 5 -5.8
v 7.9 5.2 -5.8
v 8.1 5 -5.8
v 8.1 5.2 -5.8
v 7.3 5.1 -5.9
v 7.3 5.2 -5.9
v 7.4 3.8 -5.9
v 7.4 4.5 -5.9
v 7.4 5.1 -5.9
v 7.4 5.2 -5.9
v 7.5 4.3 -5.9
v 7.5 4.5 -5.9
v 8.5 4.3 -5.9
v 8.5 4.5 -5.9
v 8.6 3.8 -5.9
v 8.6 4.5 -5.9
v 8.6 5.1 -5.9
v 8.6 5.2 -5.9
v 8.7 5.1 -5.9
v 8.7 5.2 -5.9
v 7.3 4.5 -6
v 7.3 5.1 -6
v 7.4 5.1 -6
v 7.4 5.2 -6
v 7.5 4.3 -6
v 7.5 4.5 -6
v 8.5 4.3 -6
v 8.5 4.5 -6
v 8.6 5.1 -6
v 8.6 5.2 -6
v 8.7 4.5 -6
v 8.7 5.1 -6
v 7.7 3.8 -4.8
v 7.8 3.8 -4.8
v 8.2 3.8 -4.8
v 8.3 3.8 -4.8
v 7.4 3.8 -4.9
v 7.7 3.8 -4.9
v 7.8 3.8 -4.9
v 8.2 3.8 -4.9
v 8.3 3.8 -4.9
v 8.6 3.8 -4.9
v 7.4 3.8 -5.9
v 8.6 3.8 -5.9
v 7.8 3.9 -4.8
v 8.2 3.9 -4.8
v 7.8 3.9 -4.9
v 8.2 3.9 -4.9
v 7.9 4 -4.7
v 8.1 4 -4.7
v 7.9 4 -4.8
v 8.1 4 -4.8
v 7.5 4.3 -5.9
v 8.5 4.3 -5.9
v 7.5 4.3 -6
v 8.5 4.3 -6
v 7.3 4.5 -5
v 7.4 4.5 -5
v 8.6 4.5 -5
v 8.7 4.5 -5
v 7.4 4.5 -5.9
v 7.5 4.5 -5.9
v 8.5 4.5 -5.9
v 8.6 4.5 -5.9
v 7.3 4.5 -6
v 7.5 4.5 -6
v 8.5 4.5 -6
v 8.7 4.5 -6
v 7.5 4.7 -4.8
v 8.5 4.7 -4.8
v 7.5 4.7 -4.9
v 8.5 4.7 -4.9
v 7.7 4 -4.8
v 7.9 4 -4.8
v 8.1 4 -4.8
v 8.3 4 -4.8
v 7.7 4 -4.9
v 7.9 4 -4.9
v 8.1 4 -4.9
v 8.3 4 -4.9
v 7.9 4.5 -4.7
v 8.1 4.5 -4.7
v 7.9 4.5 -4.9
v 8.1 4.5 -4.9
v 7.5 4.8 -4.8
v 8.5 4.8 -4.8
v 7.5 4.8 -4.9
v 8.5 4.8 -4.9
v 7.4 5 -4.9
v 8.6 5 -4.9
v 7.4 5 -5
v 7.7 5 -5
v 8.3 5 -5
v 8.6 5 -5
v 8.2 5 -5.1
v 8.3 5 -5.1
v 7.7 5 -5.2
v 7.8 5 -5.2
v 7.8 5 -5.7
v 7.9 5 -5.7
v 8.1 5 -5.7
v 8.2 5 -5.7
v 7.9 5 -5.8
v 8.1 5 -5.8
v 7.3 5.1 -5
v 7.4 5.1 -5
v 8.6 5.1 -5
v 8.7 5.1 -5
v 7.3 5.1 -5.1
v 7.4 5.1 -5.1
v 8.2 5.1 -5.1
v 8.3 5.1 -5.1
v 8.6 5.1 -5.1
v 8.7 5.1 -5.1
v 8.2 5.1 -5.2
v 8.3 5.1 -5.2
v 7.3 5.1 -5.9
v 7.4 5.1 -5.9
v 8.6 5.1 -5.9
v 8.7 5.1 -5.9
v 7.3 5.1 -6
v 7.4 5.1 -6
v 8.6 5.1 -6
v 8.7 5.1 -6
v 7.4 5.2 -5
v 7.7 5.2 -5
v 8.3 5.2 -5
v 8.6 5.2 -5
v 7.3 5.2 -5.1
v 7.4 5.2 -5.1
v 8.6 5.2 -5.1
v 8.7 5.2 -5.1
v 7.7 5.2 -5.2
v 7.8 5.2 -5.2
v 8.2 5.2 -5.2
v 8.3 5.2 -5.2
v 7.8 5.2 -5.7
v 7.9 5.2 -5.7
v 8.1 5.2 -5.7
v 8.2 5.2 -5.7
v 7.9 5.2 -5.8
v 8.1 5.2 -5.8
v 7.3 5.2 -5.9
v 7.4 5.2 -5.9
v 8.6 5.2 -5.9
v 8.7 5.2 -5.9
v 7.4 5.2 -6
v 8.6 5.2 -6

# faces
f 3/5/1 2/5/1 1/5/1
f 4/5/1 2/5/1 3/5/1
f 5/5/1 2/5/1 4/5/1
f 6/5/1 2/5/1 5/5/1
f 7/5/1 5/5/1 4/5/1
f 8/5/1 5/5/1 7/5/1
f 11/3/1 10/3/1 9/3/1
f 12/3/1 10/3/1 11/3/1
f 13/3/1 11/3/1 9/3/1
f 14/3/1 11/3/1 13/3/1
f 19/5/1 16/5/1 15/5/1
f 20/5/1 16/5/1 19/5/1
f 21/5/1 18/5/1 17/5/1
f 22/5/1 18/5/1 21/5/1
f 25/5/1 24/5/1 23/5/1
f 26/5/1 24/5/1 25/5/1
f 29/5/1 28/5/1 27/5/1
f 30/5/1 28/5/1 29/5/1
f 33/5/1 32/5/1 31/5/1
f 34/5/1 32/5/1 33/5/1
f 38/1/1 36/1/1 35/1/1
f 38/1/1 37/1/1 36/1/1
f 39/1/1 37/1/1 38/1/1
f 42/5/1 41/5/1 40/5/1
f 43/5/1 41/5/1 42/5/1
f 46/5/1 45/5/1 44/5/1
f 47/5/1 45/5/1 46/5/1
f 50/5/1 49/5/1 48/5/1
f 51/5/1 49/5/1 50/5/1
f 52/5/1 49/5/1 51/5/1
f 53/5/1 49/5/1 52/5/1
f 56/5/1 55/5/1 54/5/1
f 58/5/1 56/5/1 54/5/1
f 58/5/1 57/5/1 56/5/1
f 59/5/1 57/5/1 58/5/1
f 60/5/2 61/5/2 62/5/2
f 62/5/2 61/5/2 63/5/2
f 64/5/2 65/5/2 66/5/2
f 66/5/2 65/5/2 67/5/2
f 68/5/2 69/5/2 70/5/2
f 70/5/2 69/5/2 71/5/2
f 72/5/2 73/5/2 74/5/2
f 74/5/2 73/5/2 75/5/2
f 76/1/2 77/1/2 79/1/2
f 77/1/2 78/1/2 79/1/2
f 79/1/2 78/1/2 80/1/2
f 81/5/2 82/5/2 83/5/2
f 83/5/2 82/5/2 84/5/2
f 85/5/2 86/5/2 87/5/2
f 87/5/2 86/5/2 88/5/2
f 89/5/2 90/5/2 91/5/2
f 91/5/2 90/5/2 92/5/2
f 93/3/2 94/3/2 95/3/2
f 95/3/2 94/3/2 96/3/2
f 93/3/2 95/3/2 97/3/2
f 97/3/2 95/3/2 98/3/2
f 99/5/2 100/5/2 103/5/2
f 103/5/2 100/5/2 104/5/2
f 101/5/2 102/5/2 105/5/2
f 105/5/2 102/5/2 106/5/2
f 107/5/2 108/5/2 109/5/2
f 109/5/2 108/5/2 110/5/2
f 110/5/2 108/5/2 111/5/2
f 111/5/2 108/5/2 112/5/2
f 110/5/2 111/5/2 113/5/2
f 113/5/2 111/5/2 114/5/2
f 117/1/3 116/1/3 115/1/3
f 118/1/3 116/1/3 117/1/3
f 123/5/3 122/5/3 121/5/3
f 124/5/3 122/5/3 123/5/3
f 125/5/3 122/5/3 124/5/3
f 126/5/3 125/5/3 124/5/3
f 128/5/3 126/5/3 124/5/3
f 129/5/3 128/5/3 127/5/3
f 130/5/3 126/5/3 128/5/3
f 130/5/3 128/5/3 129/5/3
f 131/5/3 120/5/3 119/5/3
f 132/5/3 120/5/3 131/5/3
f 135/3/3 134/3/3 133/3/3
f 136/3/3 134/3/3 135/3/3
f 137/3/3 135/3/3 133/3/3
f 138/3/3 135/3/3 137/3/3
f 139/3/3 137/3/3 133/3/3
f 140/3/3 137/3/3 139/3/3
f 141/4/3 138/4/3 137/4/3
f 141/3/3 137/3/3 140/3/3
f 142/3/3 135/3/3 138/3/3
f 142/4/3 138/4/3 141/4/3
f 145/3/3 141/3/3 140/3/3
f 145/2/3 142/2/3 141/2/3
f 146/3/3 135/3/3 142/3/3
f 146/2/3 142/2/3 145/2/3
f 147/3/3 145/3/3 140/3/3
f 147/3/3 146/3/3 145/3/3
f 148/3/3 146/3/3 147/3/3
f 150/3/3 146/3/3 148/3/3
f 151/3/3 144/3/3 143/3/3
f 152/3/3 144/3/3 151/3/3
f 153/3/3 150/3/3 149/3/3
f 154/3/3 135/3/3 146/3/3
f 154/3/3 150/3/3 153/3/3
f 154/3/3 146/3/3 150/3/3
f 156/3/3 153/3/3 149/3/3
f 157/2/3 154/2/3 153/2/3
f 157/3/3 153/3/3 156/3/3
f 158/3/3 135/3/3 154/3/3
f 158/2/3 154/2/3 157/2/3
f 159/3/3 157/3/3 156/3/3
f 159/3/3 156/3/3 155/3/3
f 159/4/3 158/4/3 157/4/3
f 160/3/3 135/3/3 158/3/3
f 160/4/3 158/4/3 159/4/3
f 161/3/3 160/3/3 159/3/3
f 161/3/3 135/3/3 160/3/3
f 162/3/3 134/3/3 136/3/3
f 163/3/3 161/3/3 159/3/3
f 163/3/3 162/3/3 161/3/3
f 163/3/3 159/3/3 155/3/3
f 164/3/3 134/3/3 162/3/3
f 164/3/3 162/3/3 163/3/3
f 167/5/3 166/5/3 165/5/3
f 168/5/3 166/5/3 167/5/3
f 169/5/3 166/5/3 168/5/3
f 171/5/3 170/5/3 169/5/3
f 171/5/3 169/5/3 168/5/3
f 172/5/3 170/5/3 171/5/3
f 176/5/3 174/5/3 173/5/3
f 177/5/3 174/5/3 176/5/3
f 178/5/3 174/5/3 177/5/3
f 179/5/3 176/5/3 175/5/3
f 179/5/3 177/5/3 176/5/3
f 180/5/3 177/5/3 179/5/3
f 183/5/3 182/5/3 181/5/3
f 184/5/3 182/5/3 183/5/3
f 187/5/3 186/5/3 185/5/3
f 188/5/3 186/5/3 187/5/3
f 191/5/3 190/5/3 189/5/3
f 192/5/3 190/5/3 191/5/3
f 195/5/3 194/5/3 193/5/3
f 196/5/3 194/5/3 195/5/3
f 199/5/3 198/5/3 197/5/3
f 200/5/3 198/5/3 199/5/3
f 203/5/3 202/5/3 201/5/3
f 204/5/3 202/5/3 203/5/3
f 207/5/3 206/5/3 205/5/3
f 208/5/3 206/5/3 207/5/3
f 211/5/3 210/5/3 209/5/3
f 212/5/3 210/5/3 211/5/3
f 213/5/4 214/5/4 217/5/4
f 217/5/4 214/5/4 218/5/4
f 215/3/4 216/3/4 219/3/4
f 219/3/4 216/3/4 220/3/4
f 215/3/4 219/3/4 221/3/4
f 215/3/4 221/3/4 223/3/4
f 221/3/4 222/3/4 223/3/4
f 223/3/4 222/3/4 224/3/4
f 225/5/4 226/5/4 227/5/4
f 227/5/4 226/5/4 228/5/4
f 229/5/4 230/5/4 231/5/4
f 229/5/4 231/5/4 234/5/4
f 231/5/4 232/5/4 234/5/4
f 233/5/4 234/5/4 235/5/4
f 234/5/4 232/5/4 236/5/4
f 235/5/4 234/5/4 236/5/4
f 236/5/4 232/5/4 237/5/4
f 237/5/4 232/5/4 238/5/4
f 236/5/4 237/5/4 239/5/4
f 239/5/4 237/5/4 240/5/4
f 246/5/5 242/5/5 241/5/5
f 247/5/5 242/5/5 246/5/5
f 248/5/5 244/5/5 243/5/5
f 249/5/5 244/5/5 248/5/5
f 251/3/5 247/3/5 246/3/5
f 251/3/5 250/3/5 249/3/5
f 251/3/5 249/3/5 248/3/5
f 251/3/5 248/3/5 247/3/5
f 251/3/5 246/3/5 245/3/5
f 252/3/5 250/3/5 251/3/5
f 255/5/5 254/5/5 253/5/5
f 256/5/5 254/5/5 255/5/5
f 259/1/5 258/1/5 257/1/5
f 260/1/5 258/1/5 259/1/5
f 263/5/5 262/5/5 261/5/5
f 264/5/5 262/5/5 263/5/5
f 269/5/5 266/5/5 265/5/5
f 272/5/5 268/5/5 267/5/5
f 273/5/5 270/5/5 269/5/5
f 273/5/5 269/5/5 265/5/5
f 274/5/5 270/5/5 273/5/5
f 275/5/5 272/5/5 271/5/5
f 276/5/5 268/5/5 272/5/5
f 276/5/5 272/5/5 275/5/5
f 279/5/5 278/5/5 277/5/5
f 280/5/5 278/5/5 279/5/5
f 281/5/6 282/5/6 285/5/6
f 285/5/6 282/5/6 286/5/6
f 283/5/6 284/5/6 287/5/6
f 287/5/6 284/5/6 288/5/6
f 289/1/6 290/1/6 291/1/6
f 291/1/6 290/1/6 292/1/6
f 293/5/6 294/5/6 295/5/6
f 295/5/6 294/5/6 296/5/6
f 297/3/6 298/3/6 299/3/6
f 299/3/6 298/3/6 300/3/6
f 300/3/6 298/3/6 301/3/6
f 301/3/6 298/3/6 302/3/6
f 300/3/6 301/3/6 303/3/6
f 303/3/6 301/3/6 304/3/6
f 300/3/6 303/3/6 305/3/6
f 305/3/6 303/3/6 306/3/6
f 306/3/6 303/3/6 307/3/6
f 307/3/6 303/3/6 308/3/6
f 308/3/6 303/3/6 309/3/6
f 309/3/6 303/3/6 310/3/6
f 308/3/6 309/3/6 311/3/6
f 311/3/6 309/3/6 312/3/6
f 313/5/6 314/5/6 317/5/6
f 317/5/6 314/5/6 318/5/6
f 315/5/6 316/5/6 321/5/6
f 321/5/6 316/5/6 322/5/6
f 319/5/6 320/5/6 323/5/6
f 323/5/6 320/5/6 324/5/6
f 325/5/6 326/5/6 329/5/6
f 329/5/6 326/5/6 330/5/6
f 327/5/6 328/5/6 331/5/6
f 331/5/6 328/5/6 332/5/6
f 333/5/6 334/5/6 338/5/6
f 335/5/6 336/5/6 339/5/6
f 337/5/6 338/5/6 341/5/6
f 338/5/6 334/5/6 341/5/6
f 339/5/6 340/5/6 344/5/6
f 335/5/6 339/5/6 344/5/6
f 341/5/6 342/5/6 345/5/6
f 343/5/6 344/5/6 348/5/6
f 345/5/6 346/5/6 349/5/6
f 347/5/6 348/5/6 350/5/6
f 345/5/6 349/5/6 351/5/6
f 349/5/6 350/5/6 351/5/6
f 337/5/6 341/5/6 351/5/6
f 341/5/6 345/5/6 351/5/6
f 351/5/6 350/5/6 352/5/6
f 350/5/6 348/5/6 353/5/6
f 352/5/6 350/5/6 353/5/6
f 344/5/6 340/5/6 353/5/6
f 348/5/6 344/5/6 353/5/6
f 353/5/6 340/5/6 354/5/6
f 352/5/6 353/5/6 355/5/6
f 355/5/6 353/5/6 356/5/6
