# MagicaVoxel @ Ephtracy

# group
o 

# material
mtllib Body.mtl
usemtl palette

# normals
vn -1 0 0
vn 1 0 0
vn 0 0 1
vn 0 0 -1
vn 0 -1 0
vn 0 1 0

# texcoords
vt 0.294922 0.5
vt 0.978516 0.5
vt 0.982422 0.5
vt 0.986328 0.5

# verts
v 2.8 3.9 -5.1
v 2.8 3.9 -5.7
v 2.8 4.1 -5.1
v 2.8 4.1 -5.7
v 2.8 4.2 -5.1
v 2.8 4.2 -5.7
v 2.8 5.8 -5.1
v 2.8 5.8 -5.7
v 3.8 3.9 -5.1
v 3.8 3.9 -5.7
v 3.8 4.1 -5.1
v 3.8 4.1 -5.7
v 3.8 4.2 -5.1
v 3.8 4.2 -5.7
v 3.8 5.8 -5.1
v 3.8 5.8 -5.7
v 2.8 3.9 -5.1
v 2.8 4.1 -5.1
v 2.8 4.2 -5.1
v 2.8 5.8 -5.1
v 3.8 3.9 -5.1
v 3.8 4.1 -5.1
v 3.8 4.2 -5.1
v 3.8 5.8 -5.1
v 2.8 3.9 -5.7
v 2.8 4.1 -5.7
v 2.8 4.2 -5.7
v 2.8 5.8 -5.7
v 3.8 3.9 -5.7
v 3.8 4.1 -5.7
v 3.8 4.2 -5.7
v 3.8 5.8 -5.7
v 2.8 3.9 -5.1
v 3.8 3.9 -5.1
v 2.8 3.9 -5.7
v 3.8 3.9 -5.7
v 2.8 5.8 -5.1
v 3.8 5.8 -5.1
v 2.8 5.8 -5.7
v 3.8 5.8 -5.7

# faces
f 3/4/1 2/4/1 1/4/1
f 4/4/1 2/4/1 3/4/1
f 5/3/1 4/3/1 3/3/1
f 6/3/1 4/3/1 5/3/1
f 7/2/1 6/2/1 5/2/1
f 8/2/1 6/2/1 7/2/1
f 9/4/2 10/4/2 11/4/2
f 11/4/2 10/4/2 12/4/2
f 11/3/2 12/3/2 13/3/2
f 13/3/2 12/3/2 14/3/2
f 13/2/2 14/2/2 15/2/2
f 15/2/2 14/2/2 16/2/2
f 21/4/3 18/4/3 17/4/3
f 22/3/3 19/3/3 18/3/3
f 22/4/3 18/4/3 21/4/3
f 23/2/3 20/2/3 19/2/3
f 23/3/3 19/3/3 22/3/3
f 24/2/3 20/2/3 23/2/3
f 25/4/4 26/4/4 29/4/4
f 26/3/4 27/3/4 30/3/4
f 29/4/4 26/4/4 30/4/4
f 27/2/4 28/2/4 31/2/4
f 30/3/4 27/3/4 31/3/4
f 31/2/4 28/2/4 32/2/4
f 35/4/5 34/4/5 33/4/5
f 36/4/5 34/4/5 35/4/5
f 37/2/6 38/2/6 39/2/6
f 39/2/6 38/2/6 40/2/6
