# MagicaVoxel @ Ephtracy

# group
o 

# material
mtllib Bigvent.mtl
usemtl palette

# normals
vn -1 0 0
vn 1 0 0
vn 0 0 1
vn 0 0 -1
vn 0 -1 0
vn 0 1 0

# texcoords
vt 0.970703 0.5
vt 0.974609 0.5

# verts
v 1.5 2 -3.2
v 1.5 2 -7.3
v 1.5 2 -7.6
v 1.5 2.2 -3.2
v 1.5 2.2 -3.5
v 1.5 2.3 -3.5
v 1.5 2.3 -7.3
v 1.5 2.4 -3.2
v 1.5 2.4 -3.5
v 1.5 2.4 -7.3
v 1.5 2.4 -7.6
v 9.6 2.1 -3.5
v 9.6 2.1 -3.7
v 9.6 2.1 -3.9
v 9.6 2.1 -4.1
v 9.6 2.1 -4.3
v 9.6 2.1 -4.5
v 9.6 2.1 -4.7
v 9.6 2.1 -4.9
v 9.6 2.1 -5.1
v 9.6 2.1 -5.3
v 9.6 2.1 -5.5
v 9.6 2.1 -5.7
v 9.6 2.1 -5.9
v 9.6 2.1 -6.1
v 9.6 2.1 -6.3
v 9.6 2.1 -6.5
v 9.6 2.1 -6.7
v 9.6 2.1 -6.9
v 9.6 2.1 -7.1
v 9.6 2.1 -7.3
v 9.6 2.2 -3.7
v 9.6 2.2 -3.9
v 9.6 2.2 -4.1
v 9.6 2.2 -4.3
v 9.6 2.2 -4.5
v 9.6 2.2 -4.7
v 9.6 2.2 -4.9
v 9.6 2.2 -5.1
v 9.6 2.2 -5.3
v 9.6 2.2 -5.5
v 9.6 2.2 -5.7
v 9.6 2.2 -5.9
v 9.6 2.2 -6.1
v 9.6 2.2 -6.3
v 9.6 2.2 -6.5
v 9.6 2.2 -6.7
v 9.6 2.2 -6.9
v 9.6 2.2 -7.1
v 9.6 2.3 -3.2
v 9.6 2.3 -3.5
v 9.6 2.3 -7.3
v 9.6 2.3 -7.6
v 9.6 2.4 -3.2
v 9.6 2.4 -3.5
v 9.6 2.4 -7.3
v 9.6 2.4 -7.6
v 1.8 2.1 -3.5
v 1.8 2.1 -3.7
v 1.8 2.1 -3.9
v 1.8 2.1 -4.1
v 1.8 2.1 -4.3
v 1.8 2.1 -4.5
v 1.8 2.1 -4.7
v 1.8 2.1 -4.9
v 1.8 2.1 -5.1
v 1.8 2.1 -5.3
v 1.8 2.1 -5.5
v 1.8 2.1 -5.7
v 1.8 2.1 -5.9
v 1.8 2.1 -6.1
v 1.8 2.1 -6.3
v 1.8 2.1 -6.5
v 1.8 2.1 -6.7
v 1.8 2.1 -6.9
v 1.8 2.1 -7.1
v 1.8 2.1 -7.3
v 1.8 2.2 -3.7
v 1.8 2.2 -3.9
v 1.8 2.2 -4.1
v 1.8 2.2 -4.3
v 1.8 2.2 -4.5
v 1.8 2.2 -4.7
v 1.8 2.2 -4.9
v 1.8 2.2 -5.1
v 1.8 2.2 -5.3
v 1.8 2.2 -5.5
v 1.8 2.2 -5.7
v 1.8 2.2 -5.9
v 1.8 2.2 -6.1
v 1.8 2.2 -6.3
v 1.8 2.2 -6.5
v 1.8 2.2 -6.7
v 1.8 2.2 -6.9
v 1.8 2.2 -7.1
v 1.8 2.3 -3.2
v 1.8 2.3 -3.5
v 1.8 2.3 -7.3
v 1.8 2.3 -7.6
v 1.8 2.4 -3.2
v 1.8 2.4 -3.5
v 1.8 2.4 -7.3
v 1.8 2.4 -7.6
v 9.9 2 -3.2
v 9.9 2 -7.6
v 9.9 2.2 -3.2
v 9.9 2.2 -3.5
v 9.9 2.2 -7.3
v 9.9 2.2 -7.6
v 9.9 2.3 -3.5
v 9.9 2.3 -7.3
v 9.9 2.4 -3.2
v 9.9 2.4 -3.5
v 9.9 2.4 -7.3
v 9.9 2.4 -7.6
v 1.5 2 -3.2
v 1.5 2.2 -3.2
v 1.5 2.4 -3.2
v 1.8 2.2 -3.2
v 1.8 2.3 -3.2
v 1.8 2.4 -3.2
v 9.6 2.2 -3.2
v 9.6 2.3 -3.2
v 9.6 2.4 -3.2
v 9.9 2 -3.2
v 9.9 2.2 -3.2
v 9.9 2.4 -3.2
v 1.8 2.1 -3.7
v 1.8 2.2 -3.7
v 9.6 2.1 -3.7
v 9.6 2.2 -3.7
v 1.8 2.1 -4.1
v 1.8 2.2 -4.1
v 9.6 2.1 -4.1
v 9.6 2.2 -4.1
v 1.8 2.1 -4.5
v 1.8 2.2 -4.5
v 9.6 2.1 -4.5
v 9.6 2.2 -4.5
v 1.8 2.1 -4.9
v 1.8 2.2 -4.9
v 9.6 2.1 -4.9
v 9.6 2.2 -4.9
v 1.8 2.1 -5.3
v 1.8 2.2 -5.3
v 9.6 2.1 -5.3
v 9.6 2.2 -5.3
v 1.8 2.1 -5.7
v 1.8 2.2 -5.7
v 9.6 2.1 -5.7
v 9.6 2.2 -5.7
v 1.8 2.1 -6.1
v 1.8 2.2 -6.1
v 9.6 2.1 -6.1
v 9.6 2.2 -6.1
v 1.8 2.1 -6.5
v 1.8 2.2 -6.5
v 9.6 2.1 -6.5
v 9.6 2.2 -6.5
v 1.8 2.1 -6.9
v 1.8 2.2 -6.9
v 9.6 2.1 -6.9
v 9.6 2.2 -6.9
v 1.5 2.3 -7.3
v 1.5 2.4 -7.3
v 1.8 2.1 -7.3
v 1.8 2.3 -7.3
v 1.8 2.4 -7.3
v 9.6 2.1 -7.3
v 9.6 2.3 -7.3
v 9.6 2.4 -7.3
v 9.9 2.3 -7.3
v 9.9 2.4 -7.3
v 1.5 2.3 -3.5
v 1.5 2.4 -3.5
v 1.8 2.1 -3.5
v 1.8 2.3 -3.5
v 1.8 2.4 -3.5
v 9.6 2.1 -3.5
v 9.6 2.3 -3.5
v 9.6 2.4 -3.5
v 9.9 2.3 -3.5
v 9.9 2.4 -3.5
v 1.8 2.1 -3.9
v 1.8 2.2 -3.9
v 9.6 2.1 -3.9
v 9.6 2.2 -3.9
v 1.8 2.1 -4.3
v 1.8 2.2 -4.3
v 9.6 2.1 -4.3
v 9.6 2.2 -4.3
v 1.8 2.1 -4.7
v 1.8 2.2 -4.7
v 9.6 2.1 -4.7
v 9.6 2.2 -4.7
v 1.8 2.1 -5.1
v 1.8 2.2 -5.1
v 9.6 2.1 -5.1
v 9.6 2.2 -5.1
v 1.8 2.1 -5.5
v 1.8 2.2 -5.5
v 9.6 2.1 -5.5
v 9.6 2.2 -5.5
v 1.8 2.1 -5.9
v 1.8 2.2 -5.9
v 9.6 2.1 -5.9
v 9.6 2.2 -5.9
v 1.8 2.1 -6.3
v 1.8 2.2 -6.3
v 9.6 2.1 -6.3
v 9.6 2.2 -6.3
v 1.8 2.1 -6.7
v 1.8 2.2 -6.7
v 9.6 2.1 -6.7
v 9.6 2.2 -6.7
v 1.8 2.1 -7.1
v 1.8 2.2 -7.1
v 9.6 2.1 -7.1
v 9.6 2.2 -7.1
v 1.5 2 -7.6
v 1.5 2.4 -7.6
v 1.8 2 -7.6
v 1.8 2.3 -7.6
v 1.8 2.4 -7.6
v 9.6 2.2 -7.6
v 9.6 2.3 -7.6
v 9.6 2.4 -7.6
v 9.9 2 -7.6
v 9.9 2.2 -7.6
v 9.9 2.4 -7.6
v 1.5 2 -3.2
v 9.9 2 -3.2
v 1.8 2 -3.5
v 9.6 2 -3.5
v 1.8 2 -3.7
v 9.6 2 -3.7
v 1.8 2 -3.9
v 9.6 2 -3.9
v 1.8 2 -4.1
v 9.6 2 -4.1
v 1.8 2 -4.3
v 9.6 2 -4.3
v 1.8 2 -4.5
v 9.6 2 -4.5
v 1.8 2 -4.7
v 9.6 2 -4.7
v 1.8 2 -4.9
v 9.6 2 -4.9
v 1.8 2 -5.1
v 9.6 2 -5.1
v 1.8 2 -5.3
v 9.6 2 -5.3
v 1.8 2 -5.5
v 9.6 2 -5.5
v 1.8 2 -5.7
v 9.6 2 -5.7
v 1.8 2 -5.9
v 9.6 2 -5.9
v 1.8 2 -6.1
v 9.6 2 -6.1
v 1.8 2 -6.3
v 9.6 2 -6.3
v 1.8 2 -6.5
v 9.6 2 -6.5
v 1.8 2 -6.7
v 9.6 2 -6.7
v 1.8 2 -6.9
v 9.6 2 -6.9
v 1.8 2 -7.1
v 9.6 2 -7.1
v 1.5 2 -7.3
v 1.8 2 -7.3
v 9.6 2 -7.3
v 1.5 2 -7.6
v 1.8 2 -7.6
v 9.9 2 -7.6
v 1.8 2.1 -3.5
v 9.6 2.1 -3.5
v 1.8 2.1 -3.7
v 9.6 2.1 -3.7
v 1.8 2.1 -3.9
v 9.6 2.1 -3.9
v 1.8 2.1 -4.1
v 9.6 2.1 -4.1
v 1.8 2.1 -4.3
v 9.6 2.1 -4.3
v 1.8 2.1 -4.5
v 9.6 2.1 -4.5
v 1.8 2.1 -4.7
v 9.6 2.1 -4.7
v 1.8 2.1 -4.9
v 9.6 2.1 -4.9
v 1.8 2.1 -5.1
v 9.6 2.1 -5.1
v 1.8 2.1 -5.3
v 9.6 2.1 -5.3
v 1.8 2.1 -5.5
v 9.6 2.1 -5.5
v 1.8 2.1 -5.7
v 9.6 2.1 -5.7
v 1.8 2.1 -5.9
v 9.6 2.1 -5.9
v 1.8 2.1 -6.1
v 9.6 2.1 -6.1
v 1.8 2.1 -6.3
v 9.6 2.1 -6.3
v 1.8 2.1 -6.5
v 9.6 2.1 -6.5
v 1.8 2.1 -6.7
v 9.6 2.1 -6.7
v 1.8 2.1 -6.9
v 9.6 2.1 -6.9
v 1.8 2.1 -7.1
v 9.6 2.1 -7.1
v 1.8 2.1 -7.3
v 9.6 2.1 -7.3
v 1.8 2.2 -3.7
v 9.6 2.2 -3.7
v 1.8 2.2 -3.9
v 9.6 2.2 -3.9
v 1.8 2.2 -4.1
v 9.6 2.2 -4.1
v 1.8 2.2 -4.3
v 9.6 2.2 -4.3
v 1.8 2.2 -4.5
v 9.6 2.2 -4.5
v 1.8 2.2 -4.7
v 9.6 2.2 -4.7
v 1.8 2.2 -4.9
v 9.6 2.2 -4.9
v 1.8 2.2 -5.1
v 9.6 2.2 -5.1
v 1.8 2.2 -5.3
v 9.6 2.2 -5.3
v 1.8 2.2 -5.5
v 9.6 2.2 -5.5
v 1.8 2.2 -5.7
v 9.6 2.2 -5.7
v 1.8 2.2 -5.9
v 9.6 2.2 -5.9
v 1.8 2.2 -6.1
v 9.6 2.2 -6.1
v 1.8 2.2 -6.3
v 9.6 2.2 -6.3
v 1.8 2.2 -6.5
v 9.6 2.2 -6.5
v 1.8 2.2 -6.7
v 9.6 2.2 -6.7
v 1.8 2.2 -6.9
v 9.6 2.2 -6.9
v 1.8 2.2 -7.1
v 9.6 2.2 -7.1
v 1.8 2.3 -3.2
v 9.6 2.3 -3.2
v 1.5 2.3 -3.5
v 1.8 2.3 -3.5
v 9.6 2.3 -3.5
v 9.9 2.3 -3.5
v 1.5 2.3 -7.3
v 1.8 2.3 -7.3
v 9.6 2.3 -7.3
v 9.9 2.3 -7.3
v 1.8 2.3 -7.6
v 9.6 2.3 -7.6
v 1.5 2.4 -3.2
v 1.8 2.4 -3.2
v 9.6 2.4 -3.2
v 9.9 2.4 -3.2
v 1.5 2.4 -3.5
v 1.8 2.4 -3.5
v 9.6 2.4 -3.5
v 9.9 2.4 -3.5
v 1.5 2.4 -7.3
v 1.8 2.4 -7.3
v 9.6 2.4 -7.3
v 9.9 2.4 -7.3
v 1.5 2.4 -7.6
v 1.8 2.4 -7.6
v 9.6 2.4 -7.6
v 9.9 2.4 -7.6

# faces
f 4/1/1 2/1/1 1/1/1
f 5/1/1 2/1/1 4/1/1
f 6/2/1 5/2/1 4/2/1
f 6/1/1 2/1/1 5/1/1
f 7/2/1 3/2/1 2/2/1
f 7/1/1 2/1/1 6/1/1
f 8/2/1 6/2/1 4/2/1
f 9/2/1 6/2/1 8/2/1
f 10/2/1 3/2/1 7/2/1
f 11/2/1 3/2/1 10/2/1
f 32/1/1 13/1/1 12/1/1
f 33/1/1 15/1/1 14/1/1
f 34/1/1 15/1/1 33/1/1
f 35/1/1 17/1/1 16/1/1
f 36/1/1 17/1/1 35/1/1
f 37/1/1 19/1/1 18/1/1
f 38/1/1 19/1/1 37/1/1
f 39/1/1 21/1/1 20/1/1
f 40/1/1 21/1/1 39/1/1
f 41/1/1 23/1/1 22/1/1
f 42/1/1 23/1/1 41/1/1
f 43/1/1 25/1/1 24/1/1
f 44/1/1 25/1/1 43/1/1
f 45/1/1 27/1/1 26/1/1
f 46/1/1 27/1/1 45/1/1
f 47/1/1 29/1/1 28/1/1
f 48/1/1 29/1/1 47/1/1
f 49/1/1 31/1/1 30/1/1
f 51/1/1 48/1/1 47/1/1
f 51/1/1 49/1/1 48/1/1
f 51/1/1 32/1/1 12/1/1
f 51/1/1 34/1/1 33/1/1
f 51/1/1 47/1/1 46/1/1
f 51/1/1 36/1/1 35/1/1
f 51/1/1 45/1/1 44/1/1
f 51/1/1 38/1/1 37/1/1
f 51/1/1 43/1/1 42/1/1
f 51/1/1 40/1/1 39/1/1
f 51/1/1 41/1/1 40/1/1
f 51/1/1 42/1/1 41/1/1
f 51/1/1 39/1/1 38/1/1
f 51/1/1 44/1/1 43/1/1
f 51/1/1 37/1/1 36/1/1
f 51/1/1 46/1/1 45/1/1
f 51/1/1 35/1/1 34/1/1
f 51/1/1 33/1/1 32/1/1
f 52/1/1 31/1/1 49/1/1
f 52/1/1 49/1/1 51/1/1
f 54/2/1 51/2/1 50/2/1
f 55/2/1 51/2/1 54/2/1
f 56/2/1 53/2/1 52/2/1
f 57/2/1 53/2/1 56/2/1
f 58/1/2 59/1/2 78/1/2
f 60/1/2 61/1/2 79/1/2
f 79/1/2 61/1/2 80/1/2
f 62/1/2 63/1/2 81/1/2
f 81/1/2 63/1/2 82/1/2
f 64/1/2 65/1/2 83/1/2
f 83/1/2 65/1/2 84/1/2
f 66/1/2 67/1/2 85/1/2
f 85/1/2 67/1/2 86/1/2
f 68/1/2 69/1/2 87/1/2
f 87/1/2 69/1/2 88/1/2
f 70/1/2 71/1/2 89/1/2
f 89/1/2 71/1/2 90/1/2
f 72/1/2 73/1/2 91/1/2
f 91/1/2 73/1/2 92/1/2
f 74/1/2 75/1/2 93/1/2
f 93/1/2 75/1/2 94/1/2
f 76/1/2 77/1/2 95/1/2
f 93/1/2 94/1/2 97/1/2
f 94/1/2 95/1/2 97/1/2
f 58/1/2 78/1/2 97/1/2
f 79/1/2 80/1/2 97/1/2
f 92/1/2 93/1/2 97/1/2
f 81/1/2 82/1/2 97/1/2
f 90/1/2 91/1/2 97/1/2
f 83/1/2 84/1/2 97/1/2
f 88/1/2 89/1/2 97/1/2
f 85/1/2 86/1/2 97/1/2
f 86/1/2 87/1/2 97/1/2
f 87/1/2 88/1/2 97/1/2
f 84/1/2 85/1/2 97/1/2
f 89/1/2 90/1/2 97/1/2
f 82/1/2 83/1/2 97/1/2
f 91/1/2 92/1/2 97/1/2
f 80/1/2 81/1/2 97/1/2
f 78/1/2 79/1/2 97/1/2
f 95/1/2 77/1/2 98/1/2
f 97/1/2 95/1/2 98/1/2
f 96/2/2 97/2/2 100/2/2
f 100/2/2 97/2/2 101/2/2
f 98/2/2 99/2/2 102/2/2
f 102/2/2 99/2/2 103/2/2
f 104/1/2 105/1/2 106/1/2
f 106/1/2 105/1/2 107/1/2
f 107/1/2 105/1/2 108/1/2
f 108/1/2 105/1/2 109/1/2
f 106/2/2 107/2/2 110/2/2
f 107/1/2 108/1/2 110/1/2
f 108/2/2 109/2/2 111/2/2
f 110/1/2 108/1/2 111/1/2
f 106/2/2 110/2/2 112/2/2
f 112/2/2 110/2/2 113/2/2
f 111/2/2 109/2/2 114/2/2
f 114/2/2 109/2/2 115/2/2
f 119/1/3 117/1/3 116/1/3
f 119/2/3 118/2/3 117/2/3
f 120/2/3 118/2/3 119/2/3
f 121/2/3 118/2/3 120/2/3
f 122/1/3 119/1/3 116/1/3
f 122/1/3 120/1/3 119/1/3
f 123/1/3 120/1/3 122/1/3
f 125/1/3 122/1/3 116/1/3
f 126/2/3 124/2/3 123/2/3
f 126/1/3 122/1/3 125/1/3
f 126/2/3 123/2/3 122/2/3
f 127/2/3 124/2/3 126/2/3
f 130/1/3 129/1/3 128/1/3
f 131/1/3 129/1/3 130/1/3
f 134/1/3 133/1/3 132/1/3
f 135/1/3 133/1/3 134/1/3
f 138/1/3 137/1/3 136/1/3
f 139/1/3 137/1/3 138/1/3
f 142/1/3 141/1/3 140/1/3
f 143/1/3 141/1/3 142/1/3
f 146/1/3 145/1/3 144/1/3
f 147/1/3 145/1/3 146/1/3
f 150/1/3 149/1/3 148/1/3
f 151/1/3 149/1/3 150/1/3
f 154/1/3 153/1/3 152/1/3
f 155/1/3 153/1/3 154/1/3
f 158/1/3 157/1/3 156/1/3
f 159/1/3 157/1/3 158/1/3
f 162/1/3 161/1/3 160/1/3
f 163/1/3 161/1/3 162/1/3
f 167/2/3 165/2/3 164/2/3
f 168/2/3 165/2/3 167/2/3
f 169/1/3 167/1/3 166/1/3
f 170/1/3 167/1/3 169/1/3
f 172/2/3 171/2/3 170/2/3
f 173/2/3 171/2/3 172/2/3
f 174/2/4 175/2/4 177/2/4
f 177/2/4 175/2/4 178/2/4
f 176/1/4 177/1/4 179/1/4
f 179/1/4 177/1/4 180/1/4
f 180/2/4 181/2/4 182/2/4
f 182/2/4 181/2/4 183/2/4
f 184/1/4 185/1/4 186/1/4
f 186/1/4 185/1/4 187/1/4
f 188/1/4 189/1/4 190/1/4
f 190/1/4 189/1/4 191/1/4
f 192/1/4 193/1/4 194/1/4
f 194/1/4 193/1/4 195/1/4
f 196/1/4 197/1/4 198/1/4
f 198/1/4 197/1/4 199/1/4
f 200/1/4 201/1/4 202/1/4
f 202/1/4 201/1/4 203/1/4
f 204/1/4 205/1/4 206/1/4
f 206/1/4 205/1/4 207/1/4
f 208/1/4 209/1/4 210/1/4
f 210/1/4 209/1/4 211/1/4
f 212/1/4 213/1/4 214/1/4
f 214/1/4 213/1/4 215/1/4
f 216/1/4 217/1/4 218/1/4
f 218/1/4 217/1/4 219/1/4
f 220/2/4 221/2/4 222/2/4
f 222/2/4 221/2/4 223/2/4
f 223/2/4 221/2/4 224/2/4
f 222/1/4 223/1/4 225/1/4
f 225/1/4 223/1/4 226/1/4
f 222/1/4 225/1/4 228/1/4
f 226/2/4 227/2/4 229/2/4
f 228/1/4 225/1/4 229/1/4
f 225/2/4 226/2/4 229/2/4
f 229/2/4 227/2/4 230/2/4
f 233/1/5 232/1/5 231/1/5
f 234/1/5 232/1/5 233/1/5
f 235/1/5 233/1/5 231/1/5
f 235/2/5 234/2/5 233/2/5
f 236/1/5 232/1/5 234/1/5
f 236/2/5 234/2/5 235/2/5
f 237/1/5 235/1/5 231/1/5
f 237/1/5 236/1/5 235/1/5
f 238/1/5 232/1/5 236/1/5
f 238/1/5 236/1/5 237/1/5
f 239/1/5 237/1/5 231/1/5
f 239/2/5 238/2/5 237/2/5
f 240/1/5 232/1/5 238/1/5
f 240/2/5 238/2/5 239/2/5
f 241/1/5 239/1/5 231/1/5
f 241/1/5 240/1/5 239/1/5
f 242/1/5 232/1/5 240/1/5
f 242/1/5 240/1/5 241/1/5
f 243/1/5 241/1/5 231/1/5
f 243/2/5 242/2/5 241/2/5
f 244/1/5 232/1/5 242/1/5
f 244/2/5 242/2/5 243/2/5
f 245/1/5 243/1/5 231/1/5
f 245/1/5 244/1/5 243/1/5
f 246/1/5 232/1/5 244/1/5
f 246/1/5 244/1/5 245/1/5
f 247/1/5 245/1/5 231/1/5
f 247/2/5 246/2/5 245/2/5
f 248/1/5 232/1/5 246/1/5
f 248/2/5 246/2/5 247/2/5
f 249/1/5 247/1/5 231/1/5
f 249/1/5 248/1/5 247/1/5
f 250/1/5 232/1/5 248/1/5
f 250/1/5 248/1/5 249/1/5
f 251/1/5 249/1/5 231/1/5
f 251/2/5 250/2/5 249/2/5
f 252/1/5 232/1/5 250/1/5
f 252/2/5 250/2/5 251/2/5
f 253/1/5 251/1/5 231/1/5
f 253/1/5 252/1/5 251/1/5
f 254/1/5 232/1/5 252/1/5
f 254/1/5 252/1/5 253/1/5
f 255/1/5 253/1/5 231/1/5
f 255/2/5 254/2/5 253/2/5
f 256/1/5 232/1/5 254/1/5
f 256/2/5 254/2/5 255/2/5
f 257/1/5 255/1/5 231/1/5
f 257/1/5 256/1/5 255/1/5
f 258/1/5 232/1/5 256/1/5
f 258/1/5 256/1/5 257/1/5
f 259/1/5 257/1/5 231/1/5
f 259/2/5 258/2/5 257/2/5
f 260/1/5 232/1/5 258/1/5
f 260/2/5 258/2/5 259/2/5
f 261/1/5 259/1/5 231/1/5
f 261/1/5 260/1/5 259/1/5
f 262/1/5 232/1/5 260/1/5
f 262/1/5 260/1/5 261/1/5
f 263/1/5 261/1/5 231/1/5
f 263/2/5 262/2/5 261/2/5
f 264/1/5 232/1/5 262/1/5
f 264/2/5 262/2/5 263/2/5
f 265/1/5 263/1/5 231/1/5
f 265/1/5 264/1/5 263/1/5
f 266/1/5 232/1/5 264/1/5
f 266/1/5 264/1/5 265/1/5
f 267/1/5 265/1/5 231/1/5
f 267/2/5 266/2/5 265/2/5
f 268/1/5 232/1/5 266/1/5
f 268/2/5 266/2/5 267/2/5
f 269/1/5 267/1/5 231/1/5
f 269/1/5 268/1/5 267/1/5
f 270/1/5 232/1/5 268/1/5
f 270/1/5 268/1/5 269/1/5
f 271/1/5 269/1/5 231/1/5
f 272/2/5 270/2/5 269/2/5
f 272/1/5 269/1/5 271/1/5
f 273/1/5 232/1/5 270/1/5
f 273/2/5 270/2/5 272/2/5
f 274/2/5 272/2/5 271/2/5
f 275/1/5 273/1/5 272/1/5
f 275/2/5 272/2/5 274/2/5
f 276/1/5 232/1/5 273/1/5
f 276/1/5 273/1/5 275/1/5
f 277/2/6 278/2/6 279/2/6
f 279/2/6 278/2/6 280/2/6
f 281/2/6 282/2/6 283/2/6
f 283/2/6 282/2/6 284/2/6
f 285/2/6 286/2/6 287/2/6
f 287/2/6 286/2/6 288/2/6
f 289/2/6 290/2/6 291/2/6
f 291/2/6 290/2/6 292/2/6
f 293/2/6 294/2/6 295/2/6
f 295/2/6 294/2/6 296/2/6
f 297/2/6 298/2/6 299/2/6
f 299/2/6 298/2/6 300/2/6
f 301/2/6 302/2/6 303/2/6
f 303/2/6 302/2/6 304/2/6
f 305/2/6 306/2/6 307/2/6
f 307/2/6 306/2/6 308/2/6
f 309/2/6 310/2/6 311/2/6
f 311/2/6 310/2/6 312/2/6
f 313/2/6 314/2/6 315/2/6
f 315/2/6 314/2/6 316/2/6
f 317/1/6 318/1/6 319/1/6
f 319/1/6 318/1/6 320/1/6
f 321/1/6 322/1/6 323/1/6
f 323/1/6 322/1/6 324/1/6
f 325/1/6 326/1/6 327/1/6
f 327/1/6 326/1/6 328/1/6
f 329/1/6 330/1/6 331/1/6
f 331/1/6 330/1/6 332/1/6
f 333/1/6 334/1/6 335/1/6
f 335/1/6 334/1/6 336/1/6
f 337/1/6 338/1/6 339/1/6
f 339/1/6 338/1/6 340/1/6
f 341/1/6 342/1/6 343/1/6
f 343/1/6 342/1/6 344/1/6
f 345/1/6 346/1/6 347/1/6
f 347/1/6 346/1/6 348/1/6
f 349/1/6 350/1/6 351/1/6
f 351/1/6 350/1/6 352/1/6
f 353/1/6 354/1/6 356/1/6
f 356/1/6 354/1/6 357/1/6
f 355/1/6 356/1/6 359/1/6
f 359/1/6 356/1/6 360/1/6
f 357/1/6 358/1/6 361/1/6
f 361/1/6 358/1/6 362/1/6
f 360/1/6 361/1/6 363/1/6
f 363/1/6 361/1/6 364/1/6
f 365/2/6 366/2/6 369/2/6
f 369/2/6 366/2/6 370/2/6
f 367/2/6 368/2/6 371/2/6
f 371/2/6 368/2/6 372/2/6
f 373/2/6 374/2/6 377/2/6
f 377/2/6 374/2/6 378/2/6
f 375/2/6 376/2/6 379/2/6
f 379/2/6 376/2/6 380/2/6
