# MagicaVoxel @ Ephtracy

# group
o 

# material
mtllib LaserBase.mtl
usemtl palette

# normals
vn -1 0 0
vn 1 0 0
vn 0 0 1
vn 0 0 -1
vn 0 -1 0
vn 0 1 0

# texcoords
vt 0.115234 0.5
vt 0.587891 0.5
vt 0.685547 0.5
vt 0.978516 0.5
vt 0.982422 0.5
vt 0.986328 0.5

# verts
v 1.1 2 -5
v 1.1 2 -7.8
v 1.1 2.3 -5.2
v 1.1 2.3 -7.6
v 1.1 2.4 -5.3
v 1.1 2.4 -7.5
v 1.1 2.5 -5.3
v 1.1 2.5 -7.5
v 1.1 2.6 -5.3
v 1.1 2.6 -7.5
v 1.1 2.7 -5.3
v 1.1 2.7 -7.5
v 1.1 2.8 -5.3
v 1.1 2.8 -7.5
v 1.1 2.9 -5.3
v 1.1 2.9 -7.5
v 1.1 3 -5.3
v 1.1 3 -7.5
v 1.1 3.1 -5.3
v 1.1 3.1 -7.5
v 1.1 3.2 -5.3
v 1.1 3.2 -7.5
v 1.1 3.3 -5.3
v 1.1 3.3 -7.5
v 1.1 3.4 -5.2
v 1.1 3.4 -7.6
v 1.1 3.8 -5
v 1.1 3.8 -7.8
v 1.2 2.4 -5.3
v 1.2 2.4 -7.5
v 1.2 2.5 -5.3
v 1.2 2.5 -7.5
v 1.2 2.6 -5.3
v 1.2 2.6 -7.5
v 1.2 2.7 -5.3
v 1.2 2.7 -7.5
v 1.2 2.8 -5.3
v 1.2 2.8 -7.5
v 1.2 2.9 -5.3
v 1.2 2.9 -7.5
v 1.2 3 -5.3
v 1.2 3 -7.5
v 1.2 3.1 -5.3
v 1.2 3.1 -7.5
v 1.2 3.2 -5.3
v 1.2 3.2 -7.5
v 1.2 3.3 -5.3
v 1.2 3.3 -7.5
v 1.4 3.8 -5.4
v 1.4 3.8 -7.4
v 1.4 5.6 -5.4
v 1.4 5.6 -7.4
v 3.2 5.2 -5.6
v 3.2 5.2 -7.2
v 3.2 5.6 -5.6
v 3.2 5.6 -7.2
v 3.4 2.4 -5
v 3.4 2.4 -5.1
v 3.4 2.4 -7.7
v 3.4 2.4 -7.8
v 3.4 2.5 -5
v 3.4 2.5 -5.1
v 3.4 2.5 -7.7
v 3.4 2.5 -7.8
v 3.4 2.6 -5
v 3.4 2.6 -5.1
v 3.4 2.6 -7.7
v 3.4 2.6 -7.8
v 3.4 2.7 -5
v 3.4 2.7 -5.1
v 3.4 2.7 -7.7
v 3.4 2.7 -7.8
v 3.4 2.8 -5
v 3.4 2.8 -5.1
v 3.4 2.8 -7.7
v 3.4 2.8 -7.8
v 3.4 2.9 -5
v 3.4 2.9 -5.1
v 3.4 2.9 -7.7
v 3.4 2.9 -7.8
v 3.4 3 -5
v 3.4 3 -5.1
v 3.4 3 -7.7
v 3.4 3 -7.8
v 3.4 3.1 -5
v 3.4 3.1 -5.1
v 3.4 3.1 -7.7
v 3.4 3.1 -7.8
v 3.4 3.2 -5
v 3.4 3.2 -5.1
v 3.4 3.2 -7.7
v 3.4 3.2 -7.8
v 3.4 3.3 -5
v 3.4 3.3 -5.1
v 3.4 3.3 -7.7
v 3.4 3.3 -7.8
v 1.4 2.4 -5
v 1.4 2.4 -5.1
v 1.4 2.4 -7.7
v 1.4 2.4 -7.8
v 1.4 2.5 -5
v 1.4 2.5 -5.1
v 1.4 2.5 -7.7
v 1.4 2.5 -7.8
v 1.4 2.6 -5
v 1.4 2.6 -5.1
v 1.4 2.6 -7.7
v 1.4 2.6 -7.8
v 1.4 2.7 -5
v 1.4 2.7 -5.1
v 1.4 2.7 -7.7
v 1.4 2.7 -7.8
v 1.4 2.8 -5
v 1.4 2.8 -5.1
v 1.4 2.8 -7.7
v 1.4 2.8 -7.8
v 1.4 2.9 -5
v 1.4 2.9 -5.1
v 1.4 2.9 -7.7
v 1.4 2.9 -7.8
v 1.4 3 -5
v 1.4 3 -5.1
v 1.4 3 -7.7
v 1.4 3 -7.8
v 1.4 3.1 -5
v 1.4 3.1 -5.1
v 1.4 3.1 -7.7
v 1.4 3.1 -7.8
v 1.4 3.2 -5
v 1.4 3.2 -5.1
v 1.4 3.2 -7.7
v 1.4 3.2 -7.8
v 1.4 3.3 -5
v 1.4 3.3 -5.1
v 1.4 3.3 -7.7
v 1.4 3.3 -7.8
v 1.6 5.2 -5.6
v 1.6 5.2 -7.2
v 1.6 5.6 -5.6
v 1.6 5.6 -7.2
v 3.4 3.8 -5.4
v 3.4 3.8 -7.4
v 3.4 5.6 -5.4
v 3.4 5.6 -7.4
v 3.5 2.3 -5.2
v 3.5 2.3 -5.3
v 3.5 2.3 -5.4
v 3.5 2.3 -5.8
v 3.5 2.3 -5.9
v 3.5 2.3 -6.1
v 3.5 2.3 -6.2
v 3.5 2.3 -6.3
v 3.5 2.3 -6.6
v 3.5 2.3 -6.7
v 3.5 2.3 -7
v 3.5 2.3 -7.1
v 3.5 2.3 -7.2
v 3.5 2.3 -7.3
v 3.5 2.3 -7.6
v 3.5 2.6 -5.4
v 3.5 2.6 -5.6
v 3.5 2.6 -6.2
v 3.5 2.6 -6.3
v 3.5 2.6 -6.5
v 3.5 2.7 -5.3
v 3.5 2.7 -5.5
v 3.5 2.7 -6.1
v 3.5 2.7 -6.2
v 3.5 2.7 -6.3
v 3.5 2.7 -6.4
v 3.5 2.8 -7.1
v 3.5 2.8 -7.2
v 3.5 2.8 -7.3
v 3.5 2.8 -7.5
v 3.5 2.9 -7
v 3.5 2.9 -7.2
v 3.5 2.9 -7.3
v 3.5 2.9 -7.4
v 3.5 3.2 -5.9
v 3.5 3.2 -6.1
v 3.5 3.3 -5.8
v 3.5 3.3 -6
v 3.5 3.4 -5.2
v 3.5 3.4 -5.5
v 3.5 3.4 -5.6
v 3.5 3.4 -6
v 3.5 3.4 -6.1
v 3.5 3.4 -6.2
v 3.5 3.4 -6.3
v 3.5 3.4 -6.4
v 3.5 3.4 -6.5
v 3.5 3.4 -6.6
v 3.5 3.4 -6.7
v 3.5 3.4 -7.2
v 3.5 3.4 -7.3
v 3.5 3.4 -7.4
v 3.5 3.4 -7.5
v 3.5 3.4 -7.6
v 3.7 2 -5
v 3.7 2 -7.8
v 3.7 2.3 -5.2
v 3.7 2.3 -7.6
v 3.7 3.4 -5.2
v 3.7 3.4 -7.6
v 3.7 3.8 -5
v 3.7 3.8 -7.8
v 1.1 2 -5
v 1.1 3.8 -5
v 1.3 2.3 -5
v 1.3 3.4 -5
v 1.4 2.4 -5
v 1.4 2.5 -5
v 1.4 2.6 -5
v 1.4 2.7 -5
v 1.4 2.8 -5
v 1.4 2.9 -5
v 1.4 3 -5
v 1.4 3.1 -5
v 1.4 3.2 -5
v 1.4 3.3 -5
v 3.4 2.4 -5
v 3.4 2.5 -5
v 3.4 2.6 -5
v 3.4 2.7 -5
v 3.4 2.8 -5
v 3.4 2.9 -5
v 3.4 3 -5
v 3.4 3.1 -5
v 3.4 3.2 -5
v 3.4 3.3 -5
v 3.5 2.3 -5
v 3.5 3.4 -5
v 3.7 2 -5
v 3.7 3.8 -5
v 1.4 2.4 -5.1
v 1.4 2.5 -5.1
v 1.4 2.6 -5.1
v 1.4 2.7 -5.1
v 1.4 2.8 -5.1
v 1.4 2.9 -5.1
v 1.4 3 -5.1
v 1.4 3.1 -5.1
v 1.4 3.2 -5.1
v 1.4 3.3 -5.1
v 3.4 2.4 -5.1
v 3.4 2.5 -5.1
v 3.4 2.6 -5.1
v 3.4 2.7 -5.1
v 3.4 2.8 -5.1
v 3.4 2.9 -5.1
v 3.4 3 -5.1
v 3.4 3.1 -5.1
v 3.4 3.2 -5.1
v 3.4 3.3 -5.1
v 1.4 3.8 -5.4
v 1.4 5.6 -5.4
v 3.4 3.8 -5.4
v 3.4 5.6 -5.4
v 1.6 5.2 -7.2
v 1.6 5.6 -7.2
v 3.2 5.2 -7.2
v 3.2 5.6 -7.2
v 1.1 2.4 -7.5
v 1.1 2.5 -7.5
v 1.1 2.6 -7.5
v 1.1 2.7 -7.5
v 1.1 2.8 -7.5
v 1.1 2.9 -7.5
v 1.1 3 -7.5
v 1.1 3.1 -7.5
v 1.1 3.2 -7.5
v 1.1 3.3 -7.5
v 1.2 2.4 -7.5
v 1.2 2.5 -7.5
v 1.2 2.6 -7.5
v 1.2 2.7 -7.5
v 1.2 2.8 -7.5
v 1.2 2.9 -7.5
v 1.2 3 -7.5
v 1.2 3.1 -7.5
v 1.2 3.2 -7.5
v 1.2 3.3 -7.5
v 3.5 2.3 -7.6
v 3.5 3.4 -7.6
v 3.7 2.3 -7.6
v 3.7 3.4 -7.6
v 3.5 2.3 -5.2
v 3.5 3.4 -5.2
v 3.7 2.3 -5.2
v 3.7 3.4 -5.2
v 1.1 2.4 -5.3
v 1.1 2.5 -5.3
v 1.1 2.6 -5.3
v 1.1 2.7 -5.3
v 1.1 2.8 -5.3
v 1.1 2.9 -5.3
v 1.1 3 -5.3
v 1.1 3.1 -5.3
v 1.1 3.2 -5.3
v 1.1 3.3 -5.3
v 1.2 2.4 -5.3
v 1.2 2.5 -5.3
v 1.2 2.6 -5.3
v 1.2 2.7 -5.3
v 1.2 2.8 -5.3
v 1.2 2.9 -5.3
v 1.2 3 -5.3
v 1.2 3.1 -5.3
v 1.2 3.2 -5.3
v 1.2 3.3 -5.3
v 1.6 5.2 -5.6
v 1.6 5.6 -5.6
v 3.2 5.2 -5.6
v 3.2 5.6 -5.6
v 1.4 3.8 -7.4
v 1.4 5.6 -7.4
v 3.4 3.8 -7.4
v 3.4 5.6 -7.4
v 1.4 2.4 -7.7
v 1.4 2.5 -7.7
v 1.4 2.6 -7.7
v 1.4 2.7 -7.7
v 1.4 2.8 -7.7
v 1.4 2.9 -7.7
v 1.4 3 -7.7
v 1.4 3.1 -7.7
v 1.4 3.2 -7.7
v 1.4 3.3 -7.7
v 3.4 2.4 -7.7
v 3.4 2.5 -7.7
v 3.4 2.6 -7.7
v 3.4 2.7 -7.7
v 3.4 2.8 -7.7
v 3.4 2.9 -7.7
v 3.4 3 -7.7
v 3.4 3.1 -7.7
v 3.4 3.2 -7.7
v 3.4 3.3 -7.7
v 1.1 2 -7.8
v 1.1 3.8 -7.8
v 1.3 2.3 -7.8
v 1.3 3.4 -7.8
v 1.4 2.4 -7.8
v 1.4 2.5 -7.8
v 1.4 2.6 -7.8
v 1.4 2.7 -7.8
v 1.4 2.8 -7.8
v 1.4 2.9 -7.8
v 1.4 3 -7.8
v 1.4 3.1 -7.8
v 1.4 3.2 -7.8
v 1.4 3.3 -7.8
v 3.4 2.4 -7.8
v 3.4 2.5 -7.8
v 3.4 2.6 -7.8
v 3.4 2.7 -7.8
v 3.4 2.8 -7.8
v 3.4 2.9 -7.8
v 3.4 3 -7.8
v 3.4 3.1 -7.8
v 3.4 3.2 -7.8
v 3.4 3.3 -7.8
v 3.5 2.3 -7.8
v 3.5 3.4 -7.8
v 3.7 2 -7.8
v 3.7 3.8 -7.8
v 1.1 2 -5
v 3.7 2 -5
v 1.1 2 -7.8
v 3.7 2 -7.8
v 1.4 2.5 -5
v 3.4 2.5 -5
v 1.4 2.5 -5.1
v 3.4 2.5 -5.1
v 1.1 2.5 -5.3
v 1.2 2.5 -5.3
v 1.1 2.5 -7.5
v 1.2 2.5 -7.5
v 1.4 2.5 -7.7
v 3.4 2.5 -7.7
v 1.4 2.5 -7.8
v 3.4 2.5 -7.8
v 1.4 2.7 -5
v 3.4 2.7 -5
v 1.4 2.7 -5.1
v 3.4 2.7 -5.1
v 1.1 2.7 -5.3
v 1.2 2.7 -5.3
v 1.1 2.7 -7.5
v 1.2 2.7 -7.5
v 1.4 2.7 -7.7
v 3.4 2.7 -7.7
v 1.4 2.7 -7.8
v 3.4 2.7 -7.8
v 1.4 2.9 -5
v 3.4 2.9 -5
v 1.4 2.9 -5.1
v 3.4 2.9 -5.1
v 1.1 2.9 -5.3
v 1.2 2.9 -5.3
v 1.1 2.9 -7.5
v 1.2 2.9 -7.5
v 1.4 2.9 -7.7
v 3.4 2.9 -7.7
v 1.4 2.9 -7.8
v 3.4 2.9 -7.8
v 1.4 3.1 -5
v 3.4 3.1 -5
v 1.4 3.1 -5.1
v 3.4 3.1 -5.1
v 1.1 3.1 -5.3
v 1.2 3.1 -5.3
v 1.1 3.1 -7.5
v 1.2 3.1 -7.5
v 1.4 3.1 -7.7
v 3.4 3.1 -7.7
v 1.4 3.1 -7.8
v 3.4 3.1 -7.8
v 1.4 3.3 -5
v 3.4 3.3 -5
v 1.4 3.3 -5.1
v 3.4 3.3 -5.1
v 1.1 3.3 -5.3
v 1.2 3.3 -5.3
v 1.1 3.3 -7.5
v 1.2 3.3 -7.5
v 1.4 3.3 -7.7
v 3.4 3.3 -7.7
v 1.4 3.3 -7.8
v 3.4 3.3 -7.8
v 3.5 3.4 -5.2
v 3.7 3.4 -5.2
v 3.5 3.4 -5.5
v 3.5 3.4 -5.6
v 3.5 3.4 -6
v 3.5 3.4 -6.1
v 3.5 3.4 -6.2
v 3.5 3.4 -6.3
v 3.5 3.4 -6.4
v 3.5 3.4 -6.5
v 3.5 3.4 -6.6
v 3.5 3.4 -6.7
v 3.5 3.4 -7.2
v 3.5 3.4 -7.3
v 3.5 3.4 -7.4
v 3.5 3.4 -7.5
v 3.5 3.4 -7.6
v 3.7 3.4 -7.6
v 3.5 2.3 -5.2
v 3.7 2.3 -5.2
v 3.5 2.3 -5.3
v 3.5 2.3 -5.4
v 3.5 2.3 -5.8
v 3.5 2.3 -5.9
v 3.5 2.3 -6.1
v 3.5 2.3 -6.2
v 3.5 2.3 -6.3
v 3.5 2.3 -6.6
v 3.5 2.3 -6.7
v 3.5 2.3 -7
v 3.5 2.3 -7.1
v 3.5 2.3 -7.2
v 3.5 2.3 -7.3
v 3.5 2.3 -7.6
v 3.7 2.3 -7.6
v 1.4 2.4 -5
v 3.4 2.4 -5
v 1.4 2.4 -5.1
v 3.4 2.4 -5.1
v 1.1 2.4 -5.3
v 1.2 2.4 -5.3
v 1.1 2.4 -7.5
v 1.2 2.4 -7.5
v 1.4 2.4 -7.7
v 3.4 2.4 -7.7
v 1.4 2.4 -7.8
v 3.4 2.4 -7.8
v 1.4 2.6 -5
v 3.4 2.6 -5
v 1.4 2.6 -5.1
v 3.4 2.6 -5.1
v 1.1 2.6 -5.3
v 1.2 2.6 -5.3
v 1.1 2.6 -7.5
v 1.2 2.6 -7.5
v 1.4 2.6 -7.7
v 3.4 2.6 -7.7
v 1.4 2.6 -7.8
v 3.4 2.6 -7.8
v 1.4 2.8 -5
v 3.4 2.8 -5
v 1.4 2.8 -5.1
v 3.4 2.8 -5.1
v 1.1 2.8 -5.3
v 1.2 2.8 -5.3
v 1.1 2.8 -7.5
v 1.2 2.8 -7.5
v 1.4 2.8 -7.7
v 3.4 2.8 -7.7
v 1.4 2.8 -7.8
v 3.4 2.8 -7.8
v 1.4 3 -5
v 3.4 3 -5
v 1.4 3 -5.1
v 3.4 3 -5.1
v 1.1 3 -5.3
v 1.2 3 -5.3
v 1.1 3 -7.5
v 1.2 3 -7.5
v 1.4 3 -7.7
v 3.4 3 -7.7
v 1.4 3 -7.8
v 3.4 3 -7.8
v 1.4 3.2 -5
v 3.4 3.2 -5
v 1.4 3.2 -5.1
v 3.4 3.2 -5.1
v 1.1 3.2 -5.3
v 1.2 3.2 -5.3
v 1.1 3.2 -7.5
v 1.2 3.2 -7.5
v 1.4 3.2 -7.7
v 3.4 3.2 -7.7
v 1.4 3.2 -7.8
v 3.4 3.2 -7.8
v 1.1 3.8 -5
v 3.7 3.8 -5
v 1.4 3.8 -5.4
v 3.4 3.8 -5.4
v 1.4 3.8 -7.4
v 3.4 3.8 -7.4
v 1.1 3.8 -7.8
v 3.7 3.8 -7.8
v 1.6 5.2 -5.6
v 3.2 5.2 -5.6
v 1.6 5.2 -7.2
v 3.2 5.2 -7.2
v 1.4 5.6 -5.4
v 3.4 5.6 -5.4
v 1.6 5.6 -5.6
v 3.2 5.6 -5.6
v 1.6 5.6 -7.2
v 3.2 5.6 -7.2
v 1.4 5.6 -7.4
v 3.4 5.6 -7.4

# faces
f 3/4/1 2/4/1 1/4/1
f 4/4/1 2/4/1 3/4/1
f 5/5/1 4/5/1 3/5/1
f 6/5/1 4/5/1 5/5/1
f 7/5/1 5/5/1 3/5/1
f 8/5/1 4/5/1 6/5/1
f 9/5/1 7/5/1 3/5/1
f 9/5/1 8/5/1 7/5/1
f 10/5/1 4/5/1 8/5/1
f 10/5/1 8/5/1 9/5/1
f 11/5/1 9/5/1 3/5/1
f 12/5/1 4/5/1 10/5/1
f 13/5/1 11/5/1 3/5/1
f 13/5/1 12/5/1 11/5/1
f 14/5/1 4/5/1 12/5/1
f 14/5/1 12/5/1 13/5/1
f 15/5/1 13/5/1 3/5/1
f 16/5/1 4/5/1 14/5/1
f 17/5/1 15/5/1 3/5/1
f 17/5/1 16/5/1 15/5/1
f 18/5/1 4/5/1 16/5/1
f 18/5/1 16/5/1 17/5/1
f 19/5/1 17/5/1 3/5/1
f 20/5/1 4/5/1 18/5/1
f 21/5/1 19/5/1 3/5/1
f 21/5/1 20/5/1 19/5/1
f 22/5/1 4/5/1 20/5/1
f 22/5/1 20/5/1 21/5/1
f 23/5/1 21/5/1 3/5/1
f 24/5/1 4/5/1 22/5/1
f 25/4/1 3/4/1 1/4/1
f 25/5/1 24/5/1 23/5/1
f 25/5/1 23/5/1 3/5/1
f 26/5/1 4/5/1 24/5/1
f 26/5/1 24/5/1 25/5/1
f 26/4/1 2/4/1 4/4/1
f 27/4/1 25/4/1 1/4/1
f 27/4/1 26/4/1 25/4/1
f 28/4/1 2/4/1 26/4/1
f 28/4/1 26/4/1 27/4/1
f 31/5/1 30/5/1 29/5/1
f 32/5/1 30/5/1 31/5/1
f 35/5/1 34/5/1 33/5/1
f 36/5/1 34/5/1 35/5/1
f 39/5/1 38/5/1 37/5/1
f 40/5/1 38/5/1 39/5/1
f 43/5/1 42/5/1 41/5/1
f 44/5/1 42/5/1 43/5/1
f 47/5/1 46/5/1 45/5/1
f 48/5/1 46/5/1 47/5/1
f 51/4/1 50/4/1 49/4/1
f 52/4/1 50/4/1 51/4/1
f 55/4/1 54/4/1 53/4/1
f 56/4/1 54/4/1 55/4/1
f 61/5/1 58/5/1 57/5/1
f 62/5/1 58/5/1 61/5/1
f 63/5/1 60/5/1 59/5/1
f 64/5/1 60/5/1 63/5/1
f 69/5/1 66/5/1 65/5/1
f 70/5/1 66/5/1 69/5/1
f 71/5/1 68/5/1 67/5/1
f 72/5/1 68/5/1 71/5/1
f 77/5/1 74/5/1 73/5/1
f 78/5/1 74/5/1 77/5/1
f 79/5/1 76/5/1 75/5/1
f 80/5/1 76/5/1 79/5/1
f 85/5/1 82/5/1 81/5/1
f 86/5/1 82/5/1 85/5/1
f 87/5/1 84/5/1 83/5/1
f 88/5/1 84/5/1 87/5/1
f 93/5/1 90/5/1 89/5/1
f 94/5/1 90/5/1 93/5/1
f 95/5/1 92/5/1 91/5/1
f 96/5/1 92/5/1 95/5/1
f 97/5/2 98/5/2 101/5/2
f 101/5/2 98/5/2 102/5/2
f 99/5/2 100/5/2 103/5/2
f 103/5/2 100/5/2 104/5/2
f 105/5/2 106/5/2 109/5/2
f 109/5/2 106/5/2 110/5/2
f 107/5/2 108/5/2 111/5/2
f 111/5/2 108/5/2 112/5/2
f 113/5/2 114/5/2 117/5/2
f 117/5/2 114/5/2 118/5/2
f 115/5/2 116/5/2 119/5/2
f 119/5/2 116/5/2 120/5/2
f 121/5/2 122/5/2 125/5/2
f 125/5/2 122/5/2 126/5/2
f 123/5/2 124/5/2 127/5/2
f 127/5/2 124/5/2 128/5/2
f 129/5/2 130/5/2 133/5/2
f 133/5/2 130/5/2 134/5/2
f 131/5/2 132/5/2 135/5/2
f 135/5/2 132/5/2 136/5/2
f 137/4/2 138/4/2 139/4/2
f 139/4/2 138/4/2 140/4/2
f 141/4/2 142/4/2 143/4/2
f 143/4/2 142/4/2 144/4/2
f 146/2/2 147/2/2 160/2/2
f 147/6/2 148/6/2 160/6/2
f 160/6/2 148/6/2 161/6/2
f 150/1/2 151/1/2 162/1/2
f 151/3/2 152/3/2 162/3/2
f 152/6/2 153/6/2 163/6/2
f 162/3/2 152/3/2 163/3/2
f 163/6/2 153/6/2 164/6/2
f 145/6/2 146/6/2 165/6/2
f 160/2/2 161/2/2 165/2/2
f 146/2/2 160/2/2 165/2/2
f 165/2/2 161/2/2 166/2/2
f 149/6/2 150/6/2 167/6/2
f 163/1/2 164/1/2 167/1/2
f 150/1/2 162/1/2 167/1/2
f 162/1/2 163/1/2 167/1/2
f 167/1/2 164/1/2 168/1/2
f 168/1/2 164/1/2 169/1/2
f 169/1/2 164/1/2 170/1/2
f 155/2/2 156/2/2 171/2/2
f 156/6/2 157/6/2 171/6/2
f 157/3/2 158/3/2 172/3/2
f 171/6/2 157/6/2 172/6/2
f 158/6/2 159/6/2 173/6/2
f 172/3/2 158/3/2 173/3/2
f 173/6/2 159/6/2 174/6/2
f 171/2/2 172/2/2 175/2/2
f 155/2/2 171/2/2 175/2/2
f 173/2/2 174/2/2 175/2/2
f 172/2/2 173/2/2 175/2/2
f 154/6/2 155/6/2 175/6/2
f 175/2/2 174/2/2 176/2/2
f 176/2/2 174/2/2 177/2/2
f 177/2/2 174/2/2 178/2/2
f 148/3/2 149/3/2 179/3/2
f 167/6/2 168/6/2 179/6/2
f 149/6/2 167/6/2 179/6/2
f 179/6/2 168/6/2 180/6/2
f 161/6/2 148/6/2 181/6/2
f 148/3/2 179/3/2 181/3/2
f 179/3/2 180/3/2 181/3/2
f 181/3/2 180/3/2 182/3/2
f 165/6/2 166/6/2 183/6/2
f 145/6/2 165/6/2 183/6/2
f 166/2/2 161/2/2 184/2/2
f 183/6/2 166/6/2 184/6/2
f 181/6/2 182/6/2 185/6/2
f 184/2/2 161/2/2 185/2/2
f 161/6/2 181/6/2 185/6/2
f 182/3/2 180/3/2 186/3/2
f 185/6/2 182/6/2 186/6/2
f 180/6/2 168/6/2 187/6/2
f 186/3/2 180/3/2 187/3/2
f 168/3/2 169/3/2 188/3/2
f 187/6/2 168/6/2 188/6/2
f 169/6/2 170/6/2 189/6/2
f 188/3/2 169/3/2 189/3/2
f 170/1/2 164/1/2 190/1/2
f 189/6/2 170/6/2 190/6/2
f 164/6/2 153/6/2 191/6/2
f 190/1/2 164/1/2 191/1/2
f 153/1/2 154/1/2 192/1/2
f 191/6/2 153/6/2 192/6/2
f 154/6/2 175/6/2 193/6/2
f 192/1/2 154/1/2 193/1/2
f 175/6/2 176/6/2 193/6/2
f 176/3/2 177/3/2 194/3/2
f 193/6/2 176/6/2 194/6/2
f 177/6/2 178/6/2 195/6/2
f 194/3/2 177/3/2 195/3/2
f 178/2/2 174/2/2 196/2/2
f 195/6/2 178/6/2 196/6/2
f 174/6/2 159/6/2 197/6/2
f 196/2/2 174/2/2 197/2/2
f 197/6/2 159/6/2 198/6/2
f 199/4/2 200/4/2 201/4/2
f 201/4/2 200/4/2 202/4/2
f 199/4/2 201/4/2 203/4/2
f 202/4/2 200/4/2 204/4/2
f 199/4/2 203/4/2 205/4/2
f 203/4/2 204/4/2 205/4/2
f 204/4/2 200/4/2 206/4/2
f 205/4/2 204/4/2 206/4/2
f 209/4/3 208/4/3 207/4/3
f 210/4/3 208/4/3 209/4/3
f 211/5/3 210/5/3 209/5/3
f 212/5/3 210/5/3 211/5/3
f 213/5/3 210/5/3 212/5/3
f 214/5/3 210/5/3 213/5/3
f 215/5/3 210/5/3 214/5/3
f 216/5/3 210/5/3 215/5/3
f 217/5/3 210/5/3 216/5/3
f 218/5/3 210/5/3 217/5/3
f 219/5/3 210/5/3 218/5/3
f 220/5/3 210/5/3 219/5/3
f 221/5/3 211/5/3 209/5/3
f 222/5/3 213/5/3 212/5/3
f 223/5/3 213/5/3 222/5/3
f 224/5/3 215/5/3 214/5/3
f 225/5/3 215/5/3 224/5/3
f 226/5/3 217/5/3 216/5/3
f 227/5/3 217/5/3 226/5/3
f 228/5/3 219/5/3 218/5/3
f 229/5/3 219/5/3 228/5/3
f 230/5/3 210/5/3 220/5/3
f 231/4/3 209/4/3 207/4/3
f 231/5/3 230/5/3 229/5/3
f 231/5/3 229/5/3 228/5/3
f 231/5/3 227/5/3 226/5/3
f 231/5/3 228/5/3 227/5/3
f 231/5/3 221/5/3 209/5/3
f 231/5/3 226/5/3 225/5/3
f 231/5/3 225/5/3 224/5/3
f 231/5/3 224/5/3 223/5/3
f 231/5/3 223/5/3 222/5/3
f 231/5/3 222/5/3 221/5/3
f 232/5/3 210/5/3 230/5/3
f 232/5/3 230/5/3 231/5/3
f 232/4/3 208/4/3 210/4/3
f 233/4/3 231/4/3 207/4/3
f 233/4/3 232/4/3 231/4/3
f 234/4/3 208/4/3 232/4/3
f 234/4/3 232/4/3 233/4/3
f 245/5/3 236/5/3 235/5/3
f 246/5/3 236/5/3 245/5/3
f 247/5/3 238/5/3 237/5/3
f 248/5/3 238/5/3 247/5/3
f 249/5/3 240/5/3 239/5/3
f 250/5/3 240/5/3 249/5/3
f 251/5/3 242/5/3 241/5/3
f 252/5/3 242/5/3 251/5/3
f 253/5/3 244/5/3 243/5/3
f 254/5/3 244/5/3 253/5/3
f 257/4/3 256/4/3 255/4/3
f 258/4/3 256/4/3 257/4/3
f 261/4/3 260/4/3 259/4/3
f 262/4/3 260/4/3 261/4/3
f 273/5/3 264/5/3 263/5/3
f 274/5/3 264/5/3 273/5/3
f 275/5/3 266/5/3 265/5/3
f 276/5/3 266/5/3 275/5/3
f 277/5/3 268/5/3 267/5/3
f 278/5/3 268/5/3 277/5/3
f 279/5/3 270/5/3 269/5/3
f 280/5/3 270/5/3 279/5/3
f 281/5/3 272/5/3 271/5/3
f 282/5/3 272/5/3 281/5/3
f 285/4/3 284/4/3 283/4/3
f 286/4/3 284/4/3 285/4/3
f 287/4/4 288/4/4 289/4/4
f 289/4/4 288/4/4 290/4/4
f 291/5/4 292/5/4 301/5/4
f 301/5/4 292/5/4 302/5/4
f 293/5/4 294/5/4 303/5/4
f 303/5/4 294/5/4 304/5/4
f 295/5/4 296/5/4 305/5/4
f 305/5/4 296/5/4 306/5/4
f 297/5/4 298/5/4 307/5/4
f 307/5/4 298/5/4 308/5/4
f 299/5/4 300/5/4 309/5/4
f 309/5/4 300/5/4 310/5/4
f 311/4/4 312/4/4 313/4/4
f 313/4/4 312/4/4 314/4/4
f 315/4/4 316/4/4 317/4/4
f 317/4/4 316/4/4 318/4/4
f 319/5/4 320/5/4 329/5/4
f 329/5/4 320/5/4 330/5/4
f 321/5/4 322/5/4 331/5/4
f 331/5/4 322/5/4 332/5/4
f 323/5/4 324/5/4 333/5/4
f 333/5/4 324/5/4 334/5/4
f 325/5/4 326/5/4 335/5/4
f 335/5/4 326/5/4 336/5/4
f 327/5/4 328/5/4 337/5/4
f 337/5/4 328/5/4 338/5/4
f 339/4/4 340/4/4 341/4/4
f 341/4/4 340/4/4 342/4/4
f 341/5/4 342/5/4 343/5/4
f 343/5/4 342/5/4 344/5/4
f 344/5/4 342/5/4 345/5/4
f 345/5/4 342/5/4 346/5/4
f 346/5/4 342/5/4 347/5/4
f 347/5/4 342/5/4 348/5/4
f 348/5/4 342/5/4 349/5/4
f 349/5/4 342/5/4 350/5/4
f 350/5/4 342/5/4 351/5/4
f 351/5/4 342/5/4 352/5/4
f 341/5/4 343/5/4 353/5/4
f 344/5/4 345/5/4 354/5/4
f 354/5/4 345/5/4 355/5/4
f 346/5/4 347/5/4 356/5/4
f 356/5/4 347/5/4 357/5/4
f 348/5/4 349/5/4 358/5/4
f 358/5/4 349/5/4 359/5/4
f 350/5/4 351/5/4 360/5/4
f 360/5/4 351/5/4 361/5/4
f 352/5/4 342/5/4 362/5/4
f 339/4/4 341/4/4 363/4/4
f 361/5/4 362/5/4 363/5/4
f 360/5/4 361/5/4 363/5/4
f 358/5/4 359/5/4 363/5/4
f 359/5/4 360/5/4 363/5/4
f 341/5/4 353/5/4 363/5/4
f 357/5/4 358/5/4 363/5/4
f 356/5/4 357/5/4 363/5/4
f 355/5/4 356/5/4 363/5/4
f 354/5/4 355/5/4 363/5/4
f 353/5/4 354/5/4 363/5/4
f 362/5/4 342/5/4 364/5/4
f 363/5/4 362/5/4 364/5/4
f 342/4/4 340/4/4 364/4/4
f 339/4/4 363/4/4 365/4/4
f 363/4/4 364/4/4 365/4/4
f 364/4/4 340/4/4 366/4/4
f 365/4/4 364/4/4 366/4/4
f 369/4/5 368/4/5 367/4/5
f 370/4/5 368/4/5 369/4/5
f 373/5/5 372/5/5 371/5/5
f 374/5/5 372/5/5 373/5/5
f 377/5/5 376/5/5 375/5/5
f 378/5/5 376/5/5 377/5/5
f 381/5/5 380/5/5 379/5/5
f 382/5/5 380/5/5 381/5/5
f 385/5/5 384/5/5 383/5/5
f 386/5/5 384/5/5 385/5/5
f 389/5/5 388/5/5 387/5/5
f 390/5/5 388/5/5 389/5/5
f 393/5/5 392/5/5 391/5/5
f 394/5/5 392/5/5 393/5/5
f 397/5/5 396/5/5 395/5/5
f 398/5/5 396/5/5 397/5/5
f 401/5/5 400/5/5 399/5/5
f 402/5/5 400/5/5 401/5/5
f 405/5/5 404/5/5 403/5/5
f 406/5/5 404/5/5 405/5/5
f 409/5/5 408/5/5 407/5/5
f 410/5/5 408/5/5 409/5/5
f 413/5/5 412/5/5 411/5/5
f 414/5/5 412/5/5 413/5/5
f 417/5/5 416/5/5 415/5/5
f 418/5/5 416/5/5 417/5/5
f 421/5/5 420/5/5 419/5/5
f 422/5/5 420/5/5 421/5/5
f 425/5/5 424/5/5 423/5/5
f 426/5/5 424/5/5 425/5/5
f 429/5/5 428/5/5 427/5/5
f 430/5/5 428/5/5 429/5/5
f 433/4/5 432/4/5 431/4/5
f 434/4/5 432/4/5 433/4/5
f 435/4/5 432/4/5 434/4/5
f 436/4/5 432/4/5 435/4/5
f 437/4/5 432/4/5 436/4/5
f 438/4/5 432/4/5 437/4/5
f 439/4/5 432/4/5 438/4/5
f 440/4/5 432/4/5 439/4/5
f 441/4/5 432/4/5 440/4/5
f 442/4/5 432/4/5 441/4/5
f 443/4/5 432/4/5 442/4/5
f 444/4/5 432/4/5 443/4/5
f 445/4/5 432/4/5 444/4/5
f 446/4/5 432/4/5 445/4/5
f 447/4/5 432/4/5 446/4/5
f 448/4/5 432/4/5 447/4/5
f 449/4/6 450/4/6 451/4/6
f 451/4/6 450/4/6 452/4/6
f 452/4/6 450/4/6 453/4/6
f 453/4/6 450/4/6 454/4/6
f 454/4/6 450/4/6 455/4/6
f 455/4/6 450/4/6 456/4/6
f 456/4/6 450/4/6 457/4/6
f 457/4/6 450/4/6 458/4/6
f 458/4/6 450/4/6 459/4/6
f 459/4/6 450/4/6 460/4/6
f 460/4/6 450/4/6 461/4/6
f 461/4/6 450/4/6 462/4/6
f 462/4/6 450/4/6 463/4/6
f 463/4/6 450/4/6 464/4/6
f 464/4/6 450/4/6 465/4/6
f 466/5/6 467/5/6 468/5/6
f 468/5/6 467/5/6 469/5/6
f 470/5/6 471/5/6 472/5/6
f 472/5/6 471/5/6 473/5/6
f 474/5/6 475/5/6 476/5/6
f 476/5/6 475/5/6 477/5/6
f 478/5/6 479/5/6 480/5/6
f 480/5/6 479/5/6 481/5/6
f 482/5/6 483/5/6 484/5/6
f 484/5/6 483/5/6 485/5/6
f 486/5/6 487/5/6 488/5/6
f 488/5/6 487/5/6 489/5/6
f 490/5/6 491/5/6 492/5/6
f 492/5/6 491/5/6 493/5/6
f 494/5/6 495/5/6 496/5/6
f 496/5/6 495/5/6 497/5/6
f 498/5/6 499/5/6 500/5/6
f 500/5/6 499/5/6 501/5/6
f 502/5/6 503/5/6 504/5/6
f 504/5/6 503/5/6 505/5/6
f 506/5/6 507/5/6 508/5/6
f 508/5/6 507/5/6 509/5/6
f 510/5/6 511/5/6 512/5/6
f 512/5/6 511/5/6 513/5/6
f 514/5/6 515/5/6 516/5/6
f 516/5/6 515/5/6 517/5/6
f 518/5/6 519/5/6 520/5/6
f 520/5/6 519/5/6 521/5/6
f 522/5/6 523/5/6 524/5/6
f 524/5/6 523/5/6 525/5/6
f 526/4/6 527/4/6 528/4/6
f 528/4/6 527/4/6 529/4/6
f 526/4/6 528/4/6 530/4/6
f 529/4/6 527/4/6 531/4/6
f 526/4/6 530/4/6 532/4/6
f 530/4/6 531/4/6 532/4/6
f 531/4/6 527/4/6 533/4/6
f 532/4/6 531/4/6 533/4/6
f 534/4/6 535/4/6 536/4/6
f 536/4/6 535/4/6 537/4/6
f 538/4/6 539/4/6 540/4/6
f 540/4/6 539/4/6 541/4/6
f 538/4/6 540/4/6 542/4/6
f 541/4/6 539/4/6 543/4/6
f 538/4/6 542/4/6 544/4/6
f 542/4/6 543/4/6 544/4/6
f 543/4/6 539/4/6 545/4/6
f 544/4/6 543/4/6 545/4/6
