# MagicaVoxel @ Ephtracy

# group
o 

# material
mtllib NoAccesSign.mtl
usemtl palette

# normals
vn -1 0 0
vn 1 0 0
vn 0 0 1
vn 0 0 -1
vn 0 -1 0
vn 0 1 0

# texcoords
vt 0.0605469 0.5
vt 0.919922 0.5
vt 0.986328 0.5

# verts
v 3.6 2 -3.8
v 3.6 2 -6.2
v 3.6 2.1 -3.8
v 3.6 2.1 -6.2
v 3.7 2 -3.7
v 3.7 2 -3.8
v 3.7 2 -6.2
v 3.7 2 -6.3
v 3.7 2.1 -3.7
v 3.7 2.1 -3.8
v 3.7 2.1 -6.2
v 3.7 2.1 -6.3
v 5.2 2 -3.7
v 5.2 2 -3.8
v 5.2 2 -6.2
v 5.2 2 -6.3
v 5.2 2.1 -3.7
v 5.2 2.1 -3.8
v 5.2 2.1 -6.2
v 5.2 2.1 -6.3
v 5.3 2 -3.8
v 5.3 2 -6.2
v 5.3 2.1 -3.8
v 5.3 2.1 -6.2
v 3.7 2 -3.7
v 3.7 2.1 -3.7
v 5.2 2 -3.7
v 5.2 2.1 -3.7
v 3.6 2 -3.8
v 3.6 2.1 -3.8
v 3.7 2 -3.8
v 3.7 2.1 -3.8
v 5.2 2 -3.8
v 5.2 2.1 -3.8
v 5.3 2 -3.8
v 5.3 2.1 -3.8
v 3.6 2 -6.2
v 3.6 2.1 -6.2
v 3.7 2 -6.2
v 3.7 2.1 -6.2
v 5.2 2 -6.2
v 5.2 2.1 -6.2
v 5.3 2 -6.2
v 5.3 2.1 -6.2
v 3.7 2 -6.3
v 3.7 2.1 -6.3
v 5.2 2 -6.3
v 5.2 2.1 -6.3
v 3.7 2 -3.7
v 5.2 2 -3.7
v 3.6 2 -3.8
v 3.7 2 -3.8
v 3.8 2 -3.8
v 5.1 2 -3.8
v 5.2 2 -3.8
v 5.3 2 -3.8
v 3.7 2 -3.9
v 3.8 2 -3.9
v 5.1 2 -3.9
v 5.2 2 -3.9
v 3.9 2 -4
v 5 2 -4
v 3.9 2 -4.1
v 5 2 -4.1
v 3.9 2 -4.2
v 5 2 -4.2
v 3.9 2 -4.3
v 5 2 -4.3
v 3.9 2 -4.4
v 5 2 -4.4
v 3.9 2 -4.5
v 5 2 -4.5
v 3.9 2 -4.6
v 5 2 -4.6
v 3.9 2 -4.7
v 5 2 -4.7
v 4.2 2 -4.9
v 4.7 2 -4.9
v 4.1 2 -5
v 4.2 2 -5
v 4.7 2 -5
v 4.8 2 -5
v 4 2 -5.1
v 4.1 2 -5.1
v 4.2 2 -5.1
v 4.8 2 -5.1
v 4.9 2 -5.1
v 3.9 2 -5.2
v 4 2 -5.2
v 4.1 2 -5.2
v 4.6 2 -5.2
v 4.7 2 -5.2
v 4.9 2 -5.2
v 5 2 -5.2
v 4.5 2 -5.3
v 4.6 2 -5.3
v 4.7 2 -5.3
v 4.4 2 -5.4
v 4.5 2 -5.4
v 4.6 2 -5.4
v 4.3 2 -5.5
v 4.4 2 -5.5
v 4.5 2 -5.5
v 4.2 2 -5.6
v 4.3 2 -5.6
v 4.4 2 -5.6
v 3.9 2 -5.7
v 4 2 -5.7
v 4.2 2 -5.7
v 4.3 2 -5.7
v 4.8 2 -5.7
v 4.9 2 -5.7
v 5 2 -5.7
v 4 2 -5.8
v 4.1 2 -5.8
v 4.7 2 -5.8
v 4.8 2 -5.8
v 4.9 2 -5.8
v 4.1 2 -5.9
v 4.2 2 -5.9
v 4.7 2 -5.9
v 4.8 2 -5.9
v 4.2 2 -6
v 4.7 2 -6
v 3.7 2 -6.1
v 3.8 2 -6.1
v 5.1 2 -6.1
v 5.2 2 -6.1
v 3.6 2 -6.2
v 3.7 2 -6.2
v 3.8 2 -6.2
v 5.1 2 -6.2
v 5.2 2 -6.2
v 5.3 2 -6.2
v 3.7 2 -6.3
v 5.2 2 -6.3
v 3.7 2.1 -3.7
v 5.2 2.1 -3.7
v 3.6 2.1 -3.8
v 3.7 2.1 -3.8
v 3.8 2.1 -3.8
v 5.1 2.1 -3.8
v 5.2 2.1 -3.8
v 5.3 2.1 -3.8
v 3.7 2.1 -3.9
v 3.8 2.1 -3.9
v 5.1 2.1 -3.9
v 5.2 2.1 -3.9
v 3.9 2.1 -4
v 5 2.1 -4
v 3.9 2.1 -4.1
v 5 2.1 -4.1
v 3.9 2.1 -4.2
v 5 2.1 -4.2
v 3.9 2.1 -4.3
v 5 2.1 -4.3
v 3.9 2.1 -4.4
v 5 2.1 -4.4
v 3.9 2.1 -4.5
v 5 2.1 -4.5
v 3.9 2.1 -4.6
v 5 2.1 -4.6
v 3.9 2.1 -4.7
v 5 2.1 -4.7
v 4.2 2.1 -4.9
v 4.7 2.1 -4.9
v 4.1 2.1 -5
v 4.2 2.1 -5
v 4.7 2.1 -5
v 4.8 2.1 -5
v 4 2.1 -5.1
v 4.1 2.1 -5.1
v 4.2 2.1 -5.1
v 4.8 2.1 -5.1
v 4.9 2.1 -5.1
v 3.9 2.1 -5.2
v 4 2.1 -5.2
v 4.1 2.1 -5.2
v 4.6 2.1 -5.2
v 4.7 2.1 -5.2
v 4.9 2.1 -5.2
v 5 2.1 -5.2
v 4.5 2.1 -5.3
v 4.6 2.1 -5.3
v 4.7 2.1 -5.3
v 4.4 2.1 -5.4
v 4.5 2.1 -5.4
v 4.6 2.1 -5.4
v 4.3 2.1 -5.5
v 4.4 2.1 -5.5
v 4.5 2.1 -5.5
v 4.2 2.1 -5.6
v 4.3 2.1 -5.6
v 4.4 2.1 -5.6
v 3.9 2.1 -5.7
v 4 2.1 -5.7
v 4.2 2.1 -5.7
v 4.3 2.1 -5.7
v 4.8 2.1 -5.7
v 4.9 2.1 -5.7
v 5 2.1 -5.7
v 4 2.1 -5.8
v 4.1 2.1 -5.8
v 4.7 2.1 -5.8
v 4.8 2.1 -5.8
v 4.9 2.1 -5.8
v 4.1 2.1 -5.9
v 4.2 2.1 -5.9
v 4.7 2.1 -5.9
v 4.8 2.1 -5.9
v 4.2 2.1 -6
v 4.7 2.1 -6
v 3.7 2.1 -6.1
v 3.8 2.1 -6.1
v 5.1 2.1 -6.1
v 5.2 2.1 -6.1
v 3.6 2.1 -6.2
v 3.7 2.1 -6.2
v 3.8 2.1 -6.2
v 5.1 2.1 -6.2
v 5.2 2.1 -6.2
v 5.3 2.1 -6.2
v 3.7 2.1 -6.3
v 5.2 2.1 -6.3

# faces
f 3/2/1 2/2/1 1/2/1
f 4/2/1 2/2/1 3/2/1
f 9/2/1 6/2/1 5/2/1
f 10/2/1 6/2/1 9/2/1
f 11/2/1 8/2/1 7/2/1
f 12/2/1 8/2/1 11/2/1
f 13/2/2 14/2/2 17/2/2
f 17/2/2 14/2/2 18/2/2
f 15/2/2 16/2/2 19/2/2
f 19/2/2 16/2/2 20/2/2
f 21/2/2 22/2/2 23/2/2
f 23/2/2 22/2/2 24/2/2
f 27/2/3 26/2/3 25/2/3
f 28/2/3 26/2/3 27/2/3
f 31/2/3 30/2/3 29/2/3
f 32/2/3 30/2/3 31/2/3
f 35/2/3 34/2/3 33/2/3
f 36/2/3 34/2/3 35/2/3
f 37/2/4 38/2/4 39/2/4
f 39/2/4 38/2/4 40/2/4
f 41/2/4 42/2/4 43/2/4
f 43/2/4 42/2/4 44/2/4
f 45/2/4 46/2/4 47/2/4
f 47/2/4 46/2/4 48/2/4
f 52/2/5 50/2/5 49/2/5
f 53/2/5 50/2/5 52/2/5
f 54/2/5 50/2/5 53/2/5
f 55/2/5 50/2/5 54/2/5
f 57/2/5 52/2/5 51/2/5
f 57/2/5 53/2/5 52/2/5
f 58/1/5 54/1/5 53/1/5
f 58/2/5 53/2/5 57/2/5
f 59/2/5 56/2/5 55/2/5
f 59/1/5 54/1/5 58/1/5
f 59/2/5 55/2/5 54/2/5
f 60/2/5 56/2/5 59/2/5
f 61/2/5 59/2/5 58/2/5
f 62/2/5 59/2/5 61/2/5
f 63/2/5 61/2/5 58/2/5
f 63/3/5 62/3/5 61/3/5
f 64/2/5 59/2/5 62/2/5
f 64/3/5 62/3/5 63/3/5
f 65/2/5 63/2/5 58/2/5
f 65/2/5 64/2/5 63/2/5
f 66/2/5 59/2/5 64/2/5
f 66/2/5 64/2/5 65/2/5
f 67/2/5 65/2/5 58/2/5
f 67/3/5 66/3/5 65/3/5
f 68/2/5 59/2/5 66/2/5
f 68/3/5 66/3/5 67/3/5
f 69/2/5 67/2/5 58/2/5
f 69/2/5 68/2/5 67/2/5
f 70/2/5 59/2/5 68/2/5
f 70/2/5 68/2/5 69/2/5
f 71/2/5 69/2/5 58/2/5
f 71/3/5 70/3/5 69/3/5
f 72/2/5 59/2/5 70/2/5
f 72/3/5 70/3/5 71/3/5
f 73/2/5 71/2/5 58/2/5
f 73/2/5 72/2/5 71/2/5
f 74/2/5 59/2/5 72/2/5
f 74/2/5 72/2/5 73/2/5
f 75/2/5 73/2/5 58/2/5
f 75/3/5 74/3/5 73/3/5
f 76/2/5 59/2/5 74/2/5
f 76/3/5 74/3/5 75/3/5
f 77/2/5 76/2/5 75/2/5
f 78/2/5 76/2/5 77/2/5
f 79/2/5 77/2/5 75/2/5
f 80/1/5 78/1/5 77/1/5
f 80/2/5 77/2/5 79/2/5
f 81/2/5 76/2/5 78/2/5
f 81/1/5 78/1/5 80/1/5
f 82/2/5 76/2/5 81/2/5
f 83/2/5 79/2/5 75/2/5
f 84/1/5 80/1/5 79/1/5
f 84/2/5 79/2/5 83/2/5
f 85/2/5 81/2/5 80/2/5
f 85/1/5 80/1/5 84/1/5
f 86/2/5 76/2/5 82/2/5
f 86/1/5 82/1/5 81/1/5
f 87/2/5 76/2/5 86/2/5
f 88/2/5 75/2/5 58/2/5
f 88/2/5 83/2/5 75/2/5
f 89/1/5 84/1/5 83/1/5
f 89/2/5 83/2/5 88/2/5
f 90/2/5 85/2/5 84/2/5
f 90/1/5 84/1/5 89/1/5
f 91/2/5 81/2/5 85/2/5
f 91/2/5 85/2/5 90/2/5
f 92/1/5 87/1/5 86/1/5
f 92/2/5 81/2/5 91/2/5
f 92/1/5 86/1/5 81/1/5
f 93/2/5 76/2/5 87/2/5
f 93/1/5 87/1/5 92/1/5
f 94/2/5 59/2/5 76/2/5
f 94/2/5 76/2/5 93/2/5
f 95/2/5 91/2/5 90/2/5
f 95/2/5 90/2/5 89/2/5
f 96/1/5 92/1/5 91/1/5
f 96/2/5 91/2/5 95/2/5
f 97/2/5 93/2/5 92/2/5
f 97/1/5 92/1/5 96/1/5
f 98/2/5 95/2/5 89/2/5
f 99/1/5 96/1/5 95/1/5
f 99/2/5 95/2/5 98/2/5
f 100/2/5 97/2/5 96/2/5
f 100/1/5 96/1/5 99/1/5
f 101/2/5 98/2/5 89/2/5
f 102/1/5 99/1/5 98/1/5
f 102/2/5 98/2/5 101/2/5
f 103/2/5 100/2/5 99/2/5
f 103/1/5 99/1/5 102/1/5
f 104/2/5 101/2/5 89/2/5
f 105/1/5 102/1/5 101/1/5
f 105/2/5 101/2/5 104/2/5
f 106/2/5 103/2/5 102/2/5
f 106/1/5 102/1/5 105/1/5
f 107/2/5 88/2/5 58/2/5
f 107/1/5 89/1/5 88/1/5
f 108/2/5 104/2/5 89/2/5
f 108/1/5 89/1/5 107/1/5
f 109/1/5 105/1/5 104/1/5
f 109/2/5 104/2/5 108/2/5
f 110/2/5 106/2/5 105/2/5
f 110/1/5 105/1/5 109/1/5
f 111/2/5 93/2/5 97/2/5
f 111/2/5 106/2/5 110/2/5
f 111/2/5 97/2/5 100/2/5
f 111/2/5 103/2/5 106/2/5
f 111/2/5 100/2/5 103/2/5
f 112/1/5 94/1/5 93/1/5
f 112/2/5 93/2/5 111/2/5
f 113/2/5 59/2/5 94/2/5
f 113/1/5 94/1/5 112/1/5
f 114/2/5 108/2/5 107/2/5
f 114/1/5 109/1/5 108/1/5
f 115/1/5 109/1/5 114/1/5
f 116/2/5 110/2/5 109/2/5
f 116/2/5 111/2/5 110/2/5
f 117/1/5 112/1/5 111/1/5
f 117/2/5 111/2/5 116/2/5
f 118/2/5 113/2/5 112/2/5
f 118/1/5 112/1/5 117/1/5
f 119/1/5 109/1/5 115/1/5
f 119/2/5 115/2/5 114/2/5
f 120/2/5 116/2/5 109/2/5
f 120/1/5 109/1/5 119/1/5
f 121/1/5 117/1/5 116/1/5
f 121/2/5 116/2/5 120/2/5
f 122/2/5 118/2/5 117/2/5
f 122/1/5 117/1/5 121/1/5
f 123/1/5 121/1/5 120/1/5
f 123/2/5 120/2/5 119/2/5
f 124/2/5 122/2/5 121/2/5
f 124/1/5 121/1/5 123/1/5
f 125/1/5 58/1/5 57/1/5
f 125/2/5 57/2/5 51/2/5
f 126/2/5 124/2/5 123/2/5
f 126/1/5 58/1/5 125/1/5
f 126/2/5 119/2/5 114/2/5
f 126/2/5 114/2/5 107/2/5
f 126/2/5 123/2/5 119/2/5
f 126/2/5 107/2/5 58/2/5
f 127/2/5 122/2/5 124/2/5
f 127/2/5 124/2/5 126/2/5
f 127/1/5 60/1/5 59/1/5
f 127/2/5 118/2/5 122/2/5
f 127/2/5 59/2/5 113/2/5
f 127/2/5 113/2/5 118/2/5
f 128/2/5 56/2/5 60/2/5
f 128/1/5 60/1/5 127/1/5
f 129/2/5 126/2/5 125/2/5
f 129/2/5 125/2/5 51/2/5
f 130/2/5 126/2/5 129/2/5
f 131/1/5 127/1/5 126/1/5
f 131/2/5 126/2/5 130/2/5
f 132/2/5 128/2/5 127/2/5
f 132/1/5 127/1/5 131/1/5
f 133/2/5 56/2/5 128/2/5
f 133/2/5 128/2/5 132/2/5
f 134/2/5 56/2/5 133/2/5
f 135/2/5 132/2/5 131/2/5
f 135/2/5 131/2/5 130/2/5
f 135/2/5 133/2/5 132/2/5
f 136/2/5 133/2/5 135/2/5
f 137/2/6 138/2/6 140/2/6
f 140/2/6 138/2/6 141/2/6
f 141/2/6 138/2/6 142/2/6
f 142/2/6 138/2/6 143/2/6
f 139/2/6 140/2/6 145/2/6
f 140/2/6 141/2/6 145/2/6
f 141/1/6 142/1/6 146/1/6
f 145/2/6 141/2/6 146/2/6
f 143/2/6 144/2/6 147/2/6
f 146/1/6 142/1/6 147/1/6
f 142/2/6 143/2/6 147/2/6
f 147/2/6 144/2/6 148/2/6
f 146/2/6 147/2/6 149/2/6
f 149/2/6 147/2/6 150/2/6
f 146/2/6 149/2/6 151/2/6
f 149/3/6 150/3/6 151/3/6
f 150/2/6 147/2/6 152/2/6
f 151/3/6 150/3/6 152/3/6
f 146/2/6 151/2/6 153/2/6
f 151/2/6 152/2/6 153/2/6
f 152/2/6 147/2/6 154/2/6
f 153/2/6 152/2/6 154/2/6
f 146/2/6 153/2/6 155/2/6
f 153/3/6 154/3/6 155/3/6
f 154/2/6 147/2/6 156/2/6
f 155/3/6 154/3/6 156/3/6
f 146/2/6 155/2/6 157/2/6
f 155/2/6 156/2/6 157/2/6
f 156/2/6 147/2/6 158/2/6
f 157/2/6 156/2/6 158/2/6
f 146/2/6 157/2/6 159/2/6
f 157/3/6 158/3/6 159/3/6
f 158/2/6 147/2/6 160/2/6
f 159/3/6 158/3/6 160/3/6
f 146/2/6 159/2/6 161/2/6
f 159/2/6 160/2/6 161/2/6
f 160/2/6 147/2/6 162/2/6
f 161/2/6 160/2/6 162/2/6
f 146/2/6 161/2/6 163/2/6
f 161/3/6 162/3/6 163/3/6
f 162/2/6 147/2/6 164/2/6
f 163/3/6 162/3/6 164/3/6
f 163/2/6 164/2/6 165/2/6
f 165/2/6 164/2/6 166/2/6
f 163/2/6 165/2/6 167/2/6
f 165/1/6 166/1/6 168/1/6
f 167/2/6 165/2/6 168/2/6
f 166/2/6 164/2/6 169/2/6
f 168/1/6 166/1/6 169/1/6
f 169/2/6 164/2/6 170/2/6
f 163/2/6 167/2/6 171/2/6
f 167/1/6 168/1/6 172/1/6
f 171/2/6 167/2/6 172/2/6
f 168/2/6 169/2/6 173/2/6
f 172/1/6 168/1/6 173/1/6
f 170/2/6 164/2/6 174/2/6
f 169/1/6 170/1/6 174/1/6
f 174/2/6 164/2/6 175/2/6
f 146/2/6 163/2/6 176/2/6
f 163/2/6 171/2/6 176/2/6
f 171/1/6 172/1/6 177/1/6
f 176/2/6 171/2/6 177/2/6
f 172/2/6 173/2/6 178/2/6
f 177/1/6 172/1/6 178/1/6
f 173/2/6 169/2/6 179/2/6
f 178/2/6 173/2/6 179/2/6
f 174/1/6 175/1/6 180/1/6
f 179/2/6 169/2/6 180/2/6
f 169/1/6 174/1/6 180/1/6
f 175/2/6 164/2/6 181/2/6
f 180/1/6 175/1/6 181/1/6
f 164/2/6 147/2/6 182/2/6
f 181/2/6 164/2/6 182/2/6
f 178/2/6 179/2/6 183/2/6
f 177/2/6 178/2/6 183/2/6
f 179/1/6 180/1/6 184/1/6
f 183/2/6 179/2/6 184/2/6
f 180/2/6 181/2/6 185/2/6
f 184/1/6 180/1/6 185/1/6
f 177/2/6 183/2/6 186/2/6
f 183/1/6 184/1/6 187/1/6
f 186/2/6 183/2/6 187/2/6
f 184/2/6 185/2/6 188/2/6
f 187/1/6 184/1/6 188/1/6
f 177/2/6 186/2/6 189/2/6
f 186/1/6 187/1/6 190/1/6
f 189/2/6 186/2/6 190/2/6
f 187/2/6 188/2/6 191/2/6
f 190/1/6 187/1/6 191/1/6
f 177/2/6 189/2/6 192/2/6
f 189/1/6 190/1/6 193/1/6
f 192/2/6 189/2/6 193/2/6
f 190/2/6 191/2/6 194/2/6
f 193/1/6 190/1/6 194/1/6
f 146/2/6 176/2/6 195/2/6
f 176/1/6 177/1/6 195/1/6
f 177/2/6 192/2/6 196/2/6
f 195/1/6 177/1/6 196/1/6
f 192/1/6 193/1/6 197/1/6
f 196/2/6 192/2/6 197/2/6
f 193/2/6 194/2/6 198/2/6
f 197/1/6 193/1/6 198/1/6
f 185/2/6 181/2/6 199/2/6
f 198/2/6 194/2/6 199/2/6
f 188/2/6 185/2/6 199/2/6
f 194/2/6 191/2/6 199/2/6
f 191/2/6 188/2/6 199/2/6
f 181/1/6 182/1/6 200/1/6
f 199/2/6 181/2/6 200/2/6
f 182/2/6 147/2/6 201/2/6
f 200/1/6 182/1/6 201/1/6
f 195/2/6 196/2/6 202/2/6
f 196/1/6 197/1/6 202/1/6
f 202/1/6 197/1/6 203/1/6
f 197/2/6 198/2/6 204/2/6
f 198/2/6 199/2/6 204/2/6
f 199/1/6 200/1/6 205/1/6
f 204/2/6 199/2/6 205/2/6
f 200/2/6 201/2/6 206/2/6
f 205/1/6 200/1/6 206/1/6
f 203/1/6 197/1/6 207/1/6
f 202/2/6 203/2/6 207/2/6
f 197/2/6 204/2/6 208/2/6
f 207/1/6 197/1/6 208/1/6
f 204/1/6 205/1/6 209/1/6
f 208/2/6 204/2/6 209/2/6
f 205/2/6 206/2/6 210/2/6
f 209/1/6 205/1/6 210/1/6
f 208/1/6 209/1/6 211/1/6
f 207/2/6 208/2/6 211/2/6
f 209/2/6 210/2/6 212/2/6
f 211/1/6 209/1/6 212/1/6
f 145/1/6 146/1/6 213/1/6
f 139/2/6 145/2/6 213/2/6
f 211/2/6 212/2/6 214/2/6
f 213/1/6 146/1/6 214/1/6
f 202/2/6 207/2/6 214/2/6
f 195/2/6 202/2/6 214/2/6
f 207/2/6 211/2/6 214/2/6
f 146/2/6 195/2/6 214/2/6
f 212/2/6 210/2/6 215/2/6
f 214/2/6 212/2/6 215/2/6
f 147/1/6 148/1/6 215/1/6
f 210/2/6 206/2/6 215/2/6
f 201/2/6 147/2/6 215/2/6
f 206/2/6 201/2/6 215/2/6
f 148/2/6 144/2/6 216/2/6
f 215/1/6 148/1/6 216/1/6
f 213/2/6 214/2/6 217/2/6
f 139/2/6 213/2/6 217/2/6
f 217/2/6 214/2/6 218/2/6
f 214/1/6 215/1/6 219/1/6
f 218/2/6 214/2/6 219/2/6
f 215/2/6 216/2/6 220/2/6
f 219/1/6 215/1/6 220/1/6
f 216/2/6 144/2/6 221/2/6
f 220/2/6 216/2/6 221/2/6
f 221/2/6 144/2/6 222/2/6
f 219/2/6 220/2/6 223/2/6
f 218/2/6 219/2/6 223/2/6
f 220/2/6 221/2/6 223/2/6
f 223/2/6 221/2/6 224/2/6
