# MagicaVoxel @ Ephtracy

# group
o 

# material
mtllib StepRailing.mtl
usemtl palette

# normals
vn -1 0 0
vn 1 0 0
vn 0 0 1
vn 0 0 -1
vn 0 -1 0
vn 0 1 0

# texcoords
vt 0.978516 0.5
vt 0.982422 0.5

# verts
v 4.6 2.3 -7.3
v 4.6 2.3 -7.4
v 4.6 2.6 -7.3
v 4.6 2.6 -7.4
v 4.7 2.5 -7.1
v 4.7 2.5 -7.3
v 4.7 2.6 -7.3
v 4.7 4.6 -7.1
v 4.7 4.6 -7.3
v 4.7 4.9 -7.1
v 4.7 4.9 -7.3
v 6.3 2.5 -7.1
v 6.3 2.5 -7.3
v 6.3 2.6 -7.3
v 6.3 4.6 -7.1
v 6.3 4.6 -7.3
v 6.3 4.7 -7.1
v 6.3 4.7 -7.3
v 4.9 2.5 -7.1
v 4.9 2.5 -7.3
v 4.9 2.6 -7.3
v 4.9 4.6 -7.1
v 4.9 4.6 -7.3
v 4.9 4.7 -7.1
v 4.9 4.7 -7.3
v 6.5 2.5 -7.1
v 6.5 2.5 -7.3
v 6.5 2.6 -7.3
v 6.5 4.6 -7.1
v 6.5 4.6 -7.3
v 6.5 4.9 -7.1
v 6.5 4.9 -7.3
v 6.6 2.3 -7.3
v 6.6 2.3 -7.4
v 6.6 2.6 -7.3
v 6.6 2.6 -7.4
v 4.7 2.5 -7.1
v 4.7 4.6 -7.1
v 4.7 4.9 -7.1
v 4.9 2.5 -7.1
v 4.9 4.6 -7.1
v 4.9 4.7 -7.1
v 5 4.7 -7.1
v 5 4.9 -7.1
v 6.2 4.7 -7.1
v 6.2 4.9 -7.1
v 6.3 2.5 -7.1
v 6.3 4.6 -7.1
v 6.3 4.7 -7.1
v 6.5 2.5 -7.1
v 6.5 4.6 -7.1
v 6.5 4.9 -7.1
v 4.6 2.3 -7.3
v 4.6 2.6 -7.3
v 4.7 2.5 -7.3
v 4.7 2.6 -7.3
v 4.9 2.5 -7.3
v 4.9 2.6 -7.3
v 6.3 2.5 -7.3
v 6.3 2.6 -7.3
v 6.5 2.5 -7.3
v 6.5 2.6 -7.3
v 6.6 2.3 -7.3
v 6.6 2.6 -7.3
v 4.7 2.6 -7.3
v 4.7 4.6 -7.3
v 4.7 4.9 -7.3
v 4.9 2.6 -7.3
v 4.9 4.6 -7.3
v 4.9 4.7 -7.3
v 5 4.7 -7.3
v 5 4.9 -7.3
v 6.2 4.7 -7.3
v 6.2 4.9 -7.3
v 6.3 2.6 -7.3
v 6.3 4.6 -7.3
v 6.3 4.7 -7.3
v 6.5 2.6 -7.3
v 6.5 4.6 -7.3
v 6.5 4.9 -7.3
v 4.6 2.3 -7.4
v 4.6 2.6 -7.4
v 6.6 2.3 -7.4
v 6.6 2.6 -7.4
v 4.6 2.3 -7.3
v 6.6 2.3 -7.3
v 4.6 2.3 -7.4
v 6.6 2.3 -7.4
v 4.7 2.5 -7.1
v 4.9 2.5 -7.1
v 6.3 2.5 -7.1
v 6.5 2.5 -7.1
v 4.7 2.5 -7.3
v 4.9 2.5 -7.3
v 6.3 2.5 -7.3
v 6.5 2.5 -7.3
v 4.9 4.7 -7.1
v 5 4.7 -7.1
v 6.2 4.7 -7.1
v 6.3 4.7 -7.1
v 4.9 4.7 -7.3
v 5 4.7 -7.3
v 6.2 4.7 -7.3
v 6.3 4.7 -7.3
v 4.6 2.6 -7.3
v 4.7 2.6 -7.3
v 4.9 2.6 -7.3
v 6.3 2.6 -7.3
v 6.5 2.6 -7.3
v 6.6 2.6 -7.3
v 4.6 2.6 -7.4
v 6.6 2.6 -7.4
v 4.7 4.9 -7.1
v 5 4.9 -7.1
v 6.2 4.9 -7.1
v 6.5 4.9 -7.1
v 4.7 4.9 -7.3
v 5 4.9 -7.3
v 6.2 4.9 -7.3
v 6.5 4.9 -7.3

# faces
f 3/1/1 2/1/1 1/1/1
f 4/1/1 2/1/1 3/1/1
f 7/1/1 6/1/1 5/1/1
f 8/1/1 7/1/1 5/1/1
f 9/1/1 7/1/1 8/1/1
f 10/2/1 9/2/1 8/2/1
f 11/2/1 9/2/1 10/2/1
f 14/1/1 13/1/1 12/1/1
f 15/1/1 14/1/1 12/1/1
f 16/1/1 14/1/1 15/1/1
f 17/2/1 16/2/1 15/2/1
f 18/2/1 16/2/1 17/2/1
f 19/1/2 20/1/2 21/1/2
f 19/1/2 21/1/2 22/1/2
f 22/1/2 21/1/2 23/1/2
f 22/2/2 23/2/2 24/2/2
f 24/2/2 23/2/2 25/2/2
f 26/1/2 27/1/2 28/1/2
f 26/1/2 28/1/2 29/1/2
f 29/1/2 28/1/2 30/1/2
f 29/2/2 30/2/2 31/2/2
f 31/2/2 30/2/2 32/2/2
f 33/1/2 34/1/2 35/1/2
f 35/1/2 34/1/2 36/1/2
f 40/1/3 38/1/3 37/1/3
f 41/2/3 39/2/3 38/2/3
f 41/1/3 38/1/3 40/1/3
f 42/2/3 39/2/3 41/2/3
f 43/2/3 39/2/3 42/2/3
f 44/2/3 39/2/3 43/2/3
f 45/1/3 44/1/3 43/1/3
f 46/1/3 44/1/3 45/1/3
f 49/2/3 46/2/3 45/2/3
f 50/1/3 48/1/3 47/1/3
f 51/2/3 49/2/3 48/2/3
f 51/1/3 48/1/3 50/1/3
f 52/2/3 46/2/3 49/2/3
f 52/2/3 49/2/3 51/2/3
f 55/1/3 54/1/3 53/1/3
f 56/1/3 54/1/3 55/1/3
f 57/1/3 55/1/3 53/1/3
f 59/1/3 57/1/3 53/1/3
f 59/1/3 58/1/3 57/1/3
f 60/1/3 58/1/3 59/1/3
f 61/1/3 59/1/3 53/1/3
f 63/1/3 61/1/3 53/1/3
f 63/1/3 62/1/3 61/1/3
f 64/1/3 62/1/3 63/1/3
f 65/1/4 66/1/4 68/1/4
f 66/2/4 67/2/4 69/2/4
f 68/1/4 66/1/4 69/1/4
f 69/2/4 67/2/4 70/2/4
f 70/2/4 67/2/4 71/2/4
f 71/2/4 67/2/4 72/2/4
f 71/1/4 72/1/4 73/1/4
f 73/1/4 72/1/4 74/1/4
f 73/2/4 74/2/4 77/2/4
f 75/1/4 76/1/4 78/1/4
f 76/2/4 77/2/4 79/2/4
f 78/1/4 76/1/4 79/1/4
f 77/2/4 74/2/4 80/2/4
f 79/2/4 77/2/4 80/2/4
f 81/1/4 82/1/4 83/1/4
f 83/1/4 82/1/4 84/1/4
f 87/1/5 86/1/5 85/1/5
f 88/1/5 86/1/5 87/1/5
f 93/1/5 90/1/5 89/1/5
f 94/1/5 90/1/5 93/1/5
f 95/1/5 92/1/5 91/1/5
f 96/1/5 92/1/5 95/1/5
f 101/2/5 98/2/5 97/2/5
f 102/1/5 99/1/5 98/1/5
f 102/2/5 98/2/5 101/2/5
f 103/2/5 100/2/5 99/2/5
f 103/1/5 99/1/5 102/1/5
f 104/2/5 100/2/5 103/2/5
f 105/1/6 106/1/6 111/1/6
f 109/1/6 110/1/6 111/1/6
f 108/1/6 109/1/6 111/1/6
f 107/1/6 108/1/6 111/1/6
f 106/1/6 107/1/6 111/1/6
f 111/1/6 110/1/6 112/1/6
f 113/2/6 114/2/6 117/2/6
f 114/1/6 115/1/6 118/1/6
f 117/2/6 114/2/6 118/2/6
f 115/2/6 116/2/6 119/2/6
f 118/1/6 115/1/6 119/1/6
f 119/2/6 116/2/6 120/2/6
