# MagicaVoxel @ Ephtracy

# group
o 

# material
mtllib Table.mtl
usemtl palette

# normals
vn -1 0 0
vn 1 0 0
vn 0 0 1
vn 0 0 -1
vn 0 -1 0
vn 0 1 0

# texcoords
vt 0.115234 0.5
vt 0.306641 0.5
vt 0.587891 0.5
vt 0.685547 0.5
vt 0.978516 0.5

# verts
v 1.1 2 -7.5
v 1.1 2 -7.7
v 1.1 2 -10.1
v 1.1 2 -10.3
v 1.1 3.4 -7.7
v 1.1 3.4 -10.1
v 1.1 3.6 -7.7
v 1.1 3.6 -10.1
v 1.1 3.8 -7.5
v 1.1 3.8 -7.7
v 1.1 3.8 -10.1
v 1.1 3.8 -10.3
v 2 2 -10.3
v 2 2 -11.8
v 2 2.1 -10.4
v 2 2.1 -11.8
v 2 3.4 -10.3
v 2 3.6 -9.9
v 2 3.6 -10.3
v 2 3.7 -9.9
v 2 3.7 -10.4
v 2.1 3.6 -9.3
v 2.1 3.6 -9.9
v 2.1 3.7 -9.3
v 2.1 3.7 -9.9
v 2.3 3.6 -9
v 2.3 3.6 -10.1
v 2.3 3.7 -9
v 2.3 3.7 -10.1
v 2.5 3.6 -8.8
v 2.5 3.6 -9.9
v 2.5 3.7 -8.8
v 2.5 3.7 -9.9
v 2.6 2 -10.3
v 2.6 2 -10.7
v 2.6 2.1 -10.4
v 2.6 2.1 -10.7
v 2.6 3.4 -10.3
v 2.6 3.6 -10.1
v 2.6 3.6 -10.3
v 2.6 3.7 -10.1
v 2.6 3.7 -10.4
v 2.7 2 -10.7
v 2.7 2 -11.8
v 2.7 2.1 -10.7
v 2.7 2.1 -11.8
v 2.7 3.6 -8.5
v 2.7 3.6 -9.8
v 2.7 3.7 -8.5
v 2.7 3.7 -9.8
v 2.9 2 -10.6
v 2.9 2 -11.8
v 2.9 2.1 -10.6
v 2.9 2.1 -11.8
v 2.9 3.6 -9.9
v 2.9 3.6 -10.1
v 2.9 3.7 -9.9
v 2.9 3.7 -10.1
v 3.3 2 -10.3
v 3.3 2 -10.6
v 3.3 2.1 -10.4
v 3.3 2.1 -10.6
v 3.3 3.4 -10.3
v 3.3 3.6 -10.1
v 3.3 3.6 -10.3
v 3.3 3.7 -10.1
v 3.3 3.7 -10.4
v 3.7 3.6 -9.8
v 3.7 3.6 -10.2
v 3.7 3.7 -9.8
v 3.7 3.7 -10.2
v 4.7 2 -10.3
v 4.7 2 -11.8
v 4.7 2.1 -10.4
v 4.7 2.1 -11.8
v 4.7 3.4 -10.3
v 4.7 3.6 -10.2
v 4.7 3.6 -10.3
v 4.7 3.7 -10.2
v 4.7 3.7 -10.4
v 6.9 2 -7.5
v 6.9 2 -7.7
v 6.9 2 -10.1
v 6.9 2 -10.3
v 6.9 3.4 -7.5
v 6.9 3.4 -7.7
v 6.9 3.4 -10.1
v 6.9 3.4 -10.3
v 6.9 3.6 -7.5
v 6.9 3.6 -7.7
v 6.9 3.6 -10.1
v 6.9 3.6 -10.3
v 6.9 3.8 -7.5
v 6.9 3.8 -7.7
v 6.9 3.8 -10.1
v 6.9 3.8 -10.3
v 1.3 2 -7.5
v 1.3 2 -7.7
v 1.3 2 -10.1
v 1.3 2 -10.3
v 1.3 3.4 -7.5
v 1.3 3.4 -7.7
v 1.3 3.4 -10.1
v 1.3 3.4 -10.3
v 1.3 3.6 -7.5
v 1.3 3.6 -7.7
v 1.3 3.6 -10.1
v 1.3 3.6 -10.3
v 1.3 3.8 -7.5
v 1.3 3.8 -7.7
v 1.3 3.8 -10.1
v 1.3 3.8 -10.3
v 2.1 2 -10.3
v 2.1 2 -11.8
v 2.1 2.1 -10.4
v 2.1 2.1 -11.8
v 2.1 3.4 -10.3
v 2.1 3.6 -10
v 2.1 3.6 -10.3
v 2.1 3.7 -10
v 2.1 3.7 -10.4
v 2.2 3.6 -9.3
v 2.2 3.6 -10
v 2.2 3.7 -9.3
v 2.2 3.7 -10
v 2.4 3.6 -9
v 2.4 3.6 -10
v 2.4 3.7 -9
v 2.4 3.7 -10
v 2.6 3.6 -8.8
v 2.6 3.6 -9.8
v 2.6 3.7 -8.8
v 2.6 3.7 -9.8
v 2.7 2 -10.3
v 2.7 2 -10.6
v 2.7 2.1 -10.4
v 2.7 2.1 -10.6
v 2.7 3.4 -10.3
v 2.7 3.6 -10
v 2.7 3.6 -10.3
v 2.7 3.7 -10
v 2.7 3.7 -10.4
v 2.8 2 -10.6
v 2.8 2 -11.8
v 2.8 2.1 -10.6
v 2.8 2.1 -11.8
v 2.8 3.6 -8.5
v 2.8 3.6 -9.7
v 2.8 3.7 -8.5
v 2.8 3.7 -9.7
v 3 2 -10.7
v 3 2 -11.8
v 3 2.1 -10.7
v 3 2.1 -11.8
v 3 3.6 -9.8
v 3 3.6 -10
v 3 3.7 -9.8
v 3 3.7 -10
v 3.4 2 -10.3
v 3.4 2 -10.7
v 3.4 2.1 -10.4
v 3.4 2.1 -10.7
v 3.4 3.4 -10.3
v 3.4 3.6 -10
v 3.4 3.6 -10.3
v 3.4 3.7 -10
v 3.4 3.7 -10.4
v 3.8 3.6 -9.7
v 3.8 3.6 -10.1
v 3.8 3.7 -9.7
v 3.8 3.7 -10.1
v 4.8 2 -10.3
v 4.8 2 -11.8
v 4.8 2.1 -10.4
v 4.8 2.1 -11.8
v 4.8 3.4 -10.3
v 4.8 3.6 -10.1
v 4.8 3.6 -10.3
v 4.8 3.7 -10.1
v 4.8 3.7 -10.4
v 7.1 2 -7.5
v 7.1 2 -7.7
v 7.1 2 -10.1
v 7.1 2 -10.3
v 7.1 3.4 -7.7
v 7.1 3.4 -10.1
v 7.1 3.6 -7.7
v 7.1 3.6 -10.1
v 7.1 3.8 -7.5
v 7.1 3.8 -7.7
v 7.1 3.8 -10.1
v 7.1 3.8 -10.3
v 1.1 2 -7.5
v 1.1 3.8 -7.5
v 1.3 2 -7.5
v 1.3 3.4 -7.5
v 1.3 3.6 -7.5
v 1.3 3.8 -7.5
v 6.9 2 -7.5
v 6.9 3.4 -7.5
v 6.9 3.6 -7.5
v 6.9 3.8 -7.5
v 7.1 2 -7.5
v 7.1 3.8 -7.5
v 2.7 3.6 -8.5
v 2.7 3.7 -8.5
v 2.8 3.6 -8.5
v 2.8 3.7 -8.5
v 2.5 3.6 -8.8
v 2.5 3.7 -8.8
v 2.6 3.6 -8.8
v 2.6 3.7 -8.8
v 2.3 3.6 -9
v 2.3 3.7 -9
v 2.4 3.6 -9
v 2.4 3.7 -9
v 2.1 3.6 -9.3
v 2.1 3.7 -9.3
v 2.2 3.6 -9.3
v 2.2 3.7 -9.3
v 2.8 3.6 -9.7
v 2.8 3.7 -9.7
v 3.8 3.6 -9.7
v 3.8 3.7 -9.7
v 2.6 3.6 -9.8
v 2.6 3.7 -9.8
v 2.7 3.6 -9.8
v 2.7 3.7 -9.8
v 2 3.6 -9.9
v 2 3.7 -9.9
v 2.1 3.6 -9.9
v 2.1 3.7 -9.9
v 2.4 3.6 -10
v 2.4 3.7 -10
v 2.7 3.6 -10
v 2.7 3.7 -10
v 3 3.6 -10
v 3 3.7 -10
v 3.4 3.6 -10
v 3.4 3.7 -10
v 1.1 2 -10.1
v 1.1 3.4 -10.1
v 1.1 3.6 -10.1
v 1.1 3.8 -10.1
v 1.3 2 -10.1
v 1.3 3.4 -10.1
v 1.3 3.6 -10.1
v 1.3 3.8 -10.1
v 3.8 3.6 -10.1
v 3.8 3.7 -10.1
v 4.8 3.6 -10.1
v 4.8 3.7 -10.1
v 6.9 2 -10.1
v 6.9 3.4 -10.1
v 6.9 3.6 -10.1
v 6.9 3.8 -10.1
v 7.1 2 -10.1
v 7.1 3.4 -10.1
v 7.1 3.6 -10.1
v 7.1 3.8 -10.1
v 2 2 -10.3
v 2 3.4 -10.3
v 2.1 2 -10.3
v 2.1 3.4 -10.3
v 2.6 2 -10.3
v 2.6 3.4 -10.3
v 2.7 2 -10.3
v 2.7 3.4 -10.3
v 3.3 2 -10.3
v 3.3 3.4 -10.3
v 3.4 2 -10.3
v 3.4 3.4 -10.3
v 4.7 2 -10.3
v 4.7 3.4 -10.3
v 4.8 2 -10.3
v 4.8 3.4 -10.3
v 2.7 2 -10.6
v 2.7 2.1 -10.6
v 2.8 2 -10.6
v 2.8 2.1 -10.6
v 2.9 2 -10.6
v 2.9 2.1 -10.6
v 3.3 2 -10.6
v 3.3 2.1 -10.6
v 1.1 2 -7.7
v 1.1 3.4 -7.7
v 1.1 3.6 -7.7
v 1.1 3.8 -7.7
v 1.3 2 -7.7
v 1.3 3.4 -7.7
v 1.3 3.6 -7.7
v 1.3 3.8 -7.7
v 6.9 2 -7.7
v 6.9 3.4 -7.7
v 6.9 3.6 -7.7
v 6.9 3.8 -7.7
v 7.1 2 -7.7
v 7.1 3.4 -7.7
v 7.1 3.6 -7.7
v 7.1 3.8 -7.7
v 3 3.6 -9.8
v 3 3.7 -9.8
v 3.7 3.6 -9.8
v 3.7 3.7 -9.8
v 2.5 3.6 -9.9
v 2.5 3.7 -9.9
v 2.9 3.6 -9.9
v 2.9 3.7 -9.9
v 2.1 3.6 -10
v 2.1 3.7 -10
v 2.2 3.6 -10
v 2.2 3.7 -10
v 2.3 3.6 -10.1
v 2.3 3.7 -10.1
v 2.6 3.6 -10.1
v 2.6 3.7 -10.1
v 2.9 3.6 -10.1
v 2.9 3.7 -10.1
v 3.3 3.6 -10.1
v 3.3 3.7 -10.1
v 3.7 3.6 -10.2
v 3.7 3.7 -10.2
v 4.7 3.6 -10.2
v 4.7 3.7 -10.2
v 1.1 2 -10.3
v 1.1 3.8 -10.3
v 1.3 2 -10.3
v 1.3 3.4 -10.3
v 1.3 3.6 -10.3
v 1.3 3.8 -10.3
v 2 3.4 -10.3
v 2 3.6 -10.3
v 2.1 3.4 -10.3
v 2.1 3.6 -10.3
v 2.6 3.4 -10.3
v 2.6 3.6 -10.3
v 2.7 3.4 -10.3
v 2.7 3.6 -10.3
v 3.3 3.4 -10.3
v 3.3 3.6 -10.3
v 3.4 3.4 -10.3
v 3.4 3.6 -10.3
v 4.7 3.4 -10.3
v 4.7 3.6 -10.3
v 4.8 3.4 -10.3
v 4.8 3.6 -10.3
v 6.9 2 -10.3
v 6.9 3.4 -10.3
v 6.9 3.6 -10.3
v 6.9 3.8 -10.3
v 7.1 2 -10.3
v 7.1 3.8 -10.3
v 2 2.1 -10.4
v 2 3.7 -10.4
v 2.1 2.1 -10.4
v 2.1 3.7 -10.4
v 2.6 2.1 -10.4
v 2.6 3.7 -10.4
v 2.7 2.1 -10.4
v 2.7 3.7 -10.4
v 3.3 2.1 -10.4
v 3.3 3.7 -10.4
v 3.4 2.1 -10.4
v 3.4 3.7 -10.4
v 4.7 2.1 -10.4
v 4.7 3.7 -10.4
v 4.8 2.1 -10.4
v 4.8 3.7 -10.4
v 2.6 2 -10.7
v 2.6 2.1 -10.7
v 2.7 2 -10.7
v 2.7 2.1 -10.7
v 3 2 -10.7
v 3 2.1 -10.7
v 3.4 2 -10.7
v 3.4 2.1 -10.7
v 2 2 -11.8
v 2 2.1 -11.8
v 2.1 2 -11.8
v 2.1 2.1 -11.8
v 2.7 2 -11.8
v 2.7 2.1 -11.8
v 2.8 2 -11.8
v 2.8 2.1 -11.8
v 2.9 2 -11.8
v 2.9 2.1 -11.8
v 3 2 -11.8
v 3 2.1 -11.8
v 4.7 2 -11.8
v 4.7 2.1 -11.8
v 4.8 2 -11.8
v 4.8 2.1 -11.8
v 1.1 2 -7.5
v 1.3 2 -7.5
v 6.9 2 -7.5
v 7.1 2 -7.5
v 1.1 2 -7.7
v 1.3 2 -7.7
v 6.9 2 -7.7
v 7.1 2 -7.7
v 1.1 2 -10.1
v 1.3 2 -10.1
v 6.9 2 -10.1
v 7.1 2 -10.1
v 1.1 2 -10.3
v 1.3 2 -10.3
v 2 2 -10.3
v 2.1 2 -10.3
v 2.6 2 -10.3
v 2.7 2 -10.3
v 3.3 2 -10.3
v 3.4 2 -10.3
v 4.7 2 -10.3
v 4.8 2 -10.3
v 6.9 2 -10.3
v 7.1 2 -10.3
v 2.7 2 -10.6
v 2.8 2 -10.6
v 2.9 2 -10.6
v 3.3 2 -10.6
v 2.6 2 -10.7
v 2.7 2 -10.7
v 3 2 -10.7
v 3.4 2 -10.7
v 2 2 -11.8
v 2.1 2 -11.8
v 2.7 2 -11.8
v 2.8 2 -11.8
v 2.9 2 -11.8
v 3 2 -11.8
v 4.7 2 -11.8
v 4.8 2 -11.8
v 1.3 3.4 -7.5
v 6.9 3.4 -7.5
v 1.1 3.4 -7.7
v 1.3 3.4 -7.7
v 6.9 3.4 -7.7
v 7.1 3.4 -7.7
v 1.1 3.4 -10.1
v 1.3 3.4 -10.1
v 6.9 3.4 -10.1
v 7.1 3.4 -10.1
v 1.3 3.4 -10.3
v 2 3.4 -10.3
v 2.1 3.4 -10.3
v 2.6 3.4 -10.3
v 2.7 3.4 -10.3
v 3.3 3.4 -10.3
v 3.4 3.4 -10.3
v 4.7 3.4 -10.3
v 4.8 3.4 -10.3
v 6.9 3.4 -10.3
v 2 2.1 -10.4
v 2.1 2.1 -10.4
v 2.6 2.1 -10.4
v 2.7 2.1 -10.4
v 3.3 2.1 -10.4
v 3.4 2.1 -10.4
v 4.7 2.1 -10.4
v 4.8 2.1 -10.4
v 2.7 2.1 -10.6
v 2.8 2.1 -10.6
v 2.9 2.1 -10.6
v 3.3 2.1 -10.6
v 2.6 2.1 -10.7
v 2.7 2.1 -10.7
v 3 2.1 -10.7
v 3.4 2.1 -10.7
v 2 2.1 -11.8
v 2.1 2.1 -11.8
v 2.7 2.1 -11.8
v 2.8 2.1 -11.8
v 2.9 2.1 -11.8
v 3 2.1 -11.8
v 4.7 2.1 -11.8
v 4.8 2.1 -11.8
v 1.3 3.6 -7.5
v 6.9 3.6 -7.5
v 1.1 3.6 -7.7
v 1.3 3.6 -7.7
v 6.9 3.6 -7.7
v 7.1 3.6 -7.7
v 2.7 3.6 -8.5
v 2.8 3.6 -8.5
v 2.5 3.6 -8.8
v 2.6 3.6 -8.8
v 2.3 3.6 -9
v 2.4 3.6 -9
v 2.1 3.6 -9.3
v 2.2 3.6 -9.3
v 2.8 3.6 -9.7
v 3.8 3.6 -9.7
v 2.6 3.6 -9.8
v 2.7 3.6 -9.8
v 3 3.6 -9.8
v 3.7 3.6 -9.8
v 2 3.6 -9.9
v 2.1 3.6 -9.9
v 2.5 3.6 -9.9
v 2.9 3.6 -9.9
v 2.1 3.6 -10
v 2.2 3.6 -10
v 2.4 3.6 -10
v 2.7 3.6 -10
v 3 3.6 -10
v 3.4 3.6 -10
v 1.1 3.6 -10.1
v 1.3 3.6 -10.1
v 2.3 3.6 -10.1
v 2.6 3.6 -10.1
v 2.9 3.6 -10.1
v 3.3 3.6 -10.1
v 3.8 3.6 -10.1
v 4.8 3.6 -10.1
v 6.9 3.6 -10.1
v 7.1 3.6 -10.1
v 3.7 3.6 -10.2
v 4.7 3.6 -10.2
v 1.3 3.6 -10.3
v 2 3.6 -10.3
v 2.1 3.6 -10.3
v 2.6 3.6 -10.3
v 2.7 3.6 -10.3
v 3.3 3.6 -10.3
v 3.4 3.6 -10.3
v 4.7 3.6 -10.3
v 4.8 3.6 -10.3
v 6.9 3.6 -10.3
v 2.7 3.7 -8.5
v 2.8 3.7 -8.5
v 2.5 3.7 -8.8
v 2.6 3.7 -8.8
v 2.3 3.7 -9
v 2.4 3.7 -9
v 2.1 3.7 -9.3
v 2.2 3.7 -9.3
v 2.8 3.7 -9.7
v 3.8 3.7 -9.7
v 2.6 3.7 -9.8
v 2.7 3.7 -9.8
v 3 3.7 -9.8
v 3.7 3.7 -9.8
v 2 3.7 -9.9
v 2.1 3.7 -9.9
v 2.5 3.7 -9.9
v 2.9 3.7 -9.9
v 2.1 3.7 -10
v 2.2 3.7 -10
v 2.4 3.7 -10
v 2.7 3.7 -10
v 3 3.7 -10
v 3.4 3.7 -10
v 2.3 3.7 -10.1
v 2.6 3.7 -10.1
v 2.9 3.7 -10.1
v 3.3 3.7 -10.1
v 3.8 3.7 -10.1
v 4.8 3.7 -10.1
v 3.7 3.7 -10.2
v 4.7 3.7 -10.2
v 2 3.7 -10.4
v 2.1 3.7 -10.4
v 2.6 3.7 -10.4
v 2.7 3.7 -10.4
v 3.3 3.7 -10.4
v 3.4 3.7 -10.4
v 4.7 3.7 -10.4
v 4.8 3.7 -10.4
v 1.1 3.8 -7.5
v 1.3 3.8 -7.5
v 6.9 3.8 -7.5
v 7.1 3.8 -7.5
v 1.1 3.8 -7.7
v 1.3 3.8 -7.7
v 6.9 3.8 -7.7
v 7.1 3.8 -7.7
v 1.1 3.8 -10.1
v 1.3 3.8 -10.1
v 6.9 3.8 -10.1
v 7.1 3.8 -10.1
v 1.1 3.8 -10.3
v 1.3 3.8 -10.3
v 6.9 3.8 -10.3
v 7.1 3.8 -10.3

# faces
f 5/5/1 2/5/1 1/5/1
f 6/5/1 4/5/1 3/5/1
f 7/5/1 5/5/1 1/5/1
f 7/5/1 6/5/1 5/5/1
f 8/5/1 4/5/1 6/5/1
f 8/5/1 6/5/1 7/5/1
f 9/5/1 7/5/1 1/5/1
f 10/5/1 7/5/1 9/5/1
f 11/5/1 4/5/1 8/5/1
f 12/5/1 4/5/1 11/5/1
f 15/1/1 14/1/1 13/1/1
f 16/1/1 14/1/1 15/1/1
f 17/1/1 15/1/1 13/1/1
f 19/1/1 15/1/1 17/1/1
f 20/1/1 19/1/1 18/1/1
f 21/1/1 15/1/1 19/1/1
f 21/1/1 19/1/1 20/1/1
f 24/1/1 23/1/1 22/1/1
f 25/1/1 23/1/1 24/1/1
f 28/2/1 27/2/1 26/2/1
f 29/2/1 27/2/1 28/2/1
f 32/3/1 31/3/1 30/3/1
f 33/3/1 31/3/1 32/3/1
f 36/2/1 35/2/1 34/2/1
f 37/2/1 35/2/1 36/2/1
f 38/2/1 36/2/1 34/2/1
f 40/2/1 36/2/1 38/2/1
f 41/2/1 40/2/1 39/2/1
f 42/2/1 36/2/1 40/2/1
f 42/2/1 40/2/1 41/2/1
f 45/2/1 44/2/1 43/2/1
f 46/2/1 44/2/1 45/2/1
f 49/4/1 48/4/1 47/4/1
f 50/4/1 48/4/1 49/4/1
f 53/3/1 52/3/1 51/3/1
f 54/3/1 52/3/1 53/3/1
f 57/3/1 56/3/1 55/3/1
f 58/3/1 56/3/1 57/3/1
f 61/3/1 60/3/1 59/3/1
f 62/3/1 60/3/1 61/3/1
f 63/3/1 61/3/1 59/3/1
f 65/3/1 61/3/1 63/3/1
f 66/3/1 65/3/1 64/3/1
f 67/3/1 61/3/1 65/3/1
f 67/3/1 65/3/1 66/3/1
f 70/4/1 69/4/1 68/4/1
f 71/4/1 69/4/1 70/4/1
f 74/4/1 73/4/1 72/4/1
f 75/4/1 73/4/1 74/4/1
f 76/4/1 74/4/1 72/4/1
f 78/4/1 74/4/1 76/4/1
f 79/4/1 78/4/1 77/4/1
f 80/4/1 74/4/1 78/4/1
f 80/4/1 78/4/1 79/4/1
f 85/5/1 82/5/1 81/5/1
f 86/5/1 82/5/1 85/5/1
f 87/5/1 84/5/1 83/5/1
f 88/5/1 84/5/1 87/5/1
f 93/5/1 90/5/1 89/5/1
f 94/5/1 90/5/1 93/5/1
f 95/5/1 92/5/1 91/5/1
f 96/5/1 92/5/1 95/5/1
f 97/5/2 98/5/2 101/5/2
f 101/5/2 98/5/2 102/5/2
f 99/5/2 100/5/2 103/5/2
f 103/5/2 100/5/2 104/5/2
f 105/5/2 106/5/2 109/5/2
f 109/5/2 106/5/2 110/5/2
f 107/5/2 108/5/2 111/5/2
f 111/5/2 108/5/2 112/5/2
f 113/1/2 114/1/2 115/1/2
f 115/1/2 114/1/2 116/1/2
f 113/1/2 115/1/2 117/1/2
f 117/1/2 115/1/2 119/1/2
f 118/1/2 119/1/2 120/1/2
f 119/1/2 115/1/2 121/1/2
f 120/1/2 119/1/2 121/1/2
f 122/1/2 123/1/2 124/1/2
f 124/1/2 123/1/2 125/1/2
f 126/2/2 127/2/2 128/2/2
f 128/2/2 127/2/2 129/2/2
f 130/3/2 131/3/2 132/3/2
f 132/3/2 131/3/2 133/3/2
f 134/2/2 135/2/2 136/2/2
f 136/2/2 135/2/2 137/2/2
f 134/2/2 136/2/2 138/2/2
f 138/2/2 136/2/2 140/2/2
f 139/2/2 140/2/2 141/2/2
f 140/2/2 136/2/2 142/2/2
f 141/2/2 140/2/2 142/2/2
f 143/2/2 144/2/2 145/2/2
f 145/2/2 144/2/2 146/2/2
f 147/4/2 148/4/2 149/4/2
f 149/4/2 148/4/2 150/4/2
f 151/3/2 152/3/2 153/3/2
f 153/3/2 152/3/2 154/3/2
f 155/3/2 156/3/2 157/3/2
f 157/3/2 156/3/2 158/3/2
f 159/3/2 160/3/2 161/3/2
f 161/3/2 160/3/2 162/3/2
f 159/3/2 161/3/2 163/3/2
f 163/3/2 161/3/2 165/3/2
f 164/3/2 165/3/2 166/3/2
f 165/3/2 161/3/2 167/3/2
f 166/3/2 165/3/2 167/3/2
f 168/4/2 169/4/2 170/4/2
f 170/4/2 169/4/2 171/4/2
f 172/4/2 173/4/2 174/4/2
f 174/4/2 173/4/2 175/4/2
f 172/4/2 174/4/2 176/4/2
f 176/4/2 174/4/2 178/4/2
f 177/4/2 178/4/2 179/4/2
f 178/4/2 174/4/2 180/4/2
f 179/4/2 178/4/2 180/4/2
f 181/5/2 182/5/2 185/5/2
f 183/5/2 184/5/2 186/5/2
f 181/5/2 185/5/2 187/5/2
f 185/5/2 186/5/2 187/5/2
f 186/5/2 184/5/2 188/5/2
f 187/5/2 186/5/2 188/5/2
f 181/5/2 187/5/2 189/5/2
f 189/5/2 187/5/2 190/5/2
f 188/5/2 184/5/2 191/5/2
f 191/5/2 184/5/2 192/5/2
f 195/5/3 194/5/3 193/5/3
f 196/5/3 194/5/3 195/5/3
f 197/5/3 194/5/3 196/5/3
f 198/5/3 194/5/3 197/5/3
f 200/5/3 197/5/3 196/5/3
f 201/5/3 197/5/3 200/5/3
f 203/5/3 200/5/3 199/5/3
f 203/5/3 202/5/3 201/5/3
f 203/5/3 201/5/3 200/5/3
f 204/5/3 202/5/3 203/5/3
f 207/4/3 206/4/3 205/4/3
f 208/4/3 206/4/3 207/4/3
f 211/3/3 210/3/3 209/3/3
f 212/3/3 210/3/3 211/3/3
f 215/2/3 214/2/3 213/2/3
f 216/2/3 214/2/3 215/2/3
f 219/1/3 218/1/3 217/1/3
f 220/1/3 218/1/3 219/1/3
f 223/4/3 222/4/3 221/4/3
f 224/4/3 222/4/3 223/4/3
f 227/3/3 226/3/3 225/3/3
f 228/3/3 226/3/3 227/3/3
f 231/1/3 230/1/3 229/1/3
f 232/1/3 230/1/3 231/1/3
f 235/2/3 234/2/3 233/2/3
f 236/2/3 234/2/3 235/2/3
f 239/3/3 238/3/3 237/3/3
f 240/3/3 238/3/3 239/3/3
f 245/5/3 242/5/3 241/5/3
f 246/5/3 242/5/3 245/5/3
f 247/5/3 244/5/3 243/5/3
f 248/5/3 244/5/3 247/5/3
f 251/4/3 250/4/3 249/4/3
f 252/4/3 250/4/3 251/4/3
f 257/5/3 254/5/3 253/5/3
f 258/5/3 254/5/3 257/5/3
f 259/5/3 256/5/3 255/5/3
f 260/5/3 256/5/3 259/5/3
f 263/1/3 262/1/3 261/1/3
f 264/1/3 262/1/3 263/1/3
f 267/2/3 266/2/3 265/2/3
f 268/2/3 266/2/3 267/2/3
f 271/3/3 270/3/3 269/3/3
f 272/3/3 270/3/3 271/3/3
f 275/4/3 274/4/3 273/4/3
f 276/4/3 274/4/3 275/4/3
f 279/2/3 278/2/3 277/2/3
f 280/2/3 278/2/3 279/2/3
f 283/3/3 282/3/3 281/3/3
f 284/3/3 282/3/3 283/3/3
f 285/5/4 286/5/4 289/5/4
f 289/5/4 286/5/4 290/5/4
f 287/5/4 288/5/4 291/5/4
f 291/5/4 288/5/4 292/5/4
f 293/5/4 294/5/4 297/5/4
f 297/5/4 294/5/4 298/5/4
f 295/5/4 296/5/4 299/5/4
f 299/5/4 296/5/4 300/5/4
f 301/4/4 302/4/4 303/4/4
f 303/4/4 302/4/4 304/4/4
f 305/3/4 306/3/4 307/3/4
f 307/3/4 306/3/4 308/3/4
f 309/1/4 310/1/4 311/1/4
f 311/1/4 310/1/4 312/1/4
f 313/2/4 314/2/4 315/2/4
f 315/2/4 314/2/4 316/2/4
f 317/3/4 318/3/4 319/3/4
f 319/3/4 318/3/4 320/3/4
f 321/4/4 322/4/4 323/4/4
f 323/4/4 322/4/4 324/4/4
f 325/5/4 326/5/4 327/5/4
f 327/5/4 326/5/4 328/5/4
f 328/5/4 326/5/4 329/5/4
f 329/5/4 326/5/4 330/5/4
f 328/5/4 329/5/4 331/5/4
f 331/5/4 329/5/4 332/5/4
f 333/5/4 334/5/4 335/5/4
f 335/5/4 334/5/4 336/5/4
f 337/5/4 338/5/4 339/5/4
f 339/5/4 338/5/4 340/5/4
f 341/5/4 342/5/4 343/5/4
f 343/5/4 342/5/4 344/5/4
f 345/5/4 346/5/4 348/5/4
f 348/5/4 346/5/4 349/5/4
f 348/5/4 349/5/4 351/5/4
f 349/5/4 350/5/4 351/5/4
f 347/5/4 348/5/4 351/5/4
f 351/5/4 350/5/4 352/5/4
f 353/1/4 354/1/4 355/1/4
f 355/1/4 354/1/4 356/1/4
f 357/2/4 358/2/4 359/2/4
f 359/2/4 358/2/4 360/2/4
f 361/3/4 362/3/4 363/3/4
f 363/3/4 362/3/4 364/3/4
f 365/4/4 366/4/4 367/4/4
f 367/4/4 366/4/4 368/4/4
f 369/2/4 370/2/4 371/2/4
f 371/2/4 370/2/4 372/2/4
f 373/3/4 374/3/4 375/3/4
f 375/3/4 374/3/4 376/3/4
f 377/1/4 378/1/4 379/1/4
f 379/1/4 378/1/4 380/1/4
f 381/2/4 382/2/4 383/2/4
f 383/2/4 382/2/4 384/2/4
f 385/3/4 386/3/4 387/3/4
f 387/3/4 386/3/4 388/3/4
f 389/4/4 390/4/4 391/4/4
f 391/4/4 390/4/4 392/4/4
f 397/5/5 394/5/5 393/5/5
f 398/5/5 394/5/5 397/5/5
f 399/5/5 396/5/5 395/5/5
f 400/5/5 396/5/5 399/5/5
f 405/5/5 402/5/5 401/5/5
f 406/5/5 402/5/5 405/5/5
f 415/5/5 404/5/5 403/5/5
f 416/5/5 404/5/5 415/5/5
f 417/2/5 410/2/5 409/2/5
f 420/3/5 412/3/5 411/3/5
f 421/2/5 418/2/5 417/2/5
f 421/2/5 417/2/5 409/2/5
f 422/2/5 418/2/5 421/2/5
f 423/3/5 420/3/5 419/3/5
f 424/3/5 412/3/5 420/3/5
f 424/3/5 420/3/5 423/3/5
f 425/1/5 408/1/5 407/1/5
f 426/1/5 408/1/5 425/1/5
f 427/2/5 418/2/5 422/2/5
f 428/2/5 418/2/5 427/2/5
f 429/3/5 423/3/5 419/3/5
f 430/3/5 423/3/5 429/3/5
f 431/4/5 414/4/5 413/4/5
f 432/4/5 414/4/5 431/4/5
f 436/5/5 434/5/5 433/5/5
f 437/5/5 434/5/5 436/5/5
f 439/5/5 436/5/5 435/5/5
f 439/5/5 438/5/5 437/5/5
f 439/5/5 437/5/5 436/5/5
f 440/5/5 438/5/5 439/5/5
f 441/5/5 438/5/5 440/5/5
f 442/5/5 438/5/5 441/5/5
f 443/5/5 441/5/5 440/5/5
f 444/5/5 441/5/5 443/5/5
f 445/5/5 441/5/5 444/5/5
f 446/5/5 441/5/5 445/5/5
f 447/5/5 441/5/5 446/5/5
f 448/5/5 441/5/5 447/5/5
f 449/5/5 441/5/5 448/5/5
f 450/5/5 441/5/5 449/5/5
f 451/5/5 441/5/5 450/5/5
f 452/5/5 441/5/5 451/5/5
f 455/2/6 456/2/6 461/2/6
f 457/3/6 458/3/6 464/3/6
f 461/2/6 462/2/6 465/2/6
f 455/2/6 461/2/6 465/2/6
f 465/2/6 462/2/6 466/2/6
f 463/3/6 464/3/6 467/3/6
f 464/3/6 458/3/6 468/3/6
f 467/3/6 464/3/6 468/3/6
f 453/1/6 454/1/6 469/1/6
f 469/1/6 454/1/6 470/1/6
f 466/2/6 462/2/6 471/2/6
f 471/2/6 462/2/6 472/2/6
f 463/3/6 467/3/6 473/3/6
f 473/3/6 467/3/6 474/3/6
f 459/4/6 460/4/6 475/4/6
f 475/4/6 460/4/6 476/4/6
f 477/5/6 478/5/6 480/5/6
f 480/5/6 478/5/6 481/5/6
f 479/5/6 480/5/6 483/5/6
f 481/5/6 482/5/6 483/5/6
f 480/5/6 481/5/6 483/5/6
f 483/5/6 482/5/6 484/5/6
f 479/5/6 483/5/6 485/5/6
f 485/5/6 483/5/6 486/5/6
f 479/5/6 485/5/6 487/5/6
f 487/5/6 485/5/6 488/5/6
f 479/5/6 487/5/6 489/5/6
f 489/5/6 487/5/6 490/5/6
f 484/5/6 482/5/6 491/5/6
f 491/5/6 482/5/6 492/5/6
f 486/5/6 483/5/6 493/5/6
f 493/5/6 483/5/6 494/5/6
f 479/5/6 489/5/6 497/5/6
f 497/5/6 489/5/6 498/5/6
f 488/5/6 485/5/6 499/5/6
f 490/5/6 487/5/6 502/5/6
f 488/5/6 499/5/6 503/5/6
f 499/5/6 500/5/6 503/5/6
f 503/5/6 500/5/6 504/5/6
f 495/5/6 496/5/6 505/5/6
f 505/5/6 496/5/6 506/5/6
f 479/5/6 497/5/6 507/5/6
f 507/5/6 497/5/6 508/5/6
f 501/5/6 502/5/6 509/5/6
f 502/5/6 487/5/6 509/5/6
f 504/5/6 500/5/6 511/5/6
f 492/5/6 482/5/6 513/5/6
f 513/5/6 482/5/6 514/5/6
f 514/5/6 482/5/6 515/5/6
f 515/5/6 482/5/6 516/5/6
f 506/5/6 496/5/6 517/5/6
f 508/5/6 497/5/6 519/5/6
f 519/5/6 497/5/6 520/5/6
f 509/5/6 510/5/6 521/5/6
f 501/5/6 509/5/6 521/5/6
f 521/5/6 510/5/6 522/5/6
f 511/5/6 512/5/6 523/5/6
f 504/5/6 511/5/6 523/5/6
f 523/5/6 512/5/6 524/5/6
f 517/5/6 518/5/6 525/5/6
f 506/5/6 517/5/6 525/5/6
f 525/5/6 518/5/6 526/5/6
f 514/5/6 515/5/6 527/5/6
f 527/5/6 515/5/6 528/5/6
f 529/4/6 530/4/6 537/4/6
f 531/3/6 532/3/6 539/3/6
f 537/4/6 538/4/6 540/4/6
f 529/4/6 537/4/6 540/4/6
f 540/4/6 538/4/6 541/4/6
f 541/4/6 538/4/6 542/4/6
f 535/1/6 536/1/6 544/1/6
f 531/3/6 539/3/6 545/3/6
f 539/3/6 540/3/6 545/3/6
f 540/3/6 541/3/6 545/3/6
f 545/3/6 541/3/6 546/3/6
f 543/1/6 544/1/6 547/1/6
f 544/1/6 536/1/6 547/1/6
f 547/1/6 536/1/6 548/1/6
f 533/2/6 534/2/6 549/2/6
f 546/3/6 541/3/6 551/3/6
f 549/2/6 550/2/6 553/2/6
f 533/2/6 549/2/6 553/2/6
f 553/2/6 550/2/6 554/2/6
f 551/3/6 552/3/6 555/3/6
f 546/3/6 551/3/6 555/3/6
f 555/3/6 552/3/6 556/3/6
f 542/4/6 538/4/6 557/4/6
f 557/4/6 558/4/6 559/4/6
f 542/4/6 557/4/6 559/4/6
f 559/4/6 558/4/6 560/4/6
f 543/1/6 547/1/6 561/1/6
f 561/1/6 547/1/6 562/1/6
f 554/2/6 550/2/6 563/2/6
f 563/2/6 550/2/6 564/2/6
f 556/3/6 552/3/6 565/3/6
f 565/3/6 552/3/6 566/3/6
f 560/4/6 558/4/6 567/4/6
f 567/4/6 558/4/6 568/4/6
f 569/5/6 570/5/6 573/5/6
f 573/5/6 570/5/6 574/5/6
f 571/5/6 572/5/6 575/5/6
f 575/5/6 572/5/6 576/5/6
f 577/5/6 578/5/6 581/5/6
f 581/5/6 578/5/6 582/5/6
f 579/5/6 580/5/6 583/5/6
f 583/5/6 580/5/6 584/5/6
