# MagicaVoxel @ Ephtracy

# group
o 

# material
mtllib Fence.mtl
usemtl palette

# normals
vn -1 0 0
vn 1 0 0
vn 0 0 1
vn 0 0 -1
vn 0 -1 0
vn 0 1 0

# texcoords
vt 0.970703 0.5
vt 0.974609 0.5

# verts
v 3.5 2 -4.9
v 3.5 2 -5.1
v 3.5 3.8 -4.9
v 3.5 3.8 -5.1
v 3.5 3.9 -4.9
v 3.5 3.9 -5.1
v 4.3 2 -4.9
v 4.3 2 -5
v 4.3 2.3 -5
v 4.3 2.4 -5
v 4.3 3.5 -5
v 4.3 3.6 -5
v 4.3 3.8 -4.9
v 4.3 3.8 -5
v 4.3 3.9 -4.9
v 4.3 3.9 -5
v 5 2 -4.9
v 5 2 -5
v 5 2.3 -5
v 5 2.4 -5
v 5 3.5 -5
v 5 3.6 -5
v 5 3.8 -4.9
v 5 3.8 -5
v 5 3.9 -4.9
v 5 3.9 -5
v 5.7 2 -4.9
v 5.7 2 -5
v 5.7 2.3 -5
v 5.7 2.4 -5
v 5.7 3.5 -5
v 5.7 3.6 -5
v 5.7 3.8 -4.9
v 5.7 3.8 -5
v 5.7 3.9 -4.9
v 5.7 3.9 -5
v 6.4 2 -4.9
v 6.4 2 -5
v 6.4 2.3 -5
v 6.4 2.4 -5
v 6.4 3.5 -5
v 6.4 3.6 -5
v 6.4 3.8 -4.9
v 6.4 3.8 -5
v 6.4 3.9 -4.9
v 6.4 3.9 -5
v 7.1 2 -4.9
v 7.1 2 -5.1
v 7.1 2.3 -5
v 7.1 2.3 -5.1
v 7.1 2.4 -5
v 7.1 2.4 -5.1
v 7.1 3.5 -5
v 7.1 3.5 -5.1
v 7.1 3.6 -5
v 7.1 3.6 -5.1
v 7.1 3.8 -4.9
v 7.1 3.8 -5.1
v 7.1 3.9 -4.9
v 7.1 3.9 -5.1
v 3.7 2 -4.9
v 3.7 2 -5.1
v 3.7 2.3 -5
v 3.7 2.3 -5.1
v 3.7 2.4 -5
v 3.7 2.4 -5.1
v 3.7 3.5 -5
v 3.7 3.5 -5.1
v 3.7 3.6 -5
v 3.7 3.6 -5.1
v 3.7 3.8 -4.9
v 3.7 3.8 -5.1
v 3.7 3.9 -4.9
v 3.7 3.9 -5.1
v 4.4 2 -4.9
v 4.4 2 -5
v 4.4 2.3 -5
v 4.4 2.4 -5
v 4.4 3.5 -5
v 4.4 3.6 -5
v 4.4 3.8 -4.9
v 4.4 3.8 -5
v 4.4 3.9 -4.9
v 4.4 3.9 -5
v 5.1 2 -4.9
v 5.1 2 -5
v 5.1 2.3 -5
v 5.1 2.4 -5
v 5.1 3.5 -5
v 5.1 3.6 -5
v 5.1 3.8 -4.9
v 5.1 3.8 -5
v 5.1 3.9 -4.9
v 5.1 3.9 -5
v 5.8 2 -4.9
v 5.8 2 -5
v 5.8 2.3 -5
v 5.8 2.4 -5
v 5.8 3.5 -5
v 5.8 3.6 -5
v 5.8 3.8 -4.9
v 5.8 3.8 -5
v 5.8 3.9 -4.9
v 5.8 3.9 -5
v 6.5 2 -4.9
v 6.5 2 -5
v 6.5 2.3 -5
v 6.5 2.4 -5
v 6.5 3.5 -5
v 6.5 3.6 -5
v 6.5 3.8 -4.9
v 6.5 3.8 -5
v 6.5 3.9 -4.9
v 6.5 3.9 -5
v 7.3 2 -4.9
v 7.3 2 -5.1
v 7.3 3.8 -4.9
v 7.3 3.8 -5.1
v 7.3 3.9 -4.9
v 7.3 3.9 -5.1
v 3.5 2 -4.9
v 3.5 3.8 -4.9
v 3.5 3.9 -4.9
v 3.7 2 -4.9
v 3.7 3.8 -4.9
v 3.7 3.9 -4.9
v 4.3 2 -4.9
v 4.3 3.8 -4.9
v 4.3 3.9 -4.9
v 4.4 2 -4.9
v 4.4 3.8 -4.9
v 4.4 3.9 -4.9
v 5 2 -4.9
v 5 3.8 -4.9
v 5 3.9 -4.9
v 5.1 2 -4.9
v 5.1 3.8 -4.9
v 5.1 3.9 -4.9
v 5.7 2 -4.9
v 5.7 3.8 -4.9
v 5.7 3.9 -4.9
v 5.8 2 -4.9
v 5.8 3.8 -4.9
v 5.8 3.9 -4.9
v 6.4 2 -4.9
v 6.4 3.8 -4.9
v 6.4 3.9 -4.9
v 6.5 2 -4.9
v 6.5 3.8 -4.9
v 6.5 3.9 -4.9
v 7.1 2 -4.9
v 7.1 3.8 -4.9
v 7.1 3.9 -4.9
v 7.3 2 -4.9
v 7.3 3.8 -4.9
v 7.3 3.9 -4.9
v 3.7 2.3 -5
v 3.7 2.4 -5
v 3.7 3.5 -5
v 3.7 3.6 -5
v 4.3 2.3 -5
v 4.3 2.4 -5
v 4.3 3.5 -5
v 4.3 3.6 -5
v 4.4 2.3 -5
v 4.4 2.4 -5
v 4.4 3.5 -5
v 4.4 3.6 -5
v 5 2.3 -5
v 5 2.4 -5
v 5 3.5 -5
v 5 3.6 -5
v 5.1 2.3 -5
v 5.1 2.4 -5
v 5.1 3.5 -5
v 5.1 3.6 -5
v 5.7 2.3 -5
v 5.7 2.4 -5
v 5.7 3.5 -5
v 5.7 3.6 -5
v 5.8 2.3 -5
v 5.8 2.4 -5
v 5.8 3.5 -5
v 5.8 3.6 -5
v 6.4 2.3 -5
v 6.4 2.4 -5
v 6.4 3.5 -5
v 6.4 3.6 -5
v 6.5 2.3 -5
v 6.5 2.4 -5
v 6.5 3.5 -5
v 6.5 3.6 -5
v 7.1 2.3 -5
v 7.1 2.4 -5
v 7.1 3.5 -5
v 7.1 3.6 -5
v 4.3 2 -5
v 4.3 2.3 -5
v 4.3 2.4 -5
v 4.3 3.5 -5
v 4.3 3.6 -5
v 4.3 3.8 -5
v 4.3 3.9 -5
v 4.4 2 -5
v 4.4 2.3 -5
v 4.4 2.4 -5
v 4.4 3.5 -5
v 4.4 3.6 -5
v 4.4 3.8 -5
v 4.4 3.9 -5
v 5 2 -5
v 5 2.3 -5
v 5 2.4 -5
v 5 3.5 -5
v 5 3.6 -5
v 5 3.8 -5
v 5 3.9 -5
v 5.1 2 -5
v 5.1 2.3 -5
v 5.1 2.4 -5
v 5.1 3.5 -5
v 5.1 3.6 -5
v 5.1 3.8 -5
v 5.1 3.9 -5
v 5.7 2 -5
v 5.7 2.3 -5
v 5.7 2.4 -5
v 5.7 3.5 -5
v 5.7 3.6 -5
v 5.7 3.8 -5
v 5.7 3.9 -5
v 5.8 2 -5
v 5.8 2.3 -5
v 5.8 2.4 -5
v 5.8 3.5 -5
v 5.8 3.6 -5
v 5.8 3.8 -5
v 5.8 3.9 -5
v 6.4 2 -5
v 6.4 2.3 -5
v 6.4 2.4 -5
v 6.4 3.5 -5
v 6.4 3.6 -5
v 6.4 3.8 -5
v 6.4 3.9 -5
v 6.5 2 -5
v 6.5 2.3 -5
v 6.5 2.4 -5
v 6.5 3.5 -5
v 6.5 3.6 -5
v 6.5 3.8 -5
v 6.5 3.9 -5
v 3.5 2 -5.1
v 3.5 3.8 -5.1
v 3.5 3.9 -5.1
v 3.7 2 -5.1
v 3.7 2.3 -5.1
v 3.7 2.4 -5.1
v 3.7 3.5 -5.1
v 3.7 3.6 -5.1
v 3.7 3.8 -5.1
v 3.7 3.9 -5.1
v 7.1 2 -5.1
v 7.1 2.3 -5.1
v 7.1 2.4 -5.1
v 7.1 3.5 -5.1
v 7.1 3.6 -5.1
v 7.1 3.8 -5.1
v 7.1 3.9 -5.1
v 7.3 2 -5.1
v 7.3 3.8 -5.1
v 7.3 3.9 -5.1
v 3.5 2 -4.9
v 3.7 2 -4.9
v 4.3 2 -4.9
v 4.4 2 -4.9
v 5 2 -4.9
v 5.1 2 -4.9
v 5.7 2 -4.9
v 5.8 2 -4.9
v 6.4 2 -4.9
v 6.5 2 -4.9
v 7.1 2 -4.9
v 7.3 2 -4.9
v 4.3 2 -5
v 4.4 2 -5
v 5 2 -5
v 5.1 2 -5
v 5.7 2 -5
v 5.8 2 -5
v 6.4 2 -5
v 6.5 2 -5
v 3.5 2 -5.1
v 3.7 2 -5.1
v 7.1 2 -5.1
v 7.3 2 -5.1
v 3.7 2.3 -5
v 4.3 2.3 -5
v 4.4 2.3 -5
v 5 2.3 -5
v 5.1 2.3 -5
v 5.7 2.3 -5
v 5.8 2.3 -5
v 6.4 2.3 -5
v 6.5 2.3 -5
v 7.1 2.3 -5
v 3.7 2.3 -5.1
v 7.1 2.3 -5.1
v 3.7 3.5 -5
v 4.3 3.5 -5
v 4.4 3.5 -5
v 5 3.5 -5
v 5.1 3.5 -5
v 5.7 3.5 -5
v 5.8 3.5 -5
v 6.4 3.5 -5
v 6.5 3.5 -5
v 7.1 3.5 -5
v 3.7 3.5 -5.1
v 7.1 3.5 -5.1
v 3.7 2.4 -5
v 4.3 2.4 -5
v 4.4 2.4 -5
v 5 2.4 -5
v 5.1 2.4 -5
v 5.7 2.4 -5
v 5.8 2.4 -5
v 6.4 2.4 -5
v 6.5 2.4 -5
v 7.1 2.4 -5
v 3.7 2.4 -5.1
v 7.1 2.4 -5.1
v 3.7 3.6 -5
v 4.3 3.6 -5
v 4.4 3.6 -5
v 5 3.6 -5
v 5.1 3.6 -5
v 5.7 3.6 -5
v 5.8 3.6 -5
v 6.4 3.6 -5
v 6.5 3.6 -5
v 7.1 3.6 -5
v 3.7 3.6 -5.1
v 7.1 3.6 -5.1
v 3.5 3.9 -4.9
v 3.7 3.9 -4.9
v 4.3 3.9 -4.9
v 4.4 3.9 -4.9
v 5 3.9 -4.9
v 5.1 3.9 -4.9
v 5.7 3.9 -4.9
v 5.8 3.9 -4.9
v 6.4 3.9 -4.9
v 6.5 3.9 -4.9
v 7.1 3.9 -4.9
v 7.3 3.9 -4.9
v 4.3 3.9 -5
v 4.4 3.9 -5
v 5 3.9 -5
v 5.1 3.9 -5
v 5.7 3.9 -5
v 5.8 3.9 -5
v 6.4 3.9 -5
v 6.5 3.9 -5
v 3.5 3.9 -5.1
v 3.7 3.9 -5.1
v 7.1 3.9 -5.1
v 7.3 3.9 -5.1

# faces
f 3/1/1 2/1/1 1/1/1
f 4/1/1 2/1/1 3/1/1
f 5/2/1 4/2/1 3/2/1
f 6/2/1 4/2/1 5/2/1
f 9/1/1 8/1/1 7/1/1
f 10/1/1 9/1/1 7/1/1
f 11/1/1 10/1/1 7/1/1
f 12/1/1 11/1/1 7/1/1
f 13/1/1 12/1/1 7/1/1
f 14/1/1 12/1/1 13/1/1
f 15/2/1 14/2/1 13/2/1
f 16/2/1 14/2/1 15/2/1
f 19/1/1 18/1/1 17/1/1
f 20/1/1 19/1/1 17/1/1
f 21/1/1 20/1/1 17/1/1
f 22/1/1 21/1/1 17/1/1
f 23/1/1 22/1/1 17/1/1
f 24/1/1 22/1/1 23/1/1
f 25/2/1 24/2/1 23/2/1
f 26/2/1 24/2/1 25/2/1
f 29/1/1 28/1/1 27/1/1
f 30/1/1 29/1/1 27/1/1
f 31/1/1 30/1/1 27/1/1
f 32/1/1 31/1/1 27/1/1
f 33/1/1 32/1/1 27/1/1
f 34/1/1 32/1/1 33/1/1
f 35/2/1 34/2/1 33/2/1
f 36/2/1 34/2/1 35/2/1
f 39/1/1 38/1/1 37/1/1
f 40/1/1 39/1/1 37/1/1
f 41/1/1 40/1/1 37/1/1
f 42/1/1 41/1/1 37/1/1
f 43/1/1 42/1/1 37/1/1
f 44/1/1 42/1/1 43/1/1
f 45/2/1 44/2/1 43/2/1
f 46/2/1 44/2/1 45/2/1
f 49/1/1 48/1/1 47/1/1
f 50/1/1 48/1/1 49/1/1
f 51/1/1 49/1/1 47/1/1
f 53/1/1 51/1/1 47/1/1
f 53/1/1 52/1/1 51/1/1
f 54/1/1 52/1/1 53/1/1
f 55/1/1 53/1/1 47/1/1
f 57/1/1 55/1/1 47/1/1
f 57/1/1 56/1/1 55/1/1
f 58/1/1 56/1/1 57/1/1
f 59/2/1 58/2/1 57/2/1
f 60/2/1 58/2/1 59/2/1
f 61/1/2 62/1/2 63/1/2
f 63/1/2 62/1/2 64/1/2
f 61/1/2 63/1/2 65/1/2
f 61/1/2 65/1/2 67/1/2
f 65/1/2 66/1/2 67/1/2
f 67/1/2 66/1/2 68/1/2
f 61/1/2 67/1/2 69/1/2
f 61/1/2 69/1/2 71/1/2
f 69/1/2 70/1/2 71/1/2
f 71/1/2 70/1/2 72/1/2
f 71/2/2 72/2/2 73/2/2
f 73/2/2 72/2/2 74/2/2
f 75/1/2 76/1/2 77/1/2
f 75/1/2 77/1/2 78/1/2
f 75/1/2 78/1/2 79/1/2
f 75/1/2 79/1/2 80/1/2
f 75/1/2 80/1/2 81/1/2
f 81/1/2 80/1/2 82/1/2
f 81/2/2 82/2/2 83/2/2
f 83/2/2 82/2/2 84/2/2
f 85/1/2 86/1/2 87/1/2
f 85/1/2 87/1/2 88/1/2
f 85/1/2 88/1/2 89/1/2
f 85/1/2 89/1/2 90/1/2
f 85/1/2 90/1/2 91/1/2
f 91/1/2 90/1/2 92/1/2
f 91/2/2 92/2/2 93/2/2
f 93/2/2 92/2/2 94/2/2
f 95/1/2 96/1/2 97/1/2
f 95/1/2 97/1/2 98/1/2
f 95/1/2 98/1/2 99/1/2
f 95/1/2 99/1/2 100/1/2
f 95/1/2 100/1/2 101/1/2
f 101/1/2 100/1/2 102/1/2
f 101/2/2 102/2/2 103/2/2
f 103/2/2 102/2/2 104/2/2
f 105/1/2 106/1/2 107/1/2
f 105/1/2 107/1/2 108/1/2
f 105/1/2 108/1/2 109/1/2
f 105/1/2 109/1/2 110/1/2
f 105/1/2 110/1/2 111/1/2
f 111/1/2 110/1/2 112/1/2
f 111/2/2 112/2/2 113/2/2
f 113/2/2 112/2/2 114/2/2
f 115/1/2 116/1/2 117/1/2
f 117/1/2 116/1/2 118/1/2
f 117/2/2 118/2/2 119/2/2
f 119/2/2 118/2/2 120/2/2
f 124/1/3 122/1/3 121/1/3
f 125/2/3 123/2/3 122/2/3
f 125/1/3 122/1/3 124/1/3
f 126/2/3 123/2/3 125/2/3
f 130/1/3 128/1/3 127/1/3
f 131/2/3 129/2/3 128/2/3
f 131/1/3 128/1/3 130/1/3
f 132/2/3 129/2/3 131/2/3
f 136/1/3 134/1/3 133/1/3
f 137/2/3 135/2/3 134/2/3
f 137/1/3 134/1/3 136/1/3
f 138/2/3 135/2/3 137/2/3
f 142/1/3 140/1/3 139/1/3
f 143/2/3 141/2/3 140/2/3
f 143/1/3 140/1/3 142/1/3
f 144/2/3 141/2/3 143/2/3
f 148/1/3 146/1/3 145/1/3
f 149/2/3 147/2/3 146/2/3
f 149/1/3 146/1/3 148/1/3
f 150/2/3 147/2/3 149/2/3
f 154/1/3 152/1/3 151/1/3
f 155/2/3 153/2/3 152/2/3
f 155/1/3 152/1/3 154/1/3
f 156/2/3 153/2/3 155/2/3
f 161/2/3 158/2/3 157/2/3
f 162/2/3 158/2/3 161/2/3
f 163/2/3 160/2/3 159/2/3
f 164/2/3 160/2/3 163/2/3
f 169/2/3 166/2/3 165/2/3
f 170/2/3 166/2/3 169/2/3
f 171/2/3 168/2/3 167/2/3
f 172/2/3 168/2/3 171/2/3
f 177/2/3 174/2/3 173/2/3
f 178/2/3 174/2/3 177/2/3
f 179/2/3 176/2/3 175/2/3
f 180/2/3 176/2/3 179/2/3
f 185/2/3 182/2/3 181/2/3
f 186/2/3 182/2/3 185/2/3
f 187/2/3 184/2/3 183/2/3
f 188/2/3 184/2/3 187/2/3
f 193/2/3 190/2/3 189/2/3
f 194/2/3 190/2/3 193/2/3
f 195/2/3 192/2/3 191/2/3
f 196/2/3 192/2/3 195/2/3
f 197/1/4 198/1/4 204/1/4
f 204/1/4 198/1/4 205/1/4
f 199/1/4 200/1/4 206/1/4
f 206/1/4 200/1/4 207/1/4
f 201/1/4 202/1/4 208/1/4
f 202/2/4 203/2/4 209/2/4
f 208/1/4 202/1/4 209/1/4
f 209/2/4 203/2/4 210/2/4
f 211/1/4 212/1/4 218/1/4
f 218/1/4 212/1/4 219/1/4
f 213/1/4 214/1/4 220/1/4
f 220/1/4 214/1/4 221/1/4
f 215/1/4 216/1/4 222/1/4
f 216/2/4 217/2/4 223/2/4
f 222/1/4 216/1/4 223/1/4
f 223/2/4 217/2/4 224/2/4
f 225/1/4 226/1/4 232/1/4
f 232/1/4 226/1/4 233/1/4
f 227/1/4 228/1/4 234/1/4
f 234/1/4 228/1/4 235/1/4
f 229/1/4 230/1/4 236/1/4
f 230/2/4 231/2/4 237/2/4
f 236/1/4 230/1/4 237/1/4
f 237/2/4 231/2/4 238/2/4
f 239/1/4 240/1/4 246/1/4
f 246/1/4 240/1/4 247/1/4
f 241/1/4 242/1/4 248/1/4
f 248/1/4 242/1/4 249/1/4
f 243/1/4 244/1/4 250/1/4
f 244/2/4 245/2/4 251/2/4
f 250/1/4 244/1/4 251/1/4
f 251/2/4 245/2/4 252/2/4
f 253/1/4 254/1/4 256/1/4
f 256/1/4 254/1/4 257/1/4
f 257/1/4 254/1/4 258/1/4
f 258/1/4 254/1/4 259/1/4
f 259/1/4 254/1/4 260/1/4
f 254/2/4 255/2/4 261/2/4
f 260/1/4 254/1/4 261/1/4
f 261/2/4 255/2/4 262/2/4
f 257/2/4 258/2/4 264/2/4
f 264/2/4 258/2/4 265/2/4
f 259/2/4 260/2/4 266/2/4
f 266/2/4 260/2/4 267/2/4
f 264/1/4 265/1/4 270/1/4
f 263/1/4 264/1/4 270/1/4
f 267/1/4 268/1/4 270/1/4
f 266/1/4 267/1/4 270/1/4
f 265/1/4 266/1/4 270/1/4
f 268/2/4 269/2/4 271/2/4
f 270/1/4 268/1/4 271/1/4
f 271/2/4 269/2/4 272/2/4
f 285/1/5 276/1/5 275/1/5
f 286/1/5 276/1/5 285/1/5
f 287/1/5 278/1/5 277/1/5
f 288/1/5 278/1/5 287/1/5
f 289/1/5 280/1/5 279/1/5
f 290/1/5 280/1/5 289/1/5
f 291/1/5 282/1/5 281/1/5
f 292/1/5 282/1/5 291/1/5
f 293/1/5 274/1/5 273/1/5
f 294/1/5 274/1/5 293/1/5
f 295/1/5 284/1/5 283/1/5
f 296/1/5 284/1/5 295/1/5
f 307/2/5 298/2/5 297/2/5
f 307/2/5 306/2/5 305/2/5
f 307/2/5 305/2/5 304/2/5
f 307/2/5 304/2/5 303/2/5
f 307/2/5 303/2/5 302/2/5
f 307/2/5 302/2/5 301/2/5
f 307/2/5 301/2/5 300/2/5
f 307/2/5 300/2/5 299/2/5
f 307/2/5 299/2/5 298/2/5
f 308/2/5 306/2/5 307/2/5
f 319/2/5 310/2/5 309/2/5
f 319/2/5 318/2/5 317/2/5
f 319/2/5 317/2/5 316/2/5
f 319/2/5 316/2/5 315/2/5
f 319/2/5 315/2/5 314/2/5
f 319/2/5 314/2/5 313/2/5
f 319/2/5 313/2/5 312/2/5
f 319/2/5 312/2/5 311/2/5
f 319/2/5 311/2/5 310/2/5
f 320/2/5 318/2/5 319/2/5
f 321/2/6 322/2/6 331/2/6
f 329/2/6 330/2/6 331/2/6
f 328/2/6 329/2/6 331/2/6
f 327/2/6 328/2/6 331/2/6
f 326/2/6 327/2/6 331/2/6
f 325/2/6 326/2/6 331/2/6
f 324/2/6 325/2/6 331/2/6
f 323/2/6 324/2/6 331/2/6
f 322/2/6 323/2/6 331/2/6
f 331/2/6 330/2/6 332/2/6
f 333/2/6 334/2/6 343/2/6
f 341/2/6 342/2/6 343/2/6
f 340/2/6 341/2/6 343/2/6
f 339/2/6 340/2/6 343/2/6
f 338/2/6 339/2/6 343/2/6
f 337/2/6 338/2/6 343/2/6
f 336/2/6 337/2/6 343/2/6
f 335/2/6 336/2/6 343/2/6
f 334/2/6 335/2/6 343/2/6
f 343/2/6 342/2/6 344/2/6
f 347/2/6 348/2/6 357/2/6
f 357/2/6 348/2/6 358/2/6
f 349/2/6 350/2/6 359/2/6
f 359/2/6 350/2/6 360/2/6
f 351/2/6 352/2/6 361/2/6
f 361/2/6 352/2/6 362/2/6
f 353/2/6 354/2/6 363/2/6
f 363/2/6 354/2/6 364/2/6
f 345/2/6 346/2/6 365/2/6
f 365/2/6 346/2/6 366/2/6
f 355/2/6 356/2/6 367/2/6
f 367/2/6 356/2/6 368/2/6
