# MagicaVoxel @ Ephtracy

# group
o 

# material
mtllib VentOpening.mtl
usemtl palette

# normals
vn -1 0 0
vn 1 0 0
vn 0 0 1
vn 0 0 -1
vn 0 -1 0
vn 0 1 0

# texcoords
vt 0.966797 0.5
vt 0.970703 0.5

# verts
v 3.5 2 -5.8
v 3.5 2 -8.4
v 3.5 3.4 -5.8
v 3.5 3.4 -8.4
v 3.9 3.6 -6.1
v 3.9 3.6 -8.1
v 3.9 3.7 -6.1
v 3.9 3.7 -8.1
v 4 3.3 -6.2
v 4 3.3 -8
v 4 3.6 -6.2
v 4 3.6 -8
v 4.2 3.6 -6.2
v 4.2 3.6 -8
v 4.2 3.7 -6.2
v 4.2 3.7 -8
v 4.5 3.6 -6.2
v 4.5 3.6 -8
v 4.5 3.7 -6.2
v 4.5 3.7 -8
v 4.8 3.6 -6.2
v 4.8 3.6 -8
v 4.8 3.7 -6.2
v 4.8 3.7 -8
v 5.1 3.6 -6.2
v 5.1 3.6 -8
v 5.1 3.7 -6.2
v 5.1 3.7 -8
v 5.4 3.6 -6.2
v 5.4 3.6 -8
v 5.4 3.7 -6.2
v 5.4 3.7 -8
v 5.7 3.6 -6.2
v 5.7 3.6 -8
v 5.7 3.7 -6.2
v 5.7 3.7 -8
v 6.1 2 -5.8
v 6.1 2 -8.4
v 6.1 2.1 -5.9
v 6.1 2.1 -8.3
v 6.1 3.3 -5.9
v 6.1 3.3 -8.3
v 6.1 3.4 -5.8
v 6.1 3.4 -8.4
v 3.6 2 -5.8
v 3.6 2 -8.4
v 3.6 2.1 -5.9
v 3.6 2.1 -8.3
v 3.6 3.3 -5.9
v 3.6 3.3 -8.3
v 3.6 3.4 -5.8
v 3.6 3.4 -8.4
v 4 3.6 -6.2
v 4 3.6 -8
v 4 3.7 -6.2
v 4 3.7 -8
v 4.3 3.6 -6.2
v 4.3 3.6 -8
v 4.3 3.7 -6.2
v 4.3 3.7 -8
v 4.6 3.6 -6.2
v 4.6 3.6 -8
v 4.6 3.7 -6.2
v 4.6 3.7 -8
v 4.9 3.6 -6.2
v 4.9 3.6 -8
v 4.9 3.7 -6.2
v 4.9 3.7 -8
v 5.2 3.6 -6.2
v 5.2 3.6 -8
v 5.2 3.7 -6.2
v 5.2 3.7 -8
v 5.5 3.6 -6.2
v 5.5 3.6 -8
v 5.5 3.7 -6.2
v 5.5 3.7 -8
v 5.7 3.3 -6.2
v 5.7 3.3 -8
v 5.7 3.6 -6.2
v 5.7 3.6 -8
v 5.8 3.6 -6.1
v 5.8 3.6 -8.1
v 5.8 3.7 -6.1
v 5.8 3.7 -8.1
v 6.2 2 -5.8
v 6.2 2 -8.4
v 6.2 3.4 -5.8
v 6.2 3.4 -8.4
v 3.5 2 -5.8
v 3.5 3.4 -5.8
v 3.6 2 -5.8
v 3.6 3.4 -5.8
v 6.1 2 -5.8
v 6.1 3.4 -5.8
v 6.2 2 -5.8
v 6.2 3.4 -5.8
v 3.6 2.1 -5.9
v 3.6 3.3 -5.9
v 6.1 2.1 -5.9
v 6.1 3.3 -5.9
v 3.9 3.6 -6.1
v 3.9 3.7 -6.1
v 5.8 3.6 -6.1
v 5.8 3.7 -6.1
v 4 3.3 -6.2
v 4 3.6 -6.2
v 5.7 3.3 -6.2
v 5.7 3.6 -6.2
v 4 3.6 -8
v 4 3.7 -8
v 4.2 3.6 -8
v 4.2 3.7 -8
v 4.3 3.6 -8
v 4.3 3.7 -8
v 4.5 3.6 -8
v 4.5 3.7 -8
v 4.6 3.6 -8
v 4.6 3.7 -8
v 4.8 3.6 -8
v 4.8 3.7 -8
v 4.9 3.6 -8
v 4.9 3.7 -8
v 5.1 3.6 -8
v 5.1 3.7 -8
v 5.2 3.6 -8
v 5.2 3.7 -8
v 5.4 3.6 -8
v 5.4 3.7 -8
v 5.5 3.6 -8
v 5.5 3.7 -8
v 5.7 3.6 -8
v 5.7 3.7 -8
v 4 3.6 -6.2
v 4 3.7 -6.2
v 4.2 3.6 -6.2
v 4.2 3.7 -6.2
v 4.3 3.6 -6.2
v 4.3 3.7 -6.2
v 4.5 3.6 -6.2
v 4.5 3.7 -6.2
v 4.6 3.6 -6.2
v 4.6 3.7 -6.2
v 4.8 3.6 -6.2
v 4.8 3.7 -6.2
v 4.9 3.6 -6.2
v 4.9 3.7 -6.2
v 5.1 3.6 -6.2
v 5.1 3.7 -6.2
v 5.2 3.6 -6.2
v 5.2 3.7 -6.2
v 5.4 3.6 -6.2
v 5.4 3.7 -6.2
v 5.5 3.6 -6.2
v 5.5 3.7 -6.2
v 5.7 3.6 -6.2
v 5.7 3.7 -6.2
v 4 3.3 -8
v 4 3.6 -8
v 5.7 3.3 -8
v 5.7 3.6 -8
v 3.9 3.6 -8.1
v 3.9 3.7 -8.1
v 5.8 3.6 -8.1
v 5.8 3.7 -8.1
v 3.6 2.1 -8.3
v 3.6 3.3 -8.3
v 6.1 2.1 -8.3
v 6.1 3.3 -8.3
v 3.5 2 -8.4
v 3.5 3.4 -8.4
v 3.6 2 -8.4
v 3.6 3.4 -8.4
v 6.1 2 -8.4
v 6.1 3.4 -8.4
v 6.2 2 -8.4
v 6.2 3.4 -8.4
v 3.5 2 -5.8
v 3.6 2 -5.8
v 6.1 2 -5.8
v 6.2 2 -5.8
v 3.5 2 -8.4
v 3.6 2 -8.4
v 6.1 2 -8.4
v 6.2 2 -8.4
v 3.6 2.1 -5.9
v 6.1 2.1 -5.9
v 3.6 2.1 -8.3
v 6.1 2.1 -8.3
v 3.9 3.6 -6.1
v 5.8 3.6 -6.1
v 4 3.6 -6.2
v 5.7 3.6 -6.2
v 4 3.6 -8
v 5.7 3.6 -8
v 3.9 3.6 -8.1
v 5.8 3.6 -8.1
v 3.6 3.3 -5.9
v 6.1 3.3 -5.9
v 4 3.3 -6.2
v 5.7 3.3 -6.2
v 4 3.3 -8
v 5.7 3.3 -8
v 3.6 3.3 -8.3
v 6.1 3.3 -8.3
v 3.5 3.4 -5.8
v 3.6 3.4 -5.8
v 6.1 3.4 -5.8
v 6.2 3.4 -5.8
v 3.5 3.4 -8.4
v 3.6 3.4 -8.4
v 6.1 3.4 -8.4
v 6.2 3.4 -8.4
v 4 3.6 -6.2
v 4.2 3.6 -6.2
v 4.3 3.6 -6.2
v 4.5 3.6 -6.2
v 4.6 3.6 -6.2
v 4.8 3.6 -6.2
v 4.9 3.6 -6.2
v 5.1 3.6 -6.2
v 5.2 3.6 -6.2
v 5.4 3.6 -6.2
v 5.5 3.6 -6.2
v 5.7 3.6 -6.2
v 4 3.6 -8
v 4.2 3.6 -8
v 4.3 3.6 -8
v 4.5 3.6 -8
v 4.6 3.6 -8
v 4.8 3.6 -8
v 4.9 3.6 -8
v 5.1 3.6 -8
v 5.2 3.6 -8
v 5.4 3.6 -8
v 5.5 3.6 -8
v 5.7 3.6 -8
v 3.9 3.7 -6.1
v 5.8 3.7 -6.1
v 4 3.7 -6.2
v 4.2 3.7 -6.2
v 4.3 3.7 -6.2
v 4.5 3.7 -6.2
v 4.6 3.7 -6.2
v 4.8 3.7 -6.2
v 4.9 3.7 -6.2
v 5.1 3.7 -6.2
v 5.2 3.7 -6.2
v 5.4 3.7 -6.2
v 5.5 3.7 -6.2
v 5.7 3.7 -6.2
v 4 3.7 -8
v 4.2 3.7 -8
v 4.3 3.7 -8
v 4.5 3.7 -8
v 4.6 3.7 -8
v 4.8 3.7 -8
v 4.9 3.7 -8
v 5.1 3.7 -8
v 5.2 3.7 -8
v 5.4 3.7 -8
v 5.5 3.7 -8
v 5.7 3.7 -8
v 3.9 3.7 -8.1
v 5.8 3.7 -8.1

# faces
f 3/2/1 2/2/1 1/2/1
f 4/2/1 2/2/1 3/2/1
f 7/2/1 6/2/1 5/2/1
f 8/2/1 6/2/1 7/2/1
f 11/1/1 10/1/1 9/1/1
f 12/1/1 10/1/1 11/1/1
f 15/2/1 14/2/1 13/2/1
f 16/2/1 14/2/1 15/2/1
f 19/2/1 18/2/1 17/2/1
f 20/2/1 18/2/1 19/2/1
f 23/2/1 22/2/1 21/2/1
f 24/2/1 22/2/1 23/2/1
f 27/2/1 26/2/1 25/2/1
f 28/2/1 26/2/1 27/2/1
f 31/2/1 30/2/1 29/2/1
f 32/2/1 30/2/1 31/2/1
f 35/2/1 34/2/1 33/2/1
f 36/2/1 34/2/1 35/2/1
f 39/2/1 38/2/1 37/2/1
f 40/2/1 38/2/1 39/2/1
f 41/2/1 39/2/1 37/2/1
f 42/2/1 38/2/1 40/2/1
f 43/2/1 41/2/1 37/2/1
f 43/2/1 42/2/1 41/2/1
f 44/2/1 38/2/1 42/2/1
f 44/2/1 42/2/1 43/2/1
f 45/2/2 46/2/2 47/2/2
f 47/2/2 46/2/2 48/2/2
f 45/2/2 47/2/2 49/2/2
f 48/2/2 46/2/2 50/2/2
f 45/2/2 49/2/2 51/2/2
f 49/2/2 50/2/2 51/2/2
f 50/2/2 46/2/2 52/2/2
f 51/2/2 50/2/2 52/2/2
f 53/2/2 54/2/2 55/2/2
f 55/2/2 54/2/2 56/2/2
f 57/2/2 58/2/2 59/2/2
f 59/2/2 58/2/2 60/2/2
f 61/2/2 62/2/2 63/2/2
f 63/2/2 62/2/2 64/2/2
f 65/2/2 66/2/2 67/2/2
f 67/2/2 66/2/2 68/2/2
f 69/2/2 70/2/2 71/2/2
f 71/2/2 70/2/2 72/2/2
f 73/2/2 74/2/2 75/2/2
f 75/2/2 74/2/2 76/2/2
f 77/1/2 78/1/2 79/1/2
f 79/1/2 78/1/2 80/1/2
f 81/2/2 82/2/2 83/2/2
f 83/2/2 82/2/2 84/2/2
f 85/2/2 86/2/2 87/2/2
f 87/2/2 86/2/2 88/2/2
f 91/2/3 90/2/3 89/2/3
f 92/2/3 90/2/3 91/2/3
f 95/2/3 94/2/3 93/2/3
f 96/2/3 94/2/3 95/2/3
f 99/1/3 98/1/3 97/1/3
f 100/1/3 98/1/3 99/1/3
f 103/2/3 102/2/3 101/2/3
f 104/2/3 102/2/3 103/2/3
f 107/1/3 106/1/3 105/1/3
f 108/1/3 106/1/3 107/1/3
f 111/2/3 110/2/3 109/2/3
f 112/2/3 110/2/3 111/2/3
f 115/2/3 114/2/3 113/2/3
f 116/2/3 114/2/3 115/2/3
f 119/2/3 118/2/3 117/2/3
f 120/2/3 118/2/3 119/2/3
f 123/2/3 122/2/3 121/2/3
f 124/2/3 122/2/3 123/2/3
f 127/2/3 126/2/3 125/2/3
f 128/2/3 126/2/3 127/2/3
f 131/2/3 130/2/3 129/2/3
f 132/2/3 130/2/3 131/2/3
f 133/2/4 134/2/4 135/2/4
f 135/2/4 134/2/4 136/2/4
f 137/2/4 138/2/4 139/2/4
f 139/2/4 138/2/4 140/2/4
f 141/2/4 142/2/4 143/2/4
f 143/2/4 142/2/4 144/2/4
f 145/2/4 146/2/4 147/2/4
f 147/2/4 146/2/4 148/2/4
f 149/2/4 150/2/4 151/2/4
f 151/2/4 150/2/4 152/2/4
f 153/2/4 154/2/4 155/2/4
f 155/2/4 154/2/4 156/2/4
f 157/1/4 158/1/4 159/1/4
f 159/1/4 158/1/4 160/1/4
f 161/2/4 162/2/4 163/2/4
f 163/2/4 162/2/4 164/2/4
f 165/1/4 166/1/4 167/1/4
f 167/1/4 166/1/4 168/1/4
f 169/2/4 170/2/4 171/2/4
f 171/2/4 170/2/4 172/2/4
f 173/2/4 174/2/4 175/2/4
f 175/2/4 174/2/4 176/2/4
f 181/2/5 178/2/5 177/2/5
f 182/2/5 178/2/5 181/2/5
f 183/2/5 180/2/5 179/2/5
f 184/2/5 180/2/5 183/2/5
f 187/1/5 186/1/5 185/1/5
f 188/1/5 186/1/5 187/1/5
f 191/2/5 190/2/5 189/2/5
f 192/2/5 190/2/5 191/2/5
f 193/2/5 191/2/5 189/2/5
f 194/2/5 190/2/5 192/2/5
f 195/2/5 193/2/5 189/2/5
f 195/2/5 194/2/5 193/2/5
f 196/2/5 190/2/5 194/2/5
f 196/2/5 194/2/5 195/2/5
f 197/1/6 198/1/6 199/1/6
f 199/1/6 198/1/6 200/1/6
f 197/1/6 199/1/6 201/1/6
f 200/1/6 198/1/6 202/1/6
f 197/1/6 201/1/6 203/1/6
f 201/1/6 202/1/6 203/1/6
f 202/1/6 198/1/6 204/1/6
f 203/1/6 202/1/6 204/1/6
f 205/2/6 206/2/6 209/2/6
f 209/2/6 206/2/6 210/2/6
f 207/2/6 208/2/6 211/2/6
f 211/2/6 208/2/6 212/2/6
f 213/1/6 214/1/6 225/1/6
f 225/1/6 214/1/6 226/1/6
f 215/1/6 216/1/6 227/1/6
f 227/1/6 216/1/6 228/1/6
f 217/1/6 218/1/6 229/1/6
f 229/1/6 218/1/6 230/1/6
f 219/1/6 220/1/6 231/1/6
f 231/1/6 220/1/6 232/1/6
f 221/1/6 222/1/6 233/1/6
f 233/1/6 222/1/6 234/1/6
f 223/1/6 224/1/6 235/1/6
f 235/1/6 224/1/6 236/1/6
f 237/2/6 238/2/6 239/2/6
f 239/2/6 238/2/6 240/2/6
f 240/2/6 238/2/6 241/2/6
f 241/2/6 238/2/6 242/2/6
f 242/2/6 238/2/6 243/2/6
f 243/2/6 238/2/6 244/2/6
f 244/2/6 238/2/6 245/2/6
f 245/2/6 238/2/6 246/2/6
f 246/2/6 238/2/6 247/2/6
f 247/2/6 238/2/6 248/2/6
f 248/2/6 238/2/6 249/2/6
f 249/2/6 238/2/6 250/2/6
f 237/2/6 239/2/6 251/2/6
f 240/2/6 241/2/6 252/2/6
f 252/2/6 241/2/6 253/2/6
f 242/2/6 243/2/6 254/2/6
f 254/2/6 243/2/6 255/2/6
f 244/2/6 245/2/6 256/2/6
f 256/2/6 245/2/6 257/2/6
f 246/2/6 247/2/6 258/2/6
f 258/2/6 247/2/6 259/2/6
f 248/2/6 249/2/6 260/2/6
f 260/2/6 249/2/6 261/2/6
f 250/2/6 238/2/6 262/2/6
f 260/2/6 261/2/6 263/2/6
f 261/2/6 262/2/6 263/2/6
f 258/2/6 259/2/6 263/2/6
f 237/2/6 251/2/6 263/2/6
f 259/2/6 260/2/6 263/2/6
f 256/2/6 257/2/6 263/2/6
f 257/2/6 258/2/6 263/2/6
f 252/2/6 253/2/6 263/2/6
f 255/2/6 256/2/6 263/2/6
f 254/2/6 255/2/6 263/2/6
f 253/2/6 254/2/6 263/2/6
f 251/2/6 252/2/6 263/2/6
f 262/2/6 238/2/6 264/2/6
f 263/2/6 262/2/6 264/2/6
