# MagicaVoxel @ Ephtracy

# group
o 

# material
mtllib VentCorner.mtl
usemtl palette

# normals
vn -1 0 0
vn 1 0 0
vn 0 0 1
vn 0 0 -1
vn 0 -1 0
vn 0 1 0

# texcoords
vt 0.966797 0.5
vt 0.970703 0.5

# verts
v 6.1 2 -5.8
v 6.1 2 -8.4
v 6.1 3.4 -5.8
v 6.1 3.4 -8.4
v 6.2 2 -5.7
v 6.2 2 -5.8
v 6.2 3.4 -5.7
v 6.2 3.4 -5.8
v 6.3 2.1 -5.8
v 6.3 2.1 -5.9
v 6.3 3.3 -5.8
v 6.3 3.3 -5.9
v 6.2 2 -5.8
v 6.2 2 -8.4
v 6.2 2.1 -5.9
v 6.2 2.1 -8.3
v 6.2 3.3 -5.9
v 6.2 3.3 -8.3
v 6.2 3.4 -5.8
v 6.2 3.4 -8.4
v 8.7 2.1 -5.8
v 8.7 2.1 -8.3
v 8.7 3.3 -5.8
v 8.7 3.3 -8.3
v 8.8 2 -5.7
v 8.8 2 -5.8
v 8.8 3.4 -5.7
v 8.8 3.4 -5.8
v 6.2 2 -5.7
v 6.2 3.4 -5.7
v 8.8 2 -5.7
v 8.8 3.4 -5.7
v 6.1 2 -5.8
v 6.1 3.4 -5.8
v 6.2 2 -5.8
v 6.2 3.4 -5.8
v 6.2 2.1 -5.9
v 6.2 3.3 -5.9
v 6.3 2.1 -5.9
v 6.3 3.3 -5.9
v 6.2 2 -5.8
v 6.2 3.4 -5.8
v 6.3 2.1 -5.8
v 6.3 3.3 -5.8
v 8.7 2.1 -5.8
v 8.7 3.3 -5.8
v 8.8 2 -5.8
v 8.8 3.4 -5.8
v 6.2 2.1 -8.3
v 6.2 3.3 -8.3
v 8.7 2.1 -8.3
v 8.7 3.3 -8.3
v 6.1 2 -8.4
v 6.1 3.4 -8.4
v 6.2 2 -8.4
v 6.2 3.4 -8.4
v 6.2 2 -5.7
v 8.8 2 -5.7
v 6.1 2 -5.8
v 6.2 2 -5.8
v 8.8 2 -5.8
v 6.1 2 -8.4
v 6.2 2 -8.4
v 6.3 2.1 -5.8
v 8.7 2.1 -5.8
v 6.2 2.1 -5.9
v 6.3 2.1 -5.9
v 6.2 2.1 -8.3
v 8.7 2.1 -8.3
v 6.3 3.3 -5.8
v 8.7 3.3 -5.8
v 6.2 3.3 -5.9
v 6.3 3.3 -5.9
v 6.2 3.3 -8.3
v 8.7 3.3 -8.3
v 6.2 3.4 -5.7
v 8.8 3.4 -5.7
v 6.1 3.4 -5.8
v 6.2 3.4 -5.8
v 8.8 3.4 -5.8
v 6.1 3.4 -8.4
v 6.2 3.4 -8.4

# faces
f 3/2/1 2/2/1 1/2/1
f 4/2/1 2/2/1 3/2/1
f 7/2/1 6/2/1 5/2/1
f 8/2/1 6/2/1 7/2/1
f 11/1/1 10/1/1 9/1/1
f 12/1/1 10/1/1 11/1/1
f 13/2/2 14/2/2 15/2/2
f 15/2/2 14/2/2 16/2/2
f 13/2/2 15/2/2 17/2/2
f 16/2/2 14/2/2 18/2/2
f 13/2/2 17/2/2 19/2/2
f 17/2/2 18/2/2 19/2/2
f 18/2/2 14/2/2 20/2/2
f 19/2/2 18/2/2 20/2/2
f 21/1/2 22/1/2 23/1/2
f 23/1/2 22/1/2 24/1/2
f 25/2/2 26/2/2 27/2/2
f 27/2/2 26/2/2 28/2/2
f 31/2/3 30/2/3 29/2/3
f 32/2/3 30/2/3 31/2/3
f 35/2/3 34/2/3 33/2/3
f 36/2/3 34/2/3 35/2/3
f 39/1/3 38/1/3 37/1/3
f 40/1/3 38/1/3 39/1/3
f 41/2/4 42/2/4 43/2/4
f 43/2/4 42/2/4 44/2/4
f 41/2/4 43/2/4 45/2/4
f 44/2/4 42/2/4 46/2/4
f 41/2/4 45/2/4 47/2/4
f 45/2/4 46/2/4 47/2/4
f 46/2/4 42/2/4 48/2/4
f 47/2/4 46/2/4 48/2/4
f 49/1/4 50/1/4 51/1/4
f 51/1/4 50/1/4 52/1/4
f 53/2/4 54/2/4 55/2/4
f 55/2/4 54/2/4 56/2/4
f 60/2/5 58/2/5 57/2/5
f 61/2/5 58/2/5 60/2/5
f 62/2/5 60/2/5 59/2/5
f 63/2/5 60/2/5 62/2/5
f 67/1/5 65/1/5 64/1/5
f 68/1/5 67/1/5 66/1/5
f 69/1/5 65/1/5 67/1/5
f 69/1/5 67/1/5 68/1/5
f 70/1/6 71/1/6 73/1/6
f 72/1/6 73/1/6 74/1/6
f 73/1/6 71/1/6 75/1/6
f 74/1/6 73/1/6 75/1/6
f 76/2/6 77/2/6 79/2/6
f 79/2/6 77/2/6 80/2/6
f 78/2/6 79/2/6 81/2/6
f 81/2/6 79/2/6 82/2/6
