# MagicaVoxel @ Ephtracy

# group
o 

# material
mtllib Hacker.mtl
usemtl palette

# normals
vn -1 0 0
vn 1 0 0
vn 0 0 1
vn 0 0 -1
vn 0 -1 0
vn 0 1 0

# texcoords
vt 0.205078 0.5
vt 0.294922 0.5
vt 0.302734 0.5
vt 0.716797 0.5
vt 0.916016 0.5
vt 0.974609 0.5
vt 0.982422 0.5
vt 0.986328 0.5

# verts
v 4.3 4 -5.3
v 4.3 4 -5.6
v 4.3 4.3 -5.3
v 4.3 4.3 -5.6
v 4.3 4.5 -5.3
v 4.3 4.5 -5.6
v 4.3 5.7 -5.3
v 4.3 5.7 -5.6
v 4.4 5.8 -4.9
v 4.4 5.8 -6
v 4.4 7.5 -4.9
v 4.4 7.5 -6
v 4.6 2 -5.1
v 4.6 2 -5.6
v 4.6 2.3 -5.1
v 4.6 2.3 -5.3
v 4.6 2.3 -5.6
v 4.6 3.9 -5.1
v 4.6 3.9 -5.3
v 4.6 3.9 -5.6
v 4.6 3.9 -5.7
v 4.6 4 -5.3
v 4.6 4 -5.6
v 4.6 4.1 -5.1
v 4.6 4.1 -5.3
v 4.6 4.1 -5.6
v 4.6 4.1 -5.7
v 4.6 4.3 -5.3
v 4.6 4.3 -5.6
v 4.6 4.5 -5.3
v 4.6 4.5 -5.6
v 4.6 5.7 -5.3
v 4.6 5.7 -5.6
v 4.6 5.8 -5.1
v 4.6 5.8 -5.7
v 4.6 6.7 -4.8
v 4.6 6.7 -4.9
v 4.6 6.8 -4.8
v 4.6 6.8 -4.9
v 4.9 5.4 -5
v 4.9 5.4 -5.1
v 4.9 5.5 -5
v 4.9 5.5 -5.1
v 4.9 5.8 -5
v 4.9 5.8 -5.1
v 5 6 -4.7
v 5 6 -4.9
v 5 6.5 -4.7
v 5 6.5 -4.9
v 5.2 5.4 -5
v 5.2 5.4 -5.1
v 5.2 5.5 -5
v 5.2 5.5 -5.1
v 5.2 5.8 -5
v 5.2 5.8 -5.1
v 5.2 6.7 -4.8
v 5.2 6.7 -4.9
v 5.2 6.8 -4.8
v 5.2 6.8 -4.9
v 5.3 2 -5.1
v 5.3 2 -5.6
v 5.3 2.3 -5.1
v 5.3 2.3 -5.3
v 5.3 2.3 -5.6
v 5.3 3.9 -5.3
v 5.3 3.9 -5.6
v 4.9 2 -5.1
v 4.9 2 -5.6
v 4.9 2.3 -5.1
v 4.9 2.3 -5.3
v 4.9 2.3 -5.6
v 4.9 3.9 -5.3
v 4.9 3.9 -5.6
v 5 5.4 -5
v 5 5.4 -5.1
v 5 5.5 -5
v 5 5.5 -5.1
v 5 5.8 -5
v 5 5.8 -5.1
v 5 6.7 -4.8
v 5 6.7 -4.9
v 5 6.8 -4.8
v 5 6.8 -4.9
v 5.2 6 -4.7
v 5.2 6 -4.9
v 5.2 6.5 -4.7
v 5.2 6.5 -4.9
v 5.3 5.4 -5
v 5.3 5.4 -5.1
v 5.3 5.5 -5
v 5.3 5.5 -5.1
v 5.3 5.8 -5
v 5.3 5.8 -5.1
v 5.6 2 -5.1
v 5.6 2 -5.6
v 5.6 2.3 -5.1
v 5.6 2.3 -5.3
v 5.6 2.3 -5.6
v 5.6 3.9 -5.1
v 5.6 3.9 -5.3
v 5.6 3.9 -5.6
v 5.6 3.9 -5.7
v 5.6 4 -5.3
v 5.6 4 -5.6
v 5.6 4.1 -5.1
v 5.6 4.1 -5.3
v 5.6 4.1 -5.6
v 5.6 4.1 -5.7
v 5.6 4.3 -5.3
v 5.6 4.3 -5.6
v 5.6 4.5 -5.3
v 5.6 4.5 -5.6
v 5.6 5.7 -5.3
v 5.6 5.7 -5.6
v 5.6 5.8 -5.1
v 5.6 5.8 -5.7
v 5.6 6.7 -4.8
v 5.6 6.7 -4.9
v 5.6 6.8 -4.8
v 5.6 6.8 -4.9
v 5.8 5.8 -4.9
v 5.8 5.8 -6
v 5.8 7.5 -4.9
v 5.8 7.5 -6
v 5.9 4 -5.3
v 5.9 4 -5.6
v 5.9 4.3 -5.3
v 5.9 4.3 -5.6
v 5.9 4.5 -5.3
v 5.9 4.5 -5.6
v 5.9 5.7 -5.3
v 5.9 5.7 -5.6
v 5 6 -4.7
v 5 6.5 -4.7
v 5.2 6 -4.7
v 5.2 6.5 -4.7
v 4.6 6.7 -4.8
v 4.6 6.8 -4.8
v 5 6.7 -4.8
v 5 6.8 -4.8
v 5.2 6.7 -4.8
v 5.2 6.8 -4.8
v 5.6 6.7 -4.8
v 5.6 6.8 -4.8
v 4.4 5.8 -4.9
v 4.4 7.5 -4.9
v 4.5 6 -4.9
v 4.5 7 -4.9
v 4.5 7.1 -4.9
v 4.6 5.9 -4.9
v 4.6 6 -4.9
v 4.6 6.7 -4.9
v 4.6 6.8 -4.9
v 4.6 7.1 -4.9
v 4.6 7.2 -4.9
v 4.7 6.4 -4.9
v 4.7 6.6 -4.9
v 4.8 6.4 -4.9
v 4.8 6.6 -4.9
v 4.9 6.4 -4.9
v 4.9 6.6 -4.9
v 5 6 -4.9
v 5 6.5 -4.9
v 5 6.7 -4.9
v 5 6.8 -4.9
v 5.2 6 -4.9
v 5.2 6.5 -4.9
v 5.2 6.7 -4.9
v 5.2 6.8 -4.9
v 5.3 6.4 -4.9
v 5.3 6.6 -4.9
v 5.4 6.4 -4.9
v 5.4 6.6 -4.9
v 5.5 6.4 -4.9
v 5.5 6.6 -4.9
v 5.6 5.9 -4.9
v 5.6 6 -4.9
v 5.6 6.7 -4.9
v 5.6 6.8 -4.9
v 5.6 7.1 -4.9
v 5.6 7.2 -4.9
v 5.7 6 -4.9
v 5.7 7 -4.9
v 5.7 7.1 -4.9
v 5.8 5.8 -4.9
v 5.8 7.5 -4.9
v 4.9 5.4 -5
v 4.9 5.5 -5
v 4.9 5.8 -5
v 5 5.4 -5
v 5 5.5 -5
v 5 5.8 -5
v 5.2 5.4 -5
v 5.2 5.5 -5
v 5.2 5.8 -5
v 5.3 5.4 -5
v 5.3 5.5 -5
v 5.3 5.8 -5
v 4.6 2 -5.1
v 4.6 2.3 -5.1
v 4.6 3.9 -5.1
v 4.6 4.1 -5.1
v 4.6 5.8 -5.1
v 4.9 2 -5.1
v 4.9 2.3 -5.1
v 4.9 5.4 -5.1
v 4.9 5.5 -5.1
v 4.9 5.8 -5.1
v 5 5.4 -5.1
v 5 5.5 -5.1
v 5 5.8 -5.1
v 5.2 5.4 -5.1
v 5.2 5.5 -5.1
v 5.2 5.8 -5.1
v 5.3 2 -5.1
v 5.3 2.3 -5.1
v 5.3 5.4 -5.1
v 5.3 5.5 -5.1
v 5.3 5.8 -5.1
v 5.6 2 -5.1
v 5.6 2.3 -5.1
v 5.6 3.9 -5.1
v 5.6 4.1 -5.1
v 5.6 5.8 -5.1
v 4.3 4 -5.3
v 4.3 4.3 -5.3
v 4.3 4.5 -5.3
v 4.3 5.7 -5.3
v 4.6 2.3 -5.3
v 4.6 3.9 -5.3
v 4.6 4 -5.3
v 4.6 4.1 -5.3
v 4.6 4.3 -5.3
v 4.6 4.5 -5.3
v 4.6 5.7 -5.3
v 4.9 2.3 -5.3
v 4.9 3.9 -5.3
v 5.3 2.3 -5.3
v 5.3 3.9 -5.3
v 5.6 2.3 -5.3
v 5.6 3.9 -5.3
v 5.6 4 -5.3
v 5.6 4.1 -5.3
v 5.6 4.3 -5.3
v 5.6 4.5 -5.3
v 5.6 5.7 -5.3
v 5.9 4 -5.3
v 5.9 4.3 -5.3
v 5.9 4.5 -5.3
v 5.9 5.7 -5.3
v 4.3 4 -5.6
v 4.3 4.3 -5.6
v 4.3 4.5 -5.6
v 4.3 5.7 -5.6
v 4.6 2 -5.6
v 4.6 2.3 -5.6
v 4.6 3.9 -5.6
v 4.6 4 -5.6
v 4.6 4.1 -5.6
v 4.6 4.3 -5.6
v 4.6 4.5 -5.6
v 4.6 5.7 -5.6
v 4.9 2 -5.6
v 4.9 2.3 -5.6
v 4.9 3.9 -5.6
v 5.3 2 -5.6
v 5.3 2.3 -5.6
v 5.3 3.9 -5.6
v 5.6 2 -5.6
v 5.6 2.3 -5.6
v 5.6 3.9 -5.6
v 5.6 4 -5.6
v 5.6 4.1 -5.6
v 5.6 4.3 -5.6
v 5.6 4.5 -5.6
v 5.6 5.7 -5.6
v 5.9 4 -5.6
v 5.9 4.3 -5.6
v 5.9 4.5 -5.6
v 5.9 5.7 -5.6
v 4.6 3.9 -5.7
v 4.6 4.1 -5.7
v 4.6 5.8 -5.7
v 5.6 3.9 -5.7
v 5.6 4.1 -5.7
v 5.6 5.8 -5.7
v 4.4 5.8 -6
v 4.4 7.5 -6
v 5.8 5.8 -6
v 5.8 7.5 -6
v 4.6 2 -5.1
v 4.9 2 -5.1
v 5.3 2 -5.1
v 5.6 2 -5.1
v 4.6 2 -5.6
v 4.9 2 -5.6
v 5.3 2 -5.6
v 5.6 2 -5.6
v 4.6 3.9 -5.1
v 5.6 3.9 -5.1
v 4.6 3.9 -5.3
v 4.9 3.9 -5.3
v 5.3 3.9 -5.3
v 5.6 3.9 -5.3
v 4.6 3.9 -5.6
v 4.9 3.9 -5.6
v 5.3 3.9 -5.6
v 5.6 3.9 -5.6
v 4.6 3.9 -5.7
v 5.6 3.9 -5.7
v 4.3 4 -5.3
v 4.6 4 -5.3
v 5.6 4 -5.3
v 5.9 4 -5.3
v 4.3 4 -5.6
v 4.6 4 -5.6
v 5.6 4 -5.6
v 5.9 4 -5.6
v 4.9 5.4 -5
v 5 5.4 -5
v 5.2 5.4 -5
v 5.3 5.4 -5
v 4.9 5.4 -5.1
v 5 5.4 -5.1
v 5.2 5.4 -5.1
v 5.3 5.4 -5.1
v 4.4 5.8 -4.9
v 5.8 5.8 -4.9
v 4.9 5.8 -5
v 5 5.8 -5
v 5.2 5.8 -5
v 5.3 5.8 -5
v 4.6 5.8 -5.1
v 4.9 5.8 -5.1
v 5 5.8 -5.1
v 5.2 5.8 -5.1
v 5.3 5.8 -5.1
v 5.6 5.8 -5.1
v 4.6 5.8 -5.7
v 5.6 5.8 -5.7
v 4.4 5.8 -6
v 5.8 5.8 -6
v 5 6 -4.7
v 5.2 6 -4.7
v 5 6 -4.9
v 5.2 6 -4.9
v 4.6 6.7 -4.8
v 5 6.7 -4.8
v 5.2 6.7 -4.8
v 5.6 6.7 -4.8
v 4.6 6.7 -4.9
v 5 6.7 -4.9
v 5.2 6.7 -4.9
v 5.6 6.7 -4.9
v 4.6 2.3 -5.1
v 4.9 2.3 -5.1
v 5.3 2.3 -5.1
v 5.6 2.3 -5.1
v 4.6 2.3 -5.3
v 4.9 2.3 -5.3
v 5.3 2.3 -5.3
v 5.6 2.3 -5.3
v 4.3 5.7 -5.3
v 4.6 5.7 -5.3
v 5.6 5.7 -5.3
v 5.9 5.7 -5.3
v 4.3 5.7 -5.6
v 4.6 5.7 -5.6
v 5.6 5.7 -5.6
v 5.9 5.7 -5.6
v 5 6.5 -4.7
v 5.2 6.5 -4.7
v 5 6.5 -4.9
v 5.2 6.5 -4.9
v 4.6 6.8 -4.8
v 5 6.8 -4.8
v 5.2 6.8 -4.8
v 5.6 6.8 -4.8
v 4.6 6.8 -4.9
v 5 6.8 -4.9
v 5.2 6.8 -4.9
v 5.6 6.8 -4.9
v 4.4 7.5 -4.9
v 5.8 7.5 -4.9
v 4.4 7.5 -6
v 5.8 7.5 -6

# faces
f 3/2/1 2/2/1 1/2/1
f 4/2/1 2/2/1 3/2/1
f 5/7/1 4/7/1 3/7/1
f 6/7/1 4/7/1 5/7/1
f 7/8/1 6/8/1 5/8/1
f 8/8/1 6/8/1 7/8/1
f 11/8/1 10/8/1 9/8/1
f 12/8/1 10/8/1 11/8/1
f 15/7/1 14/7/1 13/7/1
f 16/7/1 14/7/1 15/7/1
f 17/7/1 14/7/1 16/7/1
f 19/6/1 17/6/1 16/6/1
f 20/6/1 17/6/1 19/6/1
f 22/6/1 20/6/1 19/6/1
f 22/6/1 21/6/1 20/6/1
f 22/6/1 19/6/1 18/6/1
f 23/6/1 21/6/1 22/6/1
f 24/6/1 22/6/1 18/6/1
f 25/6/1 22/6/1 24/6/1
f 26/6/1 21/6/1 23/6/1
f 27/6/1 21/6/1 26/6/1
f 28/8/1 25/8/1 24/8/1
f 29/8/1 27/8/1 26/8/1
f 30/8/1 28/8/1 24/8/1
f 31/8/1 27/8/1 29/8/1
f 32/8/1 30/8/1 24/8/1
f 33/8/1 27/8/1 31/8/1
f 34/8/1 32/8/1 24/8/1
f 34/8/1 33/8/1 32/8/1
f 35/8/1 27/8/1 33/8/1
f 35/8/1 33/8/1 34/8/1
f 38/3/1 37/3/1 36/3/1
f 39/3/1 37/3/1 38/3/1
f 42/7/1 41/7/1 40/7/1
f 43/7/1 41/7/1 42/7/1
f 44/6/1 43/6/1 42/6/1
f 45/6/1 43/6/1 44/6/1
f 48/1/1 47/1/1 46/1/1
f 49/1/1 47/1/1 48/1/1
f 52/7/1 51/7/1 50/7/1
f 53/7/1 51/7/1 52/7/1
f 54/6/1 53/6/1 52/6/1
f 55/6/1 53/6/1 54/6/1
f 58/3/1 57/3/1 56/3/1
f 59/3/1 57/3/1 58/3/1
f 62/7/1 61/7/1 60/7/1
f 63/7/1 61/7/1 62/7/1
f 64/7/1 61/7/1 63/7/1
f 65/6/1 64/6/1 63/6/1
f 66/6/1 64/6/1 65/6/1
f 67/7/2 68/7/2 69/7/2
f 69/7/2 68/7/2 70/7/2
f 70/7/2 68/7/2 71/7/2
f 70/6/2 71/6/2 72/6/2
f 72/6/2 71/6/2 73/6/2
f 74/7/2 75/7/2 76/7/2
f 76/7/2 75/7/2 77/7/2
f 76/6/2 77/6/2 78/6/2
f 78/6/2 77/6/2 79/6/2
f 80/3/2 81/3/2 82/3/2
f 82/3/2 81/3/2 83/3/2
f 84/1/2 85/1/2 86/1/2
f 86/1/2 85/1/2 87/1/2
f 88/7/2 89/7/2 90/7/2
f 90/7/2 89/7/2 91/7/2
f 90/6/2 91/6/2 92/6/2
f 92/6/2 91/6/2 93/6/2
f 94/7/2 95/7/2 96/7/2
f 96/7/2 95/7/2 97/7/2
f 97/7/2 95/7/2 98/7/2
f 97/6/2 98/6/2 100/6/2
f 100/6/2 98/6/2 101/6/2
f 100/6/2 101/6/2 103/6/2
f 101/6/2 102/6/2 103/6/2
f 99/6/2 100/6/2 103/6/2
f 103/6/2 102/6/2 104/6/2
f 99/6/2 103/6/2 105/6/2
f 105/6/2 103/6/2 106/6/2
f 104/6/2 102/6/2 107/6/2
f 107/6/2 102/6/2 108/6/2
f 105/8/2 106/8/2 109/8/2
f 107/8/2 108/8/2 110/8/2
f 105/8/2 109/8/2 111/8/2
f 110/8/2 108/8/2 112/8/2
f 105/8/2 111/8/2 113/8/2
f 112/8/2 108/8/2 114/8/2
f 105/8/2 113/8/2 115/8/2
f 113/8/2 114/8/2 115/8/2
f 114/8/2 108/8/2 116/8/2
f 115/8/2 114/8/2 116/8/2
f 117/3/2 118/3/2 119/3/2
f 119/3/2 118/3/2 120/3/2
f 121/8/2 122/8/2 123/8/2
f 123/8/2 122/8/2 124/8/2
f 125/2/2 126/2/2 127/2/2
f 127/2/2 126/2/2 128/2/2
f 127/7/2 128/7/2 129/7/2
f 129/7/2 128/7/2 130/7/2
f 129/8/2 130/8/2 131/8/2
f 131/8/2 130/8/2 132/8/2
f 135/1/3 134/1/3 133/1/3
f 136/1/3 134/1/3 135/1/3
f 139/3/3 138/3/3 137/3/3
f 140/3/3 138/3/3 139/3/3
f 143/3/3 142/3/3 141/3/3
f 144/3/3 142/3/3 143/3/3
f 147/8/3 146/8/3 145/8/3
f 148/8/3 146/8/3 147/8/3
f 149/8/3 146/8/3 148/8/3
f 150/8/3 147/8/3 145/8/3
f 151/2/3 148/2/3 147/2/3
f 151/8/3 147/8/3 150/8/3
f 152/2/3 148/2/3 151/2/3
f 153/2/3 148/2/3 152/2/3
f 154/8/3 146/8/3 149/8/3
f 154/3/3 149/3/3 148/3/3
f 155/8/3 146/8/3 154/8/3
f 156/2/3 151/2/3 150/2/3
f 156/2/3 152/2/3 151/2/3
f 157/2/3 152/2/3 156/2/3
f 158/2/3 156/2/3 150/2/3
f 158/5/3 157/5/3 156/5/3
f 159/2/3 152/2/3 157/2/3
f 159/5/3 157/5/3 158/5/3
f 160/2/3 158/2/3 150/2/3
f 160/4/3 159/4/3 158/4/3
f 161/2/3 152/2/3 159/2/3
f 161/4/3 159/4/3 160/4/3
f 162/2/3 160/2/3 150/2/3
f 162/2/3 161/2/3 160/2/3
f 163/2/3 161/2/3 162/2/3
f 164/2/3 152/2/3 161/2/3
f 164/2/3 161/2/3 163/2/3
f 165/2/3 148/2/3 153/2/3
f 166/2/3 162/2/3 150/2/3
f 167/2/3 164/2/3 163/2/3
f 167/2/3 165/2/3 164/2/3
f 168/2/3 165/2/3 167/2/3
f 169/2/3 148/2/3 165/2/3
f 169/2/3 165/2/3 168/2/3
f 170/2/3 168/2/3 167/2/3
f 170/2/3 167/2/3 166/2/3
f 171/2/3 168/2/3 170/2/3
f 172/2/3 170/2/3 166/2/3
f 172/4/3 171/4/3 170/4/3
f 173/2/3 168/2/3 171/2/3
f 173/4/3 171/4/3 172/4/3
f 174/2/3 172/2/3 166/2/3
f 174/5/3 173/5/3 172/5/3
f 175/2/3 168/2/3 173/2/3
f 175/5/3 173/5/3 174/5/3
f 176/2/3 166/2/3 150/2/3
f 176/8/3 150/8/3 145/8/3
f 176/2/3 175/2/3 174/2/3
f 176/2/3 174/2/3 166/2/3
f 177/2/3 175/2/3 176/2/3
f 178/2/3 168/2/3 175/2/3
f 178/2/3 175/2/3 177/2/3
f 179/2/3 148/2/3 169/2/3
f 180/3/3 155/3/3 154/3/3
f 180/3/3 154/3/3 148/3/3
f 181/8/3 146/8/3 155/8/3
f 181/3/3 155/3/3 180/3/3
f 182/8/3 177/8/3 176/8/3
f 182/2/3 179/2/3 178/2/3
f 182/2/3 178/2/3 177/2/3
f 183/3/3 180/3/3 148/3/3
f 183/2/3 179/2/3 182/2/3
f 183/2/3 148/2/3 179/2/3
f 184/8/3 181/8/3 180/8/3
f 184/3/3 180/3/3 183/3/3
f 185/8/3 182/8/3 176/8/3
f 185/8/3 183/8/3 182/8/3
f 185/8/3 184/8/3 183/8/3
f 185/8/3 176/8/3 145/8/3
f 186/8/3 146/8/3 181/8/3
f 186/8/3 184/8/3 185/8/3
f 186/8/3 181/8/3 184/8/3
f 190/7/3 188/7/3 187/7/3
f 191/6/3 189/6/3 188/6/3
f 191/7/3 188/7/3 190/7/3
f 192/6/3 189/6/3 191/6/3
f 196/7/3 194/7/3 193/7/3
f 197/6/3 195/6/3 194/6/3
f 197/7/3 194/7/3 196/7/3
f 198/6/3 195/6/3 197/6/3
f 204/7/3 200/7/3 199/7/3
f 205/7/3 200/7/3 204/7/3
f 206/8/3 203/8/3 202/8/3
f 207/8/3 203/8/3 206/8/3
f 208/8/3 203/8/3 207/8/3
f 209/8/3 206/8/3 202/8/3
f 212/8/3 209/8/3 202/8/3
f 212/8/3 211/8/3 210/8/3
f 212/8/3 210/8/3 209/8/3
f 213/8/3 211/8/3 212/8/3
f 214/8/3 211/8/3 213/8/3
f 217/8/3 212/8/3 202/8/3
f 220/7/3 216/7/3 215/7/3
f 221/7/3 216/7/3 220/7/3
f 222/6/3 202/6/3 201/6/3
f 223/8/3 219/8/3 218/8/3
f 223/6/3 202/6/3 222/6/3
f 223/8/3 217/8/3 202/8/3
f 223/8/3 218/8/3 217/8/3
f 224/8/3 219/8/3 223/8/3
f 231/2/3 226/2/3 225/2/3
f 232/2/3 226/2/3 231/2/3
f 233/7/3 227/7/3 226/7/3
f 233/2/3 226/2/3 232/2/3
f 234/8/3 228/8/3 227/8/3
f 234/7/3 227/7/3 233/7/3
f 235/8/3 228/8/3 234/8/3
f 236/6/3 230/6/3 229/6/3
f 237/6/3 230/6/3 236/6/3
f 240/6/3 239/6/3 238/6/3
f 241/6/3 239/6/3 240/6/3
f 247/2/3 243/2/3 242/2/3
f 247/2/3 244/2/3 243/2/3
f 248/7/3 245/7/3 244/7/3
f 248/2/3 244/2/3 247/2/3
f 249/8/3 246/8/3 245/8/3
f 249/7/3 245/7/3 248/7/3
f 250/8/3 246/8/3 249/8/3
f 251/2/4 252/2/4 258/2/4
f 258/2/4 252/2/4 259/2/4
f 252/7/4 253/7/4 260/7/4
f 259/2/4 252/2/4 260/2/4
f 253/8/4 254/8/4 261/8/4
f 260/7/4 253/7/4 261/7/4
f 261/8/4 254/8/4 262/8/4
f 255/7/4 256/7/4 263/7/4
f 256/6/4 257/6/4 264/6/4
f 263/7/4 256/7/4 264/7/4
f 264/6/4 257/6/4 265/6/4
f 266/7/4 267/7/4 269/7/4
f 267/6/4 268/6/4 270/6/4
f 269/7/4 267/7/4 270/7/4
f 270/6/4 268/6/4 271/6/4
f 272/2/4 273/2/4 277/2/4
f 273/2/4 274/2/4 277/2/4
f 274/7/4 275/7/4 278/7/4
f 277/2/4 274/2/4 278/2/4
f 275/8/4 276/8/4 279/8/4
f 278/7/4 275/7/4 279/7/4
f 279/8/4 276/8/4 280/8/4
f 281/6/4 282/6/4 284/6/4
f 282/8/4 283/8/4 285/8/4
f 284/6/4 282/6/4 285/6/4
f 285/8/4 283/8/4 286/8/4
f 287/8/4 288/8/4 289/8/4
f 289/8/4 288/8/4 290/8/4
f 295/7/5 292/7/5 291/7/5
f 296/7/5 292/7/5 295/7/5
f 297/7/5 294/7/5 293/7/5
f 298/7/5 294/7/5 297/7/5
f 301/6/5 300/6/5 299/6/5
f 302/6/5 300/6/5 301/6/5
f 303/6/5 300/6/5 302/6/5
f 304/6/5 300/6/5 303/6/5
f 306/6/5 303/6/5 302/6/5
f 307/6/5 303/6/5 306/6/5
f 309/6/5 306/6/5 305/6/5
f 309/6/5 308/6/5 307/6/5
f 309/6/5 307/6/5 306/6/5
f 310/6/5 308/6/5 309/6/5
f 315/2/5 312/2/5 311/2/5
f 316/2/5 312/2/5 315/2/5
f 317/2/5 314/2/5 313/2/5
f 318/2/5 314/2/5 317/2/5
f 323/7/5 320/7/5 319/7/5
f 324/7/5 320/7/5 323/7/5
f 325/7/5 322/7/5 321/7/5
f 326/7/5 322/7/5 325/7/5
f 329/8/5 328/8/5 327/8/5
f 330/8/5 328/8/5 329/8/5
f 331/8/5 328/8/5 330/8/5
f 332/8/5 328/8/5 331/8/5
f 333/8/5 329/8/5 327/8/5
f 334/8/5 329/8/5 333/8/5
f 335/8/5 331/8/5 330/8/5
f 336/8/5 331/8/5 335/8/5
f 337/8/5 328/8/5 332/8/5
f 338/8/5 328/8/5 337/8/5
f 339/8/5 333/8/5 327/8/5
f 340/8/5 328/8/5 338/8/5
f 341/8/5 339/8/5 327/8/5
f 341/8/5 340/8/5 339/8/5
f 342/8/5 328/8/5 340/8/5
f 342/8/5 340/8/5 341/8/5
f 345/1/5 344/1/5 343/1/5
f 346/1/5 344/1/5 345/1/5
f 351/3/5 348/3/5 347/3/5
f 352/3/5 348/3/5 351/3/5
f 353/3/5 350/3/5 349/3/5
f 354/3/5 350/3/5 353/3/5
f 355/7/6 356/7/6 359/7/6
f 359/7/6 356/7/6 360/7/6
f 357/7/6 358/7/6 361/7/6
f 361/7/6 358/7/6 362/7/6
f 363/8/6 364/8/6 367/8/6
f 367/8/6 364/8/6 368/8/6
f 365/8/6 366/8/6 369/8/6
f 369/8/6 366/8/6 370/8/6
f 371/1/6 372/1/6 373/1/6
f 373/1/6 372/1/6 374/1/6
f 375/3/6 376/3/6 379/3/6
f 379/3/6 376/3/6 380/3/6
f 377/3/6 378/3/6 381/3/6
f 381/3/6 378/3/6 382/3/6
f 383/8/6 384/8/6 385/8/6
f 385/8/6 384/8/6 386/8/6
