# MagicaVoxel @ Ephtracy

# group
o 

# material
mtllib Programmer.mtl
usemtl palette

# normals
vn -1 0 0
vn 1 0 0
vn 0 0 1
vn 0 0 -1
vn 0 -1 0
vn 0 1 0

# texcoords
vt 0.201172 0.5
vt 0.205078 0.5
vt 0.294922 0.5
vt 0.302734 0.5
vt 0.716797 0.5
vt 0.720703 0.5
vt 0.724609 0.5
vt 0.916016 0.5
vt 0.982422 0.5

# verts
v 4.3 4 -5.3
v 4.3 4 -5.6
v 4.3 4.3 -5.3
v 4.3 4.3 -5.6
v 4.3 4.5 -5.3
v 4.3 4.5 -5.6
v 4.3 5.7 -5.3
v 4.3 5.7 -5.6
v 4.4 6.5 -4.8
v 4.4 6.5 -5.6
v 4.4 6.6 -4.8
v 4.4 6.6 -5.6
v 4.5 5.8 -4.9
v 4.5 5.8 -5.9
v 4.5 6.5 -4.9
v 4.5 6.5 -5.6
v 4.5 6.6 -4.9
v 4.5 6.6 -5.6
v 4.5 7 -4.9
v 4.5 7 -5.9
v 4.5 7.4 -4.9
v 4.5 7.4 -5.9
v 4.6 2 -5.1
v 4.6 2 -5.6
v 4.6 2.3 -5.1
v 4.6 2.3 -5.3
v 4.6 2.3 -5.6
v 4.6 3.9 -5.1
v 4.6 3.9 -5.3
v 4.6 3.9 -5.6
v 4.6 3.9 -5.7
v 4.6 4 -5.3
v 4.6 4 -5.6
v 4.6 4.1 -5.1
v 4.6 4.1 -5.3
v 4.6 4.1 -5.6
v 4.6 4.1 -5.7
v 4.6 4.3 -5.3
v 4.6 4.3 -5.6
v 4.6 4.5 -5.3
v 4.6 4.5 -5.6
v 4.6 5.7 -5.3
v 4.6 5.7 -5.6
v 4.6 5.8 -5.1
v 4.6 5.8 -5.7
v 4.6 6.3 -4.8
v 4.6 6.3 -4.9
v 4.6 6.5 -4.8
v 4.6 6.5 -4.9
v 4.6 6.6 -4.8
v 4.6 6.6 -4.9
v 4.6 6.7 -4.8
v 4.6 6.7 -4.9
v 4.6 6.8 -4.8
v 4.6 6.8 -4.9
v 4.9 6.4 -4.8
v 4.9 6.4 -4.9
v 4.9 6.6 -4.8
v 4.9 6.6 -4.9
v 5 6 -4.7
v 5 6 -4.9
v 5 6.3 -4.8
v 5 6.3 -4.9
v 5 6.5 -4.7
v 5 6.5 -4.8
v 5.2 6.6 -4.8
v 5.2 6.6 -4.9
v 5.2 6.7 -4.8
v 5.2 6.7 -4.9
v 5.2 6.8 -4.8
v 5.2 6.8 -4.9
v 5.3 2 -5.1
v 5.3 2 -5.6
v 5.3 2.3 -5.1
v 5.3 2.3 -5.3
v 5.3 2.3 -5.6
v 5.3 3.9 -5.3
v 5.3 3.9 -5.6
v 5.5 6.4 -4.8
v 5.5 6.4 -4.9
v 5.5 6.6 -4.8
v 5.5 6.6 -4.9
v 4.7 6.4 -4.8
v 4.7 6.4 -4.9
v 4.7 6.6 -4.8
v 4.7 6.6 -4.9
v 4.9 2 -5.1
v 4.9 2 -5.6
v 4.9 2.3 -5.1
v 4.9 2.3 -5.3
v 4.9 2.3 -5.6
v 4.9 3.9 -5.3
v 4.9 3.9 -5.6
v 5 6.6 -4.8
v 5 6.6 -4.9
v 5 6.7 -4.8
v 5 6.7 -4.9
v 5 6.8 -4.8
v 5 6.8 -4.9
v 5.2 6 -4.7
v 5.2 6 -4.9
v 5.2 6.3 -4.8
v 5.2 6.3 -4.9
v 5.2 6.5 -4.7
v 5.2 6.5 -4.8
v 5.3 6.4 -4.8
v 5.3 6.4 -4.9
v 5.3 6.6 -4.8
v 5.3 6.6 -4.9
v 5.6 2 -5.1
v 5.6 2 -5.6
v 5.6 2.3 -5.1
v 5.6 2.3 -5.3
v 5.6 2.3 -5.6
v 5.6 3.9 -5.1
v 5.6 3.9 -5.3
v 5.6 3.9 -5.6
v 5.6 3.9 -5.7
v 5.6 4 -5.3
v 5.6 4 -5.6
v 5.6 4.1 -5.1
v 5.6 4.1 -5.3
v 5.6 4.1 -5.6
v 5.6 4.1 -5.7
v 5.6 4.3 -5.3
v 5.6 4.3 -5.6
v 5.6 4.5 -5.3
v 5.6 4.5 -5.6
v 5.6 5.7 -5.3
v 5.6 5.7 -5.6
v 5.6 5.8 -5.1
v 5.6 5.8 -5.7
v 5.6 6.3 -4.8
v 5.6 6.3 -4.9
v 5.6 6.5 -4.8
v 5.6 6.5 -4.9
v 5.6 6.6 -4.8
v 5.6 6.6 -4.9
v 5.6 6.7 -4.8
v 5.6 6.7 -4.9
v 5.6 6.8 -4.8
v 5.6 6.8 -4.9
v 5.7 5.8 -4.9
v 5.7 5.8 -5.9
v 5.7 6.5 -4.9
v 5.7 6.5 -5.6
v 5.7 6.6 -4.9
v 5.7 6.6 -5.6
v 5.7 7 -4.9
v 5.7 7 -5.9
v 5.7 7.4 -4.9
v 5.7 7.4 -5.9
v 5.8 6.5 -4.8
v 5.8 6.5 -5.6
v 5.8 6.6 -4.8
v 5.8 6.6 -5.6
v 5.9 4 -5.3
v 5.9 4 -5.6
v 5.9 4.3 -5.3
v 5.9 4.3 -5.6
v 5.9 4.5 -5.3
v 5.9 4.5 -5.6
v 5.9 5.7 -5.3
v 5.9 5.7 -5.6
v 5 6 -4.7
v 5 6.5 -4.7
v 5.2 6 -4.7
v 5.2 6.5 -4.7
v 4.4 6.5 -4.8
v 4.4 6.6 -4.8
v 4.6 6.3 -4.8
v 4.6 6.5 -4.8
v 4.6 6.6 -4.8
v 4.6 6.7 -4.8
v 4.6 6.8 -4.8
v 4.7 6.4 -4.8
v 4.7 6.6 -4.8
v 4.9 6.4 -4.8
v 4.9 6.6 -4.8
v 5 6.3 -4.8
v 5 6.5 -4.8
v 5 6.6 -4.8
v 5 6.7 -4.8
v 5 6.8 -4.8
v 5.2 6.3 -4.8
v 5.2 6.5 -4.8
v 5.2 6.6 -4.8
v 5.2 6.7 -4.8
v 5.2 6.8 -4.8
v 5.3 6.4 -4.8
v 5.3 6.6 -4.8
v 5.5 6.4 -4.8
v 5.5 6.6 -4.8
v 5.6 6.3 -4.8
v 5.6 6.5 -4.8
v 5.6 6.6 -4.8
v 5.6 6.7 -4.8
v 5.6 6.8 -4.8
v 5.8 6.5 -4.8
v 5.8 6.6 -4.8
v 4.5 5.8 -4.9
v 4.5 6.5 -4.9
v 4.5 6.6 -4.9
v 4.5 7 -4.9
v 4.5 7.4 -4.9
v 4.6 6.3 -4.9
v 4.6 6.5 -4.9
v 4.6 6.6 -4.9
v 4.6 6.7 -4.9
v 4.6 6.8 -4.9
v 4.7 6.4 -4.9
v 4.7 6.6 -4.9
v 4.8 6.4 -4.9
v 4.8 6.6 -4.9
v 4.9 6.4 -4.9
v 4.9 6.6 -4.9
v 5 6 -4.9
v 5 6.3 -4.9
v 5 6.6 -4.9
v 5 6.7 -4.9
v 5 6.8 -4.9
v 5.2 6 -4.9
v 5.2 6.3 -4.9
v 5.2 6.6 -4.9
v 5.2 6.7 -4.9
v 5.2 6.8 -4.9
v 5.3 6.4 -4.9
v 5.3 6.6 -4.9
v 5.4 6.4 -4.9
v 5.4 6.6 -4.9
v 5.5 6.4 -4.9
v 5.5 6.6 -4.9
v 5.6 6.3 -4.9
v 5.6 6.5 -4.9
v 5.6 6.6 -4.9
v 5.6 6.7 -4.9
v 5.6 6.8 -4.9
v 5.7 5.8 -4.9
v 5.7 6.5 -4.9
v 5.7 6.6 -4.9
v 5.7 7 -4.9
v 5.7 7.4 -4.9
v 4.6 2 -5.1
v 4.6 2.3 -5.1
v 4.6 3.9 -5.1
v 4.6 4.1 -5.1
v 4.6 5.8 -5.1
v 4.9 2 -5.1
v 4.9 2.3 -5.1
v 5.3 2 -5.1
v 5.3 2.3 -5.1
v 5.6 2 -5.1
v 5.6 2.3 -5.1
v 5.6 3.9 -5.1
v 5.6 4.1 -5.1
v 5.6 5.8 -5.1
v 4.3 4 -5.3
v 4.3 4.3 -5.3
v 4.3 4.5 -5.3
v 4.3 5.7 -5.3
v 4.6 2.3 -5.3
v 4.6 3.9 -5.3
v 4.6 4 -5.3
v 4.6 4.1 -5.3
v 4.6 4.3 -5.3
v 4.6 4.5 -5.3
v 4.6 5.7 -5.3
v 4.9 2.3 -5.3
v 4.9 3.9 -5.3
v 5.3 2.3 -5.3
v 5.3 3.9 -5.3
v 5.6 2.3 -5.3
v 5.6 3.9 -5.3
v 5.6 4 -5.3
v 5.6 4.1 -5.3
v 5.6 4.3 -5.3
v 5.6 4.5 -5.3
v 5.6 5.7 -5.3
v 5.9 4 -5.3
v 5.9 4.3 -5.3
v 5.9 4.5 -5.3
v 5.9 5.7 -5.3
v 4.3 4 -5.6
v 4.3 4.3 -5.6
v 4.3 4.5 -5.6
v 4.3 5.7 -5.6
v 4.4 6.5 -5.6
v 4.4 6.6 -5.6
v 4.5 6.5 -5.6
v 4.5 6.6 -5.6
v 4.6 2 -5.6
v 4.6 2.3 -5.6
v 4.6 3.9 -5.6
v 4.6 4 -5.6
v 4.6 4.1 -5.6
v 4.6 4.3 -5.6
v 4.6 4.5 -5.6
v 4.6 5.7 -5.6
v 4.9 2 -5.6
v 4.9 2.3 -5.6
v 4.9 3.9 -5.6
v 5.3 2 -5.6
v 5.3 2.3 -5.6
v 5.3 3.9 -5.6
v 5.6 2 -5.6
v 5.6 2.3 -5.6
v 5.6 3.9 -5.6
v 5.6 4 -5.6
v 5.6 4.1 -5.6
v 5.6 4.3 -5.6
v 5.6 4.5 -5.6
v 5.6 5.7 -5.6
v 5.7 6.5 -5.6
v 5.7 6.6 -5.6
v 5.8 6.5 -5.6
v 5.8 6.6 -5.6
v 5.9 4 -5.6
v 5.9 4.3 -5.6
v 5.9 4.5 -5.6
v 5.9 5.7 -5.6
v 4.6 3.9 -5.7
v 4.6 4.1 -5.7
v 4.6 5.8 -5.7
v 5.6 3.9 -5.7
v 5.6 4.1 -5.7
v 5.6 5.8 -5.7
v 4.5 5.8 -5.9
v 4.5 7 -5.9
v 4.5 7.4 -5.9
v 5.7 5.8 -5.9
v 5.7 7 -5.9
v 5.7 7.4 -5.9
v 4.6 2 -5.1
v 4.9 2 -5.1
v 5.3 2 -5.1
v 5.6 2 -5.1
v 4.6 2 -5.6
v 4.9 2 -5.6
v 5.3 2 -5.6
v 5.6 2 -5.6
v 4.6 3.9 -5.1
v 5.6 3.9 -5.1
v 4.6 3.9 -5.3
v 4.9 3.9 -5.3
v 5.3 3.9 -5.3
v 5.6 3.9 -5.3
v 4.6 3.9 -5.6
v 4.9 3.9 -5.6
v 5.3 3.9 -5.6
v 5.6 3.9 -5.6
v 4.6 3.9 -5.7
v 5.6 3.9 -5.7
v 4.3 4 -5.3
v 4.6 4 -5.3
v 5.6 4 -5.3
v 5.9 4 -5.3
v 4.3 4 -5.6
v 4.6 4 -5.6
v 5.6 4 -5.6
v 5.9 4 -5.6
v 4.5 5.8 -4.9
v 5.7 5.8 -4.9
v 4.6 5.8 -5.1
v 5.6 5.8 -5.1
v 4.6 5.8 -5.7
v 5.6 5.8 -5.7
v 4.5 5.8 -5.9
v 5.7 5.8 -5.9
v 5 6 -4.7
v 5.2 6 -4.7
v 5 6 -4.9
v 5.2 6 -4.9
v 4.6 6.3 -4.8
v 5 6.3 -4.8
v 5.2 6.3 -4.8
v 5.6 6.3 -4.8
v 4.6 6.3 -4.9
v 5 6.3 -4.9
v 5.2 6.3 -4.9
v 5.6 6.3 -4.9
v 4.4 6.5 -4.8
v 4.6 6.5 -4.8
v 5.6 6.5 -4.8
v 5.8 6.5 -4.8
v 4.5 6.5 -4.9
v 4.6 6.5 -4.9
v 5.6 6.5 -4.9
v 5.7 6.5 -4.9
v 4.4 6.5 -5.6
v 4.5 6.5 -5.6
v 5.7 6.5 -5.6
v 5.8 6.5 -5.6
v 4.7 6.6 -4.8
v 4.9 6.6 -4.8
v 5.3 6.6 -4.8
v 5.5 6.6 -4.8
v 4.7 6.6 -4.9
v 4.8 6.6 -4.9
v 4.9 6.6 -4.9
v 5.3 6.6 -4.9
v 5.4 6.6 -4.9
v 5.5 6.6 -4.9
v 4.6 2.3 -5.1
v 4.9 2.3 -5.1
v 5.3 2.3 -5.1
v 5.6 2.3 -5.1
v 4.6 2.3 -5.3
v 4.9 2.3 -5.3
v 5.3 2.3 -5.3
v 5.6 2.3 -5.3
v 4.3 5.7 -5.3
v 4.6 5.7 -5.3
v 5.6 5.7 -5.3
v 5.9 5.7 -5.3
v 4.3 5.7 -5.6
v 4.6 5.7 -5.6
v 5.6 5.7 -5.6
v 5.9 5.7 -5.6
v 4.7 6.4 -4.8
v 4.9 6.4 -4.8
v 5.3 6.4 -4.8
v 5.5 6.4 -4.8
v 4.7 6.4 -4.9
v 4.8 6.4 -4.9
v 4.9 6.4 -4.9
v 5.3 6.4 -4.9
v 5.4 6.4 -4.9
v 5.5 6.4 -4.9
v 5 6.5 -4.7
v 5.2 6.5 -4.7
v 5 6.5 -4.8
v 5.2 6.5 -4.8
v 4.4 6.6 -4.8
v 4.6 6.6 -4.8
v 5 6.6 -4.8
v 5.2 6.6 -4.8
v 5.6 6.6 -4.8
v 5.8 6.6 -4.8
v 4.5 6.6 -4.9
v 4.6 6.6 -4.9
v 5 6.6 -4.9
v 5.2 6.6 -4.9
v 5.6 6.6 -4.9
v 5.7 6.6 -4.9
v 4.4 6.6 -5.6
v 4.5 6.6 -5.6
v 5.7 6.6 -5.6
v 5.8 6.6 -5.6
v 4.6 6.8 -4.8
v 5 6.8 -4.8
v 5.2 6.8 -4.8
v 5.6 6.8 -4.8
v 4.6 6.8 -4.9
v 5 6.8 -4.9
v 5.2 6.8 -4.9
v 5.6 6.8 -4.9
v 4.5 7.4 -4.9
v 5.7 7.4 -4.9
v 4.5 7.4 -5.9
v 5.7 7.4 -5.9

# faces
f 3/3/1 2/3/1 1/3/1
f 4/3/1 2/3/1 3/3/1
f 5/6/1 4/6/1 3/6/1
f 6/6/1 4/6/1 5/6/1
f 7/7/1 6/7/1 5/7/1
f 8/7/1 6/7/1 7/7/1
f 11/9/1 10/9/1 9/9/1
f 12/9/1 10/9/1 11/9/1
f 15/3/1 14/3/1 13/3/1
f 16/3/1 14/3/1 15/3/1
f 18/3/1 14/3/1 16/3/1
f 19/3/1 18/3/1 17/3/1
f 20/3/1 14/3/1 18/3/1
f 20/3/1 18/3/1 19/3/1
f 21/4/1 20/4/1 19/4/1
f 22/4/1 20/4/1 21/4/1
f 25/9/1 24/9/1 23/9/1
f 26/9/1 24/9/1 25/9/1
f 27/9/1 24/9/1 26/9/1
f 29/1/1 27/1/1 26/1/1
f 30/1/1 27/1/1 29/1/1
f 32/1/1 30/1/1 29/1/1
f 32/1/1 31/1/1 30/1/1
f 32/1/1 29/1/1 28/1/1
f 33/1/1 31/1/1 32/1/1
f 34/1/1 32/1/1 28/1/1
f 35/1/1 32/1/1 34/1/1
f 36/1/1 31/1/1 33/1/1
f 37/1/1 31/1/1 36/1/1
f 38/7/1 35/7/1 34/7/1
f 39/7/1 37/7/1 36/7/1
f 40/7/1 38/7/1 34/7/1
f 41/7/1 37/7/1 39/7/1
f 42/7/1 40/7/1 34/7/1
f 43/7/1 37/7/1 41/7/1
f 44/7/1 42/7/1 34/7/1
f 44/7/1 43/7/1 42/7/1
f 45/7/1 37/7/1 43/7/1
f 45/7/1 43/7/1 44/7/1
f 48/9/1 47/9/1 46/9/1
f 49/9/1 47/9/1 48/9/1
f 52/9/1 51/9/1 50/9/1
f 53/9/1 51/9/1 52/9/1
f 54/4/1 53/4/1 52/4/1
f 55/4/1 53/4/1 54/4/1
f 58/9/1 57/9/1 56/9/1
f 59/9/1 57/9/1 58/9/1
f 62/2/1 61/2/1 60/2/1
f 63/2/1 61/2/1 62/2/1
f 64/2/1 62/2/1 60/2/1
f 65/2/1 62/2/1 64/2/1
f 68/9/1 67/9/1 66/9/1
f 69/9/1 67/9/1 68/9/1
f 70/4/1 69/4/1 68/4/1
f 71/4/1 69/4/1 70/4/1
f 74/9/1 73/9/1 72/9/1
f 75/9/1 73/9/1 74/9/1
f 76/9/1 73/9/1 75/9/1
f 77/1/1 76/1/1 75/1/1
f 78/1/1 76/1/1 77/1/1
f 81/9/1 80/9/1 79/9/1
f 82/9/1 80/9/1 81/9/1
f 83/9/2 84/9/2 85/9/2
f 85/9/2 84/9/2 86/9/2
f 87/9/2 88/9/2 89/9/2
f 89/9/2 88/9/2 90/9/2
f 90/9/2 88/9/2 91/9/2
f 90/1/2 91/1/2 92/1/2
f 92/1/2 91/1/2 93/1/2
f 94/9/2 95/9/2 96/9/2
f 96/9/2 95/9/2 97/9/2
f 96/4/2 97/4/2 98/4/2
f 98/4/2 97/4/2 99/4/2
f 100/2/2 101/2/2 102/2/2
f 102/2/2 101/2/2 103/2/2
f 100/2/2 102/2/2 104/2/2
f 104/2/2 102/2/2 105/2/2
f 106/9/2 107/9/2 108/9/2
f 108/9/2 107/9/2 109/9/2
f 110/9/2 111/9/2 112/9/2
f 112/9/2 111/9/2 113/9/2
f 113/9/2 111/9/2 114/9/2
f 113/1/2 114/1/2 116/1/2
f 116/1/2 114/1/2 117/1/2
f 116/1/2 117/1/2 119/1/2
f 117/1/2 118/1/2 119/1/2
f 115/1/2 116/1/2 119/1/2
f 119/1/2 118/1/2 120/1/2
f 115/1/2 119/1/2 121/1/2
f 121/1/2 119/1/2 122/1/2
f 120/1/2 118/1/2 123/1/2
f 123/1/2 118/1/2 124/1/2
f 121/7/2 122/7/2 125/7/2
f 123/7/2 124/7/2 126/7/2
f 121/7/2 125/7/2 127/7/2
f 126/7/2 124/7/2 128/7/2
f 121/7/2 127/7/2 129/7/2
f 128/7/2 124/7/2 130/7/2
f 121/7/2 129/7/2 131/7/2
f 129/7/2 130/7/2 131/7/2
f 130/7/2 124/7/2 132/7/2
f 131/7/2 130/7/2 132/7/2
f 133/9/2 134/9/2 135/9/2
f 135/9/2 134/9/2 136/9/2
f 137/9/2 138/9/2 139/9/2
f 139/9/2 138/9/2 140/9/2
f 139/4/2 140/4/2 141/4/2
f 141/4/2 140/4/2 142/4/2
f 143/3/2 144/3/2 145/3/2
f 145/3/2 144/3/2 146/3/2
f 146/3/2 144/3/2 148/3/2
f 147/3/2 148/3/2 149/3/2
f 148/3/2 144/3/2 150/3/2
f 149/3/2 148/3/2 150/3/2
f 149/4/2 150/4/2 151/4/2
f 151/4/2 150/4/2 152/4/2
f 153/9/2 154/9/2 155/9/2
f 155/9/2 154/9/2 156/9/2
f 157/3/2 158/3/2 159/3/2
f 159/3/2 158/3/2 160/3/2
f 159/6/2 160/6/2 161/6/2
f 161/6/2 160/6/2 162/6/2
f 161/7/2 162/7/2 163/7/2
f 163/7/2 162/7/2 164/7/2
f 167/2/3 166/2/3 165/2/3
f 168/2/3 166/2/3 167/2/3
f 172/9/3 170/9/3 169/9/3
f 173/9/3 170/9/3 172/9/3
f 176/9/3 172/9/3 171/9/3
f 176/9/3 173/9/3 172/9/3
f 176/9/3 174/9/3 173/9/3
f 177/9/3 174/9/3 176/9/3
f 178/9/3 176/9/3 171/9/3
f 179/9/3 174/9/3 177/9/3
f 180/9/3 178/9/3 171/9/3
f 180/9/3 179/9/3 178/9/3
f 181/9/3 179/9/3 180/9/3
f 182/9/3 174/9/3 179/9/3
f 182/9/3 179/9/3 181/9/3
f 183/4/3 175/4/3 174/4/3
f 183/9/3 174/9/3 182/9/3
f 184/4/3 175/4/3 183/4/3
f 186/9/3 182/9/3 181/9/3
f 187/9/3 182/9/3 186/9/3
f 190/9/3 186/9/3 185/9/3
f 190/9/3 187/9/3 186/9/3
f 190/9/3 188/9/3 187/9/3
f 191/9/3 188/9/3 190/9/3
f 192/9/3 190/9/3 185/9/3
f 193/9/3 188/9/3 191/9/3
f 194/9/3 192/9/3 185/9/3
f 194/9/3 193/9/3 192/9/3
f 195/9/3 193/9/3 194/9/3
f 196/9/3 188/9/3 193/9/3
f 196/9/3 193/9/3 195/9/3
f 197/4/3 189/4/3 188/4/3
f 197/9/3 188/9/3 196/9/3
f 198/4/3 189/4/3 197/4/3
f 199/9/3 196/9/3 195/9/3
f 200/9/3 196/9/3 199/9/3
f 206/3/3 202/3/3 201/3/3
f 207/3/3 202/3/3 206/3/3
f 208/3/3 204/3/3 203/3/3
f 209/3/3 204/3/3 208/3/3
f 210/3/3 204/3/3 209/3/3
f 213/5/3 212/5/3 211/5/3
f 214/5/3 212/5/3 213/5/3
f 215/8/3 214/8/3 213/8/3
f 216/8/3 214/8/3 215/8/3
f 217/3/3 206/3/3 201/3/3
f 218/3/3 206/3/3 217/3/3
f 221/3/3 204/3/3 210/3/3
f 222/3/3 217/3/3 201/3/3
f 224/3/3 220/3/3 219/3/3
f 224/3/3 221/3/3 220/3/3
f 225/3/3 221/3/3 224/3/3
f 226/3/3 204/3/3 221/3/3
f 226/3/3 221/3/3 225/3/3
f 229/8/3 228/8/3 227/8/3
f 230/8/3 228/8/3 229/8/3
f 231/5/3 230/5/3 229/5/3
f 232/5/3 230/5/3 231/5/3
f 233/3/3 223/3/3 222/3/3
f 237/3/3 204/3/3 226/3/3
f 238/3/3 234/3/3 233/3/3
f 238/3/3 222/3/3 201/3/3
f 238/3/3 233/3/3 222/3/3
f 239/3/3 234/3/3 238/3/3
f 240/3/3 237/3/3 236/3/3
f 240/3/3 236/3/3 235/3/3
f 241/4/3 205/4/3 204/4/3
f 241/3/3 237/3/3 240/3/3
f 241/3/3 204/3/3 237/3/3
f 242/4/3 205/4/3 241/4/3
f 248/9/3 244/9/3 243/9/3
f 249/9/3 244/9/3 248/9/3
f 252/9/3 251/9/3 250/9/3
f 253/9/3 251/9/3 252/9/3
f 254/1/3 246/1/3 245/1/3
f 255/7/3 247/7/3 246/7/3
f 255/1/3 246/1/3 254/1/3
f 256/7/3 247/7/3 255/7/3
f 263/3/3 258/3/3 257/3/3
f 264/3/3 258/3/3 263/3/3
f 265/6/3 259/6/3 258/6/3
f 265/3/3 258/3/3 264/3/3
f 266/7/3 260/7/3 259/7/3
f 266/6/3 259/6/3 265/6/3
f 267/7/3 260/7/3 266/7/3
f 268/1/3 262/1/3 261/1/3
f 269/1/3 262/1/3 268/1/3
f 272/1/3 271/1/3 270/1/3
f 273/1/3 271/1/3 272/1/3
f 279/3/3 275/3/3 274/3/3
f 279/3/3 276/3/3 275/3/3
f 280/6/3 277/6/3 276/6/3
f 280/3/3 276/3/3 279/3/3
f 281/7/3 278/7/3 277/7/3
f 281/6/3 277/6/3 280/6/3
f 282/7/3 278/7/3 281/7/3
f 287/9/4 288/9/4 289/9/4
f 289/9/4 288/9/4 290/9/4
f 283/3/4 284/3/4 294/3/4
f 294/3/4 284/3/4 295/3/4
f 284/6/4 285/6/4 296/6/4
f 295/3/4 284/3/4 296/3/4
f 285/7/4 286/7/4 297/7/4
f 296/6/4 285/6/4 297/6/4
f 297/7/4 286/7/4 298/7/4
f 291/9/4 292/9/4 299/9/4
f 292/1/4 293/1/4 300/1/4
f 299/9/4 292/9/4 300/9/4
f 300/1/4 293/1/4 301/1/4
f 302/9/4 303/9/4 305/9/4
f 303/1/4 304/1/4 306/1/4
f 305/9/4 303/9/4 306/9/4
f 306/1/4 304/1/4 307/1/4
f 313/9/4 314/9/4 315/9/4
f 315/9/4 314/9/4 316/9/4
f 309/3/4 310/3/4 317/3/4
f 308/3/4 309/3/4 317/3/4
f 310/6/4 311/6/4 318/6/4
f 317/3/4 310/3/4 318/3/4
f 311/7/4 312/7/4 319/7/4
f 318/6/4 311/6/4 319/6/4
f 319/7/4 312/7/4 320/7/4
f 321/1/4 322/1/4 324/1/4
f 322/7/4 323/7/4 325/7/4
f 324/1/4 322/1/4 325/1/4
f 325/7/4 323/7/4 326/7/4
f 327/3/4 328/3/4 330/3/4
f 328/4/4 329/4/4 331/4/4
f 330/3/4 328/3/4 331/3/4
f 331/4/4 329/4/4 332/4/4
f 337/9/5 334/9/5 333/9/5
f 338/9/5 334/9/5 337/9/5
f 339/9/5 336/9/5 335/9/5
f 340/9/5 336/9/5 339/9/5
f 343/1/5 342/1/5 341/1/5
f 344/1/5 342/1/5 343/1/5
f 345/1/5 342/1/5 344/1/5
f 346/1/5 342/1/5 345/1/5
f 348/1/5 345/1/5 344/1/5
f 349/1/5 345/1/5 348/1/5
f 351/1/5 348/1/5 347/1/5
f 351/1/5 350/1/5 349/1/5
f 351/1/5 349/1/5 348/1/5
f 352/1/5 350/1/5 351/1/5
f 357/3/5 354/3/5 353/3/5
f 358/3/5 354/3/5 357/3/5
f 359/3/5 356/3/5 355/3/5
f 360/3/5 356/3/5 359/3/5
f 363/3/5 362/3/5 361/3/5
f 364/3/5 362/3/5 363/3/5
f 365/3/5 363/3/5 361/3/5
f 366/3/5 362/3/5 364/3/5
f 367/3/5 365/3/5 361/3/5
f 367/3/5 366/3/5 365/3/5
f 368/3/5 362/3/5 366/3/5
f 368/3/5 366/3/5 367/3/5
f 371/2/5 370/2/5 369/2/5
f 372/2/5 370/2/5 371/2/5
f 377/9/5 374/9/5 373/9/5
f 378/9/5 374/9/5 377/9/5
f 379/9/5 376/9/5 375/9/5
f 380/9/5 376/9/5 379/9/5
f 385/9/5 382/9/5 381/9/5
f 386/9/5 382/9/5 385/9/5
f 387/9/5 384/9/5 383/9/5
f 388/9/5 384/9/5 387/9/5
f 389/9/5 385/9/5 381/9/5
f 390/9/5 385/9/5 389/9/5
f 391/9/5 384/9/5 388/9/5
f 392/9/5 384/9/5 391/9/5
f 397/9/5 394/9/5 393/9/5
f 398/9/5 394/9/5 397/9/5
f 399/9/5 394/9/5 398/9/5
f 400/9/5 396/9/5 395/9/5
f 401/9/5 396/9/5 400/9/5
f 402/9/5 396/9/5 401/9/5
f 403/9/6 404/9/6 407/9/6
f 407/9/6 404/9/6 408/9/6
f 405/9/6 406/9/6 409/9/6
f 409/9/6 406/9/6 410/9/6
f 411/7/6 412/7/6 415/7/6
f 415/7/6 412/7/6 416/7/6
f 413/7/6 414/7/6 417/7/6
f 417/7/6 414/7/6 418/7/6
f 419/9/6 420/9/6 423/9/6
f 423/9/6 420/9/6 424/9/6
f 424/9/6 420/9/6 425/9/6
f 421/9/6 422/9/6 426/9/6
f 426/9/6 422/9/6 427/9/6
f 427/9/6 422/9/6 428/9/6
f 429/2/6 430/2/6 431/2/6
f 431/2/6 430/2/6 432/2/6
f 433/9/6 434/9/6 439/9/6
f 439/9/6 434/9/6 440/9/6
f 435/9/6 436/9/6 441/9/6
f 441/9/6 436/9/6 442/9/6
f 437/9/6 438/9/6 443/9/6
f 443/9/6 438/9/6 444/9/6
f 433/9/6 439/9/6 445/9/6
f 445/9/6 439/9/6 446/9/6
f 444/9/6 438/9/6 447/9/6
f 447/9/6 438/9/6 448/9/6
f 449/4/6 450/4/6 453/4/6
f 453/4/6 450/4/6 454/4/6
f 451/4/6 452/4/6 455/4/6
f 455/4/6 452/4/6 456/4/6
f 457/4/6 458/4/6 459/4/6
f 459/4/6 458/4/6 460/4/6
