# MagicaVoxel @ Ephtracy

# group
o 

# material
mtllib Droid_upperBody.mtl
usemtl palette

# normals
vn -1 0 0
vn 1 0 0
vn 0 0 1
vn 0 0 -1
vn 0 -1 0
vn 0 1 0

# texcoords
vt 0.970703 0.5
vt 0.982422 0.5

# verts
v 5.3 6.6 -4.8
v 5.3 6.6 -5
v 5.3 6.6 -5.4
v 5.3 6.6 -5.6
v 5.3 6.9 -4.8
v 5.3 6.9 -5
v 5.3 6.9 -5.4
v 5.3 6.9 -5.6
v 5.4 5.7 -4.9
v 5.4 5.7 -5.6
v 5.4 5.8 -4.8
v 5.4 5.8 -4.9
v 5.4 6.6 -4.8
v 5.4 6.6 -5
v 5.4 6.6 -5.4
v 5.4 6.6 -5.6
v 5.4 6.9 -5
v 5.4 6.9 -5.4
v 5.5 5.7 -4.8
v 5.5 5.7 -4.9
v 5.5 5.8 -4.8
v 5.5 5.8 -4.9
v 5.7 5.7 -4.7
v 5.7 5.7 -4.8
v 5.7 5.7 -5.6
v 5.7 5.7 -5.7
v 5.7 6.9 -4.8
v 5.7 6.9 -5.6
v 5.7 7 -4.7
v 5.7 7 -5.1
v 5.7 7 -5.5
v 5.7 7 -5.7
v 5.7 7.3 -5.1
v 5.7 7.3 -5.5
v 6.1 6.5 -4.7
v 6.1 6.5 -4.8
v 6.1 6.7 -4.7
v 6.1 6.7 -4.8
v 5.9 6.5 -4.7
v 5.9 6.5 -4.8
v 5.9 6.7 -4.7
v 5.9 6.7 -4.8
v 6.3 5.7 -4.7
v 6.3 5.7 -4.8
v 6.3 5.7 -5.6
v 6.3 5.7 -5.7
v 6.3 6.9 -4.8
v 6.3 6.9 -5.6
v 6.3 7 -4.7
v 6.3 7 -5.1
v 6.3 7 -5.5
v 6.3 7 -5.7
v 6.3 7.3 -5.1
v 6.3 7.3 -5.5
v 6.5 5.7 -4.8
v 6.5 5.7 -4.9
v 6.5 5.8 -4.8
v 6.5 5.8 -4.9
v 6.6 5.7 -4.9
v 6.6 5.7 -5.6
v 6.6 5.8 -4.8
v 6.6 5.8 -4.9
v 6.6 6.5 -4.8
v 6.6 6.5 -5
v 6.6 6.5 -5.4
v 6.6 6.5 -5.6
v 6.6 6.9 -5
v 6.6 6.9 -5.4
v 6.7 6.5 -4.8
v 6.7 6.5 -5
v 6.7 6.5 -5.4
v 6.7 6.5 -5.6
v 6.7 6.9 -4.8
v 6.7 6.9 -5
v 6.7 6.9 -5.4
v 6.7 6.9 -5.6
v 5.7 5.7 -4.7
v 5.7 7 -4.7
v 5.9 6.5 -4.7
v 5.9 6.7 -4.7
v 6.1 6.5 -4.7
v 6.1 6.7 -4.7
v 6.3 5.7 -4.7
v 6.3 7 -4.7
v 5.3 6.6 -4.8
v 5.3 6.9 -4.8
v 5.4 5.8 -4.8
v 5.4 6.6 -4.8
v 5.4 6.9 -4.8
v 5.5 5.7 -4.8
v 5.5 5.8 -4.8
v 5.6 5.7 -4.8
v 5.6 6.9 -4.8
v 5.7 5.7 -4.8
v 5.7 6.9 -4.8
v 5.9 6.5 -4.8
v 5.9 6.7 -4.8
v 6.1 6.5 -4.8
v 6.1 6.7 -4.8
v 6.3 5.7 -4.8
v 6.3 6.9 -4.8
v 6.4 5.7 -4.8
v 6.4 6.9 -4.8
v 6.5 5.7 -4.8
v 6.5 5.8 -4.8
v 6.6 5.8 -4.8
v 6.6 6.5 -4.8
v 6.6 6.9 -4.8
v 6.7 6.5 -4.8
v 6.7 6.9 -4.8
v 5.4 5.7 -4.9
v 5.4 5.8 -4.9
v 5.5 5.7 -4.9
v 5.5 5.8 -4.9
v 6.5 5.7 -4.9
v 6.5 5.8 -4.9
v 6.6 5.7 -4.9
v 6.6 5.8 -4.9
v 5.7 7 -5.1
v 5.7 7.3 -5.1
v 6.3 7 -5.1
v 6.3 7.3 -5.1
v 5.3 6.6 -5.4
v 5.3 6.9 -5.4
v 5.4 6.6 -5.4
v 5.4 6.9 -5.4
v 6.6 6.5 -5.4
v 6.6 6.9 -5.4
v 6.7 6.5 -5.4
v 6.7 6.9 -5.4
v 5.3 6.6 -5
v 5.3 6.9 -5
v 5.4 6.6 -5
v 5.4 6.9 -5
v 6.6 6.5 -5
v 6.6 6.9 -5
v 6.7 6.5 -5
v 6.7 6.9 -5
v 5.7 7 -5.5
v 5.7 7.3 -5.5
v 6.3 7 -5.5
v 6.3 7.3 -5.5
v 5.3 6.6 -5.6
v 5.3 6.9 -5.6
v 5.4 5.7 -5.6
v 5.4 6.6 -5.6
v 5.4 6.9 -5.6
v 5.6 5.7 -5.6
v 5.6 6.9 -5.6
v 5.7 5.7 -5.6
v 5.7 6.9 -5.6
v 6.3 5.7 -5.6
v 6.3 6.9 -5.6
v 6.4 5.7 -5.6
v 6.4 6.9 -5.6
v 6.6 5.7 -5.6
v 6.6 6.5 -5.6
v 6.6 6.9 -5.6
v 6.7 6.5 -5.6
v 6.7 6.9 -5.6
v 5.7 5.7 -5.7
v 5.7 7 -5.7
v 6.3 5.7 -5.7
v 6.3 7 -5.7
v 5.7 5.7 -4.7
v 6.3 5.7 -4.7
v 5.5 5.7 -4.8
v 5.6 5.7 -4.8
v 5.7 5.7 -4.8
v 6.3 5.7 -4.8
v 6.4 5.7 -4.8
v 6.5 5.7 -4.8
v 5.4 5.7 -4.9
v 5.5 5.7 -4.9
v 6.5 5.7 -4.9
v 6.6 5.7 -4.9
v 5.7 5.7 -5.1
v 6.3 5.7 -5.1
v 5.7 5.7 -5.5
v 6.3 5.7 -5.5
v 5.4 5.7 -5.6
v 5.6 5.7 -5.6
v 5.7 5.7 -5.6
v 6.3 5.7 -5.6
v 6.4 5.7 -5.6
v 6.6 5.7 -5.6
v 5.7 5.7 -5.7
v 6.3 5.7 -5.7
v 5.4 5.8 -4.8
v 5.5 5.8 -4.8
v 6.5 5.8 -4.8
v 6.6 5.8 -4.8
v 5.4 5.8 -4.9
v 5.5 5.8 -4.9
v 6.5 5.8 -4.9
v 6.6 5.8 -4.9
v 6.6 6.5 -4.8
v 6.7 6.5 -4.8
v 6.6 6.5 -5
v 6.7 6.5 -5
v 6.6 6.5 -5.4
v 6.7 6.5 -5.4
v 6.6 6.5 -5.6
v 6.7 6.5 -5.6
v 5.3 6.6 -4.8
v 5.4 6.6 -4.8
v 5.3 6.6 -5
v 5.4 6.6 -5
v 5.3 6.6 -5.4
v 5.4 6.6 -5.4
v 5.3 6.6 -5.6
v 5.4 6.6 -5.6
v 5.9 6.7 -4.7
v 6.1 6.7 -4.7
v 5.9 6.7 -4.8
v 6.1 6.7 -4.8
v 5.9 6.5 -4.7
v 6.1 6.5 -4.7
v 5.9 6.5 -4.8
v 6.1 6.5 -4.8
v 5.3 6.9 -4.8
v 5.4 6.9 -4.8
v 5.6 6.9 -4.8
v 5.7 6.9 -4.8
v 6.3 6.9 -4.8
v 6.4 6.9 -4.8
v 6.6 6.9 -4.8
v 6.7 6.9 -4.8
v 5.3 6.9 -5
v 5.4 6.9 -5
v 6.6 6.9 -5
v 6.7 6.9 -5
v 5.3 6.9 -5.4
v 5.4 6.9 -5.4
v 6.6 6.9 -5.4
v 6.7 6.9 -5.4
v 5.3 6.9 -5.6
v 5.4 6.9 -5.6
v 5.6 6.9 -5.6
v 5.7 6.9 -5.6
v 6.3 6.9 -5.6
v 6.4 6.9 -5.6
v 6.6 6.9 -5.6
v 6.7 6.9 -5.6
v 5.7 7 -4.7
v 6.3 7 -4.7
v 5.7 7 -5.1
v 6.3 7 -5.1
v 5.7 7 -5.5
v 6.3 7 -5.5
v 5.7 7 -5.7
v 6.3 7 -5.7
v 5.7 7.3 -5.1
v 6.3 7.3 -5.1
v 5.7 7.3 -5.5
v 6.3 7.3 -5.5

# faces
f 5/2/1 2/2/1 1/2/1
f 6/2/1 2/2/1 5/2/1
f 7/2/1 4/2/1 3/2/1
f 8/2/1 4/2/1 7/2/1
f 12/1/1 10/1/1 9/1/1
f 13/1/1 12/1/1 11/1/1
f 14/1/1 10/1/1 12/1/1
f 14/1/1 12/1/1 13/1/1
f 15/1/1 10/1/1 14/1/1
f 16/1/1 10/1/1 15/1/1
f 17/1/1 15/1/1 14/1/1
f 18/1/1 15/1/1 17/1/1
f 21/1/1 20/1/1 19/1/1
f 22/1/1 20/1/1 21/1/1
f 27/2/1 24/2/1 23/2/1
f 28/2/1 26/2/1 25/2/1
f 29/2/1 27/2/1 23/2/1
f 29/2/1 28/2/1 27/2/1
f 30/2/1 28/2/1 29/2/1
f 31/2/1 28/2/1 30/2/1
f 32/2/1 26/2/1 28/2/1
f 32/2/1 28/2/1 31/2/1
f 33/2/1 31/2/1 30/2/1
f 34/2/1 31/2/1 33/2/1
f 37/2/1 36/2/1 35/2/1
f 38/2/1 36/2/1 37/2/1
f 39/2/2 40/2/2 41/2/2
f 41/2/2 40/2/2 42/2/2
f 43/2/2 44/2/2 47/2/2
f 45/2/2 46/2/2 48/2/2
f 43/2/2 47/2/2 49/2/2
f 47/2/2 48/2/2 49/2/2
f 49/2/2 48/2/2 50/2/2
f 50/2/2 48/2/2 51/2/2
f 48/2/2 46/2/2 52/2/2
f 51/2/2 48/2/2 52/2/2
f 50/2/2 51/2/2 53/2/2
f 53/2/2 51/2/2 54/2/2
f 55/1/2 56/1/2 57/1/2
f 57/1/2 56/1/2 58/1/2
f 59/1/2 60/1/2 62/1/2
f 61/1/2 62/1/2 63/1/2
f 62/1/2 60/1/2 64/1/2
f 63/1/2 62/1/2 64/1/2
f 64/1/2 60/1/2 65/1/2
f 65/1/2 60/1/2 66/1/2
f 64/1/2 65/1/2 67/1/2
f 67/1/2 65/1/2 68/1/2
f 69/2/2 70/2/2 73/2/2
f 73/2/2 70/2/2 74/2/2
f 71/2/2 72/2/2 75/2/2
f 75/2/2 72/2/2 76/2/2
f 79/2/3 78/2/3 77/2/3
f 80/2/3 78/2/3 79/2/3
f 81/2/3 79/2/3 77/2/3
f 82/2/3 78/2/3 80/2/3
f 83/2/3 81/2/3 77/2/3
f 83/2/3 82/2/3 81/2/3
f 84/2/3 78/2/3 82/2/3
f 84/2/3 82/2/3 83/2/3
f 88/2/3 86/2/3 85/2/3
f 89/2/3 86/2/3 88/2/3
f 91/1/3 88/1/3 87/1/3
f 91/1/3 89/1/3 88/1/3
f 92/1/3 91/1/3 90/1/3
f 93/1/3 89/1/3 91/1/3
f 93/1/3 91/1/3 92/1/3
f 94/2/3 93/2/3 92/2/3
f 95/2/3 93/2/3 94/2/3
f 98/1/3 97/1/3 96/1/3
f 99/1/3 97/1/3 98/1/3
f 102/2/3 101/2/3 100/2/3
f 103/2/3 101/2/3 102/2/3
f 104/1/3 103/1/3 102/1/3
f 105/1/3 103/1/3 104/1/3
f 106/1/3 103/1/3 105/1/3
f 107/1/3 103/1/3 106/1/3
f 108/1/3 103/1/3 107/1/3
f 109/2/3 108/2/3 107/2/3
f 110/2/3 108/2/3 109/2/3
f 113/1/3 112/1/3 111/1/3
f 114/1/3 112/1/3 113/1/3
f 117/1/3 116/1/3 115/1/3
f 118/1/3 116/1/3 117/1/3
f 121/2/3 120/2/3 119/2/3
f 122/2/3 120/2/3 121/2/3
f 125/2/3 124/2/3 123/2/3
f 126/2/3 124/2/3 125/2/3
f 129/2/3 128/2/3 127/2/3
f 130/2/3 128/2/3 129/2/3
f 131/2/4 132/2/4 133/2/4
f 133/2/4 132/2/4 134/2/4
f 135/2/4 136/2/4 137/2/4
f 137/2/4 136/2/4 138/2/4
f 139/2/4 140/2/4 141/2/4
f 141/2/4 140/2/4 142/2/4
f 143/2/4 144/2/4 146/2/4
f 146/2/4 144/2/4 147/2/4
f 145/1/4 146/1/4 148/1/4
f 146/1/4 147/1/4 148/1/4
f 148/1/4 147/1/4 149/1/4
f 148/2/4 149/2/4 150/2/4
f 150/2/4 149/2/4 151/2/4
f 152/2/4 153/2/4 154/2/4
f 154/2/4 153/2/4 155/2/4
f 154/1/4 155/1/4 156/1/4
f 156/1/4 155/1/4 157/1/4
f 157/1/4 155/1/4 158/1/4
f 157/2/4 158/2/4 159/2/4
f 159/2/4 158/2/4 160/2/4
f 161/2/4 162/2/4 163/2/4
f 163/2/4 162/2/4 164/2/4
f 169/2/5 166/2/5 165/2/5
f 170/2/5 166/2/5 169/2/5
f 174/1/5 168/1/5 167/1/5
f 175/1/5 172/1/5 171/1/5
f 177/2/5 169/2/5 168/2/5
f 177/2/5 170/2/5 169/2/5
f 177/2/5 171/2/5 170/2/5
f 178/2/5 171/2/5 177/2/5
f 179/2/5 177/2/5 168/2/5
f 179/1/5 178/1/5 177/1/5
f 180/2/5 171/2/5 178/2/5
f 180/1/5 178/1/5 179/1/5
f 181/1/5 174/1/5 173/1/5
f 182/1/5 168/1/5 174/1/5
f 182/1/5 174/1/5 181/1/5
f 182/2/5 179/2/5 168/2/5
f 182/2/5 180/2/5 179/2/5
f 183/2/5 180/2/5 182/2/5
f 184/2/5 171/2/5 180/2/5
f 184/2/5 180/2/5 183/2/5
f 185/1/5 176/1/5 175/1/5
f 185/2/5 171/2/5 184/2/5
f 185/1/5 175/1/5 171/1/5
f 186/1/5 176/1/5 185/1/5
f 187/2/5 184/2/5 183/2/5
f 188/2/5 184/2/5 187/2/5
f 193/1/5 190/1/5 189/1/5
f 194/1/5 190/1/5 193/1/5
f 195/1/5 192/1/5 191/1/5
f 196/1/5 192/1/5 195/1/5
f 199/2/5 198/2/5 197/2/5
f 200/2/5 198/2/5 199/2/5
f 203/2/5 202/2/5 201/2/5
f 204/2/5 202/2/5 203/2/5
f 207/2/5 206/2/5 205/2/5
f 208/2/5 206/2/5 207/2/5
f 211/2/5 210/2/5 209/2/5
f 212/2/5 210/2/5 211/2/5
f 215/2/5 214/2/5 213/2/5
f 216/2/5 214/2/5 215/2/5
f 217/2/6 218/2/6 219/2/6
f 219/2/6 218/2/6 220/2/6
f 221/2/6 222/2/6 229/2/6
f 222/1/6 223/1/6 230/1/6
f 229/2/6 222/2/6 230/2/6
f 227/2/6 228/2/6 231/2/6
f 226/1/6 227/1/6 231/1/6
f 231/2/6 228/2/6 232/2/6
f 230/1/6 223/1/6 234/1/6
f 226/1/6 231/1/6 235/1/6
f 233/2/6 234/2/6 237/2/6
f 234/1/6 223/1/6 238/1/6
f 237/2/6 234/2/6 238/2/6
f 223/2/6 224/2/6 239/2/6
f 238/1/6 223/1/6 239/1/6
f 239/2/6 224/2/6 240/2/6
f 225/2/6 226/2/6 241/2/6
f 226/1/6 235/1/6 242/1/6
f 241/2/6 226/2/6 242/2/6
f 235/2/6 236/2/6 243/2/6
f 242/1/6 235/1/6 243/1/6
f 243/2/6 236/2/6 244/2/6
f 245/2/6 246/2/6 247/2/6
f 247/2/6 246/2/6 248/2/6
f 249/2/6 250/2/6 251/2/6
f 251/2/6 250/2/6 252/2/6
f 253/2/6 254/2/6 255/2/6
f 255/2/6 254/2/6 256/2/6
