# MagicaVoxel @ Ephtracy

# group
o 

# material
mtllib Droid_lowerBody.mtl
usemtl palette

# normals
vn -1 0 0
vn 1 0 0
vn 0 0 1
vn 0 0 -1
vn 0 -1 0
vn 0 1 0

# texcoords
vt 0.970703 0.5
vt 0.982422 0.5

# verts
v 5.3 4.1 -4.9
v 5.3 4.1 -5.4
v 5.3 4.2 -4.9
v 5.3 4.2 -5
v 5.3 4.2 -5.3
v 5.3 4.2 -5.4
v 5.3 4.5 -4.8
v 5.3 4.5 -5
v 5.3 4.5 -5.3
v 5.3 4.5 -5.5
v 5.3 4.6 -4.8
v 5.3 4.6 -5.5
v 5.4 4.1 -4.7
v 5.4 4.1 -4.9
v 5.4 4.1 -5.4
v 5.4 4.1 -5.6
v 5.4 4.2 -4.9
v 5.4 4.2 -5
v 5.4 4.2 -5.3
v 5.4 4.2 -5.4
v 5.4 4.5 -4.8
v 5.4 4.5 -5
v 5.4 4.5 -5.3
v 5.4 4.5 -5.5
v 5.4 4.6 -4.7
v 5.4 4.6 -4.8
v 5.4 4.6 -5.5
v 5.4 4.6 -5.6
v 5.7 4.6 -5.1
v 5.7 4.6 -5.5
v 5.7 5.6 -5.1
v 5.7 5.6 -5.5
v 6.3 4.6 -5.1
v 6.3 4.6 -5.5
v 6.3 5.6 -5.1
v 6.3 5.6 -5.5
v 6.6 4.1 -4.7
v 6.6 4.1 -4.9
v 6.6 4.1 -5.4
v 6.6 4.1 -5.6
v 6.6 4.2 -4.9
v 6.6 4.2 -5
v 6.6 4.2 -5.3
v 6.6 4.2 -5.4
v 6.6 4.5 -4.8
v 6.6 4.5 -5
v 6.6 4.5 -5.3
v 6.6 4.5 -5.5
v 6.6 4.6 -4.7
v 6.6 4.6 -4.8
v 6.6 4.6 -5.5
v 6.6 4.6 -5.6
v 6.7 4.1 -4.9
v 6.7 4.1 -5.4
v 6.7 4.2 -4.9
v 6.7 4.2 -5
v 6.7 4.2 -5.3
v 6.7 4.2 -5.4
v 6.7 4.5 -4.8
v 6.7 4.5 -5
v 6.7 4.5 -5.3
v 6.7 4.5 -5.5
v 6.7 4.6 -4.8
v 6.7 4.6 -5.5
v 5.4 4.1 -4.7
v 5.4 4.6 -4.7
v 5.6 4.1 -4.7
v 5.6 4.6 -4.7
v 6.4 4.1 -4.7
v 6.4 4.6 -4.7
v 6.6 4.1 -4.7
v 6.6 4.6 -4.7
v 5.3 4.5 -4.8
v 5.3 4.6 -4.8
v 5.4 4.5 -4.8
v 5.4 4.6 -4.8
v 6.6 4.5 -4.8
v 6.6 4.6 -4.8
v 6.7 4.5 -4.8
v 6.7 4.6 -4.8
v 5.3 4.1 -4.9
v 5.3 4.2 -4.9
v 5.4 4.1 -4.9
v 5.4 4.2 -4.9
v 6.6 4.1 -4.9
v 6.6 4.2 -4.9
v 6.7 4.1 -4.9
v 6.7 4.2 -4.9
v 5.3 4.2 -5
v 5.3 4.5 -5
v 5.4 4.2 -5
v 5.4 4.5 -5
v 6.6 4.2 -5
v 6.6 4.5 -5
v 6.7 4.2 -5
v 6.7 4.5 -5
v 5.7 4.6 -5.1
v 5.7 5.6 -5.1
v 6.3 4.6 -5.1
v 6.3 5.6 -5.1
v 5.3 4.2 -5.3
v 5.3 4.5 -5.3
v 5.4 4.2 -5.3
v 5.4 4.5 -5.3
v 6.6 4.2 -5.3
v 6.6 4.5 -5.3
v 6.7 4.2 -5.3
v 6.7 4.5 -5.3
v 5.3 4.1 -5.4
v 5.3 4.2 -5.4
v 5.4 4.1 -5.4
v 5.4 4.2 -5.4
v 6.6 4.1 -5.4
v 6.6 4.2 -5.4
v 6.7 4.1 -5.4
v 6.7 4.2 -5.4
v 5.3 4.5 -5.5
v 5.3 4.6 -5.5
v 5.4 4.5 -5.5
v 5.4 4.6 -5.5
v 5.7 4.6 -5.5
v 5.7 5.6 -5.5
v 6.3 4.6 -5.5
v 6.3 5.6 -5.5
v 6.6 4.5 -5.5
v 6.6 4.6 -5.5
v 6.7 4.5 -5.5
v 6.7 4.6 -5.5
v 5.4 4.1 -5.6
v 5.4 4.6 -5.6
v 5.6 4.1 -5.6
v 5.6 4.6 -5.6
v 6.4 4.1 -5.6
v 6.4 4.6 -5.6
v 6.6 4.1 -5.6
v 6.6 4.6 -5.6
v 5.4 4.1 -4.7
v 5.6 4.1 -4.7
v 6.4 4.1 -4.7
v 6.6 4.1 -4.7
v 5.3 4.1 -4.9
v 5.4 4.1 -4.9
v 6.6 4.1 -4.9
v 6.7 4.1 -4.9
v 5.3 4.1 -5.4
v 5.4 4.1 -5.4
v 6.6 4.1 -5.4
v 6.7 4.1 -5.4
v 5.4 4.1 -5.6
v 5.6 4.1 -5.6
v 6.4 4.1 -5.6
v 6.6 4.1 -5.6
v 5.3 4.5 -4.8
v 5.4 4.5 -4.8
v 6.6 4.5 -4.8
v 6.7 4.5 -4.8
v 5.3 4.5 -5
v 5.4 4.5 -5
v 6.6 4.5 -5
v 6.7 4.5 -5
v 5.3 4.5 -5.3
v 5.4 4.5 -5.3
v 6.6 4.5 -5.3
v 6.7 4.5 -5.3
v 5.3 4.5 -5.5
v 5.4 4.5 -5.5
v 6.6 4.5 -5.5
v 6.7 4.5 -5.5
v 5.3 4.2 -4.9
v 5.4 4.2 -4.9
v 6.6 4.2 -4.9
v 6.7 4.2 -4.9
v 5.3 4.2 -5
v 5.4 4.2 -5
v 6.6 4.2 -5
v 6.7 4.2 -5
v 5.3 4.2 -5.3
v 5.4 4.2 -5.3
v 6.6 4.2 -5.3
v 6.7 4.2 -5.3
v 5.3 4.2 -5.4
v 5.4 4.2 -5.4
v 6.6 4.2 -5.4
v 6.7 4.2 -5.4
v 5.4 4.6 -4.7
v 5.6 4.6 -4.7
v 6.4 4.6 -4.7
v 6.6 4.6 -4.7
v 5.3 4.6 -4.8
v 5.4 4.6 -4.8
v 6.6 4.6 -4.8
v 6.7 4.6 -4.8
v 5.7 4.6 -5.1
v 6.3 4.6 -5.1
v 5.3 4.6 -5.5
v 5.4 4.6 -5.5
v 5.7 4.6 -5.5
v 6.3 4.6 -5.5
v 6.6 4.6 -5.5
v 6.7 4.6 -5.5
v 5.4 4.6 -5.6
v 5.6 4.6 -5.6
v 6.4 4.6 -5.6
v 6.6 4.6 -5.6
v 5.7 5.6 -5.1
v 6.3 5.6 -5.1
v 5.7 5.6 -5.5
v 6.3 5.6 -5.5

# faces
f 3/2/1 2/2/1 1/2/1
f 4/2/1 2/2/1 3/2/1
f 5/2/1 2/2/1 4/2/1
f 6/2/1 2/2/1 5/2/1
f 8/2/1 5/2/1 4/2/1
f 9/2/1 5/2/1 8/2/1
f 11/2/1 9/2/1 8/2/1
f 11/2/1 10/2/1 9/2/1
f 11/2/1 8/2/1 7/2/1
f 12/2/1 10/2/1 11/2/1
f 17/1/1 14/1/1 13/1/1
f 20/1/1 16/1/1 15/1/1
f 21/1/1 18/1/1 17/1/1
f 21/1/1 17/1/1 13/1/1
f 22/1/1 18/1/1 21/1/1
f 23/1/1 20/1/1 19/1/1
f 24/1/1 16/1/1 20/1/1
f 24/1/1 20/1/1 23/1/1
f 25/1/1 21/1/1 13/1/1
f 26/1/1 21/1/1 25/1/1
f 27/1/1 16/1/1 24/1/1
f 28/1/1 16/1/1 27/1/1
f 31/2/1 30/2/1 29/2/1
f 32/2/1 30/2/1 31/2/1
f 33/2/2 34/2/2 35/2/2
f 35/2/2 34/2/2 36/2/2
f 37/1/2 38/1/2 41/1/2
f 39/1/2 40/1/2 44/1/2
f 41/1/2 42/1/2 45/1/2
f 37/1/2 41/1/2 45/1/2
f 45/1/2 42/1/2 46/1/2
f 43/1/2 44/1/2 47/1/2
f 44/1/2 40/1/2 48/1/2
f 47/1/2 44/1/2 48/1/2
f 37/1/2 45/1/2 49/1/2
f 49/1/2 45/1/2 50/1/2
f 48/1/2 40/1/2 51/1/2
f 51/1/2 40/1/2 52/1/2
f 53/2/2 54/2/2 55/2/2
f 55/2/2 54/2/2 56/2/2
f 56/2/2 54/2/2 57/2/2
f 57/2/2 54/2/2 58/2/2
f 56/2/2 57/2/2 60/2/2
f 60/2/2 57/2/2 61/2/2
f 60/2/2 61/2/2 63/2/2
f 61/2/2 62/2/2 63/2/2
f 59/2/2 60/2/2 63/2/2
f 63/2/2 62/2/2 64/2/2
f 67/1/3 66/1/3 65/1/3
f 68/1/3 66/1/3 67/1/3
f 69/2/3 68/2/3 67/2/3
f 70/2/3 68/2/3 69/2/3
f 71/1/3 70/1/3 69/1/3
f 72/1/3 70/1/3 71/1/3
f 75/2/3 74/2/3 73/2/3
f 76/2/3 74/2/3 75/2/3
f 79/2/3 78/2/3 77/2/3
f 80/2/3 78/2/3 79/2/3
f 83/2/3 82/2/3 81/2/3
f 84/2/3 82/2/3 83/2/3
f 87/2/3 86/2/3 85/2/3
f 88/2/3 86/2/3 87/2/3
f 91/2/3 90/2/3 89/2/3
f 92/2/3 90/2/3 91/2/3
f 95/2/3 94/2/3 93/2/3
f 96/2/3 94/2/3 95/2/3
f 99/2/3 98/2/3 97/2/3
f 100/2/3 98/2/3 99/2/3
f 101/2/4 102/2/4 103/2/4
f 103/2/4 102/2/4 104/2/4
f 105/2/4 106/2/4 107/2/4
f 107/2/4 106/2/4 108/2/4
f 109/2/4 110/2/4 111/2/4
f 111/2/4 110/2/4 112/2/4
f 113/2/4 114/2/4 115/2/4
f 115/2/4 114/2/4 116/2/4
f 117/2/4 118/2/4 119/2/4
f 119/2/4 118/2/4 120/2/4
f 121/2/4 122/2/4 123/2/4
f 123/2/4 122/2/4 124/2/4
f 125/2/4 126/2/4 127/2/4
f 127/2/4 126/2/4 128/2/4
f 129/1/4 130/1/4 131/1/4
f 131/1/4 130/1/4 132/1/4
f 131/2/4 132/2/4 133/2/4
f 133/2/4 132/2/4 134/2/4
f 133/1/4 134/1/4 135/1/4
f 135/1/4 134/1/4 136/1/4
f 142/1/5 138/1/5 137/1/5
f 143/1/5 140/1/5 139/1/5
f 145/2/5 142/2/5 141/2/5
f 146/1/5 138/1/5 142/1/5
f 146/2/5 142/2/5 145/2/5
f 147/2/5 144/2/5 143/2/5
f 147/1/5 143/1/5 139/1/5
f 148/2/5 144/2/5 147/2/5
f 149/1/5 138/1/5 146/1/5
f 150/2/5 139/2/5 138/2/5
f 150/1/5 138/1/5 149/1/5
f 151/1/5 147/1/5 139/1/5
f 151/2/5 139/2/5 150/2/5
f 152/1/5 147/1/5 151/1/5
f 157/2/5 154/2/5 153/2/5
f 158/2/5 154/2/5 157/2/5
f 159/2/5 156/2/5 155/2/5
f 160/2/5 156/2/5 159/2/5
f 165/2/5 162/2/5 161/2/5
f 166/2/5 162/2/5 165/2/5
f 167/2/5 164/2/5 163/2/5
f 168/2/5 164/2/5 167/2/5
f 169/2/6 170/2/6 173/2/6
f 173/2/6 170/2/6 174/2/6
f 171/2/6 172/2/6 175/2/6
f 175/2/6 172/2/6 176/2/6
f 177/2/6 178/2/6 181/2/6
f 181/2/6 178/2/6 182/2/6
f 179/2/6 180/2/6 183/2/6
f 183/2/6 180/2/6 184/2/6
f 185/1/6 186/1/6 190/1/6
f 187/1/6 188/1/6 191/1/6
f 186/2/6 187/2/6 193/2/6
f 193/2/6 187/2/6 194/2/6
f 189/2/6 190/2/6 195/2/6
f 190/1/6 186/1/6 196/1/6
f 195/2/6 190/2/6 196/2/6
f 186/2/6 193/2/6 197/2/6
f 194/2/6 187/2/6 198/2/6
f 191/2/6 192/2/6 199/2/6
f 187/1/6 191/1/6 199/1/6
f 199/2/6 192/2/6 200/2/6
f 196/1/6 186/1/6 201/1/6
f 186/2/6 197/2/6 202/2/6
f 201/1/6 186/1/6 202/1/6
f 197/2/6 198/2/6 202/2/6
f 198/2/6 187/2/6 203/2/6
f 202/2/6 198/2/6 203/2/6
f 187/1/6 199/1/6 203/1/6
f 203/1/6 199/1/6 204/1/6
f 205/2/6 206/2/6 207/2/6
f 207/2/6 206/2/6 208/2/6
