# Blender v2.92.0 OBJ File: 'robot_body.blend'
# www.blender.org
mtllib Droid_upperBody_New.mtl
o Cube_Cube.001
v 6.522932 7.329442 -5.714323
v 6.522932 7.243736 -5.758989
v 6.574917 7.243736 -5.714323
v 6.522932 5.510589 -5.758989
v 6.522932 5.424883 -5.714323
v 6.574917 5.510589 -5.714323
v 6.522932 7.329442 -4.811087
v 6.574917 7.243736 -4.811087
v 6.522932 7.243736 -4.766421
v 6.522932 5.424883 -4.811087
v 6.522932 5.510589 -4.766421
v 6.574917 5.510589 -4.811087
v 5.471678 7.329442 -5.714323
v 5.419693 7.243736 -5.714323
v 5.471678 7.243736 -5.758989
v 5.471678 5.424883 -5.714323
v 5.471678 5.510589 -5.758989
v 5.419693 5.510589 -5.714323
v 5.471678 7.329442 -4.811087
v 5.471678 7.243736 -4.766421
v 5.419693 7.243736 -4.811087
v 5.471678 5.424883 -4.811087
v 5.419693 5.510589 -4.811087
v 5.471678 5.510589 -4.766421
vt 0.386250 0.761250
vt 0.386250 0.988750
vt 0.613750 0.988750
vt 0.613750 0.761250
vt 0.386250 0.511250
vt 0.386250 0.738750
vt 0.613750 0.738750
vt 0.613750 0.511250
vt 0.636250 0.511250
vt 0.636250 0.738750
vt 0.863750 0.738750
vt 0.863750 0.511250
vt 0.386250 0.011250
vt 0.386250 0.238750
vt 0.613750 0.238750
vt 0.613750 0.011250
vt 0.386250 0.261250
vt 0.386250 0.488750
vt 0.613750 0.488750
vt 0.613750 0.261250
vt 0.136250 0.738750
vt 0.125000 0.738750
vt 0.136250 0.750000
vt 0.613750 1.000000
vt 0.625000 0.988750
vt 0.136250 0.511250
vt 0.136250 0.500000
vt 0.125000 0.511250
vt 0.625000 0.261250
vt 0.613750 0.250000
vt 0.625000 0.261250
vt 0.363750 0.738750
vt 0.363750 0.750000
vt 0.375000 0.738750
vt 0.625000 0.761250
vt 0.613750 0.750000
vt 0.625000 0.761250
vt 0.363750 0.511250
vt 0.375000 0.511250
vt 0.363750 0.500000
vt 0.625000 0.511250
vt 0.613750 0.500000
vt 0.625000 0.511250
vt 0.386250 0.000000
vt 0.613750 0.000000
vt 0.625000 0.011250
vt 0.625000 0.238750
vt 0.625000 0.488750
vn 0.0000 0.0000 -1.0000
vn -1.0000 0.0000 0.0000
vn 0.0000 -1.0000 0.0000
vn 1.0000 0.0000 0.0000
vn 0.0000 0.0000 1.0000
vn 0.6061 0.3676 -0.7054
vn 0.6061 -0.3676 -0.7054
vn 0.6061 0.3676 0.7054
vn 0.6061 -0.3676 0.7054
vn -0.6061 0.3676 -0.7054
vn -0.6061 -0.3676 -0.7054
vn -0.6061 0.3676 0.7054
vn -0.6061 -0.3676 0.7054
vn 0.8550 0.5186 0.0000
vn 0.6517 0.0000 -0.7585
vn 0.8550 -0.5186 0.0000
vn 0.6517 0.0000 0.7585
vn 0.0000 0.4622 0.8868
vn 0.0000 -0.4622 0.8868
vn -0.6517 0.0000 0.7585
vn -0.8550 0.5186 0.0000
vn -0.8550 -0.5186 0.0000
vn -0.6517 0.0000 -0.7585
vn 0.0000 0.4622 -0.8868
vn 0.0000 -0.4622 -0.8868
vn 0.0000 1.0000 0.0000
usemtl None
s off
f 15/1/1 2/2/1 4/3/1 17/4/1
f 21/5/2 14/6/2 18/7/2 23/8/2
f 22/9/3 16/10/3 5/11/3 10/12/3
f 3/13/4 8/14/4 12/15/4 6/16/4
f 9/17/5 20/18/5 24/19/5 11/20/5
f 1/21/6 3/22/6 2/23/6
f 4/3/7 6/24/7 5/25/7
f 7/26/8 9/27/8 8/28/8
f 10/29/9 12/30/9 11/31/9
f 13/32/10 15/33/10 14/34/10
f 16/35/11 18/36/11 17/37/11
f 19/38/12 21/39/12 20/40/12
f 22/41/13 24/42/13 23/43/13
f 7/26/14 8/28/14 3/22/14 1/21/14
f 2/44/15 3/13/15 6/16/15 4/45/15
f 5/46/16 6/16/16 12/15/16 10/47/16
f 11/20/17 12/15/17 8/14/17 9/17/17
f 19/38/18 20/40/18 9/27/18 7/26/18
f 10/29/19 11/20/19 24/19/19 22/48/19
f 23/8/20 24/19/20 20/18/20 21/5/20
f 13/32/21 14/6/21 21/5/21 19/38/21
f 22/9/22 23/8/22 18/7/22 16/10/22
f 17/4/23 18/7/23 14/6/23 15/1/23
f 1/21/24 2/23/24 15/33/24 13/32/24
f 16/35/25 17/4/25 4/3/25 5/25/25
f 7/26/26 1/21/26 13/32/26 19/38/26
o Cube.001_Cube.002
v 6.256081 7.029661 -4.822925
v 6.256081 6.970814 -4.828486
v 6.282460 6.970814 -4.822925
v 6.256081 5.780804 -4.828486
v 6.256081 5.721958 -4.822925
v 6.282460 5.780804 -4.822925
v 6.256081 7.029661 -4.710446
v 6.282460 6.970814 -4.710446
v 6.256081 6.970814 -4.704885
v 6.256081 5.721958 -4.710446
v 6.256081 5.780804 -4.704885
v 6.282460 5.780804 -4.710446
v 5.722630 7.029661 -4.822925
v 5.696250 6.970814 -4.822925
v 5.722630 6.970814 -4.828486
v 5.722630 5.721958 -4.822925
v 5.722630 5.780804 -4.828486
v 5.696250 5.780804 -4.822925
v 5.722630 7.029661 -4.710446
v 5.722630 6.970814 -4.704885
v 5.696250 6.970814 -4.710446
v 5.722630 5.721958 -4.710446
v 5.696250 5.780804 -4.710446
v 5.722630 5.780804 -4.704885
vt 0.386250 0.761250
vt 0.386250 0.988750
vt 0.613750 0.988750
vt 0.613750 0.761250
vt 0.386250 0.511250
vt 0.386250 0.738750
vt 0.613750 0.738750
vt 0.613750 0.511250
vt 0.636250 0.511250
vt 0.636250 0.738750
vt 0.863750 0.738750
vt 0.863750 0.511250
vt 0.386250 0.011250
vt 0.386250 0.238750
vt 0.613750 0.238750
vt 0.613750 0.011250
vt 0.386250 0.261250
vt 0.386250 0.488750
vt 0.613750 0.488750
vt 0.613750 0.261250
vt 0.136250 0.738750
vt 0.125000 0.738750
vt 0.136250 0.750000
vt 0.613750 1.000000
vt 0.625000 0.988750
vt 0.136250 0.511250
vt 0.136250 0.500000
vt 0.125000 0.511250
vt 0.625000 0.261250
vt 0.613750 0.250000
vt 0.625000 0.261250
vt 0.363750 0.738750
vt 0.363750 0.750000
vt 0.375000 0.738750
vt 0.625000 0.761250
vt 0.613750 0.750000
vt 0.625000 0.761250
vt 0.363750 0.511250
vt 0.375000 0.511250
vt 0.363750 0.500000
vt 0.625000 0.511250
vt 0.613750 0.500000
vt 0.625000 0.511250
vt 0.386250 0.000000
vt 0.613750 0.000000
vt 0.625000 0.011250
vt 0.625000 0.238750
vt 0.625000 0.488750
vn 0.0000 0.0000 -1.0000
vn -1.0000 0.0000 0.0000
vn 0.0000 -1.0000 0.0000
vn 1.0000 0.0000 0.0000
vn 0.0000 0.0000 1.0000
vn 0.2054 0.0921 -0.9743
vn 0.2054 -0.0921 -0.9743
vn 0.2054 0.0921 0.9743
vn 0.2054 -0.0921 0.9743
vn -0.2054 0.0921 -0.9743
vn -0.2054 -0.0921 -0.9743
vn -0.2054 0.0921 0.9743
vn -0.2054 -0.0921 0.9743
vn 0.9125 0.4091 0.0000
vn 0.2063 0.0000 -0.9785
vn 0.9125 -0.4091 0.0000
vn 0.2063 0.0000 0.9785
vn 0.0000 0.0941 0.9956
vn 0.0000 -0.0941 0.9956
vn -0.2063 0.0000 0.9785
vn -0.9125 0.4091 0.0000
vn -0.9125 -0.4091 0.0000
vn -0.2063 0.0000 -0.9785
vn 0.0000 0.0941 -0.9956
vn 0.0000 -0.0941 -0.9956
vn 0.0000 1.0000 0.0000
usemtl None
s off
f 39/49/27 26/50/27 28/51/27 41/52/27
f 45/53/28 38/54/28 42/55/28 47/56/28
f 46/57/29 40/58/29 29/59/29 34/60/29
f 27/61/30 32/62/30 36/63/30 30/64/30
f 33/65/31 44/66/31 48/67/31 35/68/31
f 25/69/32 27/70/32 26/71/32
f 28/51/33 30/72/33 29/73/33
f 31/74/34 33/75/34 32/76/34
f 34/77/35 36/78/35 35/79/35
f 37/80/36 39/81/36 38/82/36
f 40/83/37 42/84/37 41/85/37
f 43/86/38 45/87/38 44/88/38
f 46/89/39 48/90/39 47/91/39
f 31/74/40 32/76/40 27/70/40 25/69/40
f 26/92/41 27/61/41 30/64/41 28/93/41
f 29/94/42 30/64/42 36/63/42 34/95/42
f 35/68/43 36/63/43 32/62/43 33/65/43
f 43/86/44 44/88/44 33/75/44 31/74/44
f 34/77/45 35/68/45 48/67/45 46/96/45
f 47/56/46 48/67/46 44/66/46 45/53/46
f 37/80/47 38/54/47 45/53/47 43/86/47
f 46/57/48 47/56/48 42/55/48 40/58/48
f 41/52/49 42/55/49 38/54/49 39/49/49
f 25/69/50 26/71/50 39/81/50 37/80/50
f 40/83/51 41/52/51 28/51/51 29/73/51
f 31/74/52 25/69/52 37/80/52 43/86/52
o Cube.002_Cube.003
v 6.256081 7.029661 -5.806360
v 6.256081 6.970814 -5.811922
v 6.282460 6.970814 -5.806360
v 6.256081 5.780804 -5.811922
v 6.256081 5.721958 -5.806360
v 6.282460 5.780804 -5.806360
v 6.256081 7.029661 -5.693882
v 6.282460 6.970814 -5.693882
v 6.256081 6.970814 -5.688320
v 6.256081 5.721958 -5.693882
v 6.256081 5.780804 -5.688320
v 6.282460 5.780804 -5.693882
v 5.722630 7.029661 -5.806360
v 5.696250 6.970814 -5.806360
v 5.722630 6.970814 -5.811922
v 5.722630 5.721958 -5.806360
v 5.722630 5.780804 -5.811922
v 5.696250 5.780804 -5.806360
v 5.722630 7.029661 -5.693882
v 5.722630 6.970814 -5.688320
v 5.696250 6.970814 -5.693882
v 5.722630 5.721958 -5.693882
v 5.696250 5.780804 -5.693882
v 5.722630 5.780804 -5.688320
vt 0.386250 0.761250
vt 0.386250 0.988750
vt 0.613750 0.988750
vt 0.613750 0.761250
vt 0.386250 0.511250
vt 0.386250 0.738750
vt 0.613750 0.738750
vt 0.613750 0.511250
vt 0.636250 0.511250
vt 0.636250 0.738750
vt 0.863750 0.738750
vt 0.863750 0.511250
vt 0.386250 0.011250
vt 0.386250 0.238750
vt 0.613750 0.238750
vt 0.613750 0.011250
vt 0.386250 0.261250
vt 0.386250 0.488750
vt 0.613750 0.488750
vt 0.613750 0.261250
vt 0.136250 0.738750
vt 0.125000 0.738750
vt 0.136250 0.750000
vt 0.613750 1.000000
vt 0.625000 0.988750
vt 0.136250 0.511250
vt 0.136250 0.500000
vt 0.125000 0.511250
vt 0.625000 0.261250
vt 0.613750 0.250000
vt 0.625000 0.261250
vt 0.363750 0.738750
vt 0.363750 0.750000
vt 0.375000 0.738750
vt 0.625000 0.761250
vt 0.613750 0.750000
vt 0.625000 0.761250
vt 0.363750 0.511250
vt 0.375000 0.511250
vt 0.363750 0.500000
vt 0.625000 0.511250
vt 0.613750 0.500000
vt 0.625000 0.511250
vt 0.386250 0.000000
vt 0.613750 0.000000
vt 0.625000 0.011250
vt 0.625000 0.238750
vt 0.625000 0.488750
vn 0.0000 0.0000 -1.0000
vn -1.0000 0.0000 0.0000
vn 0.0000 -1.0000 0.0000
vn 1.0000 0.0000 0.0000
vn 0.0000 0.0000 1.0000
vn 0.2054 0.0921 -0.9743
vn 0.2054 -0.0921 -0.9743
vn 0.2054 0.0921 0.9743
vn 0.2054 -0.0921 0.9743
vn -0.2054 0.0921 -0.9743
vn -0.2054 -0.0921 -0.9743
vn -0.2054 0.0921 0.9743
vn -0.2054 -0.0921 0.9743
vn 0.9125 0.4091 0.0000
vn 0.2063 0.0000 -0.9785
vn 0.9125 -0.4091 0.0000
vn 0.2063 0.0000 0.9785
vn 0.0000 0.0941 0.9956
vn 0.0000 -0.0941 0.9956
vn -0.2063 0.0000 0.9785
vn -0.9125 0.4091 0.0000
vn -0.9125 -0.4091 0.0000
vn -0.2063 0.0000 -0.9785
vn 0.0000 0.0941 -0.9956
vn 0.0000 -0.0941 -0.9956
vn 0.0000 1.0000 0.0000
usemtl None
s off
f 63/97/53 50/98/53 52/99/53 65/100/53
f 69/101/54 62/102/54 66/103/54 71/104/54
f 70/105/55 64/106/55 53/107/55 58/108/55
f 51/109/56 56/110/56 60/111/56 54/112/56
f 57/113/57 68/114/57 72/115/57 59/116/57
f 49/117/58 51/118/58 50/119/58
f 52/99/59 54/120/59 53/121/59
f 55/122/60 57/123/60 56/124/60
f 58/125/61 60/126/61 59/127/61
f 61/128/62 63/129/62 62/130/62
f 64/131/63 66/132/63 65/133/63
f 67/134/64 69/135/64 68/136/64
f 70/137/65 72/138/65 71/139/65
f 55/122/66 56/124/66 51/118/66 49/117/66
f 50/140/67 51/109/67 54/112/67 52/141/67
f 53/142/68 54/112/68 60/111/68 58/143/68
f 59/116/69 60/111/69 56/110/69 57/113/69
f 67/134/70 68/136/70 57/123/70 55/122/70
f 58/125/71 59/116/71 72/115/71 70/144/71
f 71/104/72 72/115/72 68/114/72 69/101/72
f 61/128/73 62/102/73 69/101/73 67/134/73
f 70/105/74 71/104/74 66/103/74 64/106/74
f 65/100/75 66/103/75 62/102/75 63/97/75
f 49/117/76 50/119/76 63/129/76 61/128/76
f 64/131/77 65/100/77 52/99/77 53/121/77
f 55/122/78 49/117/78 61/128/78 67/134/78
o Cube.003_Cube.004
v 6.102715 6.643956 -5.845670
v 6.102715 6.628501 -5.848034
v 6.113926 6.628501 -5.845670
v 6.102715 6.315975 -5.848034
v 6.102715 6.300520 -5.845670
v 6.113926 6.315975 -5.845670
v 6.102715 6.643956 -5.797866
v 6.113926 6.628501 -5.797866
v 6.102715 6.628501 -5.795503
v 6.102715 6.300520 -5.797866
v 6.102715 6.315975 -5.795503
v 6.113926 6.315975 -5.797866
v 5.875996 6.643956 -5.845670
v 5.864784 6.628501 -5.845670
v 5.875996 6.628501 -5.848034
v 5.875996 6.300520 -5.845670
v 5.875996 6.315975 -5.848034
v 5.864784 6.315975 -5.845670
v 5.875996 6.643956 -5.797866
v 5.875996 6.628501 -5.795503
v 5.864784 6.628501 -5.797866
v 5.875996 6.300520 -5.797866
v 5.864784 6.315975 -5.797866
v 5.875996 6.315975 -5.795503
vt 0.386250 0.761250
vt 0.386250 0.988750
vt 0.613750 0.988750
vt 0.613750 0.761250
vt 0.386250 0.511250
vt 0.386250 0.738750
vt 0.613750 0.738750
vt 0.613750 0.511250
vt 0.636250 0.511250
vt 0.636250 0.738750
vt 0.863750 0.738750
vt 0.863750 0.511250
vt 0.386250 0.011250
vt 0.386250 0.238750
vt 0.613750 0.238750
vt 0.613750 0.011250
vt 0.386250 0.261250
vt 0.386250 0.488750
vt 0.613750 0.488750
vt 0.613750 0.261250
vt 0.136250 0.738750
vt 0.125000 0.738750
vt 0.136250 0.750000
vt 0.613750 1.000000
vt 0.625000 0.988750
vt 0.136250 0.511250
vt 0.136250 0.500000
vt 0.125000 0.511250
vt 0.625000 0.261250
vt 0.613750 0.250000
vt 0.625000 0.261250
vt 0.363750 0.738750
vt 0.363750 0.750000
vt 0.375000 0.738750
vt 0.625000 0.761250
vt 0.613750 0.750000
vt 0.625000 0.761250
vt 0.363750 0.511250
vt 0.375000 0.511250
vt 0.363750 0.500000
vt 0.625000 0.511250
vt 0.613750 0.500000
vt 0.625000 0.511250
vt 0.386250 0.000000
vt 0.613750 0.000000
vt 0.625000 0.011250
vt 0.625000 0.238750
vt 0.625000 0.488750
vn 0.0000 0.0000 -1.0000
vn -1.0000 0.0000 0.0000
vn 0.0000 -1.0000 0.0000
vn 1.0000 0.0000 0.0000
vn 0.0000 0.0000 1.0000
vn 0.2041 0.1480 -0.9677
vn 0.2041 -0.1480 -0.9677
vn 0.2041 0.1480 0.9677
vn 0.2041 -0.1480 0.9677
vn -0.2041 0.1480 -0.9677
vn -0.2041 -0.1480 -0.9677
vn -0.2041 0.1480 0.9677
vn -0.2041 -0.1480 0.9677
vn 0.8094 0.5872 0.0000
vn 0.2063 0.0000 -0.9785
vn 0.8094 -0.5872 0.0000
vn 0.2063 0.0000 0.9785
vn 0.0000 0.1512 0.9885
vn 0.0000 -0.1512 0.9885
vn -0.2063 0.0000 0.9785
vn -0.8095 0.5872 0.0000
vn -0.8095 -0.5872 0.0000
vn -0.2063 0.0000 -0.9785
vn 0.0000 0.1512 -0.9885
vn 0.0000 -0.1512 -0.9885
vn 0.0000 1.0000 0.0000
usemtl None
s off
f 87/145/79 74/146/79 76/147/79 89/148/79
f 93/149/80 86/150/80 90/151/80 95/152/80
f 94/153/81 88/154/81 77/155/81 82/156/81
f 75/157/82 80/158/82 84/159/82 78/160/82
f 81/161/83 92/162/83 96/163/83 83/164/83
f 73/165/84 75/166/84 74/167/84
f 76/147/85 78/168/85 77/169/85
f 79/170/86 81/171/86 80/172/86
f 82/173/87 84/174/87 83/175/87
f 85/176/88 87/177/88 86/178/88
f 88/179/89 90/180/89 89/181/89
f 91/182/90 93/183/90 92/184/90
f 94/185/91 96/186/91 95/187/91
f 79/170/92 80/172/92 75/166/92 73/165/92
f 74/188/93 75/157/93 78/160/93 76/189/93
f 77/190/94 78/160/94 84/159/94 82/191/94
f 83/164/95 84/159/95 80/158/95 81/161/95
f 91/182/96 92/184/96 81/171/96 79/170/96
f 82/173/97 83/164/97 96/163/97 94/192/97
f 95/152/98 96/163/98 92/162/98 93/149/98
f 85/176/99 86/150/99 93/149/99 91/182/99
f 94/153/100 95/152/100 90/151/100 88/154/100
f 89/148/101 90/151/101 86/150/101 87/145/101
f 73/165/102 74/167/102 87/177/102 85/176/102
f 88/179/103 89/148/103 76/147/103 77/169/103
f 79/170/104 73/165/104 85/176/104 91/182/104
