# Blender v2.92.0 OBJ File: ''
# www.blender.org
mtllib Droid_head_new.mtl
o Droid_head_new
v 5.700000 7.500001 -5.599998
v 5.700000 7.400001 -5.599998
v 5.700000 7.400001 -4.699998
v 5.700000 8.100001 -4.699998
v 5.700000 7.500001 -5.699998
v 5.700000 8.100001 -5.699998
v 5.800000 7.700001 -4.599998
v 5.800000 7.400001 -4.699998
v 5.800000 7.400001 -4.599998
v 5.800000 8.000001 -4.499999
v 5.800000 7.700001 -4.499999
v 5.800000 8.000001 -4.599998
v 5.800000 8.100001 -4.699998
v 5.800000 8.200001 -4.599998
v 5.800000 8.100001 -5.699998
v 5.800000 8.200001 -5.699998
v 5.900000 7.700001 -4.499999
v 5.900000 7.600001 -4.599998
v 5.900000 7.600001 -4.499999
v 5.900000 7.700001 -4.599998
v 5.900000 8.100001 -4.499999
v 5.900000 8.000001 -4.599998
v 5.900000 8.000001 -4.499999
v 5.900000 8.100001 -4.599998
v 6.100000 8.000001 -4.499999
v 6.100000 7.700001 -4.599998
v 6.100000 7.700001 -4.499999
v 6.100000 8.000001 -4.599998
v 5.900000 7.700001 -4.499999
v 5.900000 7.700001 -4.599998
v 5.900000 8.000001 -4.499999
v 5.900000 8.000001 -4.599998
v 6.100000 7.600001 -4.499999
v 6.100000 7.600001 -4.599998
v 6.100000 7.700001 -4.499999
v 6.100000 7.700001 -4.599998
v 6.100000 8.000001 -4.499999
v 6.100000 8.000001 -4.599998
v 6.100000 8.100001 -4.499999
v 6.100000 8.100001 -4.599998
v 6.200000 7.400001 -4.599998
v 6.200000 7.400001 -4.699998
v 6.200000 7.700001 -4.599998
v 6.200000 7.700001 -4.499999
v 6.200000 8.000001 -4.499999
v 6.200000 8.000001 -4.599998
v 6.200000 8.100001 -4.699998
v 6.200000 8.200001 -4.599998
v 6.200000 8.100001 -5.699998
v 6.200000 8.200001 -5.699998
v 6.300000 7.400001 -4.699998
v 6.300000 7.400001 -5.599998
v 6.300000 7.500001 -5.599998
v 6.300000 8.100001 -4.699998
v 6.300000 7.500001 -5.699998
v 6.300000 8.100001 -5.699998
v 5.900000 7.700001 -4.499999
v 5.800000 8.000001 -4.499999
v 5.800000 7.700001 -4.499999
v 5.900000 8.000001 -4.499999
v 6.100000 7.600001 -4.499999
v 5.900000 7.600001 -4.499999
v 6.100000 7.700001 -4.499999
v 6.100000 8.000001 -4.499999
v 5.900000 8.100001 -4.499999
v 6.100000 8.100001 -4.499999
v 6.200000 7.700001 -4.499999
v 6.200000 8.000001 -4.499999
v 5.900000 7.600001 -4.599998
v 5.800000 7.700001 -4.599998
v 5.800000 7.400001 -4.599998
v 5.900000 7.700001 -4.599998
v 5.900000 8.000001 -4.599998
v 5.800000 8.200001 -4.599998
v 5.800000 8.000001 -4.599998
v 5.900000 8.100001 -4.599998
v 6.100000 7.600001 -4.599998
v 6.100000 7.700001 -4.599998
v 6.100000 8.000001 -4.599998
v 6.100000 8.100001 -4.599998
v 6.200000 7.400001 -4.599998
v 6.200000 7.700001 -4.599998
v 6.200000 8.000001 -4.599998
v 6.200000 8.200001 -4.599998
v 5.800000 7.400001 -4.699998
v 5.700000 8.100001 -4.699998
v 5.700000 7.400001 -4.699998
v 5.800000 8.100001 -4.699998
v 6.300000 7.400001 -4.699998
v 6.200000 8.100001 -4.699998
v 6.200000 7.400001 -4.699998
v 6.300000 8.100001 -4.699998
v 5.700000 7.400001 -5.599998
v 5.700000 7.500001 -5.599998
v 6.300000 7.400001 -5.599998
v 6.300000 7.500001 -5.599998
v 5.700000 7.500001 -5.699998
v 5.700000 8.100001 -5.699998
v 5.800000 8.100001 -5.699998
v 6.200000 8.100001 -5.699998
v 5.800000 8.200001 -5.699998
v 6.200000 8.200001 -5.699998
v 6.300000 7.500001 -5.699998
v 6.300000 8.100001 -5.699998
v 5.800000 7.400001 -4.699998
v 6.200000 7.400001 -4.599998
v 5.800000 7.400001 -4.599998
v 6.200000 7.400001 -4.699998
v 5.700000 7.400001 -5.599998
v 5.700000 7.400001 -4.699998
v 6.300000 7.400001 -4.699998
v 6.300000 7.400001 -5.599998
v 5.700000 7.500001 -5.699998
v 6.300000 7.500001 -5.599998
v 5.700000 7.500001 -5.599998
v 6.300000 7.500001 -5.699998
v 5.900000 7.600001 -4.599998
v 6.100000 7.600001 -4.499999
v 5.900000 7.600001 -4.499999
v 6.100000 7.600001 -4.599998
v 5.800000 7.700001 -4.599998
v 5.900000 7.700001 -4.499999
v 5.800000 7.700001 -4.499999
v 5.900000 7.700001 -4.599998
v 6.100000 7.700001 -4.599998
v 6.200000 7.700001 -4.499999
v 6.100000 7.700001 -4.499999
v 6.200000 7.700001 -4.599998
v 5.900000 8.000001 -4.599998
v 6.100000 8.000001 -4.499999
v 5.900000 8.000001 -4.499999
v 6.100000 8.000001 -4.599998
v 5.900000 7.700001 -4.499999
v 6.100000 7.700001 -4.499999
v 5.900000 7.700001 -4.599998
v 6.100000 7.700001 -4.599998
v 5.800000 8.000001 -4.499999
v 5.900000 8.000001 -4.499999
v 5.800000 8.000001 -4.599998
v 5.900000 8.000001 -4.599998
v 6.100000 8.000001 -4.499999
v 6.200000 8.000001 -4.499999
v 6.100000 8.000001 -4.599998
v 6.200000 8.000001 -4.599998
v 5.900000 8.100001 -4.499999
v 6.100000 8.100001 -4.499999
v 5.900000 8.100001 -4.599998
v 6.100000 8.100001 -4.599998
v 5.700000 8.100001 -4.699998
v 5.800000 8.100001 -4.699998
v 5.700000 8.100001 -5.699998
v 5.800000 8.100001 -5.699998
v 6.200000 8.100001 -4.699998
v 6.300000 8.100001 -4.699998
v 6.200000 8.100001 -5.699998
v 6.300000 8.100001 -5.699998
v 5.800000 8.200001 -4.599998
v 6.200000 8.200001 -4.599998
v 5.800000 8.200001 -5.699998
v 6.200000 8.200001 -5.699998
vt 0.970703 0.500000
vt 0.970703 0.500000
vt 0.970703 0.500000
vt 0.970703 0.500000
vt 0.970703 0.500000
vt 0.970703 0.500000
vt 0.982422 0.500000
vt 0.982422 0.500000
vt 0.982422 0.500000
vt 0.982422 0.500000
vt 0.982422 0.500000
vt 0.982422 0.500000
vt 0.982422 0.500000
vt 0.982422 0.500000
vt 0.982422 0.500000
vt 0.982422 0.500000
vt 0.982422 0.500000
vt 0.982422 0.500000
vt 0.982422 0.500000
vt 0.982422 0.500000
vt 0.982422 0.500000
vt 0.982422 0.500000
vt 0.982422 0.500000
vt 0.982422 0.500000
vt 0.982422 0.500000
vt 0.982422 0.500000
vt 0.982422 0.500000
vt 0.982422 0.500000
vt 0.982422 0.500000
vt 0.982422 0.500000
vt 0.982422 0.500000
vt 0.982422 0.500000
vt 0.982422 0.500000
vt 0.982422 0.500000
vt 0.982422 0.500000
vt 0.982422 0.500000
vt 0.982422 0.500000
vt 0.982422 0.500000
vt 0.982422 0.500000
vt 0.982422 0.500000
vt 0.982422 0.500000
vt 0.982422 0.500000
vt 0.982422 0.500000
vt 0.982422 0.500000
vt 0.982422 0.500000
vt 0.982422 0.500000
vt 0.982422 0.500000
vt 0.982422 0.500000
vt 0.982422 0.500000
vt 0.982422 0.500000
vt 0.970703 0.500000
vt 0.970703 0.500000
vt 0.970703 0.500000
vt 0.970703 0.500000
vt 0.970703 0.500000
vt 0.970703 0.500000
vt 0.982422 0.500000
vt 0.982422 0.500000
vt 0.982422 0.500000
vt 0.982422 0.500000
vt 0.982422 0.500000
vt 0.982422 0.500000
vt 0.982422 0.500000
vt 0.982422 0.500000
vt 0.982422 0.500000
vt 0.982422 0.500000
vt 0.982422 0.500000
vt 0.982422 0.500000
vt 0.982422 0.500000
vt 0.982422 0.500000
vt 0.982422 0.500000
vt 0.982422 0.500000
vt 0.982422 0.500000
vt 0.982422 0.500000
vt 0.982422 0.500000
vt 0.982422 0.500000
vt 0.982422 0.500000
vt 0.982422 0.500000
vt 0.982422 0.500000
vt 0.982422 0.500000
vt 0.982422 0.500000
vt 0.982422 0.500000
vt 0.982422 0.500000
vt 0.982422 0.500000
vt 0.970703 0.500000
vt 0.970703 0.500000
vt 0.970703 0.500000
vt 0.970703 0.500000
vt 0.970703 0.500000
vt 0.970703 0.500000
vt 0.970703 0.500000
vt 0.970703 0.500000
vt 0.970703 0.500000
vt 0.970703 0.500000
vt 0.970703 0.500000
vt 0.970703 0.500000
vt 0.970703 0.500000
vt 0.970703 0.500000
vt 0.970703 0.500000
vt 0.970703 0.500000
vt 0.982422 0.500000
vt 0.982422 0.500000
vt 0.982422 0.500000
vt 0.982422 0.500000
vt 0.970703 0.500000
vt 0.970703 0.500000
vt 0.982422 0.500000
vt 0.982422 0.500000
vt 0.982422 0.500000
vt 0.982422 0.500000
vt 0.970703 0.500000
vt 0.970703 0.500000
vt 0.970703 0.500000
vt 0.970703 0.500000
vt 0.970703 0.500000
vt 0.970703 0.500000
vt 0.970703 0.500000
vt 0.970703 0.500000
vt 0.970703 0.500000
vt 0.970703 0.500000
vt 0.982422 0.500000
vt 0.982422 0.500000
vt 0.982422 0.500000
vt 0.982422 0.500000
vt 0.982422 0.500000
vt 0.982422 0.500000
vt 0.982422 0.500000
vt 0.982422 0.500000
vt 0.982422 0.500000
vt 0.982422 0.500000
vt 0.982422 0.500000
vt 0.982422 0.500000
vt 0.982422 0.500000
vt 0.982422 0.500000
vt 0.982422 0.500000
vt 0.982422 0.500000
vt 0.982422 0.500000
vt 0.982422 0.500000
vt 0.982422 0.500000
vt 0.982422 0.500000
vt 0.982422 0.500000
vt 0.982422 0.500000
vt 0.982422 0.500000
vt 0.982422 0.500000
vt 0.982422 0.500000
vt 0.982422 0.500000
vt 0.982422 0.500000
vt 0.982422 0.500000
vt 0.982422 0.500000
vt 0.982422 0.500000
vt 0.982422 0.500000
vt 0.982422 0.500000
vt 0.970703 0.500000
vt 0.970703 0.500000
vt 0.970703 0.500000
vt 0.970703 0.500000
vt 0.970703 0.500000
vt 0.970703 0.500000
vt 0.970703 0.500000
vt 0.970703 0.500000
vt 0.982422 0.500000
vt 0.982422 0.500000
vt 0.982422 0.500000
vt 0.982422 0.500000
vn -1.0000 -0.0000 0.0000
vn 1.0000 0.0000 0.0000
vn 0.0000 0.0000 1.0000
vn 0.0000 0.0000 -1.0000
vn 0.0000 -1.0000 0.0000
vn 0.0000 1.0000 0.0000
usemtl palette
s 1
f 1/1/1 2/2/1 3/3/1
f 4/4/1 1/1/1 3/3/1
f 4/4/1 5/5/1 1/1/1
f 6/6/1 5/5/1 4/4/1
f 7/7/1 8/8/1 9/9/1
f 10/10/1 7/7/1 11/11/1
f 12/12/1 8/8/1 7/7/1
f 12/12/1 7/7/1 10/10/1
f 13/13/1 8/8/1 12/12/1
f 14/14/1 13/13/1 12/12/1
f 14/14/1 15/15/1 13/13/1
f 16/16/1 15/15/1 14/14/1
f 17/17/1 18/18/1 19/19/1
f 20/20/1 18/18/1 17/17/1
f 21/21/1 22/22/1 23/23/1
f 24/24/1 22/22/1 21/21/1
f 25/25/1 26/26/1 27/27/1
f 28/28/1 26/26/1 25/25/1
f 29/29/2 30/30/2 31/31/2
f 31/31/2 30/30/2 32/32/2
f 33/33/2 34/34/2 35/35/2
f 35/35/2 34/34/2 36/36/2
f 37/37/2 38/38/2 39/39/2
f 39/39/2 38/38/2 40/40/2
f 41/41/2 42/42/2 43/43/2
f 44/44/2 43/43/2 45/45/2
f 43/43/2 42/42/2 46/46/2
f 45/45/2 43/43/2 46/46/2
f 46/46/2 42/42/2 47/47/2
f 46/46/2 47/47/2 48/48/2
f 47/47/2 49/49/2 48/48/2
f 48/48/2 49/49/2 50/50/2
f 51/51/2 52/52/2 53/53/2
f 51/51/2 53/53/2 54/54/2
f 53/53/2 55/55/2 54/54/2
f 54/54/2 55/55/2 56/56/2
f 57/57/3 58/58/3 59/59/3
f 60/60/3 58/58/3 57/57/3
f 61/61/3 57/57/3 62/62/3
f 63/63/3 57/57/3 61/61/3
f 64/64/3 65/65/3 60/60/3
f 66/66/3 65/65/3 64/64/3
f 67/67/3 64/64/3 63/63/3
f 68/68/3 64/64/3 67/67/3
f 69/69/3 70/70/3 71/71/3
f 72/72/3 70/70/3 69/69/3
f 73/73/3 74/74/3 75/75/3
f 76/76/3 74/74/3 73/73/3
f 77/77/3 69/69/3 71/71/3
f 78/78/3 73/73/3 72/72/3
f 79/79/3 73/73/3 78/78/3
f 80/80/3 74/74/3 76/76/3
f 81/81/3 77/77/3 71/71/3
f 81/81/3 78/78/3 77/77/3
f 82/82/3 78/78/3 81/81/3
f 83/83/3 80/80/3 79/79/3
f 84/84/3 74/74/3 80/80/3
f 84/84/3 80/80/3 83/83/3
f 85/85/3 86/86/3 87/87/3
f 88/88/3 86/86/3 85/85/3
f 89/89/3 90/90/3 91/91/3
f 92/92/3 90/90/3 89/89/3
f 93/93/4 94/94/4 95/95/4
f 95/95/4 94/94/4 96/96/4
f 97/97/4 98/98/4 99/99/4
f 97/97/4 99/99/4 100/100/4
f 99/101/4 101/102/4 100/103/4
f 100/103/4 101/102/4 102/104/4
f 97/97/4 100/100/4 103/105/4
f 103/105/4 100/100/4 104/106/4
f 105/107/5 106/108/5 107/109/5
f 108/110/5 106/108/5 105/107/5
f 109/111/5 105/112/5 110/113/5
f 109/111/5 111/114/5 108/115/5
f 109/111/5 108/115/5 105/112/5
f 112/116/5 111/114/5 109/111/5
f 113/117/5 114/118/5 115/119/5
f 116/120/5 114/118/5 113/117/5
f 117/121/5 118/122/5 119/123/5
f 120/124/5 118/122/5 117/121/5
f 121/125/5 122/126/5 123/127/5
f 124/128/5 122/126/5 121/125/5
f 125/129/5 126/130/5 127/131/5
f 128/132/5 126/130/5 125/129/5
f 129/133/5 130/134/5 131/135/5
f 132/136/5 130/134/5 129/133/5
f 133/137/6 134/138/6 135/139/6
f 135/139/6 134/138/6 136/140/6
f 137/141/6 138/142/6 139/143/6
f 139/143/6 138/142/6 140/144/6
f 141/145/6 142/146/6 143/147/6
f 143/147/6 142/146/6 144/148/6
f 145/149/6 146/150/6 147/151/6
f 147/151/6 146/150/6 148/152/6
f 149/153/6 150/154/6 151/155/6
f 151/155/6 150/154/6 152/156/6
f 153/157/6 154/158/6 155/159/6
f 155/159/6 154/158/6 156/160/6
f 157/161/6 158/162/6 159/163/6
f 159/163/6 158/162/6 160/164/6
o Cube_Cube.001
v 5.218108 7.321701 -4.548628
v 5.218108 7.372616 -4.485628
v 5.129367 7.372616 -4.548628
v 5.218108 8.289074 -4.485628
v 5.218108 8.339989 -4.548628
v 5.129367 8.289074 -4.548628
v 5.218108 7.321701 -5.682632
v 5.129367 7.372616 -5.682632
v 5.218108 7.372616 -5.745632
v 5.218108 8.339989 -5.682632
v 5.218108 8.289074 -5.745632
v 5.129367 8.289074 -5.682632
v 6.815450 7.321701 -4.548628
v 6.904191 7.372616 -4.548628
v 6.815450 7.372616 -4.485628
v 6.815450 8.339989 -4.548628
v 6.815450 8.289074 -4.485628
v 6.904191 8.289074 -4.548628
v 6.815450 7.321701 -5.682632
v 6.815450 7.372616 -5.745632
v 6.904191 7.372616 -5.682632
v 6.815450 8.339989 -5.682632
v 6.904191 8.289074 -5.682632
v 6.815450 8.289074 -5.745632
vt 0.387500 0.762500
vt 0.612500 0.762500
vt 0.612500 0.987500
vt 0.387500 0.987500
vt 0.387500 0.512500
vt 0.612500 0.512500
vt 0.612500 0.737500
vt 0.387500 0.737500
vt 0.637500 0.512500
vt 0.862500 0.512500
vt 0.862500 0.737500
vt 0.637500 0.737500
vt 0.387500 0.012500
vt 0.612500 0.012500
vt 0.612500 0.237500
vt 0.387500 0.237500
vt 0.387500 0.262500
vt 0.612500 0.262500
vt 0.612500 0.487500
vt 0.387500 0.487500
vt 0.137500 0.737500
vt 0.137500 0.750000
vt 0.125000 0.737500
vt 0.625000 0.987500
vt 0.612500 1.000000
vt 0.137500 0.512500
vt 0.125000 0.512500
vt 0.137500 0.500000
vt 0.625000 0.262500
vt 0.625000 0.262500
vt 0.612500 0.250000
vt 0.362500 0.737500
vt 0.375000 0.737500
vt 0.362500 0.750000
vt 0.625000 0.762500
vt 0.625000 0.762500
vt 0.612500 0.750000
vt 0.362500 0.512500
vt 0.362500 0.500000
vt 0.375000 0.512500
vt 0.625000 0.512500
vt 0.625000 0.512500
vt 0.612500 0.500000
vt 0.387500 0.000000
vt 0.612500 0.000000
vt 0.625000 0.012500
vt 0.625000 0.237500
vt 0.625000 0.487500
vn 0.0000 0.0000 1.0000
vn 1.0000 0.0000 0.0000
vn 0.0000 1.0000 0.0000
vn -1.0000 0.0000 0.0000
vn 0.0000 0.0000 -1.0000
vn -0.4075 -0.7103 0.5740
vn -0.4075 0.7103 0.5740
vn -0.4075 -0.7103 -0.5740
vn -0.4075 0.7103 -0.5740
vn 0.4075 -0.7103 0.5740
vn 0.4075 0.7103 0.5740
vn 0.4075 -0.7103 -0.5740
vn 0.4075 0.7103 -0.5740
vn -0.4977 -0.8674 0.0000
vn -0.5789 0.0000 0.8154
vn -0.4977 0.8674 0.0000
vn -0.5789 0.0000 -0.8154
vn 0.0000 -0.7778 -0.6286
vn 0.0000 0.7778 -0.6286
vn 0.5789 0.0000 -0.8154
vn 0.4977 -0.8674 0.0000
vn 0.4977 0.8674 0.0000
vn 0.5789 0.0000 0.8154
vn 0.0000 -0.7778 0.6286
vn 0.0000 0.7778 0.6286
vn 0.0000 -1.0000 0.0000
usemtl None
s off
f 175/165/7 177/166/7 164/167/7 162/168/7
f 181/169/8 183/170/8 178/171/8 174/172/8
f 182/173/9 170/174/9 165/175/9 176/176/9
f 163/177/10 166/178/10 172/179/10 168/180/10
f 169/181/11 171/182/11 184/183/11 180/184/11
f 161/185/12 162/186/12 163/187/12
f 164/167/13 165/188/13 166/189/13
f 167/190/14 168/191/14 169/192/14
f 170/193/15 171/194/15 172/195/15
f 173/196/16 174/197/16 175/198/16
f 176/199/17 177/200/17 178/201/17
f 179/202/18 180/203/18 181/204/18
f 182/205/19 183/206/19 184/207/19
f 167/190/20 161/185/20 163/187/20 168/191/20
f 162/208/21 164/209/21 166/178/21 163/177/21
f 165/210/22 170/211/22 172/179/22 166/178/22
f 171/182/23 169/181/23 168/180/23 172/179/23
f 179/202/24 167/190/24 169/192/24 180/203/24
f 170/193/25 182/212/25 184/183/25 171/182/25
f 183/170/26 181/169/26 180/184/26 184/183/26
f 173/196/27 179/202/27 181/169/27 174/172/27
f 182/173/28 176/176/28 178/171/28 183/170/28
f 177/166/29 175/165/29 174/172/29 178/171/29
f 161/185/30 173/196/30 175/198/30 162/186/30
f 176/199/31 165/188/31 164/167/31 177/166/31
f 167/190/32 179/202/32 173/196/32 161/185/32
o Cone.001
v 6.416972 8.337043 -5.310950
v 6.416972 8.534762 -5.238761
v 6.514273 8.337043 -5.254803
v 6.451723 8.534762 -5.218709
v 6.514273 8.337043 -5.142510
v 6.451723 8.534762 -5.178604
v 6.416972 8.337043 -5.086363
v 6.416972 8.534762 -5.158552
v 6.319671 8.337043 -5.142510
v 6.382222 8.534762 -5.178604
v 6.319671 8.337043 -5.254803
v 6.382222 8.534762 -5.218709
vt 1.000000 0.500000
vt 1.000000 1.000000
vt 0.833333 1.000000
vt 0.833333 0.500000
vt 0.666667 1.000000
vt 0.666667 0.500000
vt 0.500000 1.000000
vt 0.500000 0.500000
vt 0.333333 1.000000
vt 0.333333 0.500000
vt 0.457846 0.370000
vt 0.250000 0.490000
vt 0.042154 0.370000
vt 0.042154 0.130000
vt 0.250000 0.010000
vt 0.457846 0.130000
vt 0.166667 1.000000
vt 0.166667 0.500000
vt -0.000000 1.000000
vt -0.000000 0.500000
vt 0.750000 0.490000
vt 0.957846 0.370000
vt 0.957846 0.130000
vt 0.750000 0.010000
vt 0.542154 0.130000
vt 0.542154 0.370000
vn 0.4765 0.3015 -0.8258
vn 0.9534 0.3016 0.0000
vn 0.4765 0.3015 0.8258
vn -0.4765 0.3015 0.8258
vn 0.0000 1.0000 0.0000
vn -0.9534 0.3016 0.0000
vn -0.4765 0.3015 -0.8258
vn 0.0000 -1.0000 0.0000
usemtl None
s off
f 185/213/33 186/214/33 188/215/33 187/216/33
f 187/216/34 188/215/34 190/217/34 189/218/34
f 189/218/35 190/217/35 192/219/35 191/220/35
f 191/220/36 192/219/36 194/221/36 193/222/36
f 188/223/37 186/224/37 196/225/37 194/226/37 192/227/37 190/228/37
f 193/222/38 194/221/38 196/229/38 195/230/38
f 195/230/39 196/229/39 186/231/39 185/232/39
f 185/233/40 187/234/40 189/235/40 191/236/40 193/237/40 195/238/40
o Cylinder
v 6.415804 8.527613 -5.229551
v 6.415804 8.787613 -5.229551
v 6.421657 8.527613 -5.228975
v 6.421657 8.787613 -5.228975
v 6.427285 8.527613 -5.227267
v 6.427285 8.787613 -5.227267
v 6.432471 8.527613 -5.224495
v 6.432471 8.787613 -5.224495
v 6.437017 8.527613 -5.220764
v 6.437017 8.787613 -5.220764
v 6.440749 8.527613 -5.216218
v 6.440749 8.787613 -5.216218
v 6.443521 8.527613 -5.211031
v 6.443521 8.787613 -5.211031
v 6.445228 8.527613 -5.205404
v 6.445228 8.787613 -5.205404
v 6.445805 8.527613 -5.199551
v 6.445805 8.787613 -5.199551
v 6.445228 8.527613 -5.193698
v 6.445228 8.787613 -5.193698
v 6.443521 8.527613 -5.188071
v 6.443521 8.787613 -5.188071
v 6.440749 8.527613 -5.182884
v 6.440749 8.787613 -5.182884
v 6.437017 8.527613 -5.178338
v 6.437017 8.787613 -5.178338
v 6.432471 8.527613 -5.174607
v 6.432471 8.787613 -5.174607
v 6.427285 8.527613 -5.171835
v 6.427285 8.787613 -5.171835
v 6.421657 8.527613 -5.170127
v 6.421657 8.787613 -5.170127
v 6.415804 8.527613 -5.169551
v 6.415804 8.787613 -5.169551
v 6.409952 8.527613 -5.170127
v 6.409952 8.787613 -5.170127
v 6.404324 8.527613 -5.171835
v 6.404324 8.787613 -5.171835
v 6.399137 8.527613 -5.174607
v 6.399137 8.787613 -5.174607
v 6.394591 8.527613 -5.178338
v 6.394591 8.787613 -5.178338
v 6.390860 8.527613 -5.182884
v 6.390860 8.787613 -5.182884
v 6.388088 8.527613 -5.188071
v 6.388088 8.787613 -5.188071
v 6.386381 8.527613 -5.193698
v 6.386381 8.787613 -5.193698
v 6.385804 8.527613 -5.199551
v 6.385804 8.787613 -5.199551
v 6.386381 8.527613 -5.205404
v 6.386381 8.787613 -5.205404
v 6.388088 8.527613 -5.211031
v 6.388088 8.787613 -5.211031
v 6.390861 8.527613 -5.216218
v 6.390861 8.787613 -5.216218
v 6.394591 8.527613 -5.220764
v 6.394591 8.787613 -5.220764
v 6.399137 8.527613 -5.224495
v 6.399137 8.787613 -5.224495
v 6.404324 8.527613 -5.227268
v 6.404324 8.787613 -5.227268
v 6.409952 8.527613 -5.228975
v 6.409952 8.787613 -5.228975
vt 1.000000 0.500000
vt 1.000000 1.000000
vt 0.968750 1.000000
vt 0.968750 0.500000
vt 0.937500 1.000000
vt 0.937500 0.500000
vt 0.906250 1.000000
vt 0.906250 0.500000
vt 0.875000 1.000000
vt 0.875000 0.500000
vt 0.843750 1.000000
vt 0.843750 0.500000
vt 0.812500 1.000000
vt 0.812500 0.500000
vt 0.781250 1.000000
vt 0.781250 0.500000
vt 0.750000 1.000000
vt 0.750000 0.500000
vt 0.718750 1.000000
vt 0.718750 0.500000
vt 0.687500 1.000000
vt 0.687500 0.500000
vt 0.656250 1.000000
vt 0.656250 0.500000
vt 0.625000 1.000000
vt 0.625000 0.500000
vt 0.593750 1.000000
vt 0.593750 0.500000
vt 0.562500 1.000000
vt 0.562500 0.500000
vt 0.531250 1.000000
vt 0.531250 0.500000
vt 0.500000 1.000000
vt 0.500000 0.500000
vt 0.468750 1.000000
vt 0.468750 0.500000
vt 0.437500 1.000000
vt 0.437500 0.500000
vt 0.406250 1.000000
vt 0.406250 0.500000
vt 0.375000 1.000000
vt 0.375000 0.500000
vt 0.343750 1.000000
vt 0.343750 0.500000
vt 0.312500 1.000000
vt 0.312500 0.500000
vt 0.281250 1.000000
vt 0.281250 0.500000
vt 0.250000 1.000000
vt 0.250000 0.500000
vt 0.218750 1.000000
vt 0.218750 0.500000
vt 0.187500 1.000000
vt 0.187500 0.500000
vt 0.156250 1.000000
vt 0.156250 0.500000
vt 0.125000 1.000000
vt 0.125000 0.500000
vt 0.093750 1.000000
vt 0.093750 0.500000
vt 0.062500 1.000000
vt 0.062500 0.500000
vt 0.296822 0.485388
vt 0.250000 0.490000
vt 0.203179 0.485389
vt 0.158156 0.471731
vt 0.116663 0.449553
vt 0.080295 0.419706
vt 0.050447 0.383337
vt 0.028269 0.341844
vt 0.014612 0.296822
vt 0.010000 0.250000
vt 0.014611 0.203179
vt 0.028269 0.158156
vt 0.050447 0.116663
vt 0.080294 0.080294
vt 0.116663 0.050447
vt 0.158156 0.028269
vt 0.203178 0.014612
vt 0.250000 0.010000
vt 0.296822 0.014612
vt 0.341844 0.028269
vt 0.383337 0.050447
vt 0.419706 0.080294
vt 0.449553 0.116663
vt 0.471731 0.158156
vt 0.485388 0.203178
vt 0.490000 0.250000
vt 0.485388 0.296822
vt 0.471731 0.341844
vt 0.449553 0.383337
vt 0.419706 0.419706
vt 0.383337 0.449553
vt 0.341844 0.471731
vt 0.031250 1.000000
vt 0.031250 0.500000
vt 0.000000 1.000000
vt 0.000000 0.500000
vt 0.750000 0.490000
vt 0.796822 0.485388
vt 0.841844 0.471731
vt 0.883337 0.449553
vt 0.919706 0.419706
vt 0.949553 0.383337
vt 0.971731 0.341844
vt 0.985388 0.296822
vt 0.990000 0.250000
vt 0.985388 0.203178
vt 0.971731 0.158156
vt 0.949553 0.116663
vt 0.919706 0.080294
vt 0.883337 0.050447
vt 0.841844 0.028269
vt 0.796822 0.014612
vt 0.750000 0.010000
vt 0.703178 0.014612
vt 0.658156 0.028269
vt 0.616663 0.050447
vt 0.580294 0.080294
vt 0.550447 0.116663
vt 0.528269 0.158156
vt 0.514611 0.203179
vt 0.510000 0.250000
vt 0.514612 0.296822
vt 0.528269 0.341844
vt 0.550447 0.383337
vt 0.580295 0.419706
vt 0.616663 0.449553
vt 0.658156 0.471731
vt 0.703179 0.485389
vn 0.0981 0.0000 -0.9952
vn 0.2903 0.0000 -0.9569
vn 0.4714 0.0000 -0.8819
vn 0.6344 0.0000 -0.7730
vn 0.7730 0.0000 -0.6344
vn 0.8819 0.0000 -0.4713
vn 0.9569 0.0000 -0.2904
vn 0.9952 0.0000 -0.0980
vn 0.9952 0.0000 0.0980
vn 0.9569 0.0000 0.2904
vn 0.8819 0.0000 0.4713
vn 0.7730 0.0000 0.6344
vn 0.6344 0.0000 0.7730
vn 0.4713 0.0000 0.8820
vn 0.2903 0.0000 0.9569
vn 0.0981 0.0000 0.9952
vn -0.0981 0.0000 0.9952
vn -0.2903 0.0000 0.9569
vn -0.4713 0.0000 0.8820
vn -0.6344 0.0000 0.7730
vn -0.7730 0.0000 0.6344
vn -0.8819 0.0000 0.4713
vn -0.9569 0.0000 0.2904
vn -0.9952 0.0000 0.0980
vn -0.9952 0.0000 -0.0980
vn -0.9569 0.0000 -0.2904
vn -0.8819 0.0000 -0.4714
vn -0.7730 0.0000 -0.6344
vn -0.6344 0.0000 -0.7730
vn -0.4714 0.0000 -0.8819
vn 0.0000 1.0000 0.0000
vn -0.2903 0.0000 -0.9569
vn -0.0981 0.0000 -0.9952
vn 0.0000 -1.0000 -0.0000
usemtl None
s off
f 197/239/41 198/240/41 200/241/41 199/242/41
f 199/242/42 200/241/42 202/243/42 201/244/42
f 201/244/43 202/243/43 204/245/43 203/246/43
f 203/246/44 204/245/44 206/247/44 205/248/44
f 205/248/45 206/247/45 208/249/45 207/250/45
f 207/250/46 208/249/46 210/251/46 209/252/46
f 209/252/47 210/251/47 212/253/47 211/254/47
f 211/254/48 212/253/48 214/255/48 213/256/48
f 213/256/49 214/255/49 216/257/49 215/258/49
f 215/258/50 216/257/50 218/259/50 217/260/50
f 217/260/51 218/259/51 220/261/51 219/262/51
f 219/262/52 220/261/52 222/263/52 221/264/52
f 221/264/53 222/263/53 224/265/53 223/266/53
f 223/266/54 224/265/54 226/267/54 225/268/54
f 225/268/55 226/267/55 228/269/55 227/270/55
f 227/270/56 228/269/56 230/271/56 229/272/56
f 229/272/57 230/271/57 232/273/57 231/274/57
f 231/274/58 232/273/58 234/275/58 233/276/58
f 233/276/59 234/275/59 236/277/59 235/278/59
f 235/278/60 236/277/60 238/279/60 237/280/60
f 237/280/61 238/279/61 240/281/61 239/282/61
f 239/282/62 240/281/62 242/283/62 241/284/62
f 241/284/63 242/283/63 244/285/63 243/286/63
f 243/286/64 244/285/64 246/287/64 245/288/64
f 245/288/65 246/287/65 248/289/65 247/290/65
f 247/290/66 248/289/66 250/291/66 249/292/66
f 249/292/67 250/291/67 252/293/67 251/294/67
f 251/294/68 252/293/68 254/295/68 253/296/68
f 253/296/69 254/295/69 256/297/69 255/298/69
f 255/298/70 256/297/70 258/299/70 257/300/70
f 200/301/71 198/302/71 260/303/71 258/304/71 256/305/71 254/306/71 252/307/71 250/308/71 248/309/71 246/310/71 244/311/71 242/312/71 240/313/71 238/314/71 236/315/71 234/316/71 232/317/71 230/318/71 228/319/71 226/320/71 224/321/71 222/322/71 220/323/71 218/324/71 216/325/71 214/326/71 212/327/71 210/328/71 208/329/71 206/330/71 204/331/71 202/332/71
f 257/300/72 258/299/72 260/333/72 259/334/72
f 259/334/73 260/333/73 198/335/73 197/336/73
f 197/337/74 199/338/74 201/339/74 203/340/74 205/341/74 207/342/74 209/343/74 211/344/74 213/345/74 215/346/74 217/347/74 219/348/74 221/349/74 223/350/74 225/351/74 227/352/74 229/353/74 231/354/74 233/355/74 235/356/74 237/357/74 239/358/74 241/359/74 243/360/74 245/361/74 247/362/74 249/363/74 251/364/74 253/365/74 255/366/74 257/367/74 259/368/74
