# Blender v2.92.0 OBJ File: ''
# www.blender.org
mtllib Droid_head_new.mtl
o Droid_head_new
v 5.700000 7.500001 -5.599998
v 5.700000 7.400001 -5.599998
v 5.700000 7.400001 -4.699998
v 5.700000 8.100001 -4.699998
v 5.700000 7.500001 -5.699998
v 5.700000 8.100001 -5.699998
v 5.800000 7.700001 -4.599998
v 5.800000 7.400001 -4.699998
v 5.800000 7.400001 -4.599998
v 5.800000 8.000001 -4.499999
v 5.800000 7.700001 -4.499999
v 5.800000 8.000001 -4.599998
v 5.800000 8.100001 -4.699998
v 5.800000 8.200001 -4.599998
v 5.800000 8.100001 -5.699998
v 5.800000 8.200001 -5.699998
v 5.900000 7.700001 -4.499999
v 5.900000 7.600001 -4.599998
v 5.900000 7.600001 -4.499999
v 5.900000 7.700001 -4.599998
v 5.900000 8.100001 -4.499999
v 5.900000 8.000001 -4.599998
v 5.900000 8.000001 -4.499999
v 5.900000 8.100001 -4.599998
v 6.100000 8.000001 -4.499999
v 6.100000 7.700001 -4.599998
v 6.100000 7.700001 -4.499999
v 6.100000 8.000001 -4.599998
v 5.900000 7.700001 -4.499999
v 5.900000 7.700001 -4.599998
v 5.900000 8.000001 -4.499999
v 5.900000 8.000001 -4.599998
v 6.100000 7.600001 -4.499999
v 6.100000 7.600001 -4.599998
v 6.100000 7.700001 -4.499999
v 6.100000 7.700001 -4.599998
v 6.100000 8.000001 -4.499999
v 6.100000 8.000001 -4.599998
v 6.100000 8.100001 -4.499999
v 6.100000 8.100001 -4.599998
v 6.200000 7.400001 -4.599998
v 6.200000 7.400001 -4.699998
v 6.200000 7.700001 -4.599998
v 6.200000 7.700001 -4.499999
v 6.200000 8.000001 -4.499999
v 6.200000 8.000001 -4.599998
v 6.200000 8.100001 -4.699998
v 6.200000 8.200001 -4.599998
v 6.200000 8.100001 -5.699998
v 6.200000 8.200001 -5.699998
v 6.300000 7.400001 -4.699998
v 6.300000 7.400001 -5.599998
v 6.300000 7.500001 -5.599998
v 6.300000 8.100001 -4.699998
v 6.300000 7.500001 -5.699998
v 6.300000 8.100001 -5.699998
v 5.900000 7.700001 -4.499999
v 5.800000 8.000001 -4.499999
v 5.800000 7.700001 -4.499999
v 5.900000 8.000001 -4.499999
v 6.100000 7.600001 -4.499999
v 5.900000 7.600001 -4.499999
v 6.100000 7.700001 -4.499999
v 6.100000 8.000001 -4.499999
v 5.900000 8.100001 -4.499999
v 6.100000 8.100001 -4.499999
v 6.200000 7.700001 -4.499999
v 6.200000 8.000001 -4.499999
v 5.900000 7.600001 -4.599998
v 5.800000 7.700001 -4.599998
v 5.800000 7.400001 -4.599998
v 5.900000 7.700001 -4.599998
v 5.900000 8.000001 -4.599998
v 5.800000 8.200001 -4.599998
v 5.800000 8.000001 -4.599998
v 5.900000 8.100001 -4.599998
v 6.100000 7.600001 -4.599998
v 6.100000 7.700001 -4.599998
v 6.100000 8.000001 -4.599998
v 6.100000 8.100001 -4.599998
v 6.200000 7.400001 -4.599998
v 6.200000 7.700001 -4.599998
v 6.200000 8.000001 -4.599998
v 6.200000 8.200001 -4.599998
v 5.800000 7.400001 -4.699998
v 5.700000 8.100001 -4.699998
v 5.700000 7.400001 -4.699998
v 5.800000 8.100001 -4.699998
v 6.300000 7.400001 -4.699998
v 6.200000 8.100001 -4.699998
v 6.200000 7.400001 -4.699998
v 6.300000 8.100001 -4.699998
v 5.700000 7.400001 -5.599998
v 5.700000 7.500001 -5.599998
v 6.300000 7.400001 -5.599998
v 6.300000 7.500001 -5.599998
v 5.700000 7.500001 -5.699998
v 5.700000 8.100001 -5.699998
v 5.800000 8.100001 -5.699998
v 6.200000 8.100001 -5.699998
v 5.800000 8.200001 -5.699998
v 6.200000 8.200001 -5.699998
v 6.300000 7.500001 -5.699998
v 6.300000 8.100001 -5.699998
v 5.800000 7.400001 -4.699998
v 6.200000 7.400001 -4.599998
v 5.800000 7.400001 -4.599998
v 6.200000 7.400001 -4.699998
v 5.700000 7.400001 -5.599998
v 5.700000 7.400001 -4.699998
v 6.300000 7.400001 -4.699998
v 6.300000 7.400001 -5.599998
v 5.700000 7.500001 -5.699998
v 6.300000 7.500001 -5.599998
v 5.700000 7.500001 -5.599998
v 6.300000 7.500001 -5.699998
v 5.900000 7.600001 -4.599998
v 6.100000 7.600001 -4.499999
v 5.900000 7.600001 -4.499999
v 6.100000 7.600001 -4.599998
v 5.800000 7.700001 -4.599998
v 5.900000 7.700001 -4.499999
v 5.800000 7.700001 -4.499999
v 5.900000 7.700001 -4.599998
v 6.100000 7.700001 -4.599998
v 6.200000 7.700001 -4.499999
v 6.100000 7.700001 -4.499999
v 6.200000 7.700001 -4.599998
v 5.900000 8.000001 -4.599998
v 6.100000 8.000001 -4.499999
v 5.900000 8.000001 -4.499999
v 6.100000 8.000001 -4.599998
v 5.900000 7.700001 -4.499999
v 6.100000 7.700001 -4.499999
v 5.900000 7.700001 -4.599998
v 6.100000 7.700001 -4.599998
v 5.800000 8.000001 -4.499999
v 5.900000 8.000001 -4.499999
v 5.800000 8.000001 -4.599998
v 5.900000 8.000001 -4.599998
v 6.100000 8.000001 -4.499999
v 6.200000 8.000001 -4.499999
v 6.100000 8.000001 -4.599998
v 6.200000 8.000001 -4.599998
v 5.900000 8.100001 -4.499999
v 6.100000 8.100001 -4.499999
v 5.900000 8.100001 -4.599998
v 6.100000 8.100001 -4.599998
v 5.700000 8.100001 -4.699998
v 5.800000 8.100001 -4.699998
v 5.700000 8.100001 -5.699998
v 5.800000 8.100001 -5.699998
v 6.200000 8.100001 -4.699998
v 6.300000 8.100001 -4.699998
v 6.200000 8.100001 -5.699998
v 6.300000 8.100001 -5.699998
v 5.800000 8.200001 -4.599998
v 6.200000 8.200001 -4.599998
v 5.800000 8.200001 -5.699998
v 6.200000 8.200001 -5.699998
vt 0.970703 0.500000
vt 0.970703 0.500000
vt 0.970703 0.500000
vt 0.970703 0.500000
vt 0.970703 0.500000
vt 0.970703 0.500000
vt 0.982422 0.500000
vt 0.982422 0.500000
vt 0.982422 0.500000
vt 0.982422 0.500000
vt 0.982422 0.500000
vt 0.982422 0.500000
vt 0.982422 0.500000
vt 0.982422 0.500000
vt 0.982422 0.500000
vt 0.982422 0.500000
vt 0.982422 0.500000
vt 0.982422 0.500000
vt 0.982422 0.500000
vt 0.982422 0.500000
vt 0.982422 0.500000
vt 0.982422 0.500000
vt 0.982422 0.500000
vt 0.982422 0.500000
vt 0.982422 0.500000
vt 0.982422 0.500000
vt 0.982422 0.500000
vt 0.982422 0.500000
vt 0.982422 0.500000
vt 0.982422 0.500000
vt 0.982422 0.500000
vt 0.982422 0.500000
vt 0.982422 0.500000
vt 0.982422 0.500000
vt 0.982422 0.500000
vt 0.982422 0.500000
vt 0.982422 0.500000
vt 0.982422 0.500000
vt 0.982422 0.500000
vt 0.982422 0.500000
vt 0.982422 0.500000
vt 0.982422 0.500000
vt 0.982422 0.500000
vt 0.982422 0.500000
vt 0.982422 0.500000
vt 0.982422 0.500000
vt 0.982422 0.500000
vt 0.982422 0.500000
vt 0.982422 0.500000
vt 0.982422 0.500000
vt 0.970703 0.500000
vt 0.970703 0.500000
vt 0.970703 0.500000
vt 0.970703 0.500000
vt 0.970703 0.500000
vt 0.970703 0.500000
vt 0.982422 0.500000
vt 0.982422 0.500000
vt 0.982422 0.500000
vt 0.982422 0.500000
vt 0.982422 0.500000
vt 0.982422 0.500000
vt 0.982422 0.500000
vt 0.982422 0.500000
vt 0.982422 0.500000
vt 0.982422 0.500000
vt 0.982422 0.500000
vt 0.982422 0.500000
vt 0.982422 0.500000
vt 0.982422 0.500000
vt 0.982422 0.500000
vt 0.982422 0.500000
vt 0.982422 0.500000
vt 0.982422 0.500000
vt 0.982422 0.500000
vt 0.982422 0.500000
vt 0.982422 0.500000
vt 0.982422 0.500000
vt 0.982422 0.500000
vt 0.982422 0.500000
vt 0.982422 0.500000
vt 0.982422 0.500000
vt 0.982422 0.500000
vt 0.982422 0.500000
vt 0.970703 0.500000
vt 0.970703 0.500000
vt 0.970703 0.500000
vt 0.970703 0.500000
vt 0.970703 0.500000
vt 0.970703 0.500000
vt 0.970703 0.500000
vt 0.970703 0.500000
vt 0.970703 0.500000
vt 0.970703 0.500000
vt 0.970703 0.500000
vt 0.970703 0.500000
vt 0.970703 0.500000
vt 0.970703 0.500000
vt 0.970703 0.500000
vt 0.970703 0.500000
vt 0.982422 0.500000
vt 0.982422 0.500000
vt 0.982422 0.500000
vt 0.982422 0.500000
vt 0.970703 0.500000
vt 0.970703 0.500000
vt 0.982422 0.500000
vt 0.982422 0.500000
vt 0.982422 0.500000
vt 0.982422 0.500000
vt 0.970703 0.500000
vt 0.970703 0.500000
vt 0.970703 0.500000
vt 0.970703 0.500000
vt 0.970703 0.500000
vt 0.970703 0.500000
vt 0.970703 0.500000
vt 0.970703 0.500000
vt 0.970703 0.500000
vt 0.970703 0.500000
vt 0.982422 0.500000
vt 0.982422 0.500000
vt 0.982422 0.500000
vt 0.982422 0.500000
vt 0.982422 0.500000
vt 0.982422 0.500000
vt 0.982422 0.500000
vt 0.982422 0.500000
vt 0.982422 0.500000
vt 0.982422 0.500000
vt 0.982422 0.500000
vt 0.982422 0.500000
vt 0.982422 0.500000
vt 0.982422 0.500000
vt 0.982422 0.500000
vt 0.982422 0.500000
vt 0.982422 0.500000
vt 0.982422 0.500000
vt 0.982422 0.500000
vt 0.982422 0.500000
vt 0.982422 0.500000
vt 0.982422 0.500000
vt 0.982422 0.500000
vt 0.982422 0.500000
vt 0.982422 0.500000
vt 0.982422 0.500000
vt 0.982422 0.500000
vt 0.982422 0.500000
vt 0.982422 0.500000
vt 0.982422 0.500000
vt 0.982422 0.500000
vt 0.982422 0.500000
vt 0.970703 0.500000
vt 0.970703 0.500000
vt 0.970703 0.500000
vt 0.970703 0.500000
vt 0.970703 0.500000
vt 0.970703 0.500000
vt 0.970703 0.500000
vt 0.970703 0.500000
vt 0.982422 0.500000
vt 0.982422 0.500000
vt 0.982422 0.500000
vt 0.982422 0.500000
vn -1.0000 -0.0000 0.0000
vn 1.0000 0.0000 0.0000
vn 0.0000 0.0000 1.0000
vn 0.0000 0.0000 -1.0000
vn 0.0000 -1.0000 0.0000
vn 0.0000 1.0000 0.0000
usemtl palette
s 1
f 1/1/1 2/2/1 3/3/1
f 4/4/1 1/1/1 3/3/1
f 4/4/1 5/5/1 1/1/1
f 6/6/1 5/5/1 4/4/1
f 7/7/1 8/8/1 9/9/1
f 10/10/1 7/7/1 11/11/1
f 12/12/1 8/8/1 7/7/1
f 12/12/1 7/7/1 10/10/1
f 13/13/1 8/8/1 12/12/1
f 14/14/1 13/13/1 12/12/1
f 14/14/1 15/15/1 13/13/1
f 16/16/1 15/15/1 14/14/1
f 17/17/1 18/18/1 19/19/1
f 20/20/1 18/18/1 17/17/1
f 21/21/1 22/22/1 23/23/1
f 24/24/1 22/22/1 21/21/1
f 25/25/1 26/26/1 27/27/1
f 28/28/1 26/26/1 25/25/1
f 29/29/2 30/30/2 31/31/2
f 31/31/2 30/30/2 32/32/2
f 33/33/2 34/34/2 35/35/2
f 35/35/2 34/34/2 36/36/2
f 37/37/2 38/38/2 39/39/2
f 39/39/2 38/38/2 40/40/2
f 41/41/2 42/42/2 43/43/2
f 44/44/2 43/43/2 45/45/2
f 43/43/2 42/42/2 46/46/2
f 45/45/2 43/43/2 46/46/2
f 46/46/2 42/42/2 47/47/2
f 46/46/2 47/47/2 48/48/2
f 47/47/2 49/49/2 48/48/2
f 48/48/2 49/49/2 50/50/2
f 51/51/2 52/52/2 53/53/2
f 51/51/2 53/53/2 54/54/2
f 53/53/2 55/55/2 54/54/2
f 54/54/2 55/55/2 56/56/2
f 57/57/3 58/58/3 59/59/3
f 60/60/3 58/58/3 57/57/3
f 61/61/3 57/57/3 62/62/3
f 63/63/3 57/57/3 61/61/3
f 64/64/3 65/65/3 60/60/3
f 66/66/3 65/65/3 64/64/3
f 67/67/3 64/64/3 63/63/3
f 68/68/3 64/64/3 67/67/3
f 69/69/3 70/70/3 71/71/3
f 72/72/3 70/70/3 69/69/3
f 73/73/3 74/74/3 75/75/3
f 76/76/3 74/74/3 73/73/3
f 77/77/3 69/69/3 71/71/3
f 78/78/3 73/73/3 72/72/3
f 79/79/3 73/73/3 78/78/3
f 80/80/3 74/74/3 76/76/3
f 81/81/3 77/77/3 71/71/3
f 81/81/3 78/78/3 77/77/3
f 82/82/3 78/78/3 81/81/3
f 83/83/3 80/80/3 79/79/3
f 84/84/3 74/74/3 80/80/3
f 84/84/3 80/80/3 83/83/3
f 85/85/3 86/86/3 87/87/3
f 88/88/3 86/86/3 85/85/3
f 89/89/3 90/90/3 91/91/3
f 92/92/3 90/90/3 89/89/3
f 93/93/4 94/94/4 95/95/4
f 95/95/4 94/94/4 96/96/4
f 97/97/4 98/98/4 99/99/4
f 97/97/4 99/99/4 100/100/4
f 99/101/4 101/102/4 100/103/4
f 100/103/4 101/102/4 102/104/4
f 97/97/4 100/100/4 103/105/4
f 103/105/4 100/100/4 104/106/4
f 105/107/5 106/108/5 107/109/5
f 108/110/5 106/108/5 105/107/5
f 109/111/5 105/112/5 110/113/5
f 109/111/5 111/114/5 108/115/5
f 109/111/5 108/115/5 105/112/5
f 112/116/5 111/114/5 109/111/5
f 113/117/5 114/118/5 115/119/5
f 116/120/5 114/118/5 113/117/5
f 117/121/5 118/122/5 119/123/5
f 120/124/5 118/122/5 117/121/5
f 121/125/5 122/126/5 123/127/5
f 124/128/5 122/126/5 121/125/5
f 125/129/5 126/130/5 127/131/5
f 128/132/5 126/130/5 125/129/5
f 129/133/5 130/134/5 131/135/5
f 132/136/5 130/134/5 129/133/5
f 133/137/6 134/138/6 135/139/6
f 135/139/6 134/138/6 136/140/6
f 137/141/6 138/142/6 139/143/6
f 139/143/6 138/142/6 140/144/6
f 141/145/6 142/146/6 143/147/6
f 143/147/6 142/146/6 144/148/6
f 145/149/6 146/150/6 147/151/6
f 147/151/6 146/150/6 148/152/6
f 149/153/6 150/154/6 151/155/6
f 151/155/6 150/154/6 152/156/6
f 153/157/6 154/158/6 155/159/6
f 155/159/6 154/158/6 156/160/6
f 157/161/6 158/162/6 159/163/6
f 159/163/6 158/162/6 160/164/6
o Cube_Cube.001
v 5.218108 7.413650 -4.548628
v 5.218108 7.455369 -4.485628
v 5.129367 7.455369 -4.548628
v 5.218108 8.206321 -4.485628
v 5.218108 8.248040 -4.548628
v 5.129367 8.206321 -4.548628
v 5.218108 7.413650 -5.682632
v 5.129367 7.455369 -5.682632
v 5.218108 7.455369 -5.745632
v 5.218108 8.248040 -5.682632
v 5.218108 8.206321 -5.745632
v 5.129367 8.206321 -5.682632
v 6.815450 7.413650 -4.548628
v 6.904191 7.455369 -4.548628
v 6.815450 7.455369 -4.485628
v 6.815450 8.248040 -4.548628
v 6.815450 8.206321 -4.485628
v 6.904191 8.206321 -4.548628
v 6.815450 7.413650 -5.682632
v 6.815450 7.455369 -5.745632
v 6.904191 7.455369 -5.682632
v 6.815450 8.248040 -5.682632
v 6.904191 8.206321 -5.682632
v 6.815450 8.206321 -5.745632
vt 0.387500 0.762500
vt 0.612500 0.762500
vt 0.612500 0.987500
vt 0.387500 0.987500
vt 0.387500 0.512500
vt 0.612500 0.512500
vt 0.612500 0.737500
vt 0.387500 0.737500
vt 0.637500 0.512500
vt 0.862500 0.512500
vt 0.862500 0.737500
vt 0.637500 0.737500
vt 0.387500 0.012500
vt 0.612500 0.012500
vt 0.612500 0.237500
vt 0.387500 0.237500
vt 0.387500 0.262500
vt 0.612500 0.262500
vt 0.612500 0.487500
vt 0.387500 0.487500
vt 0.137500 0.737500
vt 0.137500 0.750000
vt 0.125000 0.737500
vt 0.625000 0.987500
vt 0.612500 1.000000
vt 0.137500 0.512500
vt 0.125000 0.512500
vt 0.137500 0.500000
vt 0.625000 0.262500
vt 0.625000 0.262500
vt 0.612500 0.250000
vt 0.362500 0.737500
vt 0.375000 0.737500
vt 0.362500 0.750000
vt 0.625000 0.762500
vt 0.625000 0.762500
vt 0.612500 0.750000
vt 0.362500 0.512500
vt 0.362500 0.500000
vt 0.375000 0.512500
vt 0.625000 0.512500
vt 0.625000 0.512500
vt 0.612500 0.500000
vt 0.387500 0.000000
vt 0.612500 0.000000
vt 0.625000 0.012500
vt 0.625000 0.237500
vt 0.625000 0.487500
vn 0.0000 0.0000 1.0000
vn 1.0000 0.0000 0.0000
vn 0.0000 1.0000 0.0000
vn -1.0000 0.0000 0.0000
vn 0.0000 0.0000 -1.0000
vn -0.3649 -0.7762 0.5141
vn -0.3649 0.7763 0.5140
vn -0.3649 -0.7762 -0.5141
vn -0.3649 0.7763 -0.5140
vn 0.3649 -0.7762 0.5141
vn 0.3649 0.7763 0.5141
vn 0.3649 -0.7762 -0.5141
vn 0.3649 0.7763 -0.5141
vn -0.4255 -0.9050 0.0000
vn -0.5789 0.0000 0.8154
vn -0.4255 0.9050 0.0000
vn -0.5789 0.0000 -0.8154
vn 0.0000 -0.8338 -0.5521
vn 0.0000 0.8338 -0.5521
vn 0.5789 0.0000 -0.8154
vn 0.4255 -0.9050 0.0000
vn 0.4255 0.9050 0.0000
vn 0.5789 0.0000 0.8154
vn 0.0000 -0.8338 0.5521
vn 0.0000 0.8338 0.5521
vn 0.0000 -1.0000 0.0000
usemtl None
s off
f 175/165/7 177/166/7 164/167/7 162/168/7
f 181/169/8 183/170/8 178/171/8 174/172/8
f 182/173/9 170/174/9 165/175/9 176/176/9
f 163/177/10 166/178/10 172/179/10 168/180/10
f 169/181/11 171/182/11 184/183/11 180/184/11
f 161/185/12 162/186/12 163/187/12
f 164/167/13 165/188/13 166/189/13
f 167/190/14 168/191/14 169/192/14
f 170/193/15 171/194/15 172/195/15
f 173/196/16 174/197/16 175/198/16
f 176/199/17 177/200/17 178/201/17
f 179/202/18 180/203/18 181/204/18
f 182/205/19 183/206/19 184/207/19
f 167/190/20 161/185/20 163/187/20 168/191/20
f 162/208/21 164/209/21 166/178/21 163/177/21
f 165/210/22 170/211/22 172/179/22 166/178/22
f 171/182/23 169/181/23 168/180/23 172/179/23
f 179/202/24 167/190/24 169/192/24 180/203/24
f 170/193/25 182/212/25 184/183/25 171/182/25
f 183/170/26 181/169/26 180/184/26 184/183/26
f 173/196/27 179/202/27 181/169/27 174/172/27
f 182/173/28 176/176/28 178/171/28 183/170/28
f 177/166/29 175/165/29 174/172/29 178/171/29
f 161/185/30 173/196/30 175/198/30 162/186/30
f 176/199/31 165/188/31 164/167/31 177/166/31
f 167/190/32 179/202/32 173/196/32 161/185/32
